M48
; DRILL file {KiCad 9.0.6-9.0.6~ubuntu24.04.1} date 2025-12-04T09:52:35-0300
; FORMAT={-:-/ absolute / metric / decimal}
; #@! TF.CreationDate,2025-12-04T09:52:35-03:00
; #@! TF.GenerationSoftware,Kicad,Pcbnew,9.0.6-9.0.6~ubuntu24.04.1
; #@! TF.FileFunction,Plated,1,2,PTH
FMAT,2
METRIC
; #@! TA.AperFunction,Plated,PTH,ComponentDrill
T1C0.800
; #@! TA.AperFunction,Plated,PTH,ComponentDrill
T2C1.000
%
G90
G05
T1
X24.92Y-30.0
X24.92Y-32.54
X24.92Y-35.08
X24.92Y-37.62
X24.92Y-40.16
X24.92Y-42.7
X24.92Y-45.24
X24.92Y-47.78
X24.92Y-50.32
X24.92Y-52.86
X24.92Y-55.4
X24.92Y-57.94
X24.92Y-60.48
X24.92Y-63.02
X24.92Y-65.56
X24.92Y-68.1
X24.92Y-70.64
X24.92Y-73.18
X24.92Y-75.72
X24.92Y-78.26
X24.92Y-80.8
X24.92Y-83.34
X24.92Y-85.88
X24.92Y-88.42
X24.92Y-90.96
X24.92Y-93.5
X24.92Y-96.04
X24.92Y-98.58
X24.92Y-101.12
X24.92Y-103.66
X24.92Y-106.2
X24.92Y-108.74
X27.46Y-30.0
X27.46Y-32.54
X27.46Y-35.08
X27.46Y-37.62
X27.46Y-40.16
X27.46Y-42.7
X27.46Y-45.24
X27.46Y-47.78
X27.46Y-50.32
X27.46Y-52.86
X27.46Y-55.4
X27.46Y-57.94
X27.46Y-60.48
X27.46Y-63.02
X27.46Y-65.56
X27.46Y-68.1
X27.46Y-70.64
X27.46Y-73.18
X27.46Y-75.72
X27.46Y-78.26
X27.46Y-80.8
X27.46Y-83.34
X27.46Y-85.88
X27.46Y-88.42
X27.46Y-90.96
X27.46Y-93.5
X27.46Y-96.04
X27.46Y-98.58
X27.46Y-101.12
X27.46Y-103.66
X27.46Y-106.2
X27.46Y-108.74
X30.0Y-30.0
X30.0Y-32.54
X30.0Y-35.08
X30.0Y-37.62
X30.0Y-40.16
X30.0Y-42.7
X30.0Y-45.24
X30.0Y-47.78
X30.0Y-50.32
X30.0Y-52.86
X30.0Y-55.4
X30.0Y-57.94
X30.0Y-60.48
X30.0Y-63.02
X30.0Y-65.56
X30.0Y-68.1
X30.0Y-70.64
X30.0Y-73.18
X30.0Y-75.72
X30.0Y-78.26
X30.0Y-80.8
X30.0Y-83.34
X30.0Y-85.88
X30.0Y-88.42
X30.0Y-90.96
X30.0Y-93.5
X30.0Y-96.04
X30.0Y-98.58
X30.0Y-101.12
X30.0Y-103.66
X30.0Y-106.2
X30.0Y-108.74
X39.92Y-30.0
X39.92Y-32.54
X39.92Y-35.08
X39.92Y-37.62
X39.92Y-40.16
X39.92Y-42.7
X39.92Y-45.24
X39.92Y-47.78
X39.92Y-50.32
X39.92Y-52.86
X39.92Y-55.4
X39.92Y-57.94
X39.92Y-60.48
X39.92Y-63.02
X39.92Y-65.56
X39.92Y-68.1
X39.92Y-70.64
X39.92Y-73.18
X39.92Y-75.72
X39.92Y-78.26
X39.92Y-80.8
X39.92Y-83.34
X39.92Y-85.88
X39.92Y-88.42
X39.92Y-90.96
X39.92Y-93.5
X39.92Y-96.04
X39.92Y-98.58
X39.92Y-101.12
X39.92Y-103.66
X39.92Y-106.2
X39.92Y-108.74
X42.46Y-30.0
X42.46Y-32.54
X42.46Y-35.08
X42.46Y-37.62
X42.46Y-40.16
X42.46Y-42.7
X42.46Y-45.24
X42.46Y-47.78
X42.46Y-50.32
X42.46Y-52.86
X42.46Y-55.4
X42.46Y-57.94
X42.46Y-60.48
X42.46Y-63.02
X42.46Y-65.56
X42.46Y-68.1
X42.46Y-70.64
X42.46Y-73.18
X42.46Y-75.72
X42.46Y-78.26
X42.46Y-80.8
X42.46Y-83.34
X42.46Y-85.88
X42.46Y-88.42
X42.46Y-90.96
X42.46Y-93.5
X42.46Y-96.04
X42.46Y-98.58
X42.46Y-101.12
X42.46Y-103.66
X42.46Y-106.2
X42.46Y-108.74
X45.0Y-30.0
X45.0Y-32.54
X45.0Y-35.08
X45.0Y-37.62
X45.0Y-40.16
X45.0Y-42.7
X45.0Y-45.24
X45.0Y-47.78
X45.0Y-50.32
X45.0Y-52.86
X45.0Y-55.4
X45.0Y-57.94
X45.0Y-60.48
X45.0Y-63.02
X45.0Y-65.56
X45.0Y-68.1
X45.0Y-70.64
X45.0Y-73.18
X45.0Y-75.72
X45.0Y-78.26
X45.0Y-80.8
X45.0Y-83.34
X45.0Y-85.88
X45.0Y-88.42
X45.0Y-90.96
X45.0Y-93.5
X45.0Y-96.04
X45.0Y-98.58
X45.0Y-101.12
X45.0Y-103.66
X45.0Y-106.2
X45.0Y-108.74
X54.92Y-30.0
X54.92Y-32.54
X54.92Y-35.08
X54.92Y-37.62
X54.92Y-40.16
X54.92Y-42.7
X54.92Y-45.24
X54.92Y-47.78
X54.92Y-50.32
X54.92Y-52.86
X54.92Y-55.4
X54.92Y-57.94
X54.92Y-60.48
X54.92Y-63.02
X54.92Y-65.56
X54.92Y-68.1
X54.92Y-70.64
X54.92Y-73.18
X54.92Y-75.72
X54.92Y-78.26
X54.92Y-80.8
X54.92Y-83.34
X54.92Y-85.88
X54.92Y-88.42
X54.92Y-90.96
X54.92Y-93.5
X54.92Y-96.04
X54.92Y-98.58
X54.92Y-101.12
X54.92Y-103.66
X54.92Y-106.2
X54.92Y-108.74
X57.46Y-30.0
X57.46Y-32.54
X57.46Y-35.08
X57.46Y-37.62
X57.46Y-40.16
X57.46Y-42.7
X57.46Y-45.24
X57.46Y-47.78
X57.46Y-50.32
X57.46Y-52.86
X57.46Y-55.4
X57.46Y-57.94
X57.46Y-60.48
X57.46Y-63.02
X57.46Y-65.56
X57.46Y-68.1
X57.46Y-70.64
X57.46Y-73.18
X57.46Y-75.72
X57.46Y-78.26
X57.46Y-80.8
X57.46Y-83.34
X57.46Y-85.88
X57.46Y-88.42
X57.46Y-90.96
X57.46Y-93.5
X57.46Y-96.04
X57.46Y-98.58
X57.46Y-101.12
X57.46Y-103.66
X57.46Y-106.2
X57.46Y-108.74
X60.0Y-30.0
X60.0Y-32.54
X60.0Y-35.08
X60.0Y-37.62
X60.0Y-40.16
X60.0Y-42.7
X60.0Y-45.24
X60.0Y-47.78
X60.0Y-50.32
X60.0Y-52.86
X60.0Y-55.4
X60.0Y-57.94
X60.0Y-60.48
X60.0Y-63.02
X60.0Y-65.56
X60.0Y-68.1
X60.0Y-70.64
X60.0Y-73.18
X60.0Y-75.72
X60.0Y-78.26
X60.0Y-80.8
X60.0Y-83.34
X60.0Y-85.88
X60.0Y-88.42
X60.0Y-90.96
X60.0Y-93.5
X60.0Y-96.04
X60.0Y-98.58
X60.0Y-101.12
X60.0Y-103.66
X60.0Y-106.2
X60.0Y-108.74
X69.92Y-30.0
X69.92Y-32.54
X69.92Y-35.08
X69.92Y-37.62
X69.92Y-40.16
X69.92Y-42.7
X69.92Y-45.24
X69.92Y-47.78
X69.92Y-50.32
X69.92Y-52.86
X69.92Y-55.4
X69.92Y-57.94
X69.92Y-60.48
X69.92Y-63.02
X69.92Y-65.56
X69.92Y-68.1
X69.92Y-70.64
X69.92Y-73.18
X69.92Y-75.72
X69.92Y-78.26
X69.92Y-80.8
X69.92Y-83.34
X69.92Y-85.88
X69.92Y-88.42
X69.92Y-90.96
X69.92Y-93.5
X69.92Y-96.04
X69.92Y-98.58
X69.92Y-101.12
X69.92Y-103.66
X69.92Y-106.2
X69.92Y-108.74
X72.46Y-30.0
X72.46Y-32.54
X72.46Y-35.08
X72.46Y-37.62
X72.46Y-40.16
X72.46Y-42.7
X72.46Y-45.24
X72.46Y-47.78
X72.46Y-50.32
X72.46Y-52.86
X72.46Y-55.4
X72.46Y-57.94
X72.46Y-60.48
X72.46Y-63.02
X72.46Y-65.56
X72.46Y-68.1
X72.46Y-70.64
X72.46Y-73.18
X72.46Y-75.72
X72.46Y-78.26
X72.46Y-80.8
X72.46Y-83.34
X72.46Y-85.88
X72.46Y-88.42
X72.46Y-90.96
X72.46Y-93.5
X72.46Y-96.04
X72.46Y-98.58
X72.46Y-101.12
X72.46Y-103.66
X72.46Y-106.2
X72.46Y-108.74
X75.0Y-30.0
X75.0Y-32.54
X75.0Y-35.08
X75.0Y-37.62
X75.0Y-40.16
X75.0Y-42.7
X75.0Y-45.24
X75.0Y-47.78
X75.0Y-50.32
X75.0Y-52.86
X75.0Y-55.4
X75.0Y-57.94
X75.0Y-60.48
X75.0Y-63.02
X75.0Y-65.56
X75.0Y-68.1
X75.0Y-70.64
X75.0Y-73.18
X75.0Y-75.72
X75.0Y-78.26
X75.0Y-80.8
X75.0Y-83.34
X75.0Y-85.88
X75.0Y-88.42
X75.0Y-90.96
X75.0Y-93.5
X75.0Y-96.04
X75.0Y-98.58
X75.0Y-101.12
X75.0Y-103.66
X75.0Y-106.2
X75.0Y-108.74
X84.92Y-30.0
X84.92Y-32.54
X84.92Y-35.08
X84.92Y-37.62
X84.92Y-40.16
X84.92Y-42.7
X84.92Y-45.24
X84.92Y-47.78
X84.92Y-50.32
X84.92Y-52.86
X84.92Y-55.4
X84.92Y-57.94
X84.92Y-60.48
X84.92Y-63.02
X84.92Y-65.56
X84.92Y-68.1
X84.92Y-70.64
X84.92Y-73.18
X84.92Y-75.72
X84.92Y-78.26
X84.92Y-80.8
X84.92Y-83.34
X84.92Y-85.88
X84.92Y-88.42
X84.92Y-90.96
X84.92Y-93.5
X84.92Y-96.04
X84.92Y-98.58
X84.92Y-101.12
X84.92Y-103.66
X84.92Y-106.2
X84.92Y-108.74
X87.46Y-30.0
X87.46Y-32.54
X87.46Y-35.08
X87.46Y-37.62
X87.46Y-40.16
X87.46Y-42.7
X87.46Y-45.24
X87.46Y-47.78
X87.46Y-50.32
X87.46Y-52.86
X87.46Y-55.4
X87.46Y-57.94
X87.46Y-60.48
X87.46Y-63.02
X87.46Y-65.56
X87.46Y-68.1
X87.46Y-70.64
X87.46Y-73.18
X87.46Y-75.72
X87.46Y-78.26
X87.46Y-80.8
X87.46Y-83.34
X87.46Y-85.88
X87.46Y-88.42
X87.46Y-90.96
X87.46Y-93.5
X87.46Y-96.04
X87.46Y-98.58
X87.46Y-101.12
X87.46Y-103.66
X87.46Y-106.2
X87.46Y-108.74
X90.0Y-30.0
X90.0Y-32.54
X90.0Y-35.08
X90.0Y-37.62
X90.0Y-40.16
X90.0Y-42.7
X90.0Y-45.24
X90.0Y-47.78
X90.0Y-50.32
X90.0Y-52.86
X90.0Y-55.4
X90.0Y-57.94
X90.0Y-60.48
X90.0Y-63.02
X90.0Y-65.56
X90.0Y-68.1
X90.0Y-70.64
X90.0Y-73.18
X90.0Y-75.72
X90.0Y-78.26
X90.0Y-80.8
X90.0Y-83.34
X90.0Y-85.88
X90.0Y-88.42
X90.0Y-90.96
X90.0Y-93.5
X90.0Y-96.04
X90.0Y-98.58
X90.0Y-101.12
X90.0Y-103.66
X90.0Y-106.2
X90.0Y-108.74
X99.92Y-30.0
X99.92Y-32.54
X99.92Y-35.08
X99.92Y-37.62
X99.92Y-40.16
X99.92Y-42.7
X99.92Y-45.24
X99.92Y-47.78
X99.92Y-50.32
X99.92Y-52.86
X99.92Y-55.4
X99.92Y-57.94
X99.92Y-60.48
X99.92Y-63.02
X99.92Y-65.56
X99.92Y-68.1
X99.92Y-70.64
X99.92Y-73.18
X99.92Y-75.72
X99.92Y-78.26
X99.92Y-80.8
X99.92Y-83.34
X99.92Y-85.88
X99.92Y-88.42
X99.92Y-90.96
X99.92Y-93.5
X99.92Y-96.04
X99.92Y-98.58
X99.92Y-101.12
X99.92Y-103.66
X99.92Y-106.2
X99.92Y-108.74
X102.46Y-30.0
X102.46Y-32.54
X102.46Y-35.08
X102.46Y-37.62
X102.46Y-40.16
X102.46Y-42.7
X102.46Y-45.24
X102.46Y-47.78
X102.46Y-50.32
X102.46Y-52.86
X102.46Y-55.4
X102.46Y-57.94
X102.46Y-60.48
X102.46Y-63.02
X102.46Y-65.56
X102.46Y-68.1
X102.46Y-70.64
X102.46Y-73.18
X102.46Y-75.72
X102.46Y-78.26
X102.46Y-80.8
X102.46Y-83.34
X102.46Y-85.88
X102.46Y-88.42
X102.46Y-90.96
X102.46Y-93.5
X102.46Y-96.04
X102.46Y-98.58
X102.46Y-101.12
X102.46Y-103.66
X102.46Y-106.2
X102.46Y-108.74
X105.0Y-30.0
X105.0Y-32.54
X105.0Y-35.08
X105.0Y-37.62
X105.0Y-40.16
X105.0Y-42.7
X105.0Y-45.24
X105.0Y-47.78
X105.0Y-50.32
X105.0Y-52.86
X105.0Y-55.4
X105.0Y-57.94
X105.0Y-60.48
X105.0Y-63.02
X105.0Y-65.56
X105.0Y-68.1
X105.0Y-70.64
X105.0Y-73.18
X105.0Y-75.72
X105.0Y-78.26
X105.0Y-80.8
X105.0Y-83.34
X105.0Y-85.88
X105.0Y-88.42
X105.0Y-90.96
X105.0Y-93.5
X105.0Y-96.04
X105.0Y-98.58
X105.0Y-101.12
X105.0Y-103.66
X105.0Y-106.2
X105.0Y-108.74
X114.92Y-30.0
X114.92Y-32.54
X114.92Y-35.08
X114.92Y-37.62
X114.92Y-40.16
X114.92Y-42.7
X114.92Y-45.24
X114.92Y-47.78
X114.92Y-50.32
X114.92Y-52.86
X114.92Y-55.4
X114.92Y-57.94
X114.92Y-60.48
X114.92Y-63.02
X114.92Y-65.56
X114.92Y-68.1
X114.92Y-70.64
X114.92Y-73.18
X114.92Y-75.72
X114.92Y-78.26
X114.92Y-80.8
X114.92Y-83.34
X114.92Y-85.88
X114.92Y-88.42
X114.92Y-90.96
X114.92Y-93.5
X114.92Y-96.04
X114.92Y-98.58
X114.92Y-101.12
X114.92Y-103.66
X114.92Y-106.2
X114.92Y-108.74
X117.46Y-30.0
X117.46Y-32.54
X117.46Y-35.08
X117.46Y-37.62
X117.46Y-40.16
X117.46Y-42.7
X117.46Y-45.24
X117.46Y-47.78
X117.46Y-50.32
X117.46Y-52.86
X117.46Y-55.4
X117.46Y-57.94
X117.46Y-60.48
X117.46Y-63.02
X117.46Y-65.56
X117.46Y-68.1
X117.46Y-70.64
X117.46Y-73.18
X117.46Y-75.72
X117.46Y-78.26
X117.46Y-80.8
X117.46Y-83.34
X117.46Y-85.88
X117.46Y-88.42
X117.46Y-90.96
X117.46Y-93.5
X117.46Y-96.04
X117.46Y-98.58
X117.46Y-101.12
X117.46Y-103.66
X117.46Y-106.2
X117.46Y-108.74
X120.0Y-30.0
X120.0Y-32.54
X120.0Y-35.08
X120.0Y-37.62
X120.0Y-40.16
X120.0Y-42.7
X120.0Y-45.24
X120.0Y-47.78
X120.0Y-50.32
X120.0Y-52.86
X120.0Y-55.4
X120.0Y-57.94
X120.0Y-60.48
X120.0Y-63.02
X120.0Y-65.56
X120.0Y-68.1
X120.0Y-70.64
X120.0Y-73.18
X120.0Y-75.72
X120.0Y-78.26
X120.0Y-80.8
X120.0Y-83.34
X120.0Y-85.88
X120.0Y-88.42
X120.0Y-90.96
X120.0Y-93.5
X120.0Y-96.04
X120.0Y-98.58
X120.0Y-101.12
X120.0Y-103.66
X120.0Y-106.2
X120.0Y-108.74
X129.92Y-30.0
X129.92Y-32.54
X129.92Y-35.08
X129.92Y-37.62
X129.92Y-40.16
X129.92Y-42.7
X129.92Y-45.24
X129.92Y-47.78
X129.92Y-50.32
X129.92Y-52.86
X129.92Y-55.4
X129.92Y-57.94
X129.92Y-60.48
X129.92Y-63.02
X129.92Y-65.56
X129.92Y-68.1
X129.92Y-70.64
X129.92Y-73.18
X129.92Y-75.72
X129.92Y-78.26
X129.92Y-80.8
X129.92Y-83.34
X129.92Y-85.88
X129.92Y-88.42
X129.92Y-90.96
X129.92Y-93.5
X129.92Y-96.04
X129.92Y-98.58
X129.92Y-101.12
X129.92Y-103.66
X129.92Y-106.2
X129.92Y-108.74
X132.46Y-30.0
X132.46Y-32.54
X132.46Y-35.08
X132.46Y-37.62
X132.46Y-40.16
X132.46Y-42.7
X132.46Y-45.24
X132.46Y-47.78
X132.46Y-50.32
X132.46Y-52.86
X132.46Y-55.4
X132.46Y-57.94
X132.46Y-60.48
X132.46Y-63.02
X132.46Y-65.56
X132.46Y-68.1
X132.46Y-70.64
X132.46Y-73.18
X132.46Y-75.72
X132.46Y-78.26
X132.46Y-80.8
X132.46Y-83.34
X132.46Y-85.88
X132.46Y-88.42
X132.46Y-90.96
X132.46Y-93.5
X132.46Y-96.04
X132.46Y-98.58
X132.46Y-101.12
X132.46Y-103.66
X132.46Y-106.2
X132.46Y-108.74
X135.0Y-30.0
X135.0Y-32.54
X135.0Y-35.08
X135.0Y-37.62
X135.0Y-40.16
X135.0Y-42.7
X135.0Y-45.24
X135.0Y-47.78
X135.0Y-50.32
X135.0Y-52.86
X135.0Y-55.4
X135.0Y-57.94
X135.0Y-60.48
X135.0Y-63.02
X135.0Y-65.56
X135.0Y-68.1
X135.0Y-70.64
X135.0Y-73.18
X135.0Y-75.72
X135.0Y-78.26
X135.0Y-80.8
X135.0Y-83.34
X135.0Y-85.88
X135.0Y-88.42
X135.0Y-90.96
X135.0Y-93.5
X135.0Y-96.04
X135.0Y-98.58
X135.0Y-101.12
X135.0Y-103.66
X135.0Y-106.2
X135.0Y-108.74
X144.92Y-30.0
X144.92Y-32.54
X144.92Y-35.08
X144.92Y-37.62
X144.92Y-40.16
X144.92Y-42.7
X144.92Y-45.24
X144.92Y-47.78
X144.92Y-50.32
X144.92Y-52.86
X144.92Y-55.4
X144.92Y-57.94
X144.92Y-60.48
X144.92Y-63.02
X144.92Y-65.56
X144.92Y-68.1
X144.92Y-70.64
X144.92Y-73.18
X144.92Y-75.72
X144.92Y-78.26
X144.92Y-80.8
X144.92Y-83.34
X144.92Y-85.88
X144.92Y-88.42
X144.92Y-90.96
X144.92Y-93.5
X144.92Y-96.04
X144.92Y-98.58
X144.92Y-101.12
X144.92Y-103.66
X144.92Y-106.2
X144.92Y-108.74
X147.46Y-30.0
X147.46Y-32.54
X147.46Y-35.08
X147.46Y-37.62
X147.46Y-40.16
X147.46Y-42.7
X147.46Y-45.24
X147.46Y-47.78
X147.46Y-50.32
X147.46Y-52.86
X147.46Y-55.4
X147.46Y-57.94
X147.46Y-60.48
X147.46Y-63.02
X147.46Y-65.56
X147.46Y-68.1
X147.46Y-70.64
X147.46Y-73.18
X147.46Y-75.72
X147.46Y-78.26
X147.46Y-80.8
X147.46Y-83.34
X147.46Y-85.88
X147.46Y-88.42
X147.46Y-90.96
X147.46Y-93.5
X147.46Y-96.04
X147.46Y-98.58
X147.46Y-101.12
X147.46Y-103.66
X147.46Y-106.2
X147.46Y-108.74
X150.0Y-30.0
X150.0Y-32.54
X150.0Y-35.08
X150.0Y-37.62
X150.0Y-40.16
X150.0Y-42.7
X150.0Y-45.24
X150.0Y-47.78
X150.0Y-50.32
X150.0Y-52.86
X150.0Y-55.4
X150.0Y-57.94
X150.0Y-60.48
X150.0Y-63.02
X150.0Y-65.56
X150.0Y-68.1
X150.0Y-70.64
X150.0Y-73.18
X150.0Y-75.72
X150.0Y-78.26
X150.0Y-80.8
X150.0Y-83.34
X150.0Y-85.88
X150.0Y-88.42
X150.0Y-90.96
X150.0Y-93.5
X150.0Y-96.04
X150.0Y-98.58
X150.0Y-101.12
X150.0Y-103.66
X150.0Y-106.2
X150.0Y-108.74
X154.92Y-30.0
X154.92Y-32.54
X154.92Y-35.08
X154.92Y-37.62
X154.92Y-40.16
X154.92Y-42.7
X154.92Y-45.24
X154.92Y-47.78
X154.92Y-50.32
X154.92Y-52.86
X154.92Y-55.4
X154.92Y-57.94
X154.92Y-60.48
X154.92Y-63.02
X154.92Y-65.56
X154.92Y-68.1
X154.92Y-70.64
X154.92Y-73.18
X154.92Y-75.72
X154.92Y-78.26
X154.92Y-80.8
X154.92Y-83.34
X154.92Y-85.88
X154.92Y-88.42
X154.92Y-90.96
X154.92Y-93.5
X154.92Y-96.04
X154.92Y-98.58
X154.92Y-101.12
X154.92Y-103.66
X154.92Y-106.2
X154.92Y-108.74
X157.46Y-30.0
X157.46Y-32.54
X157.46Y-35.08
X157.46Y-37.62
X157.46Y-40.16
X157.46Y-42.7
X157.46Y-45.24
X157.46Y-47.78
X157.46Y-50.32
X157.46Y-52.86
X157.46Y-55.4
X157.46Y-57.94
X157.46Y-60.48
X157.46Y-63.02
X157.46Y-65.56
X157.46Y-68.1
X157.46Y-70.64
X157.46Y-73.18
X157.46Y-75.72
X157.46Y-78.26
X157.46Y-80.8
X157.46Y-83.34
X157.46Y-85.88
X157.46Y-88.42
X157.46Y-90.96
X157.46Y-93.5
X157.46Y-96.04
X157.46Y-98.58
X157.46Y-101.12
X157.46Y-103.66
X157.46Y-106.2
X157.46Y-108.74
X160.0Y-30.0
X160.0Y-32.54
X160.0Y-35.08
X160.0Y-37.62
X160.0Y-40.16
X160.0Y-42.7
X160.0Y-45.24
X160.0Y-47.78
X160.0Y-50.32
X160.0Y-52.86
X160.0Y-55.4
X160.0Y-57.94
X160.0Y-60.48
X160.0Y-63.02
X160.0Y-65.56
X160.0Y-68.1
X160.0Y-70.64
X160.0Y-73.18
X160.0Y-75.72
X160.0Y-78.26
X160.0Y-80.8
X160.0Y-83.34
X160.0Y-85.88
X160.0Y-88.42
X160.0Y-90.96
X160.0Y-93.5
X160.0Y-96.04
X160.0Y-98.58
X160.0Y-101.12
X160.0Y-103.66
X160.0Y-106.2
X160.0Y-108.74
T2
X17.915Y-41.1
X17.915Y-45.05
X20.0Y-96.405
X20.0Y-98.945
X20.07Y-102.945
X20.07Y-105.485
X20.455Y-41.1
X20.455Y-45.05
M30
