%TF.GenerationSoftware,KiCad,Pcbnew,9.0.6-9.0.6~ubuntu24.04.1*%
%TF.CreationDate,2025-12-04T09:52:22-03:00*%
%TF.ProjectId,backplanev5,6261636b-706c-4616-9e65-76352e6b6963,A*%
%TF.SameCoordinates,Original*%
%TF.FileFunction,Soldermask,Bot*%
%TF.FilePolarity,Negative*%
%FSLAX46Y46*%
G04 Gerber Fmt 4.6, Leading zero omitted, Abs format (unit mm)*
G04 Created by KiCad (PCBNEW 9.0.6-9.0.6~ubuntu24.04.1) date 2025-12-04 09:52:22*
%MOMM*%
%LPD*%
G01*
G04 APERTURE LIST*
G04 Aperture macros list*
%AMRoundRect*
0 Rectangle with rounded corners*
0 $1 Rounding radius*
0 $2 $3 $4 $5 $6 $7 $8 $9 X,Y pos of 4 corners*
0 Add a 4 corners polygon primitive as box body*
4,1,4,$2,$3,$4,$5,$6,$7,$8,$9,$2,$3,0*
0 Add four circle primitives for the rounded corners*
1,1,$1+$1,$2,$3*
1,1,$1+$1,$4,$5*
1,1,$1+$1,$6,$7*
1,1,$1+$1,$8,$9*
0 Add four rect primitives between the rounded corners*
20,1,$1+$1,$2,$3,$4,$5,0*
20,1,$1+$1,$4,$5,$6,$7,0*
20,1,$1+$1,$6,$7,$8,$9,0*
20,1,$1+$1,$8,$9,$2,$3,0*%
G04 Aperture macros list end*
%ADD10C,3.200000*%
%ADD11R,1.700000X1.700000*%
%ADD12C,1.700000*%
%ADD13RoundRect,0.127000X-0.508000X-0.508000X0.508000X-0.508000X0.508000X0.508000X-0.508000X0.508000X0*%
%ADD14RoundRect,0.127000X0.508000X0.508000X-0.508000X0.508000X-0.508000X-0.508000X0.508000X-0.508000X0*%
G04 APERTURE END LIST*
D10*
%TO.C,H6*%
X90030000Y-115070000D03*
%TD*%
%TO.C,H5*%
X90030000Y-24930000D03*
%TD*%
%TO.C,H4*%
X160060000Y-24930000D03*
%TD*%
%TO.C,H3*%
X160060000Y-115070000D03*
%TD*%
%TO.C,H2*%
X20000000Y-115070000D03*
%TD*%
%TO.C,H1*%
X20000000Y-24930000D03*
%TD*%
D11*
%TO.C,J11*%
X20455000Y-41100000D03*
D12*
X17915000Y-41100000D03*
%TD*%
D13*
%TO.C,J10*%
X154920000Y-30000000D03*
X154920000Y-32540000D03*
X154920000Y-35080000D03*
X154920000Y-37620000D03*
X154920000Y-40160000D03*
X154920000Y-42700000D03*
X154920000Y-45240000D03*
X154920000Y-47780000D03*
X154920000Y-50320000D03*
X154920000Y-52860000D03*
X154920000Y-55400000D03*
X154920000Y-57940000D03*
X154920000Y-60480000D03*
X154920000Y-63020000D03*
X154920000Y-65560000D03*
X154920000Y-68100000D03*
X154920000Y-70640000D03*
X154920000Y-73180000D03*
X154920000Y-75720000D03*
X154920000Y-78260000D03*
X154920000Y-80800000D03*
X154920000Y-83340000D03*
X154920000Y-85880000D03*
X154920000Y-88420000D03*
X154920000Y-90960000D03*
X154920000Y-93500000D03*
X154920000Y-96040000D03*
X154920000Y-98580000D03*
X154920000Y-101120000D03*
X154920000Y-103660000D03*
X154920000Y-106200000D03*
X154920000Y-108740000D03*
D14*
X157460000Y-30000000D03*
X157460000Y-32540000D03*
X157460000Y-35080000D03*
X157460000Y-37620000D03*
X157460000Y-40160000D03*
X157460000Y-42700000D03*
X157460000Y-45240000D03*
X157460000Y-47780000D03*
X157460000Y-50320000D03*
X157460000Y-52860000D03*
X157460000Y-55400000D03*
X157460000Y-57940000D03*
X157460000Y-60480000D03*
X157460000Y-63020000D03*
X157460000Y-65560000D03*
X157460000Y-68100000D03*
X157460000Y-70640000D03*
X157460000Y-73180000D03*
X157460000Y-75720000D03*
X157460000Y-78260000D03*
X157460000Y-80800000D03*
X157460000Y-83340000D03*
X157460000Y-85880000D03*
X157460000Y-88420000D03*
X157460000Y-90960000D03*
X157460000Y-93500000D03*
X157460000Y-96040000D03*
X157460000Y-98580000D03*
X157460000Y-101120000D03*
X157460000Y-103660000D03*
X157460000Y-106200000D03*
X157460000Y-108740000D03*
D13*
X160000000Y-30000000D03*
X160000000Y-32540000D03*
X160000000Y-35080000D03*
X160000000Y-37620000D03*
X160000000Y-40160000D03*
X160000000Y-42700000D03*
X160000000Y-45240000D03*
X160000000Y-47780000D03*
X160000000Y-50320000D03*
X160000000Y-52860000D03*
X160000000Y-55400000D03*
X160000000Y-57940000D03*
X160000000Y-60480000D03*
X160000000Y-63020000D03*
X160000000Y-65560000D03*
X160000000Y-68100000D03*
X160000000Y-70640000D03*
X160000000Y-73180000D03*
X160000000Y-75720000D03*
X160000000Y-78260000D03*
X160000000Y-80800000D03*
X160000000Y-83340000D03*
X160000000Y-85880000D03*
X160000000Y-88420000D03*
X160000000Y-90960000D03*
X160000000Y-93500000D03*
X160000000Y-96040000D03*
X160000000Y-98580000D03*
X160000000Y-101120000D03*
X160000000Y-103660000D03*
X160000000Y-106200000D03*
X160000000Y-108740000D03*
%TD*%
%TO.C,J4*%
X69920000Y-30000000D03*
X69920000Y-32540000D03*
X69920000Y-35080000D03*
X69920000Y-37620000D03*
X69920000Y-40160000D03*
X69920000Y-42700000D03*
X69920000Y-45240000D03*
X69920000Y-47780000D03*
X69920000Y-50320000D03*
X69920000Y-52860000D03*
X69920000Y-55400000D03*
X69920000Y-57940000D03*
X69920000Y-60480000D03*
X69920000Y-63020000D03*
X69920000Y-65560000D03*
X69920000Y-68100000D03*
X69920000Y-70640000D03*
X69920000Y-73180000D03*
X69920000Y-75720000D03*
X69920000Y-78260000D03*
X69920000Y-80800000D03*
X69920000Y-83340000D03*
X69920000Y-85880000D03*
X69920000Y-88420000D03*
X69920000Y-90960000D03*
X69920000Y-93500000D03*
X69920000Y-96040000D03*
X69920000Y-98580000D03*
X69920000Y-101120000D03*
X69920000Y-103660000D03*
X69920000Y-106200000D03*
X69920000Y-108740000D03*
D14*
X72460000Y-30000000D03*
X72460000Y-32540000D03*
X72460000Y-35080000D03*
X72460000Y-37620000D03*
X72460000Y-40160000D03*
X72460000Y-42700000D03*
X72460000Y-45240000D03*
X72460000Y-47780000D03*
X72460000Y-50320000D03*
X72460000Y-52860000D03*
X72460000Y-55400000D03*
X72460000Y-57940000D03*
X72460000Y-60480000D03*
X72460000Y-63020000D03*
X72460000Y-65560000D03*
X72460000Y-68100000D03*
X72460000Y-70640000D03*
X72460000Y-73180000D03*
X72460000Y-75720000D03*
X72460000Y-78260000D03*
X72460000Y-80800000D03*
X72460000Y-83340000D03*
X72460000Y-85880000D03*
X72460000Y-88420000D03*
X72460000Y-90960000D03*
X72460000Y-93500000D03*
X72460000Y-96040000D03*
X72460000Y-98580000D03*
X72460000Y-101120000D03*
X72460000Y-103660000D03*
X72460000Y-106200000D03*
X72460000Y-108740000D03*
D13*
X75000000Y-30000000D03*
X75000000Y-32540000D03*
X75000000Y-35080000D03*
X75000000Y-37620000D03*
X75000000Y-40160000D03*
X75000000Y-42700000D03*
X75000000Y-45240000D03*
X75000000Y-47780000D03*
X75000000Y-50320000D03*
X75000000Y-52860000D03*
X75000000Y-55400000D03*
X75000000Y-57940000D03*
X75000000Y-60480000D03*
X75000000Y-63020000D03*
X75000000Y-65560000D03*
X75000000Y-68100000D03*
X75000000Y-70640000D03*
X75000000Y-73180000D03*
X75000000Y-75720000D03*
X75000000Y-78260000D03*
X75000000Y-80800000D03*
X75000000Y-83340000D03*
X75000000Y-85880000D03*
X75000000Y-88420000D03*
X75000000Y-90960000D03*
X75000000Y-93500000D03*
X75000000Y-96040000D03*
X75000000Y-98580000D03*
X75000000Y-101120000D03*
X75000000Y-103660000D03*
X75000000Y-106200000D03*
X75000000Y-108740000D03*
%TD*%
%TO.C,J7*%
X114920000Y-30000000D03*
X114920000Y-32540000D03*
X114920000Y-35080000D03*
X114920000Y-37620000D03*
X114920000Y-40160000D03*
X114920000Y-42700000D03*
X114920000Y-45240000D03*
X114920000Y-47780000D03*
X114920000Y-50320000D03*
X114920000Y-52860000D03*
X114920000Y-55400000D03*
X114920000Y-57940000D03*
X114920000Y-60480000D03*
X114920000Y-63020000D03*
X114920000Y-65560000D03*
X114920000Y-68100000D03*
X114920000Y-70640000D03*
X114920000Y-73180000D03*
X114920000Y-75720000D03*
X114920000Y-78260000D03*
X114920000Y-80800000D03*
X114920000Y-83340000D03*
X114920000Y-85880000D03*
X114920000Y-88420000D03*
X114920000Y-90960000D03*
X114920000Y-93500000D03*
X114920000Y-96040000D03*
X114920000Y-98580000D03*
X114920000Y-101120000D03*
X114920000Y-103660000D03*
X114920000Y-106200000D03*
X114920000Y-108740000D03*
D14*
X117460000Y-30000000D03*
X117460000Y-32540000D03*
X117460000Y-35080000D03*
X117460000Y-37620000D03*
X117460000Y-40160000D03*
X117460000Y-42700000D03*
X117460000Y-45240000D03*
X117460000Y-47780000D03*
X117460000Y-50320000D03*
X117460000Y-52860000D03*
X117460000Y-55400000D03*
X117460000Y-57940000D03*
X117460000Y-60480000D03*
X117460000Y-63020000D03*
X117460000Y-65560000D03*
X117460000Y-68100000D03*
X117460000Y-70640000D03*
X117460000Y-73180000D03*
X117460000Y-75720000D03*
X117460000Y-78260000D03*
X117460000Y-80800000D03*
X117460000Y-83340000D03*
X117460000Y-85880000D03*
X117460000Y-88420000D03*
X117460000Y-90960000D03*
X117460000Y-93500000D03*
X117460000Y-96040000D03*
X117460000Y-98580000D03*
X117460000Y-101120000D03*
X117460000Y-103660000D03*
X117460000Y-106200000D03*
X117460000Y-108740000D03*
D13*
X120000000Y-30000000D03*
X120000000Y-32540000D03*
X120000000Y-35080000D03*
X120000000Y-37620000D03*
X120000000Y-40160000D03*
X120000000Y-42700000D03*
X120000000Y-45240000D03*
X120000000Y-47780000D03*
X120000000Y-50320000D03*
X120000000Y-52860000D03*
X120000000Y-55400000D03*
X120000000Y-57940000D03*
X120000000Y-60480000D03*
X120000000Y-63020000D03*
X120000000Y-65560000D03*
X120000000Y-68100000D03*
X120000000Y-70640000D03*
X120000000Y-73180000D03*
X120000000Y-75720000D03*
X120000000Y-78260000D03*
X120000000Y-80800000D03*
X120000000Y-83340000D03*
X120000000Y-85880000D03*
X120000000Y-88420000D03*
X120000000Y-90960000D03*
X120000000Y-93500000D03*
X120000000Y-96040000D03*
X120000000Y-98580000D03*
X120000000Y-101120000D03*
X120000000Y-103660000D03*
X120000000Y-106200000D03*
X120000000Y-108740000D03*
%TD*%
%TO.C,J1*%
X24920000Y-30000000D03*
X24920000Y-32540000D03*
X24920000Y-35080000D03*
X24920000Y-37620000D03*
X24920000Y-40160000D03*
X24920000Y-42700000D03*
X24920000Y-45240000D03*
X24920000Y-47780000D03*
X24920000Y-50320000D03*
X24920000Y-52860000D03*
X24920000Y-55400000D03*
X24920000Y-57940000D03*
X24920000Y-60480000D03*
X24920000Y-63020000D03*
X24920000Y-65560000D03*
X24920000Y-68100000D03*
X24920000Y-70640000D03*
X24920000Y-73180000D03*
X24920000Y-75720000D03*
X24920000Y-78260000D03*
X24920000Y-80800000D03*
X24920000Y-83340000D03*
X24920000Y-85880000D03*
X24920000Y-88420000D03*
X24920000Y-90960000D03*
X24920000Y-93500000D03*
X24920000Y-96040000D03*
X24920000Y-98580000D03*
X24920000Y-101120000D03*
X24920000Y-103660000D03*
X24920000Y-106200000D03*
X24920000Y-108740000D03*
D14*
X27460000Y-30000000D03*
X27460000Y-32540000D03*
X27460000Y-35080000D03*
X27460000Y-37620000D03*
X27460000Y-40160000D03*
X27460000Y-42700000D03*
X27460000Y-45240000D03*
X27460000Y-47780000D03*
X27460000Y-50320000D03*
X27460000Y-52860000D03*
X27460000Y-55400000D03*
X27460000Y-57940000D03*
X27460000Y-60480000D03*
X27460000Y-63020000D03*
X27460000Y-65560000D03*
X27460000Y-68100000D03*
X27460000Y-70640000D03*
X27460000Y-73180000D03*
X27460000Y-75720000D03*
X27460000Y-78260000D03*
X27460000Y-80800000D03*
X27460000Y-83340000D03*
X27460000Y-85880000D03*
X27460000Y-88420000D03*
X27460000Y-90960000D03*
X27460000Y-93500000D03*
X27460000Y-96040000D03*
X27460000Y-98580000D03*
X27460000Y-101120000D03*
X27460000Y-103660000D03*
X27460000Y-106200000D03*
X27460000Y-108740000D03*
D13*
X30000000Y-30000000D03*
X30000000Y-32540000D03*
X30000000Y-35080000D03*
X30000000Y-37620000D03*
X30000000Y-40160000D03*
X30000000Y-42700000D03*
X30000000Y-45240000D03*
X30000000Y-47780000D03*
X30000000Y-50320000D03*
X30000000Y-52860000D03*
X30000000Y-55400000D03*
X30000000Y-57940000D03*
X30000000Y-60480000D03*
X30000000Y-63020000D03*
X30000000Y-65560000D03*
X30000000Y-68100000D03*
X30000000Y-70640000D03*
X30000000Y-73180000D03*
X30000000Y-75720000D03*
X30000000Y-78260000D03*
X30000000Y-80800000D03*
X30000000Y-83340000D03*
X30000000Y-85880000D03*
X30000000Y-88420000D03*
X30000000Y-90960000D03*
X30000000Y-93500000D03*
X30000000Y-96040000D03*
X30000000Y-98580000D03*
X30000000Y-101120000D03*
X30000000Y-103660000D03*
X30000000Y-106200000D03*
X30000000Y-108740000D03*
%TD*%
D11*
%TO.C,J13*%
X20000000Y-98945000D03*
D12*
X20000000Y-96405000D03*
%TD*%
D13*
%TO.C,J8*%
X129920000Y-30000000D03*
X129920000Y-32540000D03*
X129920000Y-35080000D03*
X129920000Y-37620000D03*
X129920000Y-40160000D03*
X129920000Y-42700000D03*
X129920000Y-45240000D03*
X129920000Y-47780000D03*
X129920000Y-50320000D03*
X129920000Y-52860000D03*
X129920000Y-55400000D03*
X129920000Y-57940000D03*
X129920000Y-60480000D03*
X129920000Y-63020000D03*
X129920000Y-65560000D03*
X129920000Y-68100000D03*
X129920000Y-70640000D03*
X129920000Y-73180000D03*
X129920000Y-75720000D03*
X129920000Y-78260000D03*
X129920000Y-80800000D03*
X129920000Y-83340000D03*
X129920000Y-85880000D03*
X129920000Y-88420000D03*
X129920000Y-90960000D03*
X129920000Y-93500000D03*
X129920000Y-96040000D03*
X129920000Y-98580000D03*
X129920000Y-101120000D03*
X129920000Y-103660000D03*
X129920000Y-106200000D03*
X129920000Y-108740000D03*
D14*
X132460000Y-30000000D03*
X132460000Y-32540000D03*
X132460000Y-35080000D03*
X132460000Y-37620000D03*
X132460000Y-40160000D03*
X132460000Y-42700000D03*
X132460000Y-45240000D03*
X132460000Y-47780000D03*
X132460000Y-50320000D03*
X132460000Y-52860000D03*
X132460000Y-55400000D03*
X132460000Y-57940000D03*
X132460000Y-60480000D03*
X132460000Y-63020000D03*
X132460000Y-65560000D03*
X132460000Y-68100000D03*
X132460000Y-70640000D03*
X132460000Y-73180000D03*
X132460000Y-75720000D03*
X132460000Y-78260000D03*
X132460000Y-80800000D03*
X132460000Y-83340000D03*
X132460000Y-85880000D03*
X132460000Y-88420000D03*
X132460000Y-90960000D03*
X132460000Y-93500000D03*
X132460000Y-96040000D03*
X132460000Y-98580000D03*
X132460000Y-101120000D03*
X132460000Y-103660000D03*
X132460000Y-106200000D03*
X132460000Y-108740000D03*
D13*
X135000000Y-30000000D03*
X135000000Y-32540000D03*
X135000000Y-35080000D03*
X135000000Y-37620000D03*
X135000000Y-40160000D03*
X135000000Y-42700000D03*
X135000000Y-45240000D03*
X135000000Y-47780000D03*
X135000000Y-50320000D03*
X135000000Y-52860000D03*
X135000000Y-55400000D03*
X135000000Y-57940000D03*
X135000000Y-60480000D03*
X135000000Y-63020000D03*
X135000000Y-65560000D03*
X135000000Y-68100000D03*
X135000000Y-70640000D03*
X135000000Y-73180000D03*
X135000000Y-75720000D03*
X135000000Y-78260000D03*
X135000000Y-80800000D03*
X135000000Y-83340000D03*
X135000000Y-85880000D03*
X135000000Y-88420000D03*
X135000000Y-90960000D03*
X135000000Y-93500000D03*
X135000000Y-96040000D03*
X135000000Y-98580000D03*
X135000000Y-101120000D03*
X135000000Y-103660000D03*
X135000000Y-106200000D03*
X135000000Y-108740000D03*
%TD*%
%TO.C,J2*%
X39920000Y-30000000D03*
X39920000Y-32540000D03*
X39920000Y-35080000D03*
X39920000Y-37620000D03*
X39920000Y-40160000D03*
X39920000Y-42700000D03*
X39920000Y-45240000D03*
X39920000Y-47780000D03*
X39920000Y-50320000D03*
X39920000Y-52860000D03*
X39920000Y-55400000D03*
X39920000Y-57940000D03*
X39920000Y-60480000D03*
X39920000Y-63020000D03*
X39920000Y-65560000D03*
X39920000Y-68100000D03*
X39920000Y-70640000D03*
X39920000Y-73180000D03*
X39920000Y-75720000D03*
X39920000Y-78260000D03*
X39920000Y-80800000D03*
X39920000Y-83340000D03*
X39920000Y-85880000D03*
X39920000Y-88420000D03*
X39920000Y-90960000D03*
X39920000Y-93500000D03*
X39920000Y-96040000D03*
X39920000Y-98580000D03*
X39920000Y-101120000D03*
X39920000Y-103660000D03*
X39920000Y-106200000D03*
X39920000Y-108740000D03*
D14*
X42460000Y-30000000D03*
X42460000Y-32540000D03*
X42460000Y-35080000D03*
X42460000Y-37620000D03*
X42460000Y-40160000D03*
X42460000Y-42700000D03*
X42460000Y-45240000D03*
X42460000Y-47780000D03*
X42460000Y-50320000D03*
X42460000Y-52860000D03*
X42460000Y-55400000D03*
X42460000Y-57940000D03*
X42460000Y-60480000D03*
X42460000Y-63020000D03*
X42460000Y-65560000D03*
X42460000Y-68100000D03*
X42460000Y-70640000D03*
X42460000Y-73180000D03*
X42460000Y-75720000D03*
X42460000Y-78260000D03*
X42460000Y-80800000D03*
X42460000Y-83340000D03*
X42460000Y-85880000D03*
X42460000Y-88420000D03*
X42460000Y-90960000D03*
X42460000Y-93500000D03*
X42460000Y-96040000D03*
X42460000Y-98580000D03*
X42460000Y-101120000D03*
X42460000Y-103660000D03*
X42460000Y-106200000D03*
X42460000Y-108740000D03*
D13*
X45000000Y-30000000D03*
X45000000Y-32540000D03*
X45000000Y-35080000D03*
X45000000Y-37620000D03*
X45000000Y-40160000D03*
X45000000Y-42700000D03*
X45000000Y-45240000D03*
X45000000Y-47780000D03*
X45000000Y-50320000D03*
X45000000Y-52860000D03*
X45000000Y-55400000D03*
X45000000Y-57940000D03*
X45000000Y-60480000D03*
X45000000Y-63020000D03*
X45000000Y-65560000D03*
X45000000Y-68100000D03*
X45000000Y-70640000D03*
X45000000Y-73180000D03*
X45000000Y-75720000D03*
X45000000Y-78260000D03*
X45000000Y-80800000D03*
X45000000Y-83340000D03*
X45000000Y-85880000D03*
X45000000Y-88420000D03*
X45000000Y-90960000D03*
X45000000Y-93500000D03*
X45000000Y-96040000D03*
X45000000Y-98580000D03*
X45000000Y-101120000D03*
X45000000Y-103660000D03*
X45000000Y-106200000D03*
X45000000Y-108740000D03*
%TD*%
%TO.C,J9*%
X144920000Y-30000000D03*
X144920000Y-32540000D03*
X144920000Y-35080000D03*
X144920000Y-37620000D03*
X144920000Y-40160000D03*
X144920000Y-42700000D03*
X144920000Y-45240000D03*
X144920000Y-47780000D03*
X144920000Y-50320000D03*
X144920000Y-52860000D03*
X144920000Y-55400000D03*
X144920000Y-57940000D03*
X144920000Y-60480000D03*
X144920000Y-63020000D03*
X144920000Y-65560000D03*
X144920000Y-68100000D03*
X144920000Y-70640000D03*
X144920000Y-73180000D03*
X144920000Y-75720000D03*
X144920000Y-78260000D03*
X144920000Y-80800000D03*
X144920000Y-83340000D03*
X144920000Y-85880000D03*
X144920000Y-88420000D03*
X144920000Y-90960000D03*
X144920000Y-93500000D03*
X144920000Y-96040000D03*
X144920000Y-98580000D03*
X144920000Y-101120000D03*
X144920000Y-103660000D03*
X144920000Y-106200000D03*
X144920000Y-108740000D03*
D14*
X147460000Y-30000000D03*
X147460000Y-32540000D03*
X147460000Y-35080000D03*
X147460000Y-37620000D03*
X147460000Y-40160000D03*
X147460000Y-42700000D03*
X147460000Y-45240000D03*
X147460000Y-47780000D03*
X147460000Y-50320000D03*
X147460000Y-52860000D03*
X147460000Y-55400000D03*
X147460000Y-57940000D03*
X147460000Y-60480000D03*
X147460000Y-63020000D03*
X147460000Y-65560000D03*
X147460000Y-68100000D03*
X147460000Y-70640000D03*
X147460000Y-73180000D03*
X147460000Y-75720000D03*
X147460000Y-78260000D03*
X147460000Y-80800000D03*
X147460000Y-83340000D03*
X147460000Y-85880000D03*
X147460000Y-88420000D03*
X147460000Y-90960000D03*
X147460000Y-93500000D03*
X147460000Y-96040000D03*
X147460000Y-98580000D03*
X147460000Y-101120000D03*
X147460000Y-103660000D03*
X147460000Y-106200000D03*
X147460000Y-108740000D03*
D13*
X150000000Y-30000000D03*
X150000000Y-32540000D03*
X150000000Y-35080000D03*
X150000000Y-37620000D03*
X150000000Y-40160000D03*
X150000000Y-42700000D03*
X150000000Y-45240000D03*
X150000000Y-47780000D03*
X150000000Y-50320000D03*
X150000000Y-52860000D03*
X150000000Y-55400000D03*
X150000000Y-57940000D03*
X150000000Y-60480000D03*
X150000000Y-63020000D03*
X150000000Y-65560000D03*
X150000000Y-68100000D03*
X150000000Y-70640000D03*
X150000000Y-73180000D03*
X150000000Y-75720000D03*
X150000000Y-78260000D03*
X150000000Y-80800000D03*
X150000000Y-83340000D03*
X150000000Y-85880000D03*
X150000000Y-88420000D03*
X150000000Y-90960000D03*
X150000000Y-93500000D03*
X150000000Y-96040000D03*
X150000000Y-98580000D03*
X150000000Y-101120000D03*
X150000000Y-103660000D03*
X150000000Y-106200000D03*
X150000000Y-108740000D03*
%TD*%
%TO.C,J3*%
X54920000Y-30000000D03*
X54920000Y-32540000D03*
X54920000Y-35080000D03*
X54920000Y-37620000D03*
X54920000Y-40160000D03*
X54920000Y-42700000D03*
X54920000Y-45240000D03*
X54920000Y-47780000D03*
X54920000Y-50320000D03*
X54920000Y-52860000D03*
X54920000Y-55400000D03*
X54920000Y-57940000D03*
X54920000Y-60480000D03*
X54920000Y-63020000D03*
X54920000Y-65560000D03*
X54920000Y-68100000D03*
X54920000Y-70640000D03*
X54920000Y-73180000D03*
X54920000Y-75720000D03*
X54920000Y-78260000D03*
X54920000Y-80800000D03*
X54920000Y-83340000D03*
X54920000Y-85880000D03*
X54920000Y-88420000D03*
X54920000Y-90960000D03*
X54920000Y-93500000D03*
X54920000Y-96040000D03*
X54920000Y-98580000D03*
X54920000Y-101120000D03*
X54920000Y-103660000D03*
X54920000Y-106200000D03*
X54920000Y-108740000D03*
D14*
X57460000Y-30000000D03*
X57460000Y-32540000D03*
X57460000Y-35080000D03*
X57460000Y-37620000D03*
X57460000Y-40160000D03*
X57460000Y-42700000D03*
X57460000Y-45240000D03*
X57460000Y-47780000D03*
X57460000Y-50320000D03*
X57460000Y-52860000D03*
X57460000Y-55400000D03*
X57460000Y-57940000D03*
X57460000Y-60480000D03*
X57460000Y-63020000D03*
X57460000Y-65560000D03*
X57460000Y-68100000D03*
X57460000Y-70640000D03*
X57460000Y-73180000D03*
X57460000Y-75720000D03*
X57460000Y-78260000D03*
X57460000Y-80800000D03*
X57460000Y-83340000D03*
X57460000Y-85880000D03*
X57460000Y-88420000D03*
X57460000Y-90960000D03*
X57460000Y-93500000D03*
X57460000Y-96040000D03*
X57460000Y-98580000D03*
X57460000Y-101120000D03*
X57460000Y-103660000D03*
X57460000Y-106200000D03*
X57460000Y-108740000D03*
D13*
X60000000Y-30000000D03*
X60000000Y-32540000D03*
X60000000Y-35080000D03*
X60000000Y-37620000D03*
X60000000Y-40160000D03*
X60000000Y-42700000D03*
X60000000Y-45240000D03*
X60000000Y-47780000D03*
X60000000Y-50320000D03*
X60000000Y-52860000D03*
X60000000Y-55400000D03*
X60000000Y-57940000D03*
X60000000Y-60480000D03*
X60000000Y-63020000D03*
X60000000Y-65560000D03*
X60000000Y-68100000D03*
X60000000Y-70640000D03*
X60000000Y-73180000D03*
X60000000Y-75720000D03*
X60000000Y-78260000D03*
X60000000Y-80800000D03*
X60000000Y-83340000D03*
X60000000Y-85880000D03*
X60000000Y-88420000D03*
X60000000Y-90960000D03*
X60000000Y-93500000D03*
X60000000Y-96040000D03*
X60000000Y-98580000D03*
X60000000Y-101120000D03*
X60000000Y-103660000D03*
X60000000Y-106200000D03*
X60000000Y-108740000D03*
%TD*%
D11*
%TO.C,J12*%
X20070000Y-105485000D03*
D12*
X20070000Y-102945000D03*
%TD*%
D13*
%TO.C,J5*%
X84920000Y-30000000D03*
X84920000Y-32540000D03*
X84920000Y-35080000D03*
X84920000Y-37620000D03*
X84920000Y-40160000D03*
X84920000Y-42700000D03*
X84920000Y-45240000D03*
X84920000Y-47780000D03*
X84920000Y-50320000D03*
X84920000Y-52860000D03*
X84920000Y-55400000D03*
X84920000Y-57940000D03*
X84920000Y-60480000D03*
X84920000Y-63020000D03*
X84920000Y-65560000D03*
X84920000Y-68100000D03*
X84920000Y-70640000D03*
X84920000Y-73180000D03*
X84920000Y-75720000D03*
X84920000Y-78260000D03*
X84920000Y-80800000D03*
X84920000Y-83340000D03*
X84920000Y-85880000D03*
X84920000Y-88420000D03*
X84920000Y-90960000D03*
X84920000Y-93500000D03*
X84920000Y-96040000D03*
X84920000Y-98580000D03*
X84920000Y-101120000D03*
X84920000Y-103660000D03*
X84920000Y-106200000D03*
X84920000Y-108740000D03*
D14*
X87460000Y-30000000D03*
X87460000Y-32540000D03*
X87460000Y-35080000D03*
X87460000Y-37620000D03*
X87460000Y-40160000D03*
X87460000Y-42700000D03*
X87460000Y-45240000D03*
X87460000Y-47780000D03*
X87460000Y-50320000D03*
X87460000Y-52860000D03*
X87460000Y-55400000D03*
X87460000Y-57940000D03*
X87460000Y-60480000D03*
X87460000Y-63020000D03*
X87460000Y-65560000D03*
X87460000Y-68100000D03*
X87460000Y-70640000D03*
X87460000Y-73180000D03*
X87460000Y-75720000D03*
X87460000Y-78260000D03*
X87460000Y-80800000D03*
X87460000Y-83340000D03*
X87460000Y-85880000D03*
X87460000Y-88420000D03*
X87460000Y-90960000D03*
X87460000Y-93500000D03*
X87460000Y-96040000D03*
X87460000Y-98580000D03*
X87460000Y-101120000D03*
X87460000Y-103660000D03*
X87460000Y-106200000D03*
X87460000Y-108740000D03*
D13*
X90000000Y-30000000D03*
X90000000Y-32540000D03*
X90000000Y-35080000D03*
X90000000Y-37620000D03*
X90000000Y-40160000D03*
X90000000Y-42700000D03*
X90000000Y-45240000D03*
X90000000Y-47780000D03*
X90000000Y-50320000D03*
X90000000Y-52860000D03*
X90000000Y-55400000D03*
X90000000Y-57940000D03*
X90000000Y-60480000D03*
X90000000Y-63020000D03*
X90000000Y-65560000D03*
X90000000Y-68100000D03*
X90000000Y-70640000D03*
X90000000Y-73180000D03*
X90000000Y-75720000D03*
X90000000Y-78260000D03*
X90000000Y-80800000D03*
X90000000Y-83340000D03*
X90000000Y-85880000D03*
X90000000Y-88420000D03*
X90000000Y-90960000D03*
X90000000Y-93500000D03*
X90000000Y-96040000D03*
X90000000Y-98580000D03*
X90000000Y-101120000D03*
X90000000Y-103660000D03*
X90000000Y-106200000D03*
X90000000Y-108740000D03*
%TD*%
D11*
%TO.C,J14*%
X20455000Y-45050000D03*
D12*
X17915000Y-45050000D03*
%TD*%
D13*
%TO.C,J6*%
X99920000Y-30000000D03*
X99920000Y-32540000D03*
X99920000Y-35080000D03*
X99920000Y-37620000D03*
X99920000Y-40160000D03*
X99920000Y-42700000D03*
X99920000Y-45240000D03*
X99920000Y-47780000D03*
X99920000Y-50320000D03*
X99920000Y-52860000D03*
X99920000Y-55400000D03*
X99920000Y-57940000D03*
X99920000Y-60480000D03*
X99920000Y-63020000D03*
X99920000Y-65560000D03*
X99920000Y-68100000D03*
X99920000Y-70640000D03*
X99920000Y-73180000D03*
X99920000Y-75720000D03*
X99920000Y-78260000D03*
X99920000Y-80800000D03*
X99920000Y-83340000D03*
X99920000Y-85880000D03*
X99920000Y-88420000D03*
X99920000Y-90960000D03*
X99920000Y-93500000D03*
X99920000Y-96040000D03*
X99920000Y-98580000D03*
X99920000Y-101120000D03*
X99920000Y-103660000D03*
X99920000Y-106200000D03*
X99920000Y-108740000D03*
D14*
X102460000Y-30000000D03*
X102460000Y-32540000D03*
X102460000Y-35080000D03*
X102460000Y-37620000D03*
X102460000Y-40160000D03*
X102460000Y-42700000D03*
X102460000Y-45240000D03*
X102460000Y-47780000D03*
X102460000Y-50320000D03*
X102460000Y-52860000D03*
X102460000Y-55400000D03*
X102460000Y-57940000D03*
X102460000Y-60480000D03*
X102460000Y-63020000D03*
X102460000Y-65560000D03*
X102460000Y-68100000D03*
X102460000Y-70640000D03*
X102460000Y-73180000D03*
X102460000Y-75720000D03*
X102460000Y-78260000D03*
X102460000Y-80800000D03*
X102460000Y-83340000D03*
X102460000Y-85880000D03*
X102460000Y-88420000D03*
X102460000Y-90960000D03*
X102460000Y-93500000D03*
X102460000Y-96040000D03*
X102460000Y-98580000D03*
X102460000Y-101120000D03*
X102460000Y-103660000D03*
X102460000Y-106200000D03*
X102460000Y-108740000D03*
D13*
X105000000Y-30000000D03*
X105000000Y-32540000D03*
X105000000Y-35080000D03*
X105000000Y-37620000D03*
X105000000Y-40160000D03*
X105000000Y-42700000D03*
X105000000Y-45240000D03*
X105000000Y-47780000D03*
X105000000Y-50320000D03*
X105000000Y-52860000D03*
X105000000Y-55400000D03*
X105000000Y-57940000D03*
X105000000Y-60480000D03*
X105000000Y-63020000D03*
X105000000Y-65560000D03*
X105000000Y-68100000D03*
X105000000Y-70640000D03*
X105000000Y-73180000D03*
X105000000Y-75720000D03*
X105000000Y-78260000D03*
X105000000Y-80800000D03*
X105000000Y-83340000D03*
X105000000Y-85880000D03*
X105000000Y-88420000D03*
X105000000Y-90960000D03*
X105000000Y-93500000D03*
X105000000Y-96040000D03*
X105000000Y-98580000D03*
X105000000Y-101120000D03*
X105000000Y-103660000D03*
X105000000Y-106200000D03*
X105000000Y-108740000D03*
%TD*%
M02*
