%TF.GenerationSoftware,KiCad,Pcbnew,9.0.6-9.0.6~ubuntu24.04.1*%
%TF.CreationDate,2025-12-04T09:52:22-03:00*%
%TF.ProjectId,backplanev5,6261636b-706c-4616-9e65-76352e6b6963,A*%
%TF.SameCoordinates,Original*%
%TF.FileFunction,Copper,L2,Bot*%
%TF.FilePolarity,Positive*%
%FSLAX46Y46*%
G04 Gerber Fmt 4.6, Leading zero omitted, Abs format (unit mm)*
G04 Created by KiCad (PCBNEW 9.0.6-9.0.6~ubuntu24.04.1) date 2025-12-04 09:52:22*
%MOMM*%
%LPD*%
G01*
G04 APERTURE LIST*
G04 Aperture macros list*
%AMRoundRect*
0 Rectangle with rounded corners*
0 $1 Rounding radius*
0 $2 $3 $4 $5 $6 $7 $8 $9 X,Y pos of 4 corners*
0 Add a 4 corners polygon primitive as box body*
4,1,4,$2,$3,$4,$5,$6,$7,$8,$9,$2,$3,0*
0 Add four circle primitives for the rounded corners*
1,1,$1+$1,$2,$3*
1,1,$1+$1,$4,$5*
1,1,$1+$1,$6,$7*
1,1,$1+$1,$8,$9*
0 Add four rect primitives between the rounded corners*
20,1,$1+$1,$2,$3,$4,$5,0*
20,1,$1+$1,$4,$5,$6,$7,0*
20,1,$1+$1,$6,$7,$8,$9,0*
20,1,$1+$1,$8,$9,$2,$3,0*%
G04 Aperture macros list end*
%TA.AperFunction,ComponentPad*%
%ADD10R,1.700000X1.700000*%
%TD*%
%TA.AperFunction,ComponentPad*%
%ADD11C,1.700000*%
%TD*%
%TA.AperFunction,ComponentPad*%
%ADD12RoundRect,0.127000X-0.508000X-0.508000X0.508000X-0.508000X0.508000X0.508000X-0.508000X0.508000X0*%
%TD*%
%TA.AperFunction,ComponentPad*%
%ADD13RoundRect,0.127000X0.508000X0.508000X-0.508000X0.508000X-0.508000X-0.508000X0.508000X-0.508000X0*%
%TD*%
G04 APERTURE END LIST*
D10*
%TO.P,J11,1,Pin_1*%
%TO.N,/backplane/+5V*%
X20455000Y-41100000D03*
D11*
%TO.P,J11,2,Pin_2*%
%TO.N,GND*%
X17915000Y-41100000D03*
%TD*%
D12*
%TO.P,J10,1*%
%TO.N,/backplane/+5V*%
X154920000Y-30000000D03*
%TO.P,J10,2*%
%TO.N,/backplane/D0*%
X154920000Y-32540000D03*
%TO.P,J10,3*%
%TO.N,/backplane/D1*%
X154920000Y-35080000D03*
%TO.P,J10,4*%
%TO.N,/backplane/D2*%
X154920000Y-37620000D03*
%TO.P,J10,5*%
%TO.N,/backplane/D3*%
X154920000Y-40160000D03*
%TO.P,J10,6*%
%TO.N,/backplane/D4*%
X154920000Y-42700000D03*
%TO.P,J10,7*%
%TO.N,/backplane/D5*%
X154920000Y-45240000D03*
%TO.P,J10,8*%
%TO.N,/backplane/D6*%
X154920000Y-47780000D03*
%TO.P,J10,9*%
%TO.N,/backplane/D7*%
X154920000Y-50320000D03*
%TO.P,J10,10*%
%TO.N,/backplane/D8*%
X154920000Y-52860000D03*
%TO.P,J10,11*%
%TO.N,/backplane/D9*%
X154920000Y-55400000D03*
%TO.P,J10,12*%
%TO.N,/backplane/D10*%
X154920000Y-57940000D03*
%TO.P,J10,13*%
%TO.N,/backplane/D11*%
X154920000Y-60480000D03*
%TO.P,J10,14*%
%TO.N,/backplane/D12*%
X154920000Y-63020000D03*
%TO.P,J10,15*%
%TO.N,/backplane/D13*%
X154920000Y-65560000D03*
%TO.P,J10,16*%
%TO.N,/backplane/D14*%
X154920000Y-68100000D03*
%TO.P,J10,17*%
%TO.N,/backplane/D15*%
X154920000Y-70640000D03*
%TO.P,J10,18*%
%TO.N,/backplane/A0*%
X154920000Y-73180000D03*
%TO.P,J10,19*%
%TO.N,/backplane/A1*%
X154920000Y-75720000D03*
%TO.P,J10,20*%
%TO.N,/backplane/A2*%
X154920000Y-78260000D03*
%TO.P,J10,21*%
%TO.N,/backplane/A3*%
X154920000Y-80800000D03*
%TO.P,J10,22*%
%TO.N,/backplane/A4*%
X154920000Y-83340000D03*
%TO.P,J10,23*%
%TO.N,/backplane/A5*%
X154920000Y-85880000D03*
%TO.P,J10,24*%
%TO.N,/backplane/A6*%
X154920000Y-88420000D03*
%TO.P,J10,25*%
%TO.N,/backplane/A7*%
X154920000Y-90960000D03*
%TO.P,J10,26*%
%TO.N,/backplane/A8*%
X154920000Y-93500000D03*
%TO.P,J10,27*%
%TO.N,/backplane/A9*%
X154920000Y-96040000D03*
%TO.P,J10,28*%
%TO.N,/backplane/A10*%
X154920000Y-98580000D03*
%TO.P,J10,29*%
%TO.N,/backplane/A11*%
X154920000Y-101120000D03*
%TO.P,J10,30*%
%TO.N,/backplane/A12*%
X154920000Y-103660000D03*
%TO.P,J10,31*%
%TO.N,/backplane/A13*%
X154920000Y-106200000D03*
%TO.P,J10,32*%
%TO.N,GND*%
X154920000Y-108740000D03*
D13*
%TO.P,J10,33*%
%TO.N,/backplane/+5V*%
X157460000Y-30000000D03*
%TO.P,J10,34*%
%TO.N,/backplane/E*%
X157460000Y-32540000D03*
%TO.P,J10,35*%
%TO.N,/backplane/CRUCLK*%
X157460000Y-35080000D03*
%TO.P,J10,36*%
%TO.N,/backplane/CRUIN*%
X157460000Y-37620000D03*
%TO.P,J10,37*%
%TO.N,/backplane/CRUOUT*%
X157460000Y-40160000D03*
%TO.P,J10,38*%
%TO.N,/backplane/DBIN*%
X157460000Y-42700000D03*
%TO.P,J10,39*%
%TO.N,/backplane/IAQ*%
X157460000Y-45240000D03*
%TO.P,J10,40*%
%TO.N,/backplane/{slash}INTR*%
X157460000Y-47780000D03*
%TO.P,J10,41*%
%TO.N,/backplane/NMI*%
X157460000Y-50320000D03*
%TO.P,J10,42*%
%TO.N,/backplane/{slash}HOLD*%
X157460000Y-52860000D03*
%TO.P,J10,43*%
%TO.N,/backplane/{slash}AS*%
X157460000Y-55400000D03*
%TO.P,J10,44*%
%TO.N,/backplane/RDY*%
X157460000Y-57940000D03*
%TO.P,J10,45*%
%TO.N,/backplane/{slash}RD*%
X157460000Y-60480000D03*
%TO.P,J10,46*%
%TO.N,/backplane/{slash}WE*%
X157460000Y-63020000D03*
%TO.P,J10,47*%
%TO.N,/backplane/IC3*%
X157460000Y-65560000D03*
%TO.P,J10,48*%
%TO.N,/backplane/IPL2*%
X157460000Y-68100000D03*
%TO.P,J10,49*%
%TO.N,/backplane/IPL1*%
X157460000Y-70640000D03*
%TO.P,J10,50*%
%TO.N,/backplane/IPL0*%
X157460000Y-73180000D03*
%TO.P,J10,51*%
%TO.N,/backplane/{slash}RST*%
X157460000Y-75720000D03*
%TO.P,J10,52*%
%TO.N,/backplane/HLDA*%
X157460000Y-78260000D03*
%TO.P,J10,53*%
%TO.N,/backplane/{slash}HALT*%
X157460000Y-80800000D03*
%TO.P,J10,54*%
%TO.N,/backplane/Res12*%
X157460000Y-83340000D03*
%TO.P,J10,55*%
%TO.N,/backplane/A22*%
X157460000Y-85880000D03*
%TO.P,J10,56*%
%TO.N,/backplane/A21*%
X157460000Y-88420000D03*
%TO.P,J10,57*%
%TO.N,/backplane/A20*%
X157460000Y-90960000D03*
%TO.P,J10,58*%
%TO.N,/backplane/A19*%
X157460000Y-93500000D03*
%TO.P,J10,59*%
%TO.N,/backplane/A18*%
X157460000Y-96040000D03*
%TO.P,J10,60*%
%TO.N,/backplane/A17*%
X157460000Y-98580000D03*
%TO.P,J10,61*%
%TO.N,/backplane/A16*%
X157460000Y-101120000D03*
%TO.P,J10,62*%
%TO.N,/backplane/A15*%
X157460000Y-103660000D03*
%TO.P,J10,63*%
%TO.N,/backplane/A14*%
X157460000Y-106200000D03*
%TO.P,J10,64*%
%TO.N,GND*%
X157460000Y-108740000D03*
D12*
%TO.P,J10,65*%
%TO.N,/backplane/+5V*%
X160000000Y-30000000D03*
%TO.P,J10,66*%
%TO.N,/backplane/{slash}VMA*%
X160000000Y-32540000D03*
%TO.P,J10,67*%
%TO.N,/backplane/{slash}VPA*%
X160000000Y-35080000D03*
%TO.P,J10,68*%
%TO.N,/backplane/{slash}BERR*%
X160000000Y-37620000D03*
%TO.P,J10,69*%
%TO.N,/backplane/{slash}BGACK*%
X160000000Y-40160000D03*
%TO.P,J10,70*%
%TO.N,/backplane/{slash}LDS*%
X160000000Y-42700000D03*
%TO.P,J10,71*%
%TO.N,/backplane/{slash}UDS*%
X160000000Y-45240000D03*
%TO.P,J10,72*%
%TO.N,/backplane/{slash}INTA*%
X160000000Y-47780000D03*
%TO.P,J10,73*%
%TO.N,/backplane/ALE*%
X160000000Y-50320000D03*
%TO.P,J10,74*%
%TO.N,/backplane/{slash}DEN*%
X160000000Y-52860000D03*
%TO.P,J10,75*%
%TO.N,/backplane/DT{slash}R*%
X160000000Y-55400000D03*
%TO.P,J10,76*%
%TO.N,/backplane/M{slash}IO*%
X160000000Y-57940000D03*
%TO.P,J10,77*%
%TO.N,/backplane/{slash}SSO*%
X160000000Y-60480000D03*
%TO.P,J10,78*%
%TO.N,/backplane/{slash}WAIT*%
X160000000Y-63020000D03*
%TO.P,J10,79*%
%TO.N,/backplane/{slash}M1*%
X160000000Y-65560000D03*
%TO.P,J10,80*%
%TO.N,/backplane/{slash}RFSH*%
X160000000Y-68100000D03*
%TO.P,J10,81*%
%TO.N,/backplane/Res1*%
X160000000Y-70640000D03*
%TO.P,J10,82*%
%TO.N,/backplane/Res2*%
X160000000Y-73180000D03*
%TO.P,J10,83*%
%TO.N,/backplane/Res3*%
X160000000Y-75720000D03*
%TO.P,J10,84*%
%TO.N,/backplane/Res4*%
X160000000Y-78260000D03*
%TO.P,J10,85*%
%TO.N,/backplane/Res5*%
X160000000Y-80800000D03*
%TO.P,J10,86*%
%TO.N,/backplane/Res6*%
X160000000Y-83340000D03*
%TO.P,J10,87*%
%TO.N,/backplane/Res7*%
X160000000Y-85880000D03*
%TO.P,J10,88*%
%TO.N,/backplane/Res8*%
X160000000Y-88420000D03*
%TO.P,J10,89*%
%TO.N,/backplane/Res9*%
X160000000Y-90960000D03*
%TO.P,J10,90*%
%TO.N,/backplane/Res10*%
X160000000Y-93500000D03*
%TO.P,J10,91*%
%TO.N,/backplane/Res11*%
X160000000Y-96040000D03*
%TO.P,J10,92*%
%TO.N,/backplane/+12V*%
X160000000Y-98580000D03*
%TO.P,J10,93*%
%TO.N,GND*%
X160000000Y-101120000D03*
%TO.P,J10,94*%
%TO.N,/backplane/-5V*%
X160000000Y-103660000D03*
%TO.P,J10,95*%
%TO.N,GND*%
X160000000Y-106200000D03*
%TO.P,J10,96*%
X160000000Y-108740000D03*
%TD*%
%TO.P,J4,1*%
%TO.N,/backplane/+5V*%
X69920000Y-30000000D03*
%TO.P,J4,2*%
%TO.N,/backplane/D0*%
X69920000Y-32540000D03*
%TO.P,J4,3*%
%TO.N,/backplane/D1*%
X69920000Y-35080000D03*
%TO.P,J4,4*%
%TO.N,/backplane/D2*%
X69920000Y-37620000D03*
%TO.P,J4,5*%
%TO.N,/backplane/D3*%
X69920000Y-40160000D03*
%TO.P,J4,6*%
%TO.N,/backplane/D4*%
X69920000Y-42700000D03*
%TO.P,J4,7*%
%TO.N,/backplane/D5*%
X69920000Y-45240000D03*
%TO.P,J4,8*%
%TO.N,/backplane/D6*%
X69920000Y-47780000D03*
%TO.P,J4,9*%
%TO.N,/backplane/D7*%
X69920000Y-50320000D03*
%TO.P,J4,10*%
%TO.N,/backplane/D8*%
X69920000Y-52860000D03*
%TO.P,J4,11*%
%TO.N,/backplane/D9*%
X69920000Y-55400000D03*
%TO.P,J4,12*%
%TO.N,/backplane/D10*%
X69920000Y-57940000D03*
%TO.P,J4,13*%
%TO.N,/backplane/D11*%
X69920000Y-60480000D03*
%TO.P,J4,14*%
%TO.N,/backplane/D12*%
X69920000Y-63020000D03*
%TO.P,J4,15*%
%TO.N,/backplane/D13*%
X69920000Y-65560000D03*
%TO.P,J4,16*%
%TO.N,/backplane/D14*%
X69920000Y-68100000D03*
%TO.P,J4,17*%
%TO.N,/backplane/D15*%
X69920000Y-70640000D03*
%TO.P,J4,18*%
%TO.N,/backplane/A0*%
X69920000Y-73180000D03*
%TO.P,J4,19*%
%TO.N,/backplane/A1*%
X69920000Y-75720000D03*
%TO.P,J4,20*%
%TO.N,/backplane/A2*%
X69920000Y-78260000D03*
%TO.P,J4,21*%
%TO.N,/backplane/A3*%
X69920000Y-80800000D03*
%TO.P,J4,22*%
%TO.N,/backplane/A4*%
X69920000Y-83340000D03*
%TO.P,J4,23*%
%TO.N,/backplane/A5*%
X69920000Y-85880000D03*
%TO.P,J4,24*%
%TO.N,/backplane/A6*%
X69920000Y-88420000D03*
%TO.P,J4,25*%
%TO.N,/backplane/A7*%
X69920000Y-90960000D03*
%TO.P,J4,26*%
%TO.N,/backplane/A8*%
X69920000Y-93500000D03*
%TO.P,J4,27*%
%TO.N,/backplane/A9*%
X69920000Y-96040000D03*
%TO.P,J4,28*%
%TO.N,/backplane/A10*%
X69920000Y-98580000D03*
%TO.P,J4,29*%
%TO.N,/backplane/A11*%
X69920000Y-101120000D03*
%TO.P,J4,30*%
%TO.N,/backplane/A12*%
X69920000Y-103660000D03*
%TO.P,J4,31*%
%TO.N,/backplane/A13*%
X69920000Y-106200000D03*
%TO.P,J4,32*%
%TO.N,GND*%
X69920000Y-108740000D03*
D13*
%TO.P,J4,33*%
%TO.N,/backplane/+5V*%
X72460000Y-30000000D03*
%TO.P,J4,34*%
%TO.N,/backplane/E*%
X72460000Y-32540000D03*
%TO.P,J4,35*%
%TO.N,/backplane/CRUCLK*%
X72460000Y-35080000D03*
%TO.P,J4,36*%
%TO.N,/backplane/CRUIN*%
X72460000Y-37620000D03*
%TO.P,J4,37*%
%TO.N,/backplane/CRUOUT*%
X72460000Y-40160000D03*
%TO.P,J4,38*%
%TO.N,/backplane/DBIN*%
X72460000Y-42700000D03*
%TO.P,J4,39*%
%TO.N,/backplane/IAQ*%
X72460000Y-45240000D03*
%TO.P,J4,40*%
%TO.N,/backplane/{slash}INTR*%
X72460000Y-47780000D03*
%TO.P,J4,41*%
%TO.N,/backplane/NMI*%
X72460000Y-50320000D03*
%TO.P,J4,42*%
%TO.N,/backplane/{slash}HOLD*%
X72460000Y-52860000D03*
%TO.P,J4,43*%
%TO.N,/backplane/{slash}AS*%
X72460000Y-55400000D03*
%TO.P,J4,44*%
%TO.N,/backplane/RDY*%
X72460000Y-57940000D03*
%TO.P,J4,45*%
%TO.N,/backplane/{slash}RD*%
X72460000Y-60480000D03*
%TO.P,J4,46*%
%TO.N,/backplane/{slash}WE*%
X72460000Y-63020000D03*
%TO.P,J4,47*%
%TO.N,/backplane/IC3*%
X72460000Y-65560000D03*
%TO.P,J4,48*%
%TO.N,/backplane/IPL2*%
X72460000Y-68100000D03*
%TO.P,J4,49*%
%TO.N,/backplane/IPL1*%
X72460000Y-70640000D03*
%TO.P,J4,50*%
%TO.N,/backplane/IPL0*%
X72460000Y-73180000D03*
%TO.P,J4,51*%
%TO.N,/backplane/{slash}RST*%
X72460000Y-75720000D03*
%TO.P,J4,52*%
%TO.N,/backplane/HLDA*%
X72460000Y-78260000D03*
%TO.P,J4,53*%
%TO.N,/backplane/{slash}HALT*%
X72460000Y-80800000D03*
%TO.P,J4,54*%
%TO.N,/backplane/Res12*%
X72460000Y-83340000D03*
%TO.P,J4,55*%
%TO.N,/backplane/A22*%
X72460000Y-85880000D03*
%TO.P,J4,56*%
%TO.N,/backplane/A21*%
X72460000Y-88420000D03*
%TO.P,J4,57*%
%TO.N,/backplane/A20*%
X72460000Y-90960000D03*
%TO.P,J4,58*%
%TO.N,/backplane/A19*%
X72460000Y-93500000D03*
%TO.P,J4,59*%
%TO.N,/backplane/A18*%
X72460000Y-96040000D03*
%TO.P,J4,60*%
%TO.N,/backplane/A17*%
X72460000Y-98580000D03*
%TO.P,J4,61*%
%TO.N,/backplane/A16*%
X72460000Y-101120000D03*
%TO.P,J4,62*%
%TO.N,/backplane/A15*%
X72460000Y-103660000D03*
%TO.P,J4,63*%
%TO.N,/backplane/A14*%
X72460000Y-106200000D03*
%TO.P,J4,64*%
%TO.N,GND*%
X72460000Y-108740000D03*
D12*
%TO.P,J4,65*%
%TO.N,/backplane/+5V*%
X75000000Y-30000000D03*
%TO.P,J4,66*%
%TO.N,/backplane/{slash}VMA*%
X75000000Y-32540000D03*
%TO.P,J4,67*%
%TO.N,/backplane/{slash}VPA*%
X75000000Y-35080000D03*
%TO.P,J4,68*%
%TO.N,/backplane/{slash}BERR*%
X75000000Y-37620000D03*
%TO.P,J4,69*%
%TO.N,/backplane/{slash}BGACK*%
X75000000Y-40160000D03*
%TO.P,J4,70*%
%TO.N,/backplane/{slash}LDS*%
X75000000Y-42700000D03*
%TO.P,J4,71*%
%TO.N,/backplane/{slash}UDS*%
X75000000Y-45240000D03*
%TO.P,J4,72*%
%TO.N,/backplane/{slash}INTA*%
X75000000Y-47780000D03*
%TO.P,J4,73*%
%TO.N,/backplane/ALE*%
X75000000Y-50320000D03*
%TO.P,J4,74*%
%TO.N,/backplane/{slash}DEN*%
X75000000Y-52860000D03*
%TO.P,J4,75*%
%TO.N,/backplane/DT{slash}R*%
X75000000Y-55400000D03*
%TO.P,J4,76*%
%TO.N,/backplane/M{slash}IO*%
X75000000Y-57940000D03*
%TO.P,J4,77*%
%TO.N,/backplane/{slash}SSO*%
X75000000Y-60480000D03*
%TO.P,J4,78*%
%TO.N,/backplane/{slash}WAIT*%
X75000000Y-63020000D03*
%TO.P,J4,79*%
%TO.N,/backplane/{slash}M1*%
X75000000Y-65560000D03*
%TO.P,J4,80*%
%TO.N,/backplane/{slash}RFSH*%
X75000000Y-68100000D03*
%TO.P,J4,81*%
%TO.N,/backplane/Res1*%
X75000000Y-70640000D03*
%TO.P,J4,82*%
%TO.N,/backplane/Res2*%
X75000000Y-73180000D03*
%TO.P,J4,83*%
%TO.N,/backplane/Res3*%
X75000000Y-75720000D03*
%TO.P,J4,84*%
%TO.N,/backplane/Res4*%
X75000000Y-78260000D03*
%TO.P,J4,85*%
%TO.N,/backplane/Res5*%
X75000000Y-80800000D03*
%TO.P,J4,86*%
%TO.N,/backplane/Res6*%
X75000000Y-83340000D03*
%TO.P,J4,87*%
%TO.N,/backplane/Res7*%
X75000000Y-85880000D03*
%TO.P,J4,88*%
%TO.N,/backplane/Res8*%
X75000000Y-88420000D03*
%TO.P,J4,89*%
%TO.N,/backplane/Res9*%
X75000000Y-90960000D03*
%TO.P,J4,90*%
%TO.N,/backplane/Res10*%
X75000000Y-93500000D03*
%TO.P,J4,91*%
%TO.N,/backplane/Res11*%
X75000000Y-96040000D03*
%TO.P,J4,92*%
%TO.N,/backplane/+12V*%
X75000000Y-98580000D03*
%TO.P,J4,93*%
%TO.N,GND*%
X75000000Y-101120000D03*
%TO.P,J4,94*%
%TO.N,/backplane/-5V*%
X75000000Y-103660000D03*
%TO.P,J4,95*%
%TO.N,GND*%
X75000000Y-106200000D03*
%TO.P,J4,96*%
X75000000Y-108740000D03*
%TD*%
%TO.P,J7,1*%
%TO.N,/backplane/+5V*%
X114920000Y-30000000D03*
%TO.P,J7,2*%
%TO.N,/backplane/D0*%
X114920000Y-32540000D03*
%TO.P,J7,3*%
%TO.N,/backplane/D1*%
X114920000Y-35080000D03*
%TO.P,J7,4*%
%TO.N,/backplane/D2*%
X114920000Y-37620000D03*
%TO.P,J7,5*%
%TO.N,/backplane/D3*%
X114920000Y-40160000D03*
%TO.P,J7,6*%
%TO.N,/backplane/D4*%
X114920000Y-42700000D03*
%TO.P,J7,7*%
%TO.N,/backplane/D5*%
X114920000Y-45240000D03*
%TO.P,J7,8*%
%TO.N,/backplane/D6*%
X114920000Y-47780000D03*
%TO.P,J7,9*%
%TO.N,/backplane/D7*%
X114920000Y-50320000D03*
%TO.P,J7,10*%
%TO.N,/backplane/D8*%
X114920000Y-52860000D03*
%TO.P,J7,11*%
%TO.N,/backplane/D9*%
X114920000Y-55400000D03*
%TO.P,J7,12*%
%TO.N,/backplane/D10*%
X114920000Y-57940000D03*
%TO.P,J7,13*%
%TO.N,/backplane/D11*%
X114920000Y-60480000D03*
%TO.P,J7,14*%
%TO.N,/backplane/D12*%
X114920000Y-63020000D03*
%TO.P,J7,15*%
%TO.N,/backplane/D13*%
X114920000Y-65560000D03*
%TO.P,J7,16*%
%TO.N,/backplane/D14*%
X114920000Y-68100000D03*
%TO.P,J7,17*%
%TO.N,/backplane/D15*%
X114920000Y-70640000D03*
%TO.P,J7,18*%
%TO.N,/backplane/A0*%
X114920000Y-73180000D03*
%TO.P,J7,19*%
%TO.N,/backplane/A1*%
X114920000Y-75720000D03*
%TO.P,J7,20*%
%TO.N,/backplane/A2*%
X114920000Y-78260000D03*
%TO.P,J7,21*%
%TO.N,/backplane/A3*%
X114920000Y-80800000D03*
%TO.P,J7,22*%
%TO.N,/backplane/A4*%
X114920000Y-83340000D03*
%TO.P,J7,23*%
%TO.N,/backplane/A5*%
X114920000Y-85880000D03*
%TO.P,J7,24*%
%TO.N,/backplane/A6*%
X114920000Y-88420000D03*
%TO.P,J7,25*%
%TO.N,/backplane/A7*%
X114920000Y-90960000D03*
%TO.P,J7,26*%
%TO.N,/backplane/A8*%
X114920000Y-93500000D03*
%TO.P,J7,27*%
%TO.N,/backplane/A9*%
X114920000Y-96040000D03*
%TO.P,J7,28*%
%TO.N,/backplane/A10*%
X114920000Y-98580000D03*
%TO.P,J7,29*%
%TO.N,/backplane/A11*%
X114920000Y-101120000D03*
%TO.P,J7,30*%
%TO.N,/backplane/A12*%
X114920000Y-103660000D03*
%TO.P,J7,31*%
%TO.N,/backplane/A13*%
X114920000Y-106200000D03*
%TO.P,J7,32*%
%TO.N,GND*%
X114920000Y-108740000D03*
D13*
%TO.P,J7,33*%
%TO.N,/backplane/+5V*%
X117460000Y-30000000D03*
%TO.P,J7,34*%
%TO.N,/backplane/E*%
X117460000Y-32540000D03*
%TO.P,J7,35*%
%TO.N,/backplane/CRUCLK*%
X117460000Y-35080000D03*
%TO.P,J7,36*%
%TO.N,/backplane/CRUIN*%
X117460000Y-37620000D03*
%TO.P,J7,37*%
%TO.N,/backplane/CRUOUT*%
X117460000Y-40160000D03*
%TO.P,J7,38*%
%TO.N,/backplane/DBIN*%
X117460000Y-42700000D03*
%TO.P,J7,39*%
%TO.N,/backplane/IAQ*%
X117460000Y-45240000D03*
%TO.P,J7,40*%
%TO.N,/backplane/{slash}INTR*%
X117460000Y-47780000D03*
%TO.P,J7,41*%
%TO.N,/backplane/NMI*%
X117460000Y-50320000D03*
%TO.P,J7,42*%
%TO.N,/backplane/{slash}HOLD*%
X117460000Y-52860000D03*
%TO.P,J7,43*%
%TO.N,/backplane/{slash}AS*%
X117460000Y-55400000D03*
%TO.P,J7,44*%
%TO.N,/backplane/RDY*%
X117460000Y-57940000D03*
%TO.P,J7,45*%
%TO.N,/backplane/{slash}RD*%
X117460000Y-60480000D03*
%TO.P,J7,46*%
%TO.N,/backplane/{slash}WE*%
X117460000Y-63020000D03*
%TO.P,J7,47*%
%TO.N,/backplane/IC3*%
X117460000Y-65560000D03*
%TO.P,J7,48*%
%TO.N,/backplane/IPL2*%
X117460000Y-68100000D03*
%TO.P,J7,49*%
%TO.N,/backplane/IPL1*%
X117460000Y-70640000D03*
%TO.P,J7,50*%
%TO.N,/backplane/IPL0*%
X117460000Y-73180000D03*
%TO.P,J7,51*%
%TO.N,/backplane/{slash}RST*%
X117460000Y-75720000D03*
%TO.P,J7,52*%
%TO.N,/backplane/HLDA*%
X117460000Y-78260000D03*
%TO.P,J7,53*%
%TO.N,/backplane/{slash}HALT*%
X117460000Y-80800000D03*
%TO.P,J7,54*%
%TO.N,/backplane/Res12*%
X117460000Y-83340000D03*
%TO.P,J7,55*%
%TO.N,/backplane/A22*%
X117460000Y-85880000D03*
%TO.P,J7,56*%
%TO.N,/backplane/A21*%
X117460000Y-88420000D03*
%TO.P,J7,57*%
%TO.N,/backplane/A20*%
X117460000Y-90960000D03*
%TO.P,J7,58*%
%TO.N,/backplane/A19*%
X117460000Y-93500000D03*
%TO.P,J7,59*%
%TO.N,/backplane/A18*%
X117460000Y-96040000D03*
%TO.P,J7,60*%
%TO.N,/backplane/A17*%
X117460000Y-98580000D03*
%TO.P,J7,61*%
%TO.N,/backplane/A16*%
X117460000Y-101120000D03*
%TO.P,J7,62*%
%TO.N,/backplane/A15*%
X117460000Y-103660000D03*
%TO.P,J7,63*%
%TO.N,/backplane/A14*%
X117460000Y-106200000D03*
%TO.P,J7,64*%
%TO.N,GND*%
X117460000Y-108740000D03*
D12*
%TO.P,J7,65*%
%TO.N,/backplane/+5V*%
X120000000Y-30000000D03*
%TO.P,J7,66*%
%TO.N,/backplane/{slash}VMA*%
X120000000Y-32540000D03*
%TO.P,J7,67*%
%TO.N,/backplane/{slash}VPA*%
X120000000Y-35080000D03*
%TO.P,J7,68*%
%TO.N,/backplane/{slash}BERR*%
X120000000Y-37620000D03*
%TO.P,J7,69*%
%TO.N,/backplane/{slash}BGACK*%
X120000000Y-40160000D03*
%TO.P,J7,70*%
%TO.N,/backplane/{slash}LDS*%
X120000000Y-42700000D03*
%TO.P,J7,71*%
%TO.N,/backplane/{slash}UDS*%
X120000000Y-45240000D03*
%TO.P,J7,72*%
%TO.N,/backplane/{slash}INTA*%
X120000000Y-47780000D03*
%TO.P,J7,73*%
%TO.N,/backplane/ALE*%
X120000000Y-50320000D03*
%TO.P,J7,74*%
%TO.N,/backplane/{slash}DEN*%
X120000000Y-52860000D03*
%TO.P,J7,75*%
%TO.N,/backplane/DT{slash}R*%
X120000000Y-55400000D03*
%TO.P,J7,76*%
%TO.N,/backplane/M{slash}IO*%
X120000000Y-57940000D03*
%TO.P,J7,77*%
%TO.N,/backplane/{slash}SSO*%
X120000000Y-60480000D03*
%TO.P,J7,78*%
%TO.N,/backplane/{slash}WAIT*%
X120000000Y-63020000D03*
%TO.P,J7,79*%
%TO.N,/backplane/{slash}M1*%
X120000000Y-65560000D03*
%TO.P,J7,80*%
%TO.N,/backplane/{slash}RFSH*%
X120000000Y-68100000D03*
%TO.P,J7,81*%
%TO.N,/backplane/Res1*%
X120000000Y-70640000D03*
%TO.P,J7,82*%
%TO.N,/backplane/Res2*%
X120000000Y-73180000D03*
%TO.P,J7,83*%
%TO.N,/backplane/Res3*%
X120000000Y-75720000D03*
%TO.P,J7,84*%
%TO.N,/backplane/Res4*%
X120000000Y-78260000D03*
%TO.P,J7,85*%
%TO.N,/backplane/Res5*%
X120000000Y-80800000D03*
%TO.P,J7,86*%
%TO.N,/backplane/Res6*%
X120000000Y-83340000D03*
%TO.P,J7,87*%
%TO.N,/backplane/Res7*%
X120000000Y-85880000D03*
%TO.P,J7,88*%
%TO.N,/backplane/Res8*%
X120000000Y-88420000D03*
%TO.P,J7,89*%
%TO.N,/backplane/Res9*%
X120000000Y-90960000D03*
%TO.P,J7,90*%
%TO.N,/backplane/Res10*%
X120000000Y-93500000D03*
%TO.P,J7,91*%
%TO.N,/backplane/Res11*%
X120000000Y-96040000D03*
%TO.P,J7,92*%
%TO.N,/backplane/+12V*%
X120000000Y-98580000D03*
%TO.P,J7,93*%
%TO.N,GND*%
X120000000Y-101120000D03*
%TO.P,J7,94*%
%TO.N,/backplane/-5V*%
X120000000Y-103660000D03*
%TO.P,J7,95*%
%TO.N,GND*%
X120000000Y-106200000D03*
%TO.P,J7,96*%
X120000000Y-108740000D03*
%TD*%
%TO.P,J1,1*%
%TO.N,/backplane/+5V*%
X24920000Y-30000000D03*
%TO.P,J1,2*%
%TO.N,/backplane/D0*%
X24920000Y-32540000D03*
%TO.P,J1,3*%
%TO.N,/backplane/D1*%
X24920000Y-35080000D03*
%TO.P,J1,4*%
%TO.N,/backplane/D2*%
X24920000Y-37620000D03*
%TO.P,J1,5*%
%TO.N,/backplane/D3*%
X24920000Y-40160000D03*
%TO.P,J1,6*%
%TO.N,/backplane/D4*%
X24920000Y-42700000D03*
%TO.P,J1,7*%
%TO.N,/backplane/D5*%
X24920000Y-45240000D03*
%TO.P,J1,8*%
%TO.N,/backplane/D6*%
X24920000Y-47780000D03*
%TO.P,J1,9*%
%TO.N,/backplane/D7*%
X24920000Y-50320000D03*
%TO.P,J1,10*%
%TO.N,/backplane/D8*%
X24920000Y-52860000D03*
%TO.P,J1,11*%
%TO.N,/backplane/D9*%
X24920000Y-55400000D03*
%TO.P,J1,12*%
%TO.N,/backplane/D10*%
X24920000Y-57940000D03*
%TO.P,J1,13*%
%TO.N,/backplane/D11*%
X24920000Y-60480000D03*
%TO.P,J1,14*%
%TO.N,/backplane/D12*%
X24920000Y-63020000D03*
%TO.P,J1,15*%
%TO.N,/backplane/D13*%
X24920000Y-65560000D03*
%TO.P,J1,16*%
%TO.N,/backplane/D14*%
X24920000Y-68100000D03*
%TO.P,J1,17*%
%TO.N,/backplane/D15*%
X24920000Y-70640000D03*
%TO.P,J1,18*%
%TO.N,/backplane/A0*%
X24920000Y-73180000D03*
%TO.P,J1,19*%
%TO.N,/backplane/A1*%
X24920000Y-75720000D03*
%TO.P,J1,20*%
%TO.N,/backplane/A2*%
X24920000Y-78260000D03*
%TO.P,J1,21*%
%TO.N,/backplane/A3*%
X24920000Y-80800000D03*
%TO.P,J1,22*%
%TO.N,/backplane/A4*%
X24920000Y-83340000D03*
%TO.P,J1,23*%
%TO.N,/backplane/A5*%
X24920000Y-85880000D03*
%TO.P,J1,24*%
%TO.N,/backplane/A6*%
X24920000Y-88420000D03*
%TO.P,J1,25*%
%TO.N,/backplane/A7*%
X24920000Y-90960000D03*
%TO.P,J1,26*%
%TO.N,/backplane/A8*%
X24920000Y-93500000D03*
%TO.P,J1,27*%
%TO.N,/backplane/A9*%
X24920000Y-96040000D03*
%TO.P,J1,28*%
%TO.N,/backplane/A10*%
X24920000Y-98580000D03*
%TO.P,J1,29*%
%TO.N,/backplane/A11*%
X24920000Y-101120000D03*
%TO.P,J1,30*%
%TO.N,/backplane/A12*%
X24920000Y-103660000D03*
%TO.P,J1,31*%
%TO.N,/backplane/A13*%
X24920000Y-106200000D03*
%TO.P,J1,32*%
%TO.N,GND*%
X24920000Y-108740000D03*
D13*
%TO.P,J1,33*%
%TO.N,/backplane/+5V*%
X27460000Y-30000000D03*
%TO.P,J1,34*%
%TO.N,/backplane/E*%
X27460000Y-32540000D03*
%TO.P,J1,35*%
%TO.N,/backplane/CRUCLK*%
X27460000Y-35080000D03*
%TO.P,J1,36*%
%TO.N,/backplane/CRUIN*%
X27460000Y-37620000D03*
%TO.P,J1,37*%
%TO.N,/backplane/CRUOUT*%
X27460000Y-40160000D03*
%TO.P,J1,38*%
%TO.N,/backplane/DBIN*%
X27460000Y-42700000D03*
%TO.P,J1,39*%
%TO.N,/backplane/IAQ*%
X27460000Y-45240000D03*
%TO.P,J1,40*%
%TO.N,/backplane/{slash}INTR*%
X27460000Y-47780000D03*
%TO.P,J1,41*%
%TO.N,/backplane/NMI*%
X27460000Y-50320000D03*
%TO.P,J1,42*%
%TO.N,/backplane/{slash}HOLD*%
X27460000Y-52860000D03*
%TO.P,J1,43*%
%TO.N,/backplane/{slash}AS*%
X27460000Y-55400000D03*
%TO.P,J1,44*%
%TO.N,/backplane/RDY*%
X27460000Y-57940000D03*
%TO.P,J1,45*%
%TO.N,/backplane/{slash}RD*%
X27460000Y-60480000D03*
%TO.P,J1,46*%
%TO.N,/backplane/{slash}WE*%
X27460000Y-63020000D03*
%TO.P,J1,47*%
%TO.N,/backplane/IC3*%
X27460000Y-65560000D03*
%TO.P,J1,48*%
%TO.N,/backplane/IPL2*%
X27460000Y-68100000D03*
%TO.P,J1,49*%
%TO.N,/backplane/IPL1*%
X27460000Y-70640000D03*
%TO.P,J1,50*%
%TO.N,/backplane/IPL0*%
X27460000Y-73180000D03*
%TO.P,J1,51*%
%TO.N,/backplane/{slash}RST*%
X27460000Y-75720000D03*
%TO.P,J1,52*%
%TO.N,/backplane/HLDA*%
X27460000Y-78260000D03*
%TO.P,J1,53*%
%TO.N,/backplane/{slash}HALT*%
X27460000Y-80800000D03*
%TO.P,J1,54*%
%TO.N,/backplane/Res12*%
X27460000Y-83340000D03*
%TO.P,J1,55*%
%TO.N,/backplane/A22*%
X27460000Y-85880000D03*
%TO.P,J1,56*%
%TO.N,/backplane/A21*%
X27460000Y-88420000D03*
%TO.P,J1,57*%
%TO.N,/backplane/A20*%
X27460000Y-90960000D03*
%TO.P,J1,58*%
%TO.N,/backplane/A19*%
X27460000Y-93500000D03*
%TO.P,J1,59*%
%TO.N,/backplane/A18*%
X27460000Y-96040000D03*
%TO.P,J1,60*%
%TO.N,/backplane/A17*%
X27460000Y-98580000D03*
%TO.P,J1,61*%
%TO.N,/backplane/A16*%
X27460000Y-101120000D03*
%TO.P,J1,62*%
%TO.N,/backplane/A15*%
X27460000Y-103660000D03*
%TO.P,J1,63*%
%TO.N,/backplane/A14*%
X27460000Y-106200000D03*
%TO.P,J1,64*%
%TO.N,GND*%
X27460000Y-108740000D03*
D12*
%TO.P,J1,65*%
%TO.N,/backplane/+5V*%
X30000000Y-30000000D03*
%TO.P,J1,66*%
%TO.N,/backplane/{slash}VMA*%
X30000000Y-32540000D03*
%TO.P,J1,67*%
%TO.N,/backplane/{slash}VPA*%
X30000000Y-35080000D03*
%TO.P,J1,68*%
%TO.N,/backplane/{slash}BERR*%
X30000000Y-37620000D03*
%TO.P,J1,69*%
%TO.N,/backplane/{slash}BGACK*%
X30000000Y-40160000D03*
%TO.P,J1,70*%
%TO.N,/backplane/{slash}LDS*%
X30000000Y-42700000D03*
%TO.P,J1,71*%
%TO.N,/backplane/{slash}UDS*%
X30000000Y-45240000D03*
%TO.P,J1,72*%
%TO.N,/backplane/{slash}INTA*%
X30000000Y-47780000D03*
%TO.P,J1,73*%
%TO.N,/backplane/ALE*%
X30000000Y-50320000D03*
%TO.P,J1,74*%
%TO.N,/backplane/{slash}DEN*%
X30000000Y-52860000D03*
%TO.P,J1,75*%
%TO.N,/backplane/DT{slash}R*%
X30000000Y-55400000D03*
%TO.P,J1,76*%
%TO.N,/backplane/M{slash}IO*%
X30000000Y-57940000D03*
%TO.P,J1,77*%
%TO.N,/backplane/{slash}SSO*%
X30000000Y-60480000D03*
%TO.P,J1,78*%
%TO.N,/backplane/{slash}WAIT*%
X30000000Y-63020000D03*
%TO.P,J1,79*%
%TO.N,/backplane/{slash}M1*%
X30000000Y-65560000D03*
%TO.P,J1,80*%
%TO.N,/backplane/{slash}RFSH*%
X30000000Y-68100000D03*
%TO.P,J1,81*%
%TO.N,/backplane/Res1*%
X30000000Y-70640000D03*
%TO.P,J1,82*%
%TO.N,/backplane/Res2*%
X30000000Y-73180000D03*
%TO.P,J1,83*%
%TO.N,/backplane/Res3*%
X30000000Y-75720000D03*
%TO.P,J1,84*%
%TO.N,/backplane/Res4*%
X30000000Y-78260000D03*
%TO.P,J1,85*%
%TO.N,/backplane/Res5*%
X30000000Y-80800000D03*
%TO.P,J1,86*%
%TO.N,/backplane/Res6*%
X30000000Y-83340000D03*
%TO.P,J1,87*%
%TO.N,/backplane/Res7*%
X30000000Y-85880000D03*
%TO.P,J1,88*%
%TO.N,/backplane/Res8*%
X30000000Y-88420000D03*
%TO.P,J1,89*%
%TO.N,/backplane/Res9*%
X30000000Y-90960000D03*
%TO.P,J1,90*%
%TO.N,/backplane/Res10*%
X30000000Y-93500000D03*
%TO.P,J1,91*%
%TO.N,/backplane/Res11*%
X30000000Y-96040000D03*
%TO.P,J1,92*%
%TO.N,/backplane/+12V*%
X30000000Y-98580000D03*
%TO.P,J1,93*%
%TO.N,GND*%
X30000000Y-101120000D03*
%TO.P,J1,94*%
%TO.N,/backplane/-5V*%
X30000000Y-103660000D03*
%TO.P,J1,95*%
%TO.N,GND*%
X30000000Y-106200000D03*
%TO.P,J1,96*%
X30000000Y-108740000D03*
%TD*%
D10*
%TO.P,J13,1,Pin_1*%
%TO.N,/backplane/+12V*%
X20000000Y-98945000D03*
D11*
%TO.P,J13,2,Pin_2*%
%TO.N,GND*%
X20000000Y-96405000D03*
%TD*%
D12*
%TO.P,J8,1*%
%TO.N,/backplane/+5V*%
X129920000Y-30000000D03*
%TO.P,J8,2*%
%TO.N,/backplane/D0*%
X129920000Y-32540000D03*
%TO.P,J8,3*%
%TO.N,/backplane/D1*%
X129920000Y-35080000D03*
%TO.P,J8,4*%
%TO.N,/backplane/D2*%
X129920000Y-37620000D03*
%TO.P,J8,5*%
%TO.N,/backplane/D3*%
X129920000Y-40160000D03*
%TO.P,J8,6*%
%TO.N,/backplane/D4*%
X129920000Y-42700000D03*
%TO.P,J8,7*%
%TO.N,/backplane/D5*%
X129920000Y-45240000D03*
%TO.P,J8,8*%
%TO.N,/backplane/D6*%
X129920000Y-47780000D03*
%TO.P,J8,9*%
%TO.N,/backplane/D7*%
X129920000Y-50320000D03*
%TO.P,J8,10*%
%TO.N,/backplane/D8*%
X129920000Y-52860000D03*
%TO.P,J8,11*%
%TO.N,/backplane/D9*%
X129920000Y-55400000D03*
%TO.P,J8,12*%
%TO.N,/backplane/D10*%
X129920000Y-57940000D03*
%TO.P,J8,13*%
%TO.N,/backplane/D11*%
X129920000Y-60480000D03*
%TO.P,J8,14*%
%TO.N,/backplane/D12*%
X129920000Y-63020000D03*
%TO.P,J8,15*%
%TO.N,/backplane/D13*%
X129920000Y-65560000D03*
%TO.P,J8,16*%
%TO.N,/backplane/D14*%
X129920000Y-68100000D03*
%TO.P,J8,17*%
%TO.N,/backplane/D15*%
X129920000Y-70640000D03*
%TO.P,J8,18*%
%TO.N,/backplane/A0*%
X129920000Y-73180000D03*
%TO.P,J8,19*%
%TO.N,/backplane/A1*%
X129920000Y-75720000D03*
%TO.P,J8,20*%
%TO.N,/backplane/A2*%
X129920000Y-78260000D03*
%TO.P,J8,21*%
%TO.N,/backplane/A3*%
X129920000Y-80800000D03*
%TO.P,J8,22*%
%TO.N,/backplane/A4*%
X129920000Y-83340000D03*
%TO.P,J8,23*%
%TO.N,/backplane/A5*%
X129920000Y-85880000D03*
%TO.P,J8,24*%
%TO.N,/backplane/A6*%
X129920000Y-88420000D03*
%TO.P,J8,25*%
%TO.N,/backplane/A7*%
X129920000Y-90960000D03*
%TO.P,J8,26*%
%TO.N,/backplane/A8*%
X129920000Y-93500000D03*
%TO.P,J8,27*%
%TO.N,/backplane/A9*%
X129920000Y-96040000D03*
%TO.P,J8,28*%
%TO.N,/backplane/A10*%
X129920000Y-98580000D03*
%TO.P,J8,29*%
%TO.N,/backplane/A11*%
X129920000Y-101120000D03*
%TO.P,J8,30*%
%TO.N,/backplane/A12*%
X129920000Y-103660000D03*
%TO.P,J8,31*%
%TO.N,/backplane/A13*%
X129920000Y-106200000D03*
%TO.P,J8,32*%
%TO.N,GND*%
X129920000Y-108740000D03*
D13*
%TO.P,J8,33*%
%TO.N,/backplane/+5V*%
X132460000Y-30000000D03*
%TO.P,J8,34*%
%TO.N,/backplane/E*%
X132460000Y-32540000D03*
%TO.P,J8,35*%
%TO.N,/backplane/CRUCLK*%
X132460000Y-35080000D03*
%TO.P,J8,36*%
%TO.N,/backplane/CRUIN*%
X132460000Y-37620000D03*
%TO.P,J8,37*%
%TO.N,/backplane/CRUOUT*%
X132460000Y-40160000D03*
%TO.P,J8,38*%
%TO.N,/backplane/DBIN*%
X132460000Y-42700000D03*
%TO.P,J8,39*%
%TO.N,/backplane/IAQ*%
X132460000Y-45240000D03*
%TO.P,J8,40*%
%TO.N,/backplane/{slash}INTR*%
X132460000Y-47780000D03*
%TO.P,J8,41*%
%TO.N,/backplane/NMI*%
X132460000Y-50320000D03*
%TO.P,J8,42*%
%TO.N,/backplane/{slash}HOLD*%
X132460000Y-52860000D03*
%TO.P,J8,43*%
%TO.N,/backplane/{slash}AS*%
X132460000Y-55400000D03*
%TO.P,J8,44*%
%TO.N,/backplane/RDY*%
X132460000Y-57940000D03*
%TO.P,J8,45*%
%TO.N,/backplane/{slash}RD*%
X132460000Y-60480000D03*
%TO.P,J8,46*%
%TO.N,/backplane/{slash}WE*%
X132460000Y-63020000D03*
%TO.P,J8,47*%
%TO.N,/backplane/IC3*%
X132460000Y-65560000D03*
%TO.P,J8,48*%
%TO.N,/backplane/IPL2*%
X132460000Y-68100000D03*
%TO.P,J8,49*%
%TO.N,/backplane/IPL1*%
X132460000Y-70640000D03*
%TO.P,J8,50*%
%TO.N,/backplane/IPL0*%
X132460000Y-73180000D03*
%TO.P,J8,51*%
%TO.N,/backplane/{slash}RST*%
X132460000Y-75720000D03*
%TO.P,J8,52*%
%TO.N,/backplane/HLDA*%
X132460000Y-78260000D03*
%TO.P,J8,53*%
%TO.N,/backplane/{slash}HALT*%
X132460000Y-80800000D03*
%TO.P,J8,54*%
%TO.N,/backplane/Res12*%
X132460000Y-83340000D03*
%TO.P,J8,55*%
%TO.N,/backplane/A22*%
X132460000Y-85880000D03*
%TO.P,J8,56*%
%TO.N,/backplane/A21*%
X132460000Y-88420000D03*
%TO.P,J8,57*%
%TO.N,/backplane/A20*%
X132460000Y-90960000D03*
%TO.P,J8,58*%
%TO.N,/backplane/A19*%
X132460000Y-93500000D03*
%TO.P,J8,59*%
%TO.N,/backplane/A18*%
X132460000Y-96040000D03*
%TO.P,J8,60*%
%TO.N,/backplane/A17*%
X132460000Y-98580000D03*
%TO.P,J8,61*%
%TO.N,/backplane/A16*%
X132460000Y-101120000D03*
%TO.P,J8,62*%
%TO.N,/backplane/A15*%
X132460000Y-103660000D03*
%TO.P,J8,63*%
%TO.N,/backplane/A14*%
X132460000Y-106200000D03*
%TO.P,J8,64*%
%TO.N,GND*%
X132460000Y-108740000D03*
D12*
%TO.P,J8,65*%
%TO.N,/backplane/+5V*%
X135000000Y-30000000D03*
%TO.P,J8,66*%
%TO.N,/backplane/{slash}VMA*%
X135000000Y-32540000D03*
%TO.P,J8,67*%
%TO.N,/backplane/{slash}VPA*%
X135000000Y-35080000D03*
%TO.P,J8,68*%
%TO.N,/backplane/{slash}BERR*%
X135000000Y-37620000D03*
%TO.P,J8,69*%
%TO.N,/backplane/{slash}BGACK*%
X135000000Y-40160000D03*
%TO.P,J8,70*%
%TO.N,/backplane/{slash}LDS*%
X135000000Y-42700000D03*
%TO.P,J8,71*%
%TO.N,/backplane/{slash}UDS*%
X135000000Y-45240000D03*
%TO.P,J8,72*%
%TO.N,/backplane/{slash}INTA*%
X135000000Y-47780000D03*
%TO.P,J8,73*%
%TO.N,/backplane/ALE*%
X135000000Y-50320000D03*
%TO.P,J8,74*%
%TO.N,/backplane/{slash}DEN*%
X135000000Y-52860000D03*
%TO.P,J8,75*%
%TO.N,/backplane/DT{slash}R*%
X135000000Y-55400000D03*
%TO.P,J8,76*%
%TO.N,/backplane/M{slash}IO*%
X135000000Y-57940000D03*
%TO.P,J8,77*%
%TO.N,/backplane/{slash}SSO*%
X135000000Y-60480000D03*
%TO.P,J8,78*%
%TO.N,/backplane/{slash}WAIT*%
X135000000Y-63020000D03*
%TO.P,J8,79*%
%TO.N,/backplane/{slash}M1*%
X135000000Y-65560000D03*
%TO.P,J8,80*%
%TO.N,/backplane/{slash}RFSH*%
X135000000Y-68100000D03*
%TO.P,J8,81*%
%TO.N,/backplane/Res1*%
X135000000Y-70640000D03*
%TO.P,J8,82*%
%TO.N,/backplane/Res2*%
X135000000Y-73180000D03*
%TO.P,J8,83*%
%TO.N,/backplane/Res3*%
X135000000Y-75720000D03*
%TO.P,J8,84*%
%TO.N,/backplane/Res4*%
X135000000Y-78260000D03*
%TO.P,J8,85*%
%TO.N,/backplane/Res5*%
X135000000Y-80800000D03*
%TO.P,J8,86*%
%TO.N,/backplane/Res6*%
X135000000Y-83340000D03*
%TO.P,J8,87*%
%TO.N,/backplane/Res7*%
X135000000Y-85880000D03*
%TO.P,J8,88*%
%TO.N,/backplane/Res8*%
X135000000Y-88420000D03*
%TO.P,J8,89*%
%TO.N,/backplane/Res9*%
X135000000Y-90960000D03*
%TO.P,J8,90*%
%TO.N,/backplane/Res10*%
X135000000Y-93500000D03*
%TO.P,J8,91*%
%TO.N,/backplane/Res11*%
X135000000Y-96040000D03*
%TO.P,J8,92*%
%TO.N,/backplane/+12V*%
X135000000Y-98580000D03*
%TO.P,J8,93*%
%TO.N,GND*%
X135000000Y-101120000D03*
%TO.P,J8,94*%
%TO.N,/backplane/-5V*%
X135000000Y-103660000D03*
%TO.P,J8,95*%
%TO.N,GND*%
X135000000Y-106200000D03*
%TO.P,J8,96*%
X135000000Y-108740000D03*
%TD*%
%TO.P,J2,1*%
%TO.N,/backplane/+5V*%
X39920000Y-30000000D03*
%TO.P,J2,2*%
%TO.N,/backplane/D0*%
X39920000Y-32540000D03*
%TO.P,J2,3*%
%TO.N,/backplane/D1*%
X39920000Y-35080000D03*
%TO.P,J2,4*%
%TO.N,/backplane/D2*%
X39920000Y-37620000D03*
%TO.P,J2,5*%
%TO.N,/backplane/D3*%
X39920000Y-40160000D03*
%TO.P,J2,6*%
%TO.N,/backplane/D4*%
X39920000Y-42700000D03*
%TO.P,J2,7*%
%TO.N,/backplane/D5*%
X39920000Y-45240000D03*
%TO.P,J2,8*%
%TO.N,/backplane/D6*%
X39920000Y-47780000D03*
%TO.P,J2,9*%
%TO.N,/backplane/D7*%
X39920000Y-50320000D03*
%TO.P,J2,10*%
%TO.N,/backplane/D8*%
X39920000Y-52860000D03*
%TO.P,J2,11*%
%TO.N,/backplane/D9*%
X39920000Y-55400000D03*
%TO.P,J2,12*%
%TO.N,/backplane/D10*%
X39920000Y-57940000D03*
%TO.P,J2,13*%
%TO.N,/backplane/D11*%
X39920000Y-60480000D03*
%TO.P,J2,14*%
%TO.N,/backplane/D12*%
X39920000Y-63020000D03*
%TO.P,J2,15*%
%TO.N,/backplane/D13*%
X39920000Y-65560000D03*
%TO.P,J2,16*%
%TO.N,/backplane/D14*%
X39920000Y-68100000D03*
%TO.P,J2,17*%
%TO.N,/backplane/D15*%
X39920000Y-70640000D03*
%TO.P,J2,18*%
%TO.N,/backplane/A0*%
X39920000Y-73180000D03*
%TO.P,J2,19*%
%TO.N,/backplane/A1*%
X39920000Y-75720000D03*
%TO.P,J2,20*%
%TO.N,/backplane/A2*%
X39920000Y-78260000D03*
%TO.P,J2,21*%
%TO.N,/backplane/A3*%
X39920000Y-80800000D03*
%TO.P,J2,22*%
%TO.N,/backplane/A4*%
X39920000Y-83340000D03*
%TO.P,J2,23*%
%TO.N,/backplane/A5*%
X39920000Y-85880000D03*
%TO.P,J2,24*%
%TO.N,/backplane/A6*%
X39920000Y-88420000D03*
%TO.P,J2,25*%
%TO.N,/backplane/A7*%
X39920000Y-90960000D03*
%TO.P,J2,26*%
%TO.N,/backplane/A8*%
X39920000Y-93500000D03*
%TO.P,J2,27*%
%TO.N,/backplane/A9*%
X39920000Y-96040000D03*
%TO.P,J2,28*%
%TO.N,/backplane/A10*%
X39920000Y-98580000D03*
%TO.P,J2,29*%
%TO.N,/backplane/A11*%
X39920000Y-101120000D03*
%TO.P,J2,30*%
%TO.N,/backplane/A12*%
X39920000Y-103660000D03*
%TO.P,J2,31*%
%TO.N,/backplane/A13*%
X39920000Y-106200000D03*
%TO.P,J2,32*%
%TO.N,GND*%
X39920000Y-108740000D03*
D13*
%TO.P,J2,33*%
%TO.N,/backplane/+5V*%
X42460000Y-30000000D03*
%TO.P,J2,34*%
%TO.N,/backplane/E*%
X42460000Y-32540000D03*
%TO.P,J2,35*%
%TO.N,/backplane/CRUCLK*%
X42460000Y-35080000D03*
%TO.P,J2,36*%
%TO.N,/backplane/CRUIN*%
X42460000Y-37620000D03*
%TO.P,J2,37*%
%TO.N,/backplane/CRUOUT*%
X42460000Y-40160000D03*
%TO.P,J2,38*%
%TO.N,/backplane/DBIN*%
X42460000Y-42700000D03*
%TO.P,J2,39*%
%TO.N,/backplane/IAQ*%
X42460000Y-45240000D03*
%TO.P,J2,40*%
%TO.N,/backplane/{slash}INTR*%
X42460000Y-47780000D03*
%TO.P,J2,41*%
%TO.N,/backplane/NMI*%
X42460000Y-50320000D03*
%TO.P,J2,42*%
%TO.N,/backplane/{slash}HOLD*%
X42460000Y-52860000D03*
%TO.P,J2,43*%
%TO.N,/backplane/{slash}AS*%
X42460000Y-55400000D03*
%TO.P,J2,44*%
%TO.N,/backplane/RDY*%
X42460000Y-57940000D03*
%TO.P,J2,45*%
%TO.N,/backplane/{slash}RD*%
X42460000Y-60480000D03*
%TO.P,J2,46*%
%TO.N,/backplane/{slash}WE*%
X42460000Y-63020000D03*
%TO.P,J2,47*%
%TO.N,/backplane/IC3*%
X42460000Y-65560000D03*
%TO.P,J2,48*%
%TO.N,/backplane/IPL2*%
X42460000Y-68100000D03*
%TO.P,J2,49*%
%TO.N,/backplane/IPL1*%
X42460000Y-70640000D03*
%TO.P,J2,50*%
%TO.N,/backplane/IPL0*%
X42460000Y-73180000D03*
%TO.P,J2,51*%
%TO.N,/backplane/{slash}RST*%
X42460000Y-75720000D03*
%TO.P,J2,52*%
%TO.N,/backplane/HLDA*%
X42460000Y-78260000D03*
%TO.P,J2,53*%
%TO.N,/backplane/{slash}HALT*%
X42460000Y-80800000D03*
%TO.P,J2,54*%
%TO.N,/backplane/Res12*%
X42460000Y-83340000D03*
%TO.P,J2,55*%
%TO.N,/backplane/A22*%
X42460000Y-85880000D03*
%TO.P,J2,56*%
%TO.N,/backplane/A21*%
X42460000Y-88420000D03*
%TO.P,J2,57*%
%TO.N,/backplane/A20*%
X42460000Y-90960000D03*
%TO.P,J2,58*%
%TO.N,/backplane/A19*%
X42460000Y-93500000D03*
%TO.P,J2,59*%
%TO.N,/backplane/A18*%
X42460000Y-96040000D03*
%TO.P,J2,60*%
%TO.N,/backplane/A17*%
X42460000Y-98580000D03*
%TO.P,J2,61*%
%TO.N,/backplane/A16*%
X42460000Y-101120000D03*
%TO.P,J2,62*%
%TO.N,/backplane/A15*%
X42460000Y-103660000D03*
%TO.P,J2,63*%
%TO.N,/backplane/A14*%
X42460000Y-106200000D03*
%TO.P,J2,64*%
%TO.N,GND*%
X42460000Y-108740000D03*
D12*
%TO.P,J2,65*%
%TO.N,/backplane/+5V*%
X45000000Y-30000000D03*
%TO.P,J2,66*%
%TO.N,/backplane/{slash}VMA*%
X45000000Y-32540000D03*
%TO.P,J2,67*%
%TO.N,/backplane/{slash}VPA*%
X45000000Y-35080000D03*
%TO.P,J2,68*%
%TO.N,/backplane/{slash}BERR*%
X45000000Y-37620000D03*
%TO.P,J2,69*%
%TO.N,/backplane/{slash}BGACK*%
X45000000Y-40160000D03*
%TO.P,J2,70*%
%TO.N,/backplane/{slash}LDS*%
X45000000Y-42700000D03*
%TO.P,J2,71*%
%TO.N,/backplane/{slash}UDS*%
X45000000Y-45240000D03*
%TO.P,J2,72*%
%TO.N,/backplane/{slash}INTA*%
X45000000Y-47780000D03*
%TO.P,J2,73*%
%TO.N,/backplane/ALE*%
X45000000Y-50320000D03*
%TO.P,J2,74*%
%TO.N,/backplane/{slash}DEN*%
X45000000Y-52860000D03*
%TO.P,J2,75*%
%TO.N,/backplane/DT{slash}R*%
X45000000Y-55400000D03*
%TO.P,J2,76*%
%TO.N,/backplane/M{slash}IO*%
X45000000Y-57940000D03*
%TO.P,J2,77*%
%TO.N,/backplane/{slash}SSO*%
X45000000Y-60480000D03*
%TO.P,J2,78*%
%TO.N,/backplane/{slash}WAIT*%
X45000000Y-63020000D03*
%TO.P,J2,79*%
%TO.N,/backplane/{slash}M1*%
X45000000Y-65560000D03*
%TO.P,J2,80*%
%TO.N,/backplane/{slash}RFSH*%
X45000000Y-68100000D03*
%TO.P,J2,81*%
%TO.N,/backplane/Res1*%
X45000000Y-70640000D03*
%TO.P,J2,82*%
%TO.N,/backplane/Res2*%
X45000000Y-73180000D03*
%TO.P,J2,83*%
%TO.N,/backplane/Res3*%
X45000000Y-75720000D03*
%TO.P,J2,84*%
%TO.N,/backplane/Res4*%
X45000000Y-78260000D03*
%TO.P,J2,85*%
%TO.N,/backplane/Res5*%
X45000000Y-80800000D03*
%TO.P,J2,86*%
%TO.N,/backplane/Res6*%
X45000000Y-83340000D03*
%TO.P,J2,87*%
%TO.N,/backplane/Res7*%
X45000000Y-85880000D03*
%TO.P,J2,88*%
%TO.N,/backplane/Res8*%
X45000000Y-88420000D03*
%TO.P,J2,89*%
%TO.N,/backplane/Res9*%
X45000000Y-90960000D03*
%TO.P,J2,90*%
%TO.N,/backplane/Res10*%
X45000000Y-93500000D03*
%TO.P,J2,91*%
%TO.N,/backplane/Res11*%
X45000000Y-96040000D03*
%TO.P,J2,92*%
%TO.N,/backplane/+12V*%
X45000000Y-98580000D03*
%TO.P,J2,93*%
%TO.N,GND*%
X45000000Y-101120000D03*
%TO.P,J2,94*%
%TO.N,/backplane/-5V*%
X45000000Y-103660000D03*
%TO.P,J2,95*%
%TO.N,GND*%
X45000000Y-106200000D03*
%TO.P,J2,96*%
X45000000Y-108740000D03*
%TD*%
%TO.P,J9,1*%
%TO.N,/backplane/+5V*%
X144920000Y-30000000D03*
%TO.P,J9,2*%
%TO.N,/backplane/D0*%
X144920000Y-32540000D03*
%TO.P,J9,3*%
%TO.N,/backplane/D1*%
X144920000Y-35080000D03*
%TO.P,J9,4*%
%TO.N,/backplane/D2*%
X144920000Y-37620000D03*
%TO.P,J9,5*%
%TO.N,/backplane/D3*%
X144920000Y-40160000D03*
%TO.P,J9,6*%
%TO.N,/backplane/D4*%
X144920000Y-42700000D03*
%TO.P,J9,7*%
%TO.N,/backplane/D5*%
X144920000Y-45240000D03*
%TO.P,J9,8*%
%TO.N,/backplane/D6*%
X144920000Y-47780000D03*
%TO.P,J9,9*%
%TO.N,/backplane/D7*%
X144920000Y-50320000D03*
%TO.P,J9,10*%
%TO.N,/backplane/D8*%
X144920000Y-52860000D03*
%TO.P,J9,11*%
%TO.N,/backplane/D9*%
X144920000Y-55400000D03*
%TO.P,J9,12*%
%TO.N,/backplane/D10*%
X144920000Y-57940000D03*
%TO.P,J9,13*%
%TO.N,/backplane/D11*%
X144920000Y-60480000D03*
%TO.P,J9,14*%
%TO.N,/backplane/D12*%
X144920000Y-63020000D03*
%TO.P,J9,15*%
%TO.N,/backplane/D13*%
X144920000Y-65560000D03*
%TO.P,J9,16*%
%TO.N,/backplane/D14*%
X144920000Y-68100000D03*
%TO.P,J9,17*%
%TO.N,/backplane/D15*%
X144920000Y-70640000D03*
%TO.P,J9,18*%
%TO.N,/backplane/A0*%
X144920000Y-73180000D03*
%TO.P,J9,19*%
%TO.N,/backplane/A1*%
X144920000Y-75720000D03*
%TO.P,J9,20*%
%TO.N,/backplane/A2*%
X144920000Y-78260000D03*
%TO.P,J9,21*%
%TO.N,/backplane/A3*%
X144920000Y-80800000D03*
%TO.P,J9,22*%
%TO.N,/backplane/A4*%
X144920000Y-83340000D03*
%TO.P,J9,23*%
%TO.N,/backplane/A5*%
X144920000Y-85880000D03*
%TO.P,J9,24*%
%TO.N,/backplane/A6*%
X144920000Y-88420000D03*
%TO.P,J9,25*%
%TO.N,/backplane/A7*%
X144920000Y-90960000D03*
%TO.P,J9,26*%
%TO.N,/backplane/A8*%
X144920000Y-93500000D03*
%TO.P,J9,27*%
%TO.N,/backplane/A9*%
X144920000Y-96040000D03*
%TO.P,J9,28*%
%TO.N,/backplane/A10*%
X144920000Y-98580000D03*
%TO.P,J9,29*%
%TO.N,/backplane/A11*%
X144920000Y-101120000D03*
%TO.P,J9,30*%
%TO.N,/backplane/A12*%
X144920000Y-103660000D03*
%TO.P,J9,31*%
%TO.N,/backplane/A13*%
X144920000Y-106200000D03*
%TO.P,J9,32*%
%TO.N,GND*%
X144920000Y-108740000D03*
D13*
%TO.P,J9,33*%
%TO.N,/backplane/+5V*%
X147460000Y-30000000D03*
%TO.P,J9,34*%
%TO.N,/backplane/E*%
X147460000Y-32540000D03*
%TO.P,J9,35*%
%TO.N,/backplane/CRUCLK*%
X147460000Y-35080000D03*
%TO.P,J9,36*%
%TO.N,/backplane/CRUIN*%
X147460000Y-37620000D03*
%TO.P,J9,37*%
%TO.N,/backplane/CRUOUT*%
X147460000Y-40160000D03*
%TO.P,J9,38*%
%TO.N,/backplane/DBIN*%
X147460000Y-42700000D03*
%TO.P,J9,39*%
%TO.N,/backplane/IAQ*%
X147460000Y-45240000D03*
%TO.P,J9,40*%
%TO.N,/backplane/{slash}INTR*%
X147460000Y-47780000D03*
%TO.P,J9,41*%
%TO.N,/backplane/NMI*%
X147460000Y-50320000D03*
%TO.P,J9,42*%
%TO.N,/backplane/{slash}HOLD*%
X147460000Y-52860000D03*
%TO.P,J9,43*%
%TO.N,/backplane/{slash}AS*%
X147460000Y-55400000D03*
%TO.P,J9,44*%
%TO.N,/backplane/RDY*%
X147460000Y-57940000D03*
%TO.P,J9,45*%
%TO.N,/backplane/{slash}RD*%
X147460000Y-60480000D03*
%TO.P,J9,46*%
%TO.N,/backplane/{slash}WE*%
X147460000Y-63020000D03*
%TO.P,J9,47*%
%TO.N,/backplane/IC3*%
X147460000Y-65560000D03*
%TO.P,J9,48*%
%TO.N,/backplane/IPL2*%
X147460000Y-68100000D03*
%TO.P,J9,49*%
%TO.N,/backplane/IPL1*%
X147460000Y-70640000D03*
%TO.P,J9,50*%
%TO.N,/backplane/IPL0*%
X147460000Y-73180000D03*
%TO.P,J9,51*%
%TO.N,/backplane/{slash}RST*%
X147460000Y-75720000D03*
%TO.P,J9,52*%
%TO.N,/backplane/HLDA*%
X147460000Y-78260000D03*
%TO.P,J9,53*%
%TO.N,/backplane/{slash}HALT*%
X147460000Y-80800000D03*
%TO.P,J9,54*%
%TO.N,/backplane/Res12*%
X147460000Y-83340000D03*
%TO.P,J9,55*%
%TO.N,/backplane/A22*%
X147460000Y-85880000D03*
%TO.P,J9,56*%
%TO.N,/backplane/A21*%
X147460000Y-88420000D03*
%TO.P,J9,57*%
%TO.N,/backplane/A20*%
X147460000Y-90960000D03*
%TO.P,J9,58*%
%TO.N,/backplane/A19*%
X147460000Y-93500000D03*
%TO.P,J9,59*%
%TO.N,/backplane/A18*%
X147460000Y-96040000D03*
%TO.P,J9,60*%
%TO.N,/backplane/A17*%
X147460000Y-98580000D03*
%TO.P,J9,61*%
%TO.N,/backplane/A16*%
X147460000Y-101120000D03*
%TO.P,J9,62*%
%TO.N,/backplane/A15*%
X147460000Y-103660000D03*
%TO.P,J9,63*%
%TO.N,/backplane/A14*%
X147460000Y-106200000D03*
%TO.P,J9,64*%
%TO.N,GND*%
X147460000Y-108740000D03*
D12*
%TO.P,J9,65*%
%TO.N,/backplane/+5V*%
X150000000Y-30000000D03*
%TO.P,J9,66*%
%TO.N,/backplane/{slash}VMA*%
X150000000Y-32540000D03*
%TO.P,J9,67*%
%TO.N,/backplane/{slash}VPA*%
X150000000Y-35080000D03*
%TO.P,J9,68*%
%TO.N,/backplane/{slash}BERR*%
X150000000Y-37620000D03*
%TO.P,J9,69*%
%TO.N,/backplane/{slash}BGACK*%
X150000000Y-40160000D03*
%TO.P,J9,70*%
%TO.N,/backplane/{slash}LDS*%
X150000000Y-42700000D03*
%TO.P,J9,71*%
%TO.N,/backplane/{slash}UDS*%
X150000000Y-45240000D03*
%TO.P,J9,72*%
%TO.N,/backplane/{slash}INTA*%
X150000000Y-47780000D03*
%TO.P,J9,73*%
%TO.N,/backplane/ALE*%
X150000000Y-50320000D03*
%TO.P,J9,74*%
%TO.N,/backplane/{slash}DEN*%
X150000000Y-52860000D03*
%TO.P,J9,75*%
%TO.N,/backplane/DT{slash}R*%
X150000000Y-55400000D03*
%TO.P,J9,76*%
%TO.N,/backplane/M{slash}IO*%
X150000000Y-57940000D03*
%TO.P,J9,77*%
%TO.N,/backplane/{slash}SSO*%
X150000000Y-60480000D03*
%TO.P,J9,78*%
%TO.N,/backplane/{slash}WAIT*%
X150000000Y-63020000D03*
%TO.P,J9,79*%
%TO.N,/backplane/{slash}M1*%
X150000000Y-65560000D03*
%TO.P,J9,80*%
%TO.N,/backplane/{slash}RFSH*%
X150000000Y-68100000D03*
%TO.P,J9,81*%
%TO.N,/backplane/Res1*%
X150000000Y-70640000D03*
%TO.P,J9,82*%
%TO.N,/backplane/Res2*%
X150000000Y-73180000D03*
%TO.P,J9,83*%
%TO.N,/backplane/Res3*%
X150000000Y-75720000D03*
%TO.P,J9,84*%
%TO.N,/backplane/Res4*%
X150000000Y-78260000D03*
%TO.P,J9,85*%
%TO.N,/backplane/Res5*%
X150000000Y-80800000D03*
%TO.P,J9,86*%
%TO.N,/backplane/Res6*%
X150000000Y-83340000D03*
%TO.P,J9,87*%
%TO.N,/backplane/Res7*%
X150000000Y-85880000D03*
%TO.P,J9,88*%
%TO.N,/backplane/Res8*%
X150000000Y-88420000D03*
%TO.P,J9,89*%
%TO.N,/backplane/Res9*%
X150000000Y-90960000D03*
%TO.P,J9,90*%
%TO.N,/backplane/Res10*%
X150000000Y-93500000D03*
%TO.P,J9,91*%
%TO.N,/backplane/Res11*%
X150000000Y-96040000D03*
%TO.P,J9,92*%
%TO.N,/backplane/+12V*%
X150000000Y-98580000D03*
%TO.P,J9,93*%
%TO.N,GND*%
X150000000Y-101120000D03*
%TO.P,J9,94*%
%TO.N,/backplane/-5V*%
X150000000Y-103660000D03*
%TO.P,J9,95*%
%TO.N,GND*%
X150000000Y-106200000D03*
%TO.P,J9,96*%
X150000000Y-108740000D03*
%TD*%
%TO.P,J3,1*%
%TO.N,/backplane/+5V*%
X54920000Y-30000000D03*
%TO.P,J3,2*%
%TO.N,/backplane/D0*%
X54920000Y-32540000D03*
%TO.P,J3,3*%
%TO.N,/backplane/D1*%
X54920000Y-35080000D03*
%TO.P,J3,4*%
%TO.N,/backplane/D2*%
X54920000Y-37620000D03*
%TO.P,J3,5*%
%TO.N,/backplane/D3*%
X54920000Y-40160000D03*
%TO.P,J3,6*%
%TO.N,/backplane/D4*%
X54920000Y-42700000D03*
%TO.P,J3,7*%
%TO.N,/backplane/D5*%
X54920000Y-45240000D03*
%TO.P,J3,8*%
%TO.N,/backplane/D6*%
X54920000Y-47780000D03*
%TO.P,J3,9*%
%TO.N,/backplane/D7*%
X54920000Y-50320000D03*
%TO.P,J3,10*%
%TO.N,/backplane/D8*%
X54920000Y-52860000D03*
%TO.P,J3,11*%
%TO.N,/backplane/D9*%
X54920000Y-55400000D03*
%TO.P,J3,12*%
%TO.N,/backplane/D10*%
X54920000Y-57940000D03*
%TO.P,J3,13*%
%TO.N,/backplane/D11*%
X54920000Y-60480000D03*
%TO.P,J3,14*%
%TO.N,/backplane/D12*%
X54920000Y-63020000D03*
%TO.P,J3,15*%
%TO.N,/backplane/D13*%
X54920000Y-65560000D03*
%TO.P,J3,16*%
%TO.N,/backplane/D14*%
X54920000Y-68100000D03*
%TO.P,J3,17*%
%TO.N,/backplane/D15*%
X54920000Y-70640000D03*
%TO.P,J3,18*%
%TO.N,/backplane/A0*%
X54920000Y-73180000D03*
%TO.P,J3,19*%
%TO.N,/backplane/A1*%
X54920000Y-75720000D03*
%TO.P,J3,20*%
%TO.N,/backplane/A2*%
X54920000Y-78260000D03*
%TO.P,J3,21*%
%TO.N,/backplane/A3*%
X54920000Y-80800000D03*
%TO.P,J3,22*%
%TO.N,/backplane/A4*%
X54920000Y-83340000D03*
%TO.P,J3,23*%
%TO.N,/backplane/A5*%
X54920000Y-85880000D03*
%TO.P,J3,24*%
%TO.N,/backplane/A6*%
X54920000Y-88420000D03*
%TO.P,J3,25*%
%TO.N,/backplane/A7*%
X54920000Y-90960000D03*
%TO.P,J3,26*%
%TO.N,/backplane/A8*%
X54920000Y-93500000D03*
%TO.P,J3,27*%
%TO.N,/backplane/A9*%
X54920000Y-96040000D03*
%TO.P,J3,28*%
%TO.N,/backplane/A10*%
X54920000Y-98580000D03*
%TO.P,J3,29*%
%TO.N,/backplane/A11*%
X54920000Y-101120000D03*
%TO.P,J3,30*%
%TO.N,/backplane/A12*%
X54920000Y-103660000D03*
%TO.P,J3,31*%
%TO.N,/backplane/A13*%
X54920000Y-106200000D03*
%TO.P,J3,32*%
%TO.N,GND*%
X54920000Y-108740000D03*
D13*
%TO.P,J3,33*%
%TO.N,/backplane/+5V*%
X57460000Y-30000000D03*
%TO.P,J3,34*%
%TO.N,/backplane/E*%
X57460000Y-32540000D03*
%TO.P,J3,35*%
%TO.N,/backplane/CRUCLK*%
X57460000Y-35080000D03*
%TO.P,J3,36*%
%TO.N,/backplane/CRUIN*%
X57460000Y-37620000D03*
%TO.P,J3,37*%
%TO.N,/backplane/CRUOUT*%
X57460000Y-40160000D03*
%TO.P,J3,38*%
%TO.N,/backplane/DBIN*%
X57460000Y-42700000D03*
%TO.P,J3,39*%
%TO.N,/backplane/IAQ*%
X57460000Y-45240000D03*
%TO.P,J3,40*%
%TO.N,/backplane/{slash}INTR*%
X57460000Y-47780000D03*
%TO.P,J3,41*%
%TO.N,/backplane/NMI*%
X57460000Y-50320000D03*
%TO.P,J3,42*%
%TO.N,/backplane/{slash}HOLD*%
X57460000Y-52860000D03*
%TO.P,J3,43*%
%TO.N,/backplane/{slash}AS*%
X57460000Y-55400000D03*
%TO.P,J3,44*%
%TO.N,/backplane/RDY*%
X57460000Y-57940000D03*
%TO.P,J3,45*%
%TO.N,/backplane/{slash}RD*%
X57460000Y-60480000D03*
%TO.P,J3,46*%
%TO.N,/backplane/{slash}WE*%
X57460000Y-63020000D03*
%TO.P,J3,47*%
%TO.N,/backplane/IC3*%
X57460000Y-65560000D03*
%TO.P,J3,48*%
%TO.N,/backplane/IPL2*%
X57460000Y-68100000D03*
%TO.P,J3,49*%
%TO.N,/backplane/IPL1*%
X57460000Y-70640000D03*
%TO.P,J3,50*%
%TO.N,/backplane/IPL0*%
X57460000Y-73180000D03*
%TO.P,J3,51*%
%TO.N,/backplane/{slash}RST*%
X57460000Y-75720000D03*
%TO.P,J3,52*%
%TO.N,/backplane/HLDA*%
X57460000Y-78260000D03*
%TO.P,J3,53*%
%TO.N,/backplane/{slash}HALT*%
X57460000Y-80800000D03*
%TO.P,J3,54*%
%TO.N,/backplane/Res12*%
X57460000Y-83340000D03*
%TO.P,J3,55*%
%TO.N,/backplane/A22*%
X57460000Y-85880000D03*
%TO.P,J3,56*%
%TO.N,/backplane/A21*%
X57460000Y-88420000D03*
%TO.P,J3,57*%
%TO.N,/backplane/A20*%
X57460000Y-90960000D03*
%TO.P,J3,58*%
%TO.N,/backplane/A19*%
X57460000Y-93500000D03*
%TO.P,J3,59*%
%TO.N,/backplane/A18*%
X57460000Y-96040000D03*
%TO.P,J3,60*%
%TO.N,/backplane/A17*%
X57460000Y-98580000D03*
%TO.P,J3,61*%
%TO.N,/backplane/A16*%
X57460000Y-101120000D03*
%TO.P,J3,62*%
%TO.N,/backplane/A15*%
X57460000Y-103660000D03*
%TO.P,J3,63*%
%TO.N,/backplane/A14*%
X57460000Y-106200000D03*
%TO.P,J3,64*%
%TO.N,GND*%
X57460000Y-108740000D03*
D12*
%TO.P,J3,65*%
%TO.N,/backplane/+5V*%
X60000000Y-30000000D03*
%TO.P,J3,66*%
%TO.N,/backplane/{slash}VMA*%
X60000000Y-32540000D03*
%TO.P,J3,67*%
%TO.N,/backplane/{slash}VPA*%
X60000000Y-35080000D03*
%TO.P,J3,68*%
%TO.N,/backplane/{slash}BERR*%
X60000000Y-37620000D03*
%TO.P,J3,69*%
%TO.N,/backplane/{slash}BGACK*%
X60000000Y-40160000D03*
%TO.P,J3,70*%
%TO.N,/backplane/{slash}LDS*%
X60000000Y-42700000D03*
%TO.P,J3,71*%
%TO.N,/backplane/{slash}UDS*%
X60000000Y-45240000D03*
%TO.P,J3,72*%
%TO.N,/backplane/{slash}INTA*%
X60000000Y-47780000D03*
%TO.P,J3,73*%
%TO.N,/backplane/ALE*%
X60000000Y-50320000D03*
%TO.P,J3,74*%
%TO.N,/backplane/{slash}DEN*%
X60000000Y-52860000D03*
%TO.P,J3,75*%
%TO.N,/backplane/DT{slash}R*%
X60000000Y-55400000D03*
%TO.P,J3,76*%
%TO.N,/backplane/M{slash}IO*%
X60000000Y-57940000D03*
%TO.P,J3,77*%
%TO.N,/backplane/{slash}SSO*%
X60000000Y-60480000D03*
%TO.P,J3,78*%
%TO.N,/backplane/{slash}WAIT*%
X60000000Y-63020000D03*
%TO.P,J3,79*%
%TO.N,/backplane/{slash}M1*%
X60000000Y-65560000D03*
%TO.P,J3,80*%
%TO.N,/backplane/{slash}RFSH*%
X60000000Y-68100000D03*
%TO.P,J3,81*%
%TO.N,/backplane/Res1*%
X60000000Y-70640000D03*
%TO.P,J3,82*%
%TO.N,/backplane/Res2*%
X60000000Y-73180000D03*
%TO.P,J3,83*%
%TO.N,/backplane/Res3*%
X60000000Y-75720000D03*
%TO.P,J3,84*%
%TO.N,/backplane/Res4*%
X60000000Y-78260000D03*
%TO.P,J3,85*%
%TO.N,/backplane/Res5*%
X60000000Y-80800000D03*
%TO.P,J3,86*%
%TO.N,/backplane/Res6*%
X60000000Y-83340000D03*
%TO.P,J3,87*%
%TO.N,/backplane/Res7*%
X60000000Y-85880000D03*
%TO.P,J3,88*%
%TO.N,/backplane/Res8*%
X60000000Y-88420000D03*
%TO.P,J3,89*%
%TO.N,/backplane/Res9*%
X60000000Y-90960000D03*
%TO.P,J3,90*%
%TO.N,/backplane/Res10*%
X60000000Y-93500000D03*
%TO.P,J3,91*%
%TO.N,/backplane/Res11*%
X60000000Y-96040000D03*
%TO.P,J3,92*%
%TO.N,/backplane/+12V*%
X60000000Y-98580000D03*
%TO.P,J3,93*%
%TO.N,GND*%
X60000000Y-101120000D03*
%TO.P,J3,94*%
%TO.N,/backplane/-5V*%
X60000000Y-103660000D03*
%TO.P,J3,95*%
%TO.N,GND*%
X60000000Y-106200000D03*
%TO.P,J3,96*%
X60000000Y-108740000D03*
%TD*%
D10*
%TO.P,J12,1,Pin_1*%
%TO.N,/backplane/-5V*%
X20070000Y-105485000D03*
D11*
%TO.P,J12,2,Pin_2*%
%TO.N,GND*%
X20070000Y-102945000D03*
%TD*%
D12*
%TO.P,J5,1*%
%TO.N,/backplane/+5V*%
X84920000Y-30000000D03*
%TO.P,J5,2*%
%TO.N,/backplane/D0*%
X84920000Y-32540000D03*
%TO.P,J5,3*%
%TO.N,/backplane/D1*%
X84920000Y-35080000D03*
%TO.P,J5,4*%
%TO.N,/backplane/D2*%
X84920000Y-37620000D03*
%TO.P,J5,5*%
%TO.N,/backplane/D3*%
X84920000Y-40160000D03*
%TO.P,J5,6*%
%TO.N,/backplane/D4*%
X84920000Y-42700000D03*
%TO.P,J5,7*%
%TO.N,/backplane/D5*%
X84920000Y-45240000D03*
%TO.P,J5,8*%
%TO.N,/backplane/D6*%
X84920000Y-47780000D03*
%TO.P,J5,9*%
%TO.N,/backplane/D7*%
X84920000Y-50320000D03*
%TO.P,J5,10*%
%TO.N,/backplane/D8*%
X84920000Y-52860000D03*
%TO.P,J5,11*%
%TO.N,/backplane/D9*%
X84920000Y-55400000D03*
%TO.P,J5,12*%
%TO.N,/backplane/D10*%
X84920000Y-57940000D03*
%TO.P,J5,13*%
%TO.N,/backplane/D11*%
X84920000Y-60480000D03*
%TO.P,J5,14*%
%TO.N,/backplane/D12*%
X84920000Y-63020000D03*
%TO.P,J5,15*%
%TO.N,/backplane/D13*%
X84920000Y-65560000D03*
%TO.P,J5,16*%
%TO.N,/backplane/D14*%
X84920000Y-68100000D03*
%TO.P,J5,17*%
%TO.N,/backplane/D15*%
X84920000Y-70640000D03*
%TO.P,J5,18*%
%TO.N,/backplane/A0*%
X84920000Y-73180000D03*
%TO.P,J5,19*%
%TO.N,/backplane/A1*%
X84920000Y-75720000D03*
%TO.P,J5,20*%
%TO.N,/backplane/A2*%
X84920000Y-78260000D03*
%TO.P,J5,21*%
%TO.N,/backplane/A3*%
X84920000Y-80800000D03*
%TO.P,J5,22*%
%TO.N,/backplane/A4*%
X84920000Y-83340000D03*
%TO.P,J5,23*%
%TO.N,/backplane/A5*%
X84920000Y-85880000D03*
%TO.P,J5,24*%
%TO.N,/backplane/A6*%
X84920000Y-88420000D03*
%TO.P,J5,25*%
%TO.N,/backplane/A7*%
X84920000Y-90960000D03*
%TO.P,J5,26*%
%TO.N,/backplane/A8*%
X84920000Y-93500000D03*
%TO.P,J5,27*%
%TO.N,/backplane/A9*%
X84920000Y-96040000D03*
%TO.P,J5,28*%
%TO.N,/backplane/A10*%
X84920000Y-98580000D03*
%TO.P,J5,29*%
%TO.N,/backplane/A11*%
X84920000Y-101120000D03*
%TO.P,J5,30*%
%TO.N,/backplane/A12*%
X84920000Y-103660000D03*
%TO.P,J5,31*%
%TO.N,/backplane/A13*%
X84920000Y-106200000D03*
%TO.P,J5,32*%
%TO.N,GND*%
X84920000Y-108740000D03*
D13*
%TO.P,J5,33*%
%TO.N,/backplane/+5V*%
X87460000Y-30000000D03*
%TO.P,J5,34*%
%TO.N,/backplane/E*%
X87460000Y-32540000D03*
%TO.P,J5,35*%
%TO.N,/backplane/CRUCLK*%
X87460000Y-35080000D03*
%TO.P,J5,36*%
%TO.N,/backplane/CRUIN*%
X87460000Y-37620000D03*
%TO.P,J5,37*%
%TO.N,/backplane/CRUOUT*%
X87460000Y-40160000D03*
%TO.P,J5,38*%
%TO.N,/backplane/DBIN*%
X87460000Y-42700000D03*
%TO.P,J5,39*%
%TO.N,/backplane/IAQ*%
X87460000Y-45240000D03*
%TO.P,J5,40*%
%TO.N,/backplane/{slash}INTR*%
X87460000Y-47780000D03*
%TO.P,J5,41*%
%TO.N,/backplane/NMI*%
X87460000Y-50320000D03*
%TO.P,J5,42*%
%TO.N,/backplane/{slash}HOLD*%
X87460000Y-52860000D03*
%TO.P,J5,43*%
%TO.N,/backplane/{slash}AS*%
X87460000Y-55400000D03*
%TO.P,J5,44*%
%TO.N,/backplane/RDY*%
X87460000Y-57940000D03*
%TO.P,J5,45*%
%TO.N,/backplane/{slash}RD*%
X87460000Y-60480000D03*
%TO.P,J5,46*%
%TO.N,/backplane/{slash}WE*%
X87460000Y-63020000D03*
%TO.P,J5,47*%
%TO.N,/backplane/IC3*%
X87460000Y-65560000D03*
%TO.P,J5,48*%
%TO.N,/backplane/IPL2*%
X87460000Y-68100000D03*
%TO.P,J5,49*%
%TO.N,/backplane/IPL1*%
X87460000Y-70640000D03*
%TO.P,J5,50*%
%TO.N,/backplane/IPL0*%
X87460000Y-73180000D03*
%TO.P,J5,51*%
%TO.N,/backplane/{slash}RST*%
X87460000Y-75720000D03*
%TO.P,J5,52*%
%TO.N,/backplane/HLDA*%
X87460000Y-78260000D03*
%TO.P,J5,53*%
%TO.N,/backplane/{slash}HALT*%
X87460000Y-80800000D03*
%TO.P,J5,54*%
%TO.N,/backplane/Res12*%
X87460000Y-83340000D03*
%TO.P,J5,55*%
%TO.N,/backplane/A22*%
X87460000Y-85880000D03*
%TO.P,J5,56*%
%TO.N,/backplane/A21*%
X87460000Y-88420000D03*
%TO.P,J5,57*%
%TO.N,/backplane/A20*%
X87460000Y-90960000D03*
%TO.P,J5,58*%
%TO.N,/backplane/A19*%
X87460000Y-93500000D03*
%TO.P,J5,59*%
%TO.N,/backplane/A18*%
X87460000Y-96040000D03*
%TO.P,J5,60*%
%TO.N,/backplane/A17*%
X87460000Y-98580000D03*
%TO.P,J5,61*%
%TO.N,/backplane/A16*%
X87460000Y-101120000D03*
%TO.P,J5,62*%
%TO.N,/backplane/A15*%
X87460000Y-103660000D03*
%TO.P,J5,63*%
%TO.N,/backplane/A14*%
X87460000Y-106200000D03*
%TO.P,J5,64*%
%TO.N,GND*%
X87460000Y-108740000D03*
D12*
%TO.P,J5,65*%
%TO.N,/backplane/+5V*%
X90000000Y-30000000D03*
%TO.P,J5,66*%
%TO.N,/backplane/{slash}VMA*%
X90000000Y-32540000D03*
%TO.P,J5,67*%
%TO.N,/backplane/{slash}VPA*%
X90000000Y-35080000D03*
%TO.P,J5,68*%
%TO.N,/backplane/{slash}BERR*%
X90000000Y-37620000D03*
%TO.P,J5,69*%
%TO.N,/backplane/{slash}BGACK*%
X90000000Y-40160000D03*
%TO.P,J5,70*%
%TO.N,/backplane/{slash}LDS*%
X90000000Y-42700000D03*
%TO.P,J5,71*%
%TO.N,/backplane/{slash}UDS*%
X90000000Y-45240000D03*
%TO.P,J5,72*%
%TO.N,/backplane/{slash}INTA*%
X90000000Y-47780000D03*
%TO.P,J5,73*%
%TO.N,/backplane/ALE*%
X90000000Y-50320000D03*
%TO.P,J5,74*%
%TO.N,/backplane/{slash}DEN*%
X90000000Y-52860000D03*
%TO.P,J5,75*%
%TO.N,/backplane/DT{slash}R*%
X90000000Y-55400000D03*
%TO.P,J5,76*%
%TO.N,/backplane/M{slash}IO*%
X90000000Y-57940000D03*
%TO.P,J5,77*%
%TO.N,/backplane/{slash}SSO*%
X90000000Y-60480000D03*
%TO.P,J5,78*%
%TO.N,/backplane/{slash}WAIT*%
X90000000Y-63020000D03*
%TO.P,J5,79*%
%TO.N,/backplane/{slash}M1*%
X90000000Y-65560000D03*
%TO.P,J5,80*%
%TO.N,/backplane/{slash}RFSH*%
X90000000Y-68100000D03*
%TO.P,J5,81*%
%TO.N,/backplane/Res1*%
X90000000Y-70640000D03*
%TO.P,J5,82*%
%TO.N,/backplane/Res2*%
X90000000Y-73180000D03*
%TO.P,J5,83*%
%TO.N,/backplane/Res3*%
X90000000Y-75720000D03*
%TO.P,J5,84*%
%TO.N,/backplane/Res4*%
X90000000Y-78260000D03*
%TO.P,J5,85*%
%TO.N,/backplane/Res5*%
X90000000Y-80800000D03*
%TO.P,J5,86*%
%TO.N,/backplane/Res6*%
X90000000Y-83340000D03*
%TO.P,J5,87*%
%TO.N,/backplane/Res7*%
X90000000Y-85880000D03*
%TO.P,J5,88*%
%TO.N,/backplane/Res8*%
X90000000Y-88420000D03*
%TO.P,J5,89*%
%TO.N,/backplane/Res9*%
X90000000Y-90960000D03*
%TO.P,J5,90*%
%TO.N,/backplane/Res10*%
X90000000Y-93500000D03*
%TO.P,J5,91*%
%TO.N,/backplane/Res11*%
X90000000Y-96040000D03*
%TO.P,J5,92*%
%TO.N,/backplane/+12V*%
X90000000Y-98580000D03*
%TO.P,J5,93*%
%TO.N,GND*%
X90000000Y-101120000D03*
%TO.P,J5,94*%
%TO.N,/backplane/-5V*%
X90000000Y-103660000D03*
%TO.P,J5,95*%
%TO.N,GND*%
X90000000Y-106200000D03*
%TO.P,J5,96*%
X90000000Y-108740000D03*
%TD*%
D10*
%TO.P,J14,1,Pin_1*%
%TO.N,/backplane/+5V*%
X20455000Y-45050000D03*
D11*
%TO.P,J14,2,Pin_2*%
%TO.N,GND*%
X17915000Y-45050000D03*
%TD*%
D12*
%TO.P,J6,1*%
%TO.N,/backplane/+5V*%
X99920000Y-30000000D03*
%TO.P,J6,2*%
%TO.N,/backplane/D0*%
X99920000Y-32540000D03*
%TO.P,J6,3*%
%TO.N,/backplane/D1*%
X99920000Y-35080000D03*
%TO.P,J6,4*%
%TO.N,/backplane/D2*%
X99920000Y-37620000D03*
%TO.P,J6,5*%
%TO.N,/backplane/D3*%
X99920000Y-40160000D03*
%TO.P,J6,6*%
%TO.N,/backplane/D4*%
X99920000Y-42700000D03*
%TO.P,J6,7*%
%TO.N,/backplane/D5*%
X99920000Y-45240000D03*
%TO.P,J6,8*%
%TO.N,/backplane/D6*%
X99920000Y-47780000D03*
%TO.P,J6,9*%
%TO.N,/backplane/D7*%
X99920000Y-50320000D03*
%TO.P,J6,10*%
%TO.N,/backplane/D8*%
X99920000Y-52860000D03*
%TO.P,J6,11*%
%TO.N,/backplane/D9*%
X99920000Y-55400000D03*
%TO.P,J6,12*%
%TO.N,/backplane/D10*%
X99920000Y-57940000D03*
%TO.P,J6,13*%
%TO.N,/backplane/D11*%
X99920000Y-60480000D03*
%TO.P,J6,14*%
%TO.N,/backplane/D12*%
X99920000Y-63020000D03*
%TO.P,J6,15*%
%TO.N,/backplane/D13*%
X99920000Y-65560000D03*
%TO.P,J6,16*%
%TO.N,/backplane/D14*%
X99920000Y-68100000D03*
%TO.P,J6,17*%
%TO.N,/backplane/D15*%
X99920000Y-70640000D03*
%TO.P,J6,18*%
%TO.N,/backplane/A0*%
X99920000Y-73180000D03*
%TO.P,J6,19*%
%TO.N,/backplane/A1*%
X99920000Y-75720000D03*
%TO.P,J6,20*%
%TO.N,/backplane/A2*%
X99920000Y-78260000D03*
%TO.P,J6,21*%
%TO.N,/backplane/A3*%
X99920000Y-80800000D03*
%TO.P,J6,22*%
%TO.N,/backplane/A4*%
X99920000Y-83340000D03*
%TO.P,J6,23*%
%TO.N,/backplane/A5*%
X99920000Y-85880000D03*
%TO.P,J6,24*%
%TO.N,/backplane/A6*%
X99920000Y-88420000D03*
%TO.P,J6,25*%
%TO.N,/backplane/A7*%
X99920000Y-90960000D03*
%TO.P,J6,26*%
%TO.N,/backplane/A8*%
X99920000Y-93500000D03*
%TO.P,J6,27*%
%TO.N,/backplane/A9*%
X99920000Y-96040000D03*
%TO.P,J6,28*%
%TO.N,/backplane/A10*%
X99920000Y-98580000D03*
%TO.P,J6,29*%
%TO.N,/backplane/A11*%
X99920000Y-101120000D03*
%TO.P,J6,30*%
%TO.N,/backplane/A12*%
X99920000Y-103660000D03*
%TO.P,J6,31*%
%TO.N,/backplane/A13*%
X99920000Y-106200000D03*
%TO.P,J6,32*%
%TO.N,GND*%
X99920000Y-108740000D03*
D13*
%TO.P,J6,33*%
%TO.N,/backplane/+5V*%
X102460000Y-30000000D03*
%TO.P,J6,34*%
%TO.N,/backplane/E*%
X102460000Y-32540000D03*
%TO.P,J6,35*%
%TO.N,/backplane/CRUCLK*%
X102460000Y-35080000D03*
%TO.P,J6,36*%
%TO.N,/backplane/CRUIN*%
X102460000Y-37620000D03*
%TO.P,J6,37*%
%TO.N,/backplane/CRUOUT*%
X102460000Y-40160000D03*
%TO.P,J6,38*%
%TO.N,/backplane/DBIN*%
X102460000Y-42700000D03*
%TO.P,J6,39*%
%TO.N,/backplane/IAQ*%
X102460000Y-45240000D03*
%TO.P,J6,40*%
%TO.N,/backplane/{slash}INTR*%
X102460000Y-47780000D03*
%TO.P,J6,41*%
%TO.N,/backplane/NMI*%
X102460000Y-50320000D03*
%TO.P,J6,42*%
%TO.N,/backplane/{slash}HOLD*%
X102460000Y-52860000D03*
%TO.P,J6,43*%
%TO.N,/backplane/{slash}AS*%
X102460000Y-55400000D03*
%TO.P,J6,44*%
%TO.N,/backplane/RDY*%
X102460000Y-57940000D03*
%TO.P,J6,45*%
%TO.N,/backplane/{slash}RD*%
X102460000Y-60480000D03*
%TO.P,J6,46*%
%TO.N,/backplane/{slash}WE*%
X102460000Y-63020000D03*
%TO.P,J6,47*%
%TO.N,/backplane/IC3*%
X102460000Y-65560000D03*
%TO.P,J6,48*%
%TO.N,/backplane/IPL2*%
X102460000Y-68100000D03*
%TO.P,J6,49*%
%TO.N,/backplane/IPL1*%
X102460000Y-70640000D03*
%TO.P,J6,50*%
%TO.N,/backplane/IPL0*%
X102460000Y-73180000D03*
%TO.P,J6,51*%
%TO.N,/backplane/{slash}RST*%
X102460000Y-75720000D03*
%TO.P,J6,52*%
%TO.N,/backplane/HLDA*%
X102460000Y-78260000D03*
%TO.P,J6,53*%
%TO.N,/backplane/{slash}HALT*%
X102460000Y-80800000D03*
%TO.P,J6,54*%
%TO.N,/backplane/Res12*%
X102460000Y-83340000D03*
%TO.P,J6,55*%
%TO.N,/backplane/A22*%
X102460000Y-85880000D03*
%TO.P,J6,56*%
%TO.N,/backplane/A21*%
X102460000Y-88420000D03*
%TO.P,J6,57*%
%TO.N,/backplane/A20*%
X102460000Y-90960000D03*
%TO.P,J6,58*%
%TO.N,/backplane/A19*%
X102460000Y-93500000D03*
%TO.P,J6,59*%
%TO.N,/backplane/A18*%
X102460000Y-96040000D03*
%TO.P,J6,60*%
%TO.N,/backplane/A17*%
X102460000Y-98580000D03*
%TO.P,J6,61*%
%TO.N,/backplane/A16*%
X102460000Y-101120000D03*
%TO.P,J6,62*%
%TO.N,/backplane/A15*%
X102460000Y-103660000D03*
%TO.P,J6,63*%
%TO.N,/backplane/A14*%
X102460000Y-106200000D03*
%TO.P,J6,64*%
%TO.N,GND*%
X102460000Y-108740000D03*
D12*
%TO.P,J6,65*%
%TO.N,/backplane/+5V*%
X105000000Y-30000000D03*
%TO.P,J6,66*%
%TO.N,/backplane/{slash}VMA*%
X105000000Y-32540000D03*
%TO.P,J6,67*%
%TO.N,/backplane/{slash}VPA*%
X105000000Y-35080000D03*
%TO.P,J6,68*%
%TO.N,/backplane/{slash}BERR*%
X105000000Y-37620000D03*
%TO.P,J6,69*%
%TO.N,/backplane/{slash}BGACK*%
X105000000Y-40160000D03*
%TO.P,J6,70*%
%TO.N,/backplane/{slash}LDS*%
X105000000Y-42700000D03*
%TO.P,J6,71*%
%TO.N,/backplane/{slash}UDS*%
X105000000Y-45240000D03*
%TO.P,J6,72*%
%TO.N,/backplane/{slash}INTA*%
X105000000Y-47780000D03*
%TO.P,J6,73*%
%TO.N,/backplane/ALE*%
X105000000Y-50320000D03*
%TO.P,J6,74*%
%TO.N,/backplane/{slash}DEN*%
X105000000Y-52860000D03*
%TO.P,J6,75*%
%TO.N,/backplane/DT{slash}R*%
X105000000Y-55400000D03*
%TO.P,J6,76*%
%TO.N,/backplane/M{slash}IO*%
X105000000Y-57940000D03*
%TO.P,J6,77*%
%TO.N,/backplane/{slash}SSO*%
X105000000Y-60480000D03*
%TO.P,J6,78*%
%TO.N,/backplane/{slash}WAIT*%
X105000000Y-63020000D03*
%TO.P,J6,79*%
%TO.N,/backplane/{slash}M1*%
X105000000Y-65560000D03*
%TO.P,J6,80*%
%TO.N,/backplane/{slash}RFSH*%
X105000000Y-68100000D03*
%TO.P,J6,81*%
%TO.N,/backplane/Res1*%
X105000000Y-70640000D03*
%TO.P,J6,82*%
%TO.N,/backplane/Res2*%
X105000000Y-73180000D03*
%TO.P,J6,83*%
%TO.N,/backplane/Res3*%
X105000000Y-75720000D03*
%TO.P,J6,84*%
%TO.N,/backplane/Res4*%
X105000000Y-78260000D03*
%TO.P,J6,85*%
%TO.N,/backplane/Res5*%
X105000000Y-80800000D03*
%TO.P,J6,86*%
%TO.N,/backplane/Res6*%
X105000000Y-83340000D03*
%TO.P,J6,87*%
%TO.N,/backplane/Res7*%
X105000000Y-85880000D03*
%TO.P,J6,88*%
%TO.N,/backplane/Res8*%
X105000000Y-88420000D03*
%TO.P,J6,89*%
%TO.N,/backplane/Res9*%
X105000000Y-90960000D03*
%TO.P,J6,90*%
%TO.N,/backplane/Res10*%
X105000000Y-93500000D03*
%TO.P,J6,91*%
%TO.N,/backplane/Res11*%
X105000000Y-96040000D03*
%TO.P,J6,92*%
%TO.N,/backplane/+12V*%
X105000000Y-98580000D03*
%TO.P,J6,93*%
%TO.N,GND*%
X105000000Y-101120000D03*
%TO.P,J6,94*%
%TO.N,/backplane/-5V*%
X105000000Y-103660000D03*
%TO.P,J6,95*%
%TO.N,GND*%
X105000000Y-106200000D03*
%TO.P,J6,96*%
X105000000Y-108740000D03*
%TD*%
M02*
