M48
; DRILL file {KiCad 9.0.9-9.0.9~ubuntu24.04.1} date 2026-05-14T10:05:33-0300
; FORMAT={-:-/ absolute / metric / decimal}
; #@! TF.CreationDate,2026-05-14T10:05:33-03:00
; #@! TF.GenerationSoftware,Kicad,Pcbnew,9.0.9-9.0.9~ubuntu24.04.1
; #@! TF.FileFunction,Plated,1,2,PTH
FMAT,2
METRIC
; #@! TA.AperFunction,Plated,PTH,ComponentDrill
T1C0.800
; #@! TA.AperFunction,Plated,PTH,ComponentDrill
T2C1.300
%
G90
G05
T1
X19.5Y-51.0
X19.5Y-56.0
X26.28Y-30.0
X26.28Y-32.54
X26.28Y-35.08
X26.28Y-37.62
X26.28Y-40.16
X26.28Y-42.7
X26.28Y-45.24
X26.28Y-47.78
X26.28Y-50.32
X26.28Y-52.86
X26.28Y-55.4
X26.28Y-57.94
X26.28Y-60.48
X26.28Y-63.02
X26.28Y-65.56
X26.28Y-68.1
X26.28Y-70.64
X26.28Y-73.18
X26.28Y-75.72
X26.28Y-78.26
X26.28Y-80.8
X26.28Y-83.34
X26.28Y-85.88
X26.28Y-88.42
X26.28Y-90.96
X26.28Y-93.5
X26.28Y-96.04
X26.28Y-98.58
X26.28Y-101.12
X26.28Y-103.66
X26.28Y-106.2
X26.28Y-108.74
X28.82Y-30.0
X28.82Y-32.54
X28.82Y-35.08
X28.82Y-37.62
X28.82Y-40.16
X28.82Y-42.7
X28.82Y-45.24
X28.82Y-47.78
X28.82Y-50.32
X28.82Y-52.86
X28.82Y-55.4
X28.82Y-57.94
X28.82Y-60.48
X28.82Y-63.02
X28.82Y-65.56
X28.82Y-68.1
X28.82Y-70.64
X28.82Y-73.18
X28.82Y-75.72
X28.82Y-78.26
X28.82Y-80.8
X28.82Y-83.34
X28.82Y-85.88
X28.82Y-88.42
X28.82Y-90.96
X28.82Y-93.5
X28.82Y-96.04
X28.82Y-98.58
X28.82Y-101.12
X28.82Y-103.66
X28.82Y-106.2
X28.82Y-108.74
X31.36Y-30.0
X31.36Y-32.54
X31.36Y-35.08
X31.36Y-37.62
X31.36Y-40.16
X31.36Y-42.7
X31.36Y-45.24
X31.36Y-47.78
X31.36Y-50.32
X31.36Y-52.86
X31.36Y-55.4
X31.36Y-57.94
X31.36Y-60.48
X31.36Y-63.02
X31.36Y-65.56
X31.36Y-68.1
X31.36Y-70.64
X31.36Y-73.18
X31.36Y-75.72
X31.36Y-78.26
X31.36Y-80.8
X31.36Y-83.34
X31.36Y-85.88
X31.36Y-88.42
X31.36Y-90.96
X31.36Y-93.5
X31.36Y-96.04
X31.36Y-98.58
X31.36Y-101.12
X31.36Y-103.66
X31.36Y-106.2
X31.36Y-108.74
X36.65Y-21.29
X36.65Y-26.29
X41.22Y-30.01
X41.22Y-32.55
X41.22Y-35.09
X41.22Y-37.63
X41.22Y-40.17
X41.22Y-42.71
X41.22Y-45.25
X41.22Y-47.79
X41.22Y-50.33
X41.22Y-52.87
X41.22Y-55.41
X41.22Y-57.95
X41.22Y-60.49
X41.22Y-63.03
X41.22Y-65.57
X41.22Y-68.11
X41.22Y-70.65
X41.22Y-73.19
X41.22Y-75.73
X41.22Y-78.27
X41.22Y-80.81
X41.22Y-83.35
X41.22Y-85.89
X41.22Y-88.43
X41.22Y-90.97
X41.22Y-93.51
X41.22Y-96.05
X41.22Y-98.59
X41.22Y-101.13
X41.22Y-103.67
X41.22Y-106.21
X41.22Y-108.75
X43.76Y-30.01
X43.76Y-32.55
X43.76Y-35.09
X43.76Y-37.63
X43.76Y-40.17
X43.76Y-42.71
X43.76Y-45.25
X43.76Y-47.79
X43.76Y-50.33
X43.76Y-52.87
X43.76Y-55.41
X43.76Y-57.95
X43.76Y-60.49
X43.76Y-63.03
X43.76Y-65.57
X43.76Y-68.11
X43.76Y-70.65
X43.76Y-73.19
X43.76Y-75.73
X43.76Y-78.27
X43.76Y-80.81
X43.76Y-83.35
X43.76Y-85.89
X43.76Y-88.43
X43.76Y-90.97
X43.76Y-93.51
X43.76Y-96.05
X43.76Y-98.59
X43.76Y-101.13
X43.76Y-103.67
X43.76Y-106.21
X43.76Y-108.75
X46.3Y-30.01
X46.3Y-32.55
X46.3Y-35.09
X46.3Y-37.63
X46.3Y-40.17
X46.3Y-42.71
X46.3Y-45.25
X46.3Y-47.79
X46.3Y-50.33
X46.3Y-52.87
X46.3Y-55.41
X46.3Y-57.95
X46.3Y-60.49
X46.3Y-63.03
X46.3Y-65.57
X46.3Y-68.11
X46.3Y-70.65
X46.3Y-73.19
X46.3Y-75.73
X46.3Y-78.27
X46.3Y-80.81
X46.3Y-83.35
X46.3Y-85.89
X46.3Y-88.43
X46.3Y-90.97
X46.3Y-93.51
X46.3Y-96.05
X46.3Y-98.59
X46.3Y-101.13
X46.3Y-103.67
X46.3Y-106.21
X46.3Y-108.75
X51.46Y-21.49
X51.46Y-26.49
X56.29Y-30.01
X56.29Y-32.55
X56.29Y-35.09
X56.29Y-37.63
X56.29Y-40.17
X56.29Y-42.71
X56.29Y-45.25
X56.29Y-47.79
X56.29Y-50.33
X56.29Y-52.87
X56.29Y-55.41
X56.29Y-57.95
X56.29Y-60.49
X56.29Y-63.03
X56.29Y-65.57
X56.29Y-68.11
X56.29Y-70.65
X56.29Y-73.19
X56.29Y-75.73
X56.29Y-78.27
X56.29Y-80.81
X56.29Y-83.35
X56.29Y-85.89
X56.29Y-88.43
X56.29Y-90.97
X56.29Y-93.51
X56.29Y-96.05
X56.29Y-98.59
X56.29Y-101.13
X56.29Y-103.67
X56.29Y-106.21
X56.29Y-108.75
X58.83Y-30.01
X58.83Y-32.55
X58.83Y-35.09
X58.83Y-37.63
X58.83Y-40.17
X58.83Y-42.71
X58.83Y-45.25
X58.83Y-47.79
X58.83Y-50.33
X58.83Y-52.87
X58.83Y-55.41
X58.83Y-57.95
X58.83Y-60.49
X58.83Y-63.03
X58.83Y-65.57
X58.83Y-68.11
X58.83Y-70.65
X58.83Y-73.19
X58.83Y-75.73
X58.83Y-78.27
X58.83Y-80.81
X58.83Y-83.35
X58.83Y-85.89
X58.83Y-88.43
X58.83Y-90.97
X58.83Y-93.51
X58.83Y-96.05
X58.83Y-98.59
X58.83Y-101.13
X58.83Y-103.67
X58.83Y-106.21
X58.83Y-108.75
X61.37Y-30.01
X61.37Y-32.55
X61.37Y-35.09
X61.37Y-37.63
X61.37Y-40.17
X61.37Y-42.71
X61.37Y-45.25
X61.37Y-47.79
X61.37Y-50.33
X61.37Y-52.87
X61.37Y-55.41
X61.37Y-57.95
X61.37Y-60.49
X61.37Y-63.03
X61.37Y-65.57
X61.37Y-68.11
X61.37Y-70.65
X61.37Y-73.19
X61.37Y-75.73
X61.37Y-78.27
X61.37Y-80.81
X61.37Y-83.35
X61.37Y-85.89
X61.37Y-88.43
X61.37Y-90.97
X61.37Y-93.51
X61.37Y-96.05
X61.37Y-98.59
X61.37Y-101.13
X61.37Y-103.67
X61.37Y-106.21
X61.37Y-108.75
X66.18Y-21.26
X66.18Y-26.26
X71.28Y-30.01
X71.28Y-32.55
X71.28Y-35.09
X71.28Y-37.63
X71.28Y-40.17
X71.28Y-42.71
X71.28Y-45.25
X71.28Y-47.79
X71.28Y-50.33
X71.28Y-52.87
X71.28Y-55.41
X71.28Y-57.95
X71.28Y-60.49
X71.28Y-63.03
X71.28Y-65.57
X71.28Y-68.11
X71.28Y-70.65
X71.28Y-73.19
X71.28Y-75.73
X71.28Y-78.27
X71.28Y-80.81
X71.28Y-83.35
X71.28Y-85.89
X71.28Y-88.43
X71.28Y-90.97
X71.28Y-93.51
X71.28Y-96.05
X71.28Y-98.59
X71.28Y-101.13
X71.28Y-103.67
X71.28Y-106.21
X71.28Y-108.75
X73.82Y-30.01
X73.82Y-32.55
X73.82Y-35.09
X73.82Y-37.63
X73.82Y-40.17
X73.82Y-42.71
X73.82Y-45.25
X73.82Y-47.79
X73.82Y-50.33
X73.82Y-52.87
X73.82Y-55.41
X73.82Y-57.95
X73.82Y-60.49
X73.82Y-63.03
X73.82Y-65.57
X73.82Y-68.11
X73.82Y-70.65
X73.82Y-73.19
X73.82Y-75.73
X73.82Y-78.27
X73.82Y-80.81
X73.82Y-83.35
X73.82Y-85.89
X73.82Y-88.43
X73.82Y-90.97
X73.82Y-93.51
X73.82Y-96.05
X73.82Y-98.59
X73.82Y-101.13
X73.82Y-103.67
X73.82Y-106.21
X73.82Y-108.75
X76.36Y-30.01
X76.36Y-32.55
X76.36Y-35.09
X76.36Y-37.63
X76.36Y-40.17
X76.36Y-42.71
X76.36Y-45.25
X76.36Y-47.79
X76.36Y-50.33
X76.36Y-52.87
X76.36Y-55.41
X76.36Y-57.95
X76.36Y-60.49
X76.36Y-63.03
X76.36Y-65.57
X76.36Y-68.11
X76.36Y-70.65
X76.36Y-73.19
X76.36Y-75.73
X76.36Y-78.27
X76.36Y-80.81
X76.36Y-83.35
X76.36Y-85.89
X76.36Y-88.43
X76.36Y-90.97
X76.36Y-93.51
X76.36Y-96.05
X76.36Y-98.59
X76.36Y-101.13
X76.36Y-103.67
X76.36Y-106.21
X76.36Y-108.75
X81.29Y-21.13
X81.29Y-26.13
X86.28Y-30.01
X86.28Y-32.55
X86.28Y-35.09
X86.28Y-37.63
X86.28Y-40.17
X86.28Y-42.71
X86.28Y-45.25
X86.28Y-47.79
X86.28Y-50.33
X86.28Y-52.87
X86.28Y-55.41
X86.28Y-57.95
X86.28Y-60.49
X86.28Y-63.03
X86.28Y-65.57
X86.28Y-68.11
X86.28Y-70.65
X86.28Y-73.19
X86.28Y-75.73
X86.28Y-78.27
X86.28Y-80.81
X86.28Y-83.35
X86.28Y-85.89
X86.28Y-88.43
X86.28Y-90.97
X86.28Y-93.51
X86.28Y-96.05
X86.28Y-98.59
X86.28Y-101.13
X86.28Y-103.67
X86.28Y-106.21
X86.28Y-108.75
X88.82Y-30.01
X88.82Y-32.55
X88.82Y-35.09
X88.82Y-37.63
X88.82Y-40.17
X88.82Y-42.71
X88.82Y-45.25
X88.82Y-47.79
X88.82Y-50.33
X88.82Y-52.87
X88.82Y-55.41
X88.82Y-57.95
X88.82Y-60.49
X88.82Y-63.03
X88.82Y-65.57
X88.82Y-68.11
X88.82Y-70.65
X88.82Y-73.19
X88.82Y-75.73
X88.82Y-78.27
X88.82Y-80.81
X88.82Y-83.35
X88.82Y-85.89
X88.82Y-88.43
X88.82Y-90.97
X88.82Y-93.51
X88.82Y-96.05
X88.82Y-98.59
X88.82Y-101.13
X88.82Y-103.67
X88.82Y-106.21
X88.82Y-108.75
X91.36Y-30.01
X91.36Y-32.55
X91.36Y-35.09
X91.36Y-37.63
X91.36Y-40.17
X91.36Y-42.71
X91.36Y-45.25
X91.36Y-47.79
X91.36Y-50.33
X91.36Y-52.87
X91.36Y-55.41
X91.36Y-57.95
X91.36Y-60.49
X91.36Y-63.03
X91.36Y-65.57
X91.36Y-68.11
X91.36Y-70.65
X91.36Y-73.19
X91.36Y-75.73
X91.36Y-78.27
X91.36Y-80.81
X91.36Y-83.35
X91.36Y-85.89
X91.36Y-88.43
X91.36Y-90.97
X91.36Y-93.51
X91.36Y-96.05
X91.36Y-98.59
X91.36Y-101.13
X91.36Y-103.67
X91.36Y-106.21
X91.36Y-108.75
X96.6Y-21.3
X96.6Y-26.3
X101.31Y-30.01
X101.31Y-32.55
X101.31Y-35.09
X101.31Y-37.63
X101.31Y-40.17
X101.31Y-42.71
X101.31Y-45.25
X101.31Y-47.79
X101.31Y-50.33
X101.31Y-52.87
X101.31Y-55.41
X101.31Y-57.95
X101.31Y-60.49
X101.31Y-63.03
X101.31Y-65.57
X101.31Y-68.11
X101.31Y-70.65
X101.31Y-73.19
X101.31Y-75.73
X101.31Y-78.27
X101.31Y-80.81
X101.31Y-83.35
X101.31Y-85.89
X101.31Y-88.43
X101.31Y-90.97
X101.31Y-93.51
X101.31Y-96.05
X101.31Y-98.59
X101.31Y-101.13
X101.31Y-103.67
X101.31Y-106.21
X101.31Y-108.75
X103.85Y-30.01
X103.85Y-32.55
X103.85Y-35.09
X103.85Y-37.63
X103.85Y-40.17
X103.85Y-42.71
X103.85Y-45.25
X103.85Y-47.79
X103.85Y-50.33
X103.85Y-52.87
X103.85Y-55.41
X103.85Y-57.95
X103.85Y-60.49
X103.85Y-63.03
X103.85Y-65.57
X103.85Y-68.11
X103.85Y-70.65
X103.85Y-73.19
X103.85Y-75.73
X103.85Y-78.27
X103.85Y-80.81
X103.85Y-83.35
X103.85Y-85.89
X103.85Y-88.43
X103.85Y-90.97
X103.85Y-93.51
X103.85Y-96.05
X103.85Y-98.59
X103.85Y-101.13
X103.85Y-103.67
X103.85Y-106.21
X103.85Y-108.75
X106.39Y-30.01
X106.39Y-32.55
X106.39Y-35.09
X106.39Y-37.63
X106.39Y-40.17
X106.39Y-42.71
X106.39Y-45.25
X106.39Y-47.79
X106.39Y-50.33
X106.39Y-52.87
X106.39Y-55.41
X106.39Y-57.95
X106.39Y-60.49
X106.39Y-63.03
X106.39Y-65.57
X106.39Y-68.11
X106.39Y-70.65
X106.39Y-73.19
X106.39Y-75.73
X106.39Y-78.27
X106.39Y-80.81
X106.39Y-83.35
X106.39Y-85.89
X106.39Y-88.43
X106.39Y-90.97
X106.39Y-93.51
X106.39Y-96.05
X106.39Y-98.59
X106.39Y-101.13
X106.39Y-103.67
X106.39Y-106.21
X106.39Y-108.75
X111.23Y-21.27
X111.23Y-26.27
X116.28Y-30.0
X116.28Y-32.54
X116.28Y-35.08
X116.28Y-37.62
X116.28Y-40.16
X116.28Y-42.7
X116.28Y-45.24
X116.28Y-47.78
X116.28Y-50.32
X116.28Y-52.86
X116.28Y-55.4
X116.28Y-57.94
X116.28Y-60.48
X116.28Y-63.02
X116.28Y-65.56
X116.28Y-68.1
X116.28Y-70.64
X116.28Y-73.18
X116.28Y-75.72
X116.28Y-78.26
X116.28Y-80.8
X116.28Y-83.34
X116.28Y-85.88
X116.28Y-88.42
X116.28Y-90.96
X116.28Y-93.5
X116.28Y-96.04
X116.28Y-98.58
X116.28Y-101.12
X116.28Y-103.66
X116.28Y-106.2
X116.28Y-108.74
X118.82Y-30.0
X118.82Y-32.54
X118.82Y-35.08
X118.82Y-37.62
X118.82Y-40.16
X118.82Y-42.7
X118.82Y-45.24
X118.82Y-47.78
X118.82Y-50.32
X118.82Y-52.86
X118.82Y-55.4
X118.82Y-57.94
X118.82Y-60.48
X118.82Y-63.02
X118.82Y-65.56
X118.82Y-68.1
X118.82Y-70.64
X118.82Y-73.18
X118.82Y-75.72
X118.82Y-78.26
X118.82Y-80.8
X118.82Y-83.34
X118.82Y-85.88
X118.82Y-88.42
X118.82Y-90.96
X118.82Y-93.5
X118.82Y-96.04
X118.82Y-98.58
X118.82Y-101.12
X118.82Y-103.66
X118.82Y-106.2
X118.82Y-108.74
X121.36Y-30.0
X121.36Y-32.54
X121.36Y-35.08
X121.36Y-37.62
X121.36Y-40.16
X121.36Y-42.7
X121.36Y-45.24
X121.36Y-47.78
X121.36Y-50.32
X121.36Y-52.86
X121.36Y-55.4
X121.36Y-57.94
X121.36Y-60.48
X121.36Y-63.02
X121.36Y-65.56
X121.36Y-68.1
X121.36Y-70.64
X121.36Y-73.18
X121.36Y-75.72
X121.36Y-78.26
X121.36Y-80.8
X121.36Y-83.34
X121.36Y-85.88
X121.36Y-88.42
X121.36Y-90.96
X121.36Y-93.5
X121.36Y-96.04
X121.36Y-98.58
X121.36Y-101.12
X121.36Y-103.66
X121.36Y-106.2
X121.36Y-108.74
X126.32Y-21.28
X126.32Y-26.28
X131.29Y-30.01
X131.29Y-32.55
X131.29Y-35.09
X131.29Y-37.63
X131.29Y-40.17
X131.29Y-42.71
X131.29Y-45.25
X131.29Y-47.79
X131.29Y-50.33
X131.29Y-52.87
X131.29Y-55.41
X131.29Y-57.95
X131.29Y-60.49
X131.29Y-63.03
X131.29Y-65.57
X131.29Y-68.11
X131.29Y-70.65
X131.29Y-73.19
X131.29Y-75.73
X131.29Y-78.27
X131.29Y-80.81
X131.29Y-83.35
X131.29Y-85.89
X131.29Y-88.43
X131.29Y-90.97
X131.29Y-93.51
X131.29Y-96.05
X131.29Y-98.59
X131.29Y-101.13
X131.29Y-103.67
X131.29Y-106.21
X131.29Y-108.75
X133.83Y-30.01
X133.83Y-32.55
X133.83Y-35.09
X133.83Y-37.63
X133.83Y-40.17
X133.83Y-42.71
X133.83Y-45.25
X133.83Y-47.79
X133.83Y-50.33
X133.83Y-52.87
X133.83Y-55.41
X133.83Y-57.95
X133.83Y-60.49
X133.83Y-63.03
X133.83Y-65.57
X133.83Y-68.11
X133.83Y-70.65
X133.83Y-73.19
X133.83Y-75.73
X133.83Y-78.27
X133.83Y-80.81
X133.83Y-83.35
X133.83Y-85.89
X133.83Y-88.43
X133.83Y-90.97
X133.83Y-93.51
X133.83Y-96.05
X133.83Y-98.59
X133.83Y-101.13
X133.83Y-103.67
X133.83Y-106.21
X133.83Y-108.75
X136.37Y-30.01
X136.37Y-32.55
X136.37Y-35.09
X136.37Y-37.63
X136.37Y-40.17
X136.37Y-42.71
X136.37Y-45.25
X136.37Y-47.79
X136.37Y-50.33
X136.37Y-52.87
X136.37Y-55.41
X136.37Y-57.95
X136.37Y-60.49
X136.37Y-63.03
X136.37Y-65.57
X136.37Y-68.11
X136.37Y-70.65
X136.37Y-73.19
X136.37Y-75.73
X136.37Y-78.27
X136.37Y-80.81
X136.37Y-83.35
X136.37Y-85.89
X136.37Y-88.43
X136.37Y-90.97
X136.37Y-93.51
X136.37Y-96.05
X136.37Y-98.59
X136.37Y-101.13
X136.37Y-103.67
X136.37Y-106.21
X136.37Y-108.75
X141.3Y-21.31
X141.3Y-26.31
X146.27Y-30.02
X146.27Y-32.56
X146.27Y-35.1
X146.27Y-37.64
X146.27Y-40.18
X146.27Y-42.72
X146.27Y-45.26
X146.27Y-47.8
X146.27Y-50.34
X146.27Y-52.88
X146.27Y-55.42
X146.27Y-57.96
X146.27Y-60.5
X146.27Y-63.04
X146.27Y-65.58
X146.27Y-68.12
X146.27Y-70.66
X146.27Y-73.2
X146.27Y-75.74
X146.27Y-78.28
X146.27Y-80.82
X146.27Y-83.36
X146.27Y-85.9
X146.27Y-88.44
X146.27Y-90.98
X146.27Y-93.52
X146.27Y-96.06
X146.27Y-98.6
X146.27Y-101.14
X146.27Y-103.68
X146.27Y-106.22
X146.27Y-108.76
X148.81Y-30.02
X148.81Y-32.56
X148.81Y-35.1
X148.81Y-37.64
X148.81Y-40.18
X148.81Y-42.72
X148.81Y-45.26
X148.81Y-47.8
X148.81Y-50.34
X148.81Y-52.88
X148.81Y-55.42
X148.81Y-57.96
X148.81Y-60.5
X148.81Y-63.04
X148.81Y-65.58
X148.81Y-68.12
X148.81Y-70.66
X148.81Y-73.2
X148.81Y-75.74
X148.81Y-78.28
X148.81Y-80.82
X148.81Y-83.36
X148.81Y-85.9
X148.81Y-88.44
X148.81Y-90.98
X148.81Y-93.52
X148.81Y-96.06
X148.81Y-98.6
X148.81Y-101.14
X148.81Y-103.68
X148.81Y-106.22
X148.81Y-108.76
X151.35Y-30.02
X151.35Y-32.56
X151.35Y-35.1
X151.35Y-37.64
X151.35Y-40.18
X151.35Y-42.72
X151.35Y-45.26
X151.35Y-47.8
X151.35Y-50.34
X151.35Y-52.88
X151.35Y-55.42
X151.35Y-57.96
X151.35Y-60.5
X151.35Y-63.04
X151.35Y-65.58
X151.35Y-68.12
X151.35Y-70.66
X151.35Y-73.2
X151.35Y-75.74
X151.35Y-78.28
X151.35Y-80.82
X151.35Y-83.36
X151.35Y-85.9
X151.35Y-88.44
X151.35Y-90.98
X151.35Y-93.52
X151.35Y-96.06
X151.35Y-98.6
X151.35Y-101.14
X151.35Y-103.68
X151.35Y-106.22
X151.35Y-108.76
X156.39Y-30.0
X156.39Y-32.54
X156.39Y-35.08
X156.39Y-37.62
X156.39Y-40.16
X156.39Y-42.7
X156.39Y-45.24
X156.39Y-47.78
X156.39Y-50.32
X156.39Y-52.86
X156.39Y-55.4
X156.39Y-57.94
X156.39Y-60.48
X156.39Y-63.02
X156.39Y-65.56
X156.39Y-68.1
X156.39Y-70.64
X156.39Y-73.18
X156.39Y-75.72
X156.39Y-78.26
X156.39Y-80.8
X156.39Y-83.34
X156.39Y-85.88
X156.39Y-88.42
X156.39Y-90.96
X156.39Y-93.5
X156.39Y-96.04
X156.39Y-98.58
X156.39Y-101.12
X156.39Y-103.66
X156.39Y-106.2
X156.39Y-108.74
X158.93Y-30.0
X158.93Y-32.54
X158.93Y-35.08
X158.93Y-37.62
X158.93Y-40.16
X158.93Y-42.7
X158.93Y-45.24
X158.93Y-47.78
X158.93Y-50.32
X158.93Y-52.86
X158.93Y-55.4
X158.93Y-57.94
X158.93Y-60.48
X158.93Y-63.02
X158.93Y-65.56
X158.93Y-68.1
X158.93Y-70.64
X158.93Y-73.18
X158.93Y-75.72
X158.93Y-78.26
X158.93Y-80.8
X158.93Y-83.34
X158.93Y-85.88
X158.93Y-88.42
X158.93Y-90.96
X158.93Y-93.5
X158.93Y-96.04
X158.93Y-98.58
X158.93Y-101.12
X158.93Y-103.66
X158.93Y-106.2
X158.93Y-108.74
X161.47Y-30.0
X161.47Y-32.54
X161.47Y-35.08
X161.47Y-37.62
X161.47Y-40.16
X161.47Y-42.7
X161.47Y-45.24
X161.47Y-47.78
X161.47Y-50.32
X161.47Y-52.86
X161.47Y-55.4
X161.47Y-57.94
X161.47Y-60.48
X161.47Y-63.02
X161.47Y-65.56
X161.47Y-68.1
X161.47Y-70.64
X161.47Y-73.18
X161.47Y-75.72
X161.47Y-78.26
X161.47Y-80.8
X161.47Y-83.34
X161.47Y-85.88
X161.47Y-88.42
X161.47Y-90.96
X161.47Y-93.5
X161.47Y-96.04
X161.47Y-98.58
X161.47Y-101.12
X161.47Y-103.66
X161.47Y-106.2
X161.47Y-108.74
T2
X18.269Y-39.37
X18.269Y-44.45
X18.297Y-85.676
X18.297Y-90.756
X18.297Y-103.445
X18.297Y-108.525
M30
