%TF.GenerationSoftware,KiCad,Pcbnew,9.0.9-9.0.9~ubuntu24.04.1*%
%TF.CreationDate,2026-05-14T19:10:10-03:00*%
%TF.ProjectId,backplanev5,6261636b-706c-4616-9e65-76352e6b6963,A*%
%TF.SameCoordinates,Original*%
%TF.FileFunction,Copper,L1,Top*%
%TF.FilePolarity,Positive*%
%FSLAX46Y46*%
G04 Gerber Fmt 4.6, Leading zero omitted, Abs format (unit mm)*
G04 Created by KiCad (PCBNEW 9.0.9-9.0.9~ubuntu24.04.1) date 2026-05-14 19:10:10*
%MOMM*%
%LPD*%
G01*
G04 APERTURE LIST*
G04 Aperture macros list*
%AMRoundRect*
0 Rectangle with rounded corners*
0 $1 Rounding radius*
0 $2 $3 $4 $5 $6 $7 $8 $9 X,Y pos of 4 corners*
0 Add a 4 corners polygon primitive as box body*
4,1,4,$2,$3,$4,$5,$6,$7,$8,$9,$2,$3,0*
0 Add four circle primitives for the rounded corners*
1,1,$1+$1,$2,$3*
1,1,$1+$1,$4,$5*
1,1,$1+$1,$6,$7*
1,1,$1+$1,$8,$9*
0 Add four rect primitives between the rounded corners*
20,1,$1+$1,$2,$3,$4,$5,0*
20,1,$1+$1,$4,$5,$6,$7,0*
20,1,$1+$1,$6,$7,$8,$9,0*
20,1,$1+$1,$8,$9,$2,$3,0*%
G04 Aperture macros list end*
%TA.AperFunction,Conductor*%
%ADD10C,1.500000*%
%TD*%
%TA.AperFunction,Conductor*%
%ADD11C,0.200000*%
%TD*%
%TA.AperFunction,Conductor*%
%ADD12C,0.500000*%
%TD*%
%TA.AperFunction,Conductor*%
%ADD13C,2.000000*%
%TD*%
%TA.AperFunction,Conductor*%
%ADD14C,0.800000*%
%TD*%
%TA.AperFunction,Conductor*%
%ADD15C,1.000000*%
%TD*%
%ADD16C,0.100000*%
%TA.AperFunction,NonConductor*%
%ADD17C,0.100000*%
%TD*%
%ADD18C,0.400000*%
%TA.AperFunction,NonConductor*%
%ADD19C,0.400000*%
%TD*%
%TA.AperFunction,ComponentPad*%
%ADD20RoundRect,0.100000X-0.535000X-0.400000X0.535000X-0.400000X0.535000X0.400000X-0.535000X0.400000X0*%
%TD*%
%TA.AperFunction,ComponentPad*%
%ADD21RoundRect,0.100000X0.535000X0.400000X-0.535000X0.400000X-0.535000X-0.400000X0.535000X-0.400000X0*%
%TD*%
%TA.AperFunction,ComponentPad*%
%ADD22C,1.600000*%
%TD*%
%TA.AperFunction,ComponentPad*%
%ADD23RoundRect,0.250000X-1.050000X1.050000X-1.050000X-1.050000X1.050000X-1.050000X1.050000X1.050000X0*%
%TD*%
%TA.AperFunction,ComponentPad*%
%ADD24C,2.600000*%
%TD*%
%TA.AperFunction,ComponentPad*%
%ADD25RoundRect,0.250000X-0.550000X0.550000X-0.550000X-0.550000X0.550000X-0.550000X0.550000X0.550000X0*%
%TD*%
%TA.AperFunction,Conductor*%
%ADD26C,0.450000*%
%TD*%
%TA.AperFunction,Conductor*%
%ADD27C,1.300000*%
%TD*%
%TA.AperFunction,Conductor*%
%ADD28C,2.900000*%
%TD*%
%TA.AperFunction,Conductor*%
%ADD29C,3.700000*%
%TD*%
%TA.AperFunction,Conductor*%
%ADD30C,2.300000*%
%TD*%
%TA.AperFunction,Conductor*%
%ADD31C,0.600000*%
%TD*%
%TA.AperFunction,Conductor*%
%ADD32C,0.300000*%
%TD*%
%TA.AperFunction,Conductor*%
%ADD33C,5.000000*%
%TD*%
%TA.AperFunction,Conductor*%
%ADD34C,3.000000*%
%TD*%
G04 APERTURE END LIST*
D10*
%TO.N,GND*%
X24910000Y-110390000D02*
X24910000Y-115410000D01*
D11*
X24910000Y-110390000D02*
X31710000Y-110390000D01*
X24910000Y-111510000D02*
X24910000Y-111600000D01*
D12*
X24910000Y-115940000D02*
X88350000Y-115940000D01*
D13*
X25175000Y-110300000D02*
X32185000Y-110300000D01*
D14*
%TO.N,/backplane/+5V*%
X25360000Y-23395000D02*
X88195000Y-23395000D01*
D15*
%TO.N,GND*%
X32650000Y-112680000D02*
X77840000Y-112680000D01*
D11*
%TO.N,/backplane/+5V*%
X87920000Y-23120000D02*
X88660000Y-23860000D01*
X88660000Y-23860000D02*
X91250000Y-23860000D01*
X91250000Y-23860000D02*
X91850000Y-23260000D01*
X91745000Y-23365000D02*
X158390000Y-23365000D01*
D14*
X91957500Y-23365000D02*
X158177500Y-23365000D01*
D12*
%TO.N,GND*%
X92060000Y-116110000D02*
X162020000Y-116110000D01*
X156170000Y-110160000D02*
X161090000Y-110160000D01*
X156860000Y-110160000D02*
X156860000Y-110560000D01*
X156860000Y-110560000D02*
X161090000Y-110560000D01*
X156860000Y-110950000D02*
X161090000Y-110950000D01*
X156860000Y-111070000D02*
X157820000Y-111070000D01*
D11*
%TO.N,/backplane/+5V*%
X158390000Y-23365000D02*
X158785000Y-23365000D01*
X158587500Y-23365000D02*
X162020000Y-26797500D01*
D12*
%TO.N,GND*%
X160870000Y-115550000D02*
X160870000Y-115810000D01*
X160870000Y-115810000D02*
X161820000Y-115810000D01*
X160900000Y-115260000D02*
X162020000Y-115260000D01*
X160910000Y-115550000D02*
X161780000Y-115550000D01*
X161090000Y-110160000D02*
X156860000Y-110160000D01*
X161820000Y-115810000D02*
X156170000Y-110160000D01*
D11*
%TO.N,/backplane/+5V*%
X162020000Y-26600000D02*
X158820000Y-23400000D01*
D12*
%TO.N,GND*%
X162020000Y-116110000D02*
X162020000Y-108270000D01*
D16*
D17*
X22592419Y-66114687D02*
X22116228Y-66448020D01*
X22592419Y-66686115D02*
X21592419Y-66686115D01*
X21592419Y-66686115D02*
X21592419Y-66305163D01*
X21592419Y-66305163D02*
X21640038Y-66209925D01*
X21640038Y-66209925D02*
X21687657Y-66162306D01*
X21687657Y-66162306D02*
X21782895Y-66114687D01*
X21782895Y-66114687D02*
X21925752Y-66114687D01*
X21925752Y-66114687D02*
X22020990Y-66162306D01*
X22020990Y-66162306D02*
X22068609Y-66209925D01*
X22068609Y-66209925D02*
X22116228Y-66305163D01*
X22116228Y-66305163D02*
X22116228Y-66686115D01*
X22544800Y-65305163D02*
X22592419Y-65400401D01*
X22592419Y-65400401D02*
X22592419Y-65590877D01*
X22592419Y-65590877D02*
X22544800Y-65686115D01*
X22544800Y-65686115D02*
X22449561Y-65733734D01*
X22449561Y-65733734D02*
X22068609Y-65733734D01*
X22068609Y-65733734D02*
X21973371Y-65686115D01*
X21973371Y-65686115D02*
X21925752Y-65590877D01*
X21925752Y-65590877D02*
X21925752Y-65400401D01*
X21925752Y-65400401D02*
X21973371Y-65305163D01*
X21973371Y-65305163D02*
X22068609Y-65257544D01*
X22068609Y-65257544D02*
X22163847Y-65257544D01*
X22163847Y-65257544D02*
X22259085Y-65733734D01*
X21925752Y-64924210D02*
X22592419Y-64686115D01*
X22592419Y-64686115D02*
X21925752Y-64448020D01*
X22497180Y-64067067D02*
X22544800Y-64019448D01*
X22544800Y-64019448D02*
X22592419Y-64067067D01*
X22592419Y-64067067D02*
X22544800Y-64114686D01*
X22544800Y-64114686D02*
X22497180Y-64067067D01*
X22497180Y-64067067D02*
X22592419Y-64067067D01*
X21973371Y-64067067D02*
X22020990Y-64019448D01*
X22020990Y-64019448D02*
X22068609Y-64067067D01*
X22068609Y-64067067D02*
X22020990Y-64114686D01*
X22020990Y-64114686D02*
X21973371Y-64067067D01*
X21973371Y-64067067D02*
X22068609Y-64067067D01*
X22068609Y-62495639D02*
X22116228Y-62352782D01*
X22116228Y-62352782D02*
X22163847Y-62305163D01*
X22163847Y-62305163D02*
X22259085Y-62257544D01*
X22259085Y-62257544D02*
X22401942Y-62257544D01*
X22401942Y-62257544D02*
X22497180Y-62305163D01*
X22497180Y-62305163D02*
X22544800Y-62352782D01*
X22544800Y-62352782D02*
X22592419Y-62448020D01*
X22592419Y-62448020D02*
X22592419Y-62828972D01*
X22592419Y-62828972D02*
X21592419Y-62828972D01*
X21592419Y-62828972D02*
X21592419Y-62495639D01*
X21592419Y-62495639D02*
X21640038Y-62400401D01*
X21640038Y-62400401D02*
X21687657Y-62352782D01*
X21687657Y-62352782D02*
X21782895Y-62305163D01*
X21782895Y-62305163D02*
X21878133Y-62305163D01*
X21878133Y-62305163D02*
X21973371Y-62352782D01*
X21973371Y-62352782D02*
X22020990Y-62400401D01*
X22020990Y-62400401D02*
X22068609Y-62495639D01*
X22068609Y-62495639D02*
X22068609Y-62828972D01*
X21687657Y-61114686D02*
X21640038Y-61067067D01*
X21640038Y-61067067D02*
X21592419Y-60971829D01*
X21592419Y-60971829D02*
X21592419Y-60733734D01*
X21592419Y-60733734D02*
X21640038Y-60638496D01*
X21640038Y-60638496D02*
X21687657Y-60590877D01*
X21687657Y-60590877D02*
X21782895Y-60543258D01*
X21782895Y-60543258D02*
X21878133Y-60543258D01*
X21878133Y-60543258D02*
X22020990Y-60590877D01*
X22020990Y-60590877D02*
X22592419Y-61162305D01*
X22592419Y-61162305D02*
X22592419Y-60543258D01*
X21592419Y-59686115D02*
X21592419Y-59876591D01*
X21592419Y-59876591D02*
X21640038Y-59971829D01*
X21640038Y-59971829D02*
X21687657Y-60019448D01*
X21687657Y-60019448D02*
X21830514Y-60114686D01*
X21830514Y-60114686D02*
X22020990Y-60162305D01*
X22020990Y-60162305D02*
X22401942Y-60162305D01*
X22401942Y-60162305D02*
X22497180Y-60114686D01*
X22497180Y-60114686D02*
X22544800Y-60067067D01*
X22544800Y-60067067D02*
X22592419Y-59971829D01*
X22592419Y-59971829D02*
X22592419Y-59781353D01*
X22592419Y-59781353D02*
X22544800Y-59686115D01*
X22544800Y-59686115D02*
X22497180Y-59638496D01*
X22497180Y-59638496D02*
X22401942Y-59590877D01*
X22401942Y-59590877D02*
X22163847Y-59590877D01*
X22163847Y-59590877D02*
X22068609Y-59638496D01*
X22068609Y-59638496D02*
X22020990Y-59686115D01*
X22020990Y-59686115D02*
X21973371Y-59781353D01*
X21973371Y-59781353D02*
X21973371Y-59971829D01*
X21973371Y-59971829D02*
X22020990Y-60067067D01*
X22020990Y-60067067D02*
X22068609Y-60114686D01*
X22068609Y-60114686D02*
X22163847Y-60162305D01*
X21687657Y-59209924D02*
X21640038Y-59162305D01*
X21640038Y-59162305D02*
X21592419Y-59067067D01*
X21592419Y-59067067D02*
X21592419Y-58828972D01*
X21592419Y-58828972D02*
X21640038Y-58733734D01*
X21640038Y-58733734D02*
X21687657Y-58686115D01*
X21687657Y-58686115D02*
X21782895Y-58638496D01*
X21782895Y-58638496D02*
X21878133Y-58638496D01*
X21878133Y-58638496D02*
X22020990Y-58686115D01*
X22020990Y-58686115D02*
X22592419Y-59257543D01*
X22592419Y-59257543D02*
X22592419Y-58638496D01*
X21592419Y-58019448D02*
X21592419Y-57924210D01*
X21592419Y-57924210D02*
X21640038Y-57828972D01*
X21640038Y-57828972D02*
X21687657Y-57781353D01*
X21687657Y-57781353D02*
X21782895Y-57733734D01*
X21782895Y-57733734D02*
X21973371Y-57686115D01*
X21973371Y-57686115D02*
X22211466Y-57686115D01*
X22211466Y-57686115D02*
X22401942Y-57733734D01*
X22401942Y-57733734D02*
X22497180Y-57781353D01*
X22497180Y-57781353D02*
X22544800Y-57828972D01*
X22544800Y-57828972D02*
X22592419Y-57924210D01*
X22592419Y-57924210D02*
X22592419Y-58019448D01*
X22592419Y-58019448D02*
X22544800Y-58114686D01*
X22544800Y-58114686D02*
X22497180Y-58162305D01*
X22497180Y-58162305D02*
X22401942Y-58209924D01*
X22401942Y-58209924D02*
X22211466Y-58257543D01*
X22211466Y-58257543D02*
X21973371Y-58257543D01*
X21973371Y-58257543D02*
X21782895Y-58209924D01*
X21782895Y-58209924D02*
X21687657Y-58162305D01*
X21687657Y-58162305D02*
X21640038Y-58114686D01*
X21640038Y-58114686D02*
X21592419Y-58019448D01*
D18*
D19*
X29136014Y-118296819D02*
X28469347Y-118296819D01*
X28469347Y-119344438D02*
X28469347Y-117344438D01*
X28469347Y-117344438D02*
X29421728Y-117344438D01*
X31040776Y-119344438D02*
X31040776Y-118296819D01*
X31040776Y-118296819D02*
X30945538Y-118106342D01*
X30945538Y-118106342D02*
X30755062Y-118011104D01*
X30755062Y-118011104D02*
X30374109Y-118011104D01*
X30374109Y-118011104D02*
X30183633Y-118106342D01*
X31040776Y-119249200D02*
X30850300Y-119344438D01*
X30850300Y-119344438D02*
X30374109Y-119344438D01*
X30374109Y-119344438D02*
X30183633Y-119249200D01*
X30183633Y-119249200D02*
X30088395Y-119058723D01*
X30088395Y-119058723D02*
X30088395Y-118868247D01*
X30088395Y-118868247D02*
X30183633Y-118677771D01*
X30183633Y-118677771D02*
X30374109Y-118582533D01*
X30374109Y-118582533D02*
X30850300Y-118582533D01*
X30850300Y-118582533D02*
X31040776Y-118487295D01*
X31993157Y-119344438D02*
X31993157Y-117344438D01*
X31993157Y-118106342D02*
X32183633Y-118011104D01*
X32183633Y-118011104D02*
X32564586Y-118011104D01*
X32564586Y-118011104D02*
X32755062Y-118106342D01*
X32755062Y-118106342D02*
X32850300Y-118201580D01*
X32850300Y-118201580D02*
X32945538Y-118392057D01*
X32945538Y-118392057D02*
X32945538Y-118963485D01*
X32945538Y-118963485D02*
X32850300Y-119153961D01*
X32850300Y-119153961D02*
X32755062Y-119249200D01*
X32755062Y-119249200D02*
X32564586Y-119344438D01*
X32564586Y-119344438D02*
X32183633Y-119344438D01*
X32183633Y-119344438D02*
X31993157Y-119249200D01*
X33802681Y-119153961D02*
X33897919Y-119249200D01*
X33897919Y-119249200D02*
X33802681Y-119344438D01*
X33802681Y-119344438D02*
X33707443Y-119249200D01*
X33707443Y-119249200D02*
X33802681Y-119153961D01*
X33802681Y-119153961D02*
X33802681Y-119344438D01*
X33802681Y-118106342D02*
X33897919Y-118201580D01*
X33897919Y-118201580D02*
X33802681Y-118296819D01*
X33802681Y-118296819D02*
X33707443Y-118201580D01*
X33707443Y-118201580D02*
X33802681Y-118106342D01*
X33802681Y-118106342D02*
X33802681Y-118296819D01*
X35993158Y-118011104D02*
X36755062Y-118011104D01*
X36278872Y-119344438D02*
X36278872Y-117630152D01*
X36278872Y-117630152D02*
X36374110Y-117439676D01*
X36374110Y-117439676D02*
X36564586Y-117344438D01*
X36564586Y-117344438D02*
X36755062Y-117344438D01*
X37421729Y-119344438D02*
X37421729Y-118011104D01*
X37421729Y-117344438D02*
X37326491Y-117439676D01*
X37326491Y-117439676D02*
X37421729Y-117534914D01*
X37421729Y-117534914D02*
X37516967Y-117439676D01*
X37516967Y-117439676D02*
X37421729Y-117344438D01*
X37421729Y-117344438D02*
X37421729Y-117534914D01*
X38183634Y-119344438D02*
X39231253Y-118011104D01*
X38183634Y-118011104D02*
X39231253Y-119344438D01*
X41897920Y-117344438D02*
X42088397Y-117344438D01*
X42088397Y-117344438D02*
X42278873Y-117439676D01*
X42278873Y-117439676D02*
X42374111Y-117534914D01*
X42374111Y-117534914D02*
X42469349Y-117725390D01*
X42469349Y-117725390D02*
X42564587Y-118106342D01*
X42564587Y-118106342D02*
X42564587Y-118582533D01*
X42564587Y-118582533D02*
X42469349Y-118963485D01*
X42469349Y-118963485D02*
X42374111Y-119153961D01*
X42374111Y-119153961D02*
X42278873Y-119249200D01*
X42278873Y-119249200D02*
X42088397Y-119344438D01*
X42088397Y-119344438D02*
X41897920Y-119344438D01*
X41897920Y-119344438D02*
X41707444Y-119249200D01*
X41707444Y-119249200D02*
X41612206Y-119153961D01*
X41612206Y-119153961D02*
X41516968Y-118963485D01*
X41516968Y-118963485D02*
X41421730Y-118582533D01*
X41421730Y-118582533D02*
X41421730Y-118106342D01*
X41421730Y-118106342D02*
X41516968Y-117725390D01*
X41516968Y-117725390D02*
X41612206Y-117534914D01*
X41612206Y-117534914D02*
X41707444Y-117439676D01*
X41707444Y-117439676D02*
X41897920Y-117344438D01*
X44469349Y-119344438D02*
X43326492Y-119344438D01*
X43897920Y-119344438D02*
X43897920Y-117344438D01*
X43897920Y-117344438D02*
X43707444Y-117630152D01*
X43707444Y-117630152D02*
X43516968Y-117820628D01*
X43516968Y-117820628D02*
X43326492Y-117915866D01*
%TD*%
D20*
%TO.P,J9,1*%
%TO.N,/backplane/+5V*%
X146270000Y-30020000D03*
%TO.P,J9,2*%
%TO.N,/backplane/D0*%
X146270000Y-32560000D03*
%TO.P,J9,3*%
%TO.N,/backplane/D1*%
X146270000Y-35100000D03*
%TO.P,J9,4*%
%TO.N,/backplane/D2*%
X146270000Y-37640000D03*
%TO.P,J9,5*%
%TO.N,/backplane/D3*%
X146270000Y-40180000D03*
%TO.P,J9,6*%
%TO.N,/backplane/D4*%
X146270000Y-42720000D03*
%TO.P,J9,7*%
%TO.N,/backplane/D5*%
X146270000Y-45260000D03*
%TO.P,J9,8*%
%TO.N,/backplane/D6*%
X146270000Y-47800000D03*
%TO.P,J9,9*%
%TO.N,/backplane/D7*%
X146270000Y-50340000D03*
%TO.P,J9,10*%
%TO.N,/backplane/D8*%
X146270000Y-52880000D03*
%TO.P,J9,11*%
%TO.N,/backplane/D9*%
X146270000Y-55420000D03*
%TO.P,J9,12*%
%TO.N,/backplane/D10*%
X146270000Y-57960000D03*
%TO.P,J9,13*%
%TO.N,/backplane/D11*%
X146270000Y-60500000D03*
%TO.P,J9,14*%
%TO.N,/backplane/D12*%
X146270000Y-63040000D03*
%TO.P,J9,15*%
%TO.N,/backplane/D13*%
X146270000Y-65580000D03*
%TO.P,J9,16*%
%TO.N,/backplane/D14*%
X146270000Y-68120000D03*
%TO.P,J9,17*%
%TO.N,/backplane/D15*%
X146270000Y-70660000D03*
%TO.P,J9,18*%
%TO.N,/backplane/A0*%
X146270000Y-73200000D03*
%TO.P,J9,19*%
%TO.N,/backplane/A1*%
X146270000Y-75740000D03*
%TO.P,J9,20*%
%TO.N,/backplane/A2*%
X146270000Y-78280000D03*
%TO.P,J9,21*%
%TO.N,/backplane/A3*%
X146270000Y-80820000D03*
%TO.P,J9,22*%
%TO.N,/backplane/A4*%
X146270000Y-83360000D03*
%TO.P,J9,23*%
%TO.N,/backplane/A5*%
X146270000Y-85900000D03*
%TO.P,J9,24*%
%TO.N,/backplane/A6*%
X146270000Y-88440000D03*
%TO.P,J9,25*%
%TO.N,/backplane/A7*%
X146270000Y-90980000D03*
%TO.P,J9,26*%
%TO.N,/backplane/A8*%
X146270000Y-93520000D03*
%TO.P,J9,27*%
%TO.N,/backplane/A9*%
X146270000Y-96060000D03*
%TO.P,J9,28*%
%TO.N,/backplane/A10*%
X146270000Y-98600000D03*
%TO.P,J9,29*%
%TO.N,/backplane/A11*%
X146270000Y-101140000D03*
%TO.P,J9,30*%
%TO.N,/backplane/A12*%
X146270000Y-103680000D03*
%TO.P,J9,31*%
%TO.N,/backplane/A13*%
X146270000Y-106220000D03*
%TO.P,J9,32*%
%TO.N,GND*%
X146270000Y-108760000D03*
D21*
%TO.P,J9,33*%
%TO.N,/backplane/+5V*%
X148810000Y-30020000D03*
%TO.P,J9,34*%
%TO.N,/backplane/R1*%
X148810000Y-32560000D03*
%TO.P,J9,35*%
%TO.N,/backplane/R2*%
X148810000Y-35100000D03*
%TO.P,J9,36*%
%TO.N,/backplane/R3*%
X148810000Y-37640000D03*
%TO.P,J9,37*%
%TO.N,/backplane/R4*%
X148810000Y-40180000D03*
%TO.P,J9,38*%
%TO.N,/backplane/R5*%
X148810000Y-42720000D03*
%TO.P,J9,39*%
%TO.N,/backplane/R6*%
X148810000Y-45260000D03*
%TO.P,J9,40*%
%TO.N,/backplane/R7*%
X148810000Y-47800000D03*
%TO.P,J9,41*%
%TO.N,/backplane/R8*%
X148810000Y-50340000D03*
%TO.P,J9,42*%
%TO.N,/backplane/R9*%
X148810000Y-52880000D03*
%TO.P,J9,43*%
%TO.N,/backplane/R10*%
X148810000Y-55420000D03*
%TO.P,J9,44*%
%TO.N,/backplane/R11*%
X148810000Y-57960000D03*
%TO.P,J9,45*%
%TO.N,/backplane/R12*%
X148810000Y-60500000D03*
%TO.P,J9,46*%
%TO.N,/backplane/R13*%
X148810000Y-63040000D03*
%TO.P,J9,47*%
%TO.N,/backplane/R14*%
X148810000Y-65580000D03*
%TO.P,J9,48*%
%TO.N,/backplane/R15*%
X148810000Y-68120000D03*
%TO.P,J9,49*%
%TO.N,/backplane/R16*%
X148810000Y-70660000D03*
%TO.P,J9,50*%
%TO.N,/backplane/R17*%
X148810000Y-73200000D03*
%TO.P,J9,51*%
%TO.N,/backplane/R18*%
X148810000Y-75740000D03*
%TO.P,J9,52*%
%TO.N,/backplane/R19*%
X148810000Y-78280000D03*
%TO.P,J9,53*%
%TO.N,/backplane/R20*%
X148810000Y-80820000D03*
%TO.P,J9,54*%
%TO.N,/backplane/R21*%
X148810000Y-83360000D03*
%TO.P,J9,55*%
%TO.N,/backplane/R22*%
X148810000Y-85900000D03*
%TO.P,J9,56*%
%TO.N,/backplane/R23*%
X148810000Y-88440000D03*
%TO.P,J9,57*%
%TO.N,/backplane/R24*%
X148810000Y-90980000D03*
%TO.P,J9,58*%
%TO.N,/backplane/R25*%
X148810000Y-93520000D03*
%TO.P,J9,59*%
%TO.N,/backplane/R26*%
X148810000Y-96060000D03*
%TO.P,J9,60*%
%TO.N,/backplane/R27*%
X148810000Y-98600000D03*
%TO.P,J9,61*%
%TO.N,/backplane/R28*%
X148810000Y-101140000D03*
%TO.P,J9,62*%
%TO.N,/backplane/R29*%
X148810000Y-103680000D03*
%TO.P,J9,63*%
%TO.N,/backplane/R30*%
X148810000Y-106220000D03*
%TO.P,J9,64*%
%TO.N,GND*%
X148810000Y-108760000D03*
D20*
%TO.P,J9,65*%
%TO.N,/backplane/+5V*%
X151350000Y-30020000D03*
%TO.P,J9,66*%
%TO.N,/backplane/{slash}RESET*%
X151350000Y-32560000D03*
%TO.P,J9,67*%
%TO.N,/backplane/RESET*%
X151350000Y-35100000D03*
%TO.P,J9,68*%
%TO.N,/backplane/{slash}BERR*%
X151350000Y-37640000D03*
%TO.P,J9,69*%
%TO.N,/backplane/{slash}AS*%
X151350000Y-40180000D03*
%TO.P,J9,70*%
%TO.N,/backplane/{slash}LDS*%
X151350000Y-42720000D03*
%TO.P,J9,71*%
%TO.N,/backplane/{slash}UDS*%
X151350000Y-45260000D03*
%TO.P,J9,72*%
%TO.N,/backplane/{slash}iord*%
X151350000Y-47800000D03*
%TO.P,J9,73*%
%TO.N,/backplane/{slash}memrd*%
X151350000Y-50340000D03*
%TO.P,J9,74*%
%TO.N,/backplane/{slash}memwr*%
X151350000Y-52880000D03*
%TO.P,J9,75*%
%TO.N,/backplane/{slash}iowr*%
X151350000Y-55420000D03*
%TO.P,J9,76*%
%TO.N,/backplane/{slash}VMA*%
X151350000Y-57960000D03*
%TO.P,J9,77*%
%TO.N,/backplane/{slash}VPA*%
X151350000Y-60500000D03*
%TO.P,J9,78*%
%TO.N,/backplane/A23*%
X151350000Y-63040000D03*
%TO.P,J9,79*%
%TO.N,/backplane/A22*%
X151350000Y-65580000D03*
%TO.P,J9,80*%
%TO.N,/backplane/A21*%
X151350000Y-68120000D03*
%TO.P,J9,81*%
%TO.N,/backplane/A20*%
X151350000Y-70660000D03*
%TO.P,J9,82*%
%TO.N,/backplane/{slash}IO_CS1*%
X151350000Y-73200000D03*
%TO.P,J9,83*%
%TO.N,/backplane/E*%
X151350000Y-75740000D03*
%TO.P,J9,84*%
%TO.N,/backplane/{slash}IO_CS*%
X151350000Y-78280000D03*
%TO.P,J9,85*%
%TO.N,/backplane/{slash}MEM_CS*%
X151350000Y-80820000D03*
%TO.P,J9,86*%
%TO.N,/backplane/A19*%
X151350000Y-83360000D03*
%TO.P,J9,87*%
%TO.N,/backplane/A18*%
X151350000Y-85900000D03*
%TO.P,J9,88*%
%TO.N,/backplane/A17*%
X151350000Y-88440000D03*
%TO.P,J9,89*%
%TO.N,/backplane/A16*%
X151350000Y-90980000D03*
%TO.P,J9,90*%
%TO.N,/backplane/A15*%
X151350000Y-93520000D03*
%TO.P,J9,91*%
%TO.N,/backplane/A14*%
X151350000Y-96060000D03*
%TO.P,J9,92*%
%TO.N,/backplane/R31*%
X151350000Y-98600000D03*
%TO.P,J9,93*%
%TO.N,/backplane/R32*%
X151350000Y-101140000D03*
%TO.P,J9,94*%
%TO.N,/backplane/-5V*%
X151350000Y-103680000D03*
%TO.P,J9,95*%
%TO.N,/backplane/+12V*%
X151350000Y-106220000D03*
%TO.P,J9,96*%
%TO.N,GND*%
X151350000Y-108760000D03*
%TD*%
D22*
%TO.P,C10,1*%
%TO.N,/backplane/+5V*%
X141300000Y-26310000D03*
%TO.P,C10,2*%
%TO.N,GND*%
X141300000Y-21310000D03*
%TD*%
%TO.P,C4,1*%
%TO.N,/backplane/+5V*%
X51460000Y-26490000D03*
%TO.P,C4,2*%
%TO.N,GND*%
X51460000Y-21490000D03*
%TD*%
D20*
%TO.P,J1,1*%
%TO.N,/backplane/+5V*%
X26280000Y-30000000D03*
%TO.P,J1,2*%
%TO.N,/backplane/D0*%
X26280000Y-32540000D03*
%TO.P,J1,3*%
%TO.N,/backplane/D1*%
X26280000Y-35080000D03*
%TO.P,J1,4*%
%TO.N,/backplane/D2*%
X26280000Y-37620000D03*
%TO.P,J1,5*%
%TO.N,/backplane/D3*%
X26280000Y-40160000D03*
%TO.P,J1,6*%
%TO.N,/backplane/D4*%
X26280000Y-42700000D03*
%TO.P,J1,7*%
%TO.N,/backplane/D5*%
X26280000Y-45240000D03*
%TO.P,J1,8*%
%TO.N,/backplane/D6*%
X26280000Y-47780000D03*
%TO.P,J1,9*%
%TO.N,/backplane/D7*%
X26280000Y-50320000D03*
%TO.P,J1,10*%
%TO.N,/backplane/D8*%
X26280000Y-52860000D03*
%TO.P,J1,11*%
%TO.N,/backplane/D9*%
X26280000Y-55400000D03*
%TO.P,J1,12*%
%TO.N,/backplane/D10*%
X26280000Y-57940000D03*
%TO.P,J1,13*%
%TO.N,/backplane/D11*%
X26280000Y-60480000D03*
%TO.P,J1,14*%
%TO.N,/backplane/D12*%
X26280000Y-63020000D03*
%TO.P,J1,15*%
%TO.N,/backplane/D13*%
X26280000Y-65560000D03*
%TO.P,J1,16*%
%TO.N,/backplane/D14*%
X26280000Y-68100000D03*
%TO.P,J1,17*%
%TO.N,/backplane/D15*%
X26280000Y-70640000D03*
%TO.P,J1,18*%
%TO.N,/backplane/A0*%
X26280000Y-73180000D03*
%TO.P,J1,19*%
%TO.N,/backplane/A1*%
X26280000Y-75720000D03*
%TO.P,J1,20*%
%TO.N,/backplane/A2*%
X26280000Y-78260000D03*
%TO.P,J1,21*%
%TO.N,/backplane/A3*%
X26280000Y-80800000D03*
%TO.P,J1,22*%
%TO.N,/backplane/A4*%
X26280000Y-83340000D03*
%TO.P,J1,23*%
%TO.N,/backplane/A5*%
X26280000Y-85880000D03*
%TO.P,J1,24*%
%TO.N,/backplane/A6*%
X26280000Y-88420000D03*
%TO.P,J1,25*%
%TO.N,/backplane/A7*%
X26280000Y-90960000D03*
%TO.P,J1,26*%
%TO.N,/backplane/A8*%
X26280000Y-93500000D03*
%TO.P,J1,27*%
%TO.N,/backplane/A9*%
X26280000Y-96040000D03*
%TO.P,J1,28*%
%TO.N,/backplane/A10*%
X26280000Y-98580000D03*
%TO.P,J1,29*%
%TO.N,/backplane/A11*%
X26280000Y-101120000D03*
%TO.P,J1,30*%
%TO.N,/backplane/A12*%
X26280000Y-103660000D03*
%TO.P,J1,31*%
%TO.N,/backplane/A13*%
X26280000Y-106200000D03*
%TO.P,J1,32*%
%TO.N,GND*%
X26280000Y-108740000D03*
D21*
%TO.P,J1,33*%
%TO.N,/backplane/+5V*%
X28820000Y-30000000D03*
%TO.P,J1,34*%
%TO.N,/backplane/R1*%
X28820000Y-32540000D03*
%TO.P,J1,35*%
%TO.N,/backplane/R2*%
X28820000Y-35080000D03*
%TO.P,J1,36*%
%TO.N,/backplane/R3*%
X28820000Y-37620000D03*
%TO.P,J1,37*%
%TO.N,/backplane/R4*%
X28820000Y-40160000D03*
%TO.P,J1,38*%
%TO.N,/backplane/R5*%
X28820000Y-42700000D03*
%TO.P,J1,39*%
%TO.N,/backplane/R6*%
X28820000Y-45240000D03*
%TO.P,J1,40*%
%TO.N,/backplane/R7*%
X28820000Y-47780000D03*
%TO.P,J1,41*%
%TO.N,/backplane/R8*%
X28820000Y-50320000D03*
%TO.P,J1,42*%
%TO.N,/backplane/R9*%
X28820000Y-52860000D03*
%TO.P,J1,43*%
%TO.N,/backplane/R10*%
X28820000Y-55400000D03*
%TO.P,J1,44*%
%TO.N,/backplane/R11*%
X28820000Y-57940000D03*
%TO.P,J1,45*%
%TO.N,/backplane/R12*%
X28820000Y-60480000D03*
%TO.P,J1,46*%
%TO.N,/backplane/R13*%
X28820000Y-63020000D03*
%TO.P,J1,47*%
%TO.N,/backplane/R14*%
X28820000Y-65560000D03*
%TO.P,J1,48*%
%TO.N,/backplane/R15*%
X28820000Y-68100000D03*
%TO.P,J1,49*%
%TO.N,/backplane/R16*%
X28820000Y-70640000D03*
%TO.P,J1,50*%
%TO.N,/backplane/R17*%
X28820000Y-73180000D03*
%TO.P,J1,51*%
%TO.N,/backplane/R18*%
X28820000Y-75720000D03*
%TO.P,J1,52*%
%TO.N,/backplane/R19*%
X28820000Y-78260000D03*
%TO.P,J1,53*%
%TO.N,/backplane/R20*%
X28820000Y-80800000D03*
%TO.P,J1,54*%
%TO.N,/backplane/R21*%
X28820000Y-83340000D03*
%TO.P,J1,55*%
%TO.N,/backplane/R22*%
X28820000Y-85880000D03*
%TO.P,J1,56*%
%TO.N,/backplane/R23*%
X28820000Y-88420000D03*
%TO.P,J1,57*%
%TO.N,/backplane/R24*%
X28820000Y-90960000D03*
%TO.P,J1,58*%
%TO.N,/backplane/R25*%
X28820000Y-93500000D03*
%TO.P,J1,59*%
%TO.N,/backplane/R26*%
X28820000Y-96040000D03*
%TO.P,J1,60*%
%TO.N,/backplane/R27*%
X28820000Y-98580000D03*
%TO.P,J1,61*%
%TO.N,/backplane/R28*%
X28820000Y-101120000D03*
%TO.P,J1,62*%
%TO.N,/backplane/R29*%
X28820000Y-103660000D03*
%TO.P,J1,63*%
%TO.N,/backplane/R30*%
X28820000Y-106200000D03*
%TO.P,J1,64*%
%TO.N,GND*%
X28820000Y-108740000D03*
D20*
%TO.P,J1,65*%
%TO.N,/backplane/+5V*%
X31360000Y-30000000D03*
%TO.P,J1,66*%
%TO.N,/backplane/{slash}RESET*%
X31360000Y-32540000D03*
%TO.P,J1,67*%
%TO.N,/backplane/RESET*%
X31360000Y-35080000D03*
%TO.P,J1,68*%
%TO.N,/backplane/{slash}BERR*%
X31360000Y-37620000D03*
%TO.P,J1,69*%
%TO.N,/backplane/{slash}AS*%
X31360000Y-40160000D03*
%TO.P,J1,70*%
%TO.N,/backplane/{slash}LDS*%
X31360000Y-42700000D03*
%TO.P,J1,71*%
%TO.N,/backplane/{slash}UDS*%
X31360000Y-45240000D03*
%TO.P,J1,72*%
%TO.N,/backplane/{slash}iord*%
X31360000Y-47780000D03*
%TO.P,J1,73*%
%TO.N,/backplane/{slash}memrd*%
X31360000Y-50320000D03*
%TO.P,J1,74*%
%TO.N,/backplane/{slash}memwr*%
X31360000Y-52860000D03*
%TO.P,J1,75*%
%TO.N,/backplane/{slash}iowr*%
X31360000Y-55400000D03*
%TO.P,J1,76*%
%TO.N,/backplane/{slash}VMA*%
X31360000Y-57940000D03*
%TO.P,J1,77*%
%TO.N,/backplane/{slash}VPA*%
X31360000Y-60480000D03*
%TO.P,J1,78*%
%TO.N,/backplane/A23*%
X31360000Y-63020000D03*
%TO.P,J1,79*%
%TO.N,/backplane/A22*%
X31360000Y-65560000D03*
%TO.P,J1,80*%
%TO.N,/backplane/A21*%
X31360000Y-68100000D03*
%TO.P,J1,81*%
%TO.N,/backplane/A20*%
X31360000Y-70640000D03*
%TO.P,J1,82*%
%TO.N,/backplane/{slash}IO_CS1*%
X31360000Y-73180000D03*
%TO.P,J1,83*%
%TO.N,/backplane/E*%
X31360000Y-75720000D03*
%TO.P,J1,84*%
%TO.N,/backplane/{slash}IO_CS*%
X31360000Y-78260000D03*
%TO.P,J1,85*%
%TO.N,/backplane/{slash}MEM_CS*%
X31360000Y-80800000D03*
%TO.P,J1,86*%
%TO.N,/backplane/A19*%
X31360000Y-83340000D03*
%TO.P,J1,87*%
%TO.N,/backplane/A18*%
X31360000Y-85880000D03*
%TO.P,J1,88*%
%TO.N,/backplane/A17*%
X31360000Y-88420000D03*
%TO.P,J1,89*%
%TO.N,/backplane/A16*%
X31360000Y-90960000D03*
%TO.P,J1,90*%
%TO.N,/backplane/A15*%
X31360000Y-93500000D03*
%TO.P,J1,91*%
%TO.N,/backplane/A14*%
X31360000Y-96040000D03*
%TO.P,J1,92*%
%TO.N,/backplane/R31*%
X31360000Y-98580000D03*
%TO.P,J1,93*%
%TO.N,/backplane/R32*%
X31360000Y-101120000D03*
%TO.P,J1,94*%
%TO.N,/backplane/-5V*%
X31360000Y-103660000D03*
%TO.P,J1,95*%
%TO.N,/backplane/+12V*%
X31360000Y-106200000D03*
%TO.P,J1,96*%
%TO.N,GND*%
X31360000Y-108740000D03*
%TD*%
D23*
%TO.P,J13,1,Pin_1*%
%TO.N,/backplane/+12V*%
X18297500Y-103445000D03*
D24*
%TO.P,J13,2,Pin_2*%
%TO.N,GND*%
X18297500Y-108525000D03*
%TD*%
D20*
%TO.P,J7,1*%
%TO.N,/backplane/+5V*%
X116280000Y-30000000D03*
%TO.P,J7,2*%
%TO.N,/backplane/D0*%
X116280000Y-32540000D03*
%TO.P,J7,3*%
%TO.N,/backplane/D1*%
X116280000Y-35080000D03*
%TO.P,J7,4*%
%TO.N,/backplane/D2*%
X116280000Y-37620000D03*
%TO.P,J7,5*%
%TO.N,/backplane/D3*%
X116280000Y-40160000D03*
%TO.P,J7,6*%
%TO.N,/backplane/D4*%
X116280000Y-42700000D03*
%TO.P,J7,7*%
%TO.N,/backplane/D5*%
X116280000Y-45240000D03*
%TO.P,J7,8*%
%TO.N,/backplane/D6*%
X116280000Y-47780000D03*
%TO.P,J7,9*%
%TO.N,/backplane/D7*%
X116280000Y-50320000D03*
%TO.P,J7,10*%
%TO.N,/backplane/D8*%
X116280000Y-52860000D03*
%TO.P,J7,11*%
%TO.N,/backplane/D9*%
X116280000Y-55400000D03*
%TO.P,J7,12*%
%TO.N,/backplane/D10*%
X116280000Y-57940000D03*
%TO.P,J7,13*%
%TO.N,/backplane/D11*%
X116280000Y-60480000D03*
%TO.P,J7,14*%
%TO.N,/backplane/D12*%
X116280000Y-63020000D03*
%TO.P,J7,15*%
%TO.N,/backplane/D13*%
X116280000Y-65560000D03*
%TO.P,J7,16*%
%TO.N,/backplane/D14*%
X116280000Y-68100000D03*
%TO.P,J7,17*%
%TO.N,/backplane/D15*%
X116280000Y-70640000D03*
%TO.P,J7,18*%
%TO.N,/backplane/A0*%
X116280000Y-73180000D03*
%TO.P,J7,19*%
%TO.N,/backplane/A1*%
X116280000Y-75720000D03*
%TO.P,J7,20*%
%TO.N,/backplane/A2*%
X116280000Y-78260000D03*
%TO.P,J7,21*%
%TO.N,/backplane/A3*%
X116280000Y-80800000D03*
%TO.P,J7,22*%
%TO.N,/backplane/A4*%
X116280000Y-83340000D03*
%TO.P,J7,23*%
%TO.N,/backplane/A5*%
X116280000Y-85880000D03*
%TO.P,J7,24*%
%TO.N,/backplane/A6*%
X116280000Y-88420000D03*
%TO.P,J7,25*%
%TO.N,/backplane/A7*%
X116280000Y-90960000D03*
%TO.P,J7,26*%
%TO.N,/backplane/A8*%
X116280000Y-93500000D03*
%TO.P,J7,27*%
%TO.N,/backplane/A9*%
X116280000Y-96040000D03*
%TO.P,J7,28*%
%TO.N,/backplane/A10*%
X116280000Y-98580000D03*
%TO.P,J7,29*%
%TO.N,/backplane/A11*%
X116280000Y-101120000D03*
%TO.P,J7,30*%
%TO.N,/backplane/A12*%
X116280000Y-103660000D03*
%TO.P,J7,31*%
%TO.N,/backplane/A13*%
X116280000Y-106200000D03*
%TO.P,J7,32*%
%TO.N,GND*%
X116280000Y-108740000D03*
D21*
%TO.P,J7,33*%
%TO.N,/backplane/+5V*%
X118820000Y-30000000D03*
%TO.P,J7,34*%
%TO.N,/backplane/R1*%
X118820000Y-32540000D03*
%TO.P,J7,35*%
%TO.N,/backplane/R2*%
X118820000Y-35080000D03*
%TO.P,J7,36*%
%TO.N,/backplane/R3*%
X118820000Y-37620000D03*
%TO.P,J7,37*%
%TO.N,/backplane/R4*%
X118820000Y-40160000D03*
%TO.P,J7,38*%
%TO.N,/backplane/R5*%
X118820000Y-42700000D03*
%TO.P,J7,39*%
%TO.N,/backplane/R6*%
X118820000Y-45240000D03*
%TO.P,J7,40*%
%TO.N,/backplane/R7*%
X118820000Y-47780000D03*
%TO.P,J7,41*%
%TO.N,/backplane/R8*%
X118820000Y-50320000D03*
%TO.P,J7,42*%
%TO.N,/backplane/R9*%
X118820000Y-52860000D03*
%TO.P,J7,43*%
%TO.N,/backplane/R10*%
X118820000Y-55400000D03*
%TO.P,J7,44*%
%TO.N,/backplane/R11*%
X118820000Y-57940000D03*
%TO.P,J7,45*%
%TO.N,/backplane/R12*%
X118820000Y-60480000D03*
%TO.P,J7,46*%
%TO.N,/backplane/R13*%
X118820000Y-63020000D03*
%TO.P,J7,47*%
%TO.N,/backplane/R14*%
X118820000Y-65560000D03*
%TO.P,J7,48*%
%TO.N,/backplane/R15*%
X118820000Y-68100000D03*
%TO.P,J7,49*%
%TO.N,/backplane/R16*%
X118820000Y-70640000D03*
%TO.P,J7,50*%
%TO.N,/backplane/R17*%
X118820000Y-73180000D03*
%TO.P,J7,51*%
%TO.N,/backplane/R18*%
X118820000Y-75720000D03*
%TO.P,J7,52*%
%TO.N,/backplane/R19*%
X118820000Y-78260000D03*
%TO.P,J7,53*%
%TO.N,/backplane/R20*%
X118820000Y-80800000D03*
%TO.P,J7,54*%
%TO.N,/backplane/R21*%
X118820000Y-83340000D03*
%TO.P,J7,55*%
%TO.N,/backplane/R22*%
X118820000Y-85880000D03*
%TO.P,J7,56*%
%TO.N,/backplane/R23*%
X118820000Y-88420000D03*
%TO.P,J7,57*%
%TO.N,/backplane/R24*%
X118820000Y-90960000D03*
%TO.P,J7,58*%
%TO.N,/backplane/R25*%
X118820000Y-93500000D03*
%TO.P,J7,59*%
%TO.N,/backplane/R26*%
X118820000Y-96040000D03*
%TO.P,J7,60*%
%TO.N,/backplane/R27*%
X118820000Y-98580000D03*
%TO.P,J7,61*%
%TO.N,/backplane/R28*%
X118820000Y-101120000D03*
%TO.P,J7,62*%
%TO.N,/backplane/R29*%
X118820000Y-103660000D03*
%TO.P,J7,63*%
%TO.N,/backplane/R30*%
X118820000Y-106200000D03*
%TO.P,J7,64*%
%TO.N,GND*%
X118820000Y-108740000D03*
D20*
%TO.P,J7,65*%
%TO.N,/backplane/+5V*%
X121360000Y-30000000D03*
%TO.P,J7,66*%
%TO.N,/backplane/{slash}RESET*%
X121360000Y-32540000D03*
%TO.P,J7,67*%
%TO.N,/backplane/RESET*%
X121360000Y-35080000D03*
%TO.P,J7,68*%
%TO.N,/backplane/{slash}BERR*%
X121360000Y-37620000D03*
%TO.P,J7,69*%
%TO.N,/backplane/{slash}AS*%
X121360000Y-40160000D03*
%TO.P,J7,70*%
%TO.N,/backplane/{slash}LDS*%
X121360000Y-42700000D03*
%TO.P,J7,71*%
%TO.N,/backplane/{slash}UDS*%
X121360000Y-45240000D03*
%TO.P,J7,72*%
%TO.N,/backplane/{slash}iord*%
X121360000Y-47780000D03*
%TO.P,J7,73*%
%TO.N,/backplane/{slash}memrd*%
X121360000Y-50320000D03*
%TO.P,J7,74*%
%TO.N,/backplane/{slash}memwr*%
X121360000Y-52860000D03*
%TO.P,J7,75*%
%TO.N,/backplane/{slash}iowr*%
X121360000Y-55400000D03*
%TO.P,J7,76*%
%TO.N,/backplane/{slash}VMA*%
X121360000Y-57940000D03*
%TO.P,J7,77*%
%TO.N,/backplane/{slash}VPA*%
X121360000Y-60480000D03*
%TO.P,J7,78*%
%TO.N,/backplane/A23*%
X121360000Y-63020000D03*
%TO.P,J7,79*%
%TO.N,/backplane/A22*%
X121360000Y-65560000D03*
%TO.P,J7,80*%
%TO.N,/backplane/A21*%
X121360000Y-68100000D03*
%TO.P,J7,81*%
%TO.N,/backplane/A20*%
X121360000Y-70640000D03*
%TO.P,J7,82*%
%TO.N,/backplane/{slash}IO_CS1*%
X121360000Y-73180000D03*
%TO.P,J7,83*%
%TO.N,/backplane/E*%
X121360000Y-75720000D03*
%TO.P,J7,84*%
%TO.N,/backplane/{slash}IO_CS*%
X121360000Y-78260000D03*
%TO.P,J7,85*%
%TO.N,/backplane/{slash}MEM_CS*%
X121360000Y-80800000D03*
%TO.P,J7,86*%
%TO.N,/backplane/A19*%
X121360000Y-83340000D03*
%TO.P,J7,87*%
%TO.N,/backplane/A18*%
X121360000Y-85880000D03*
%TO.P,J7,88*%
%TO.N,/backplane/A17*%
X121360000Y-88420000D03*
%TO.P,J7,89*%
%TO.N,/backplane/A16*%
X121360000Y-90960000D03*
%TO.P,J7,90*%
%TO.N,/backplane/A15*%
X121360000Y-93500000D03*
%TO.P,J7,91*%
%TO.N,/backplane/A14*%
X121360000Y-96040000D03*
%TO.P,J7,92*%
%TO.N,/backplane/R31*%
X121360000Y-98580000D03*
%TO.P,J7,93*%
%TO.N,/backplane/R32*%
X121360000Y-101120000D03*
%TO.P,J7,94*%
%TO.N,/backplane/-5V*%
X121360000Y-103660000D03*
%TO.P,J7,95*%
%TO.N,/backplane/+12V*%
X121360000Y-106200000D03*
%TO.P,J7,96*%
%TO.N,GND*%
X121360000Y-108740000D03*
%TD*%
D22*
%TO.P,C6,1*%
%TO.N,/backplane/+5V*%
X81290000Y-26130000D03*
%TO.P,C6,2*%
%TO.N,GND*%
X81290000Y-21130000D03*
%TD*%
D20*
%TO.P,J5,1*%
%TO.N,/backplane/+5V*%
X86280000Y-30010000D03*
%TO.P,J5,2*%
%TO.N,/backplane/D0*%
X86280000Y-32550000D03*
%TO.P,J5,3*%
%TO.N,/backplane/D1*%
X86280000Y-35090000D03*
%TO.P,J5,4*%
%TO.N,/backplane/D2*%
X86280000Y-37630000D03*
%TO.P,J5,5*%
%TO.N,/backplane/D3*%
X86280000Y-40170000D03*
%TO.P,J5,6*%
%TO.N,/backplane/D4*%
X86280000Y-42710000D03*
%TO.P,J5,7*%
%TO.N,/backplane/D5*%
X86280000Y-45250000D03*
%TO.P,J5,8*%
%TO.N,/backplane/D6*%
X86280000Y-47790000D03*
%TO.P,J5,9*%
%TO.N,/backplane/D7*%
X86280000Y-50330000D03*
%TO.P,J5,10*%
%TO.N,/backplane/D8*%
X86280000Y-52870000D03*
%TO.P,J5,11*%
%TO.N,/backplane/D9*%
X86280000Y-55410000D03*
%TO.P,J5,12*%
%TO.N,/backplane/D10*%
X86280000Y-57950000D03*
%TO.P,J5,13*%
%TO.N,/backplane/D11*%
X86280000Y-60490000D03*
%TO.P,J5,14*%
%TO.N,/backplane/D12*%
X86280000Y-63030000D03*
%TO.P,J5,15*%
%TO.N,/backplane/D13*%
X86280000Y-65570000D03*
%TO.P,J5,16*%
%TO.N,/backplane/D14*%
X86280000Y-68110000D03*
%TO.P,J5,17*%
%TO.N,/backplane/D15*%
X86280000Y-70650000D03*
%TO.P,J5,18*%
%TO.N,/backplane/A0*%
X86280000Y-73190000D03*
%TO.P,J5,19*%
%TO.N,/backplane/A1*%
X86280000Y-75730000D03*
%TO.P,J5,20*%
%TO.N,/backplane/A2*%
X86280000Y-78270000D03*
%TO.P,J5,21*%
%TO.N,/backplane/A3*%
X86280000Y-80810000D03*
%TO.P,J5,22*%
%TO.N,/backplane/A4*%
X86280000Y-83350000D03*
%TO.P,J5,23*%
%TO.N,/backplane/A5*%
X86280000Y-85890000D03*
%TO.P,J5,24*%
%TO.N,/backplane/A6*%
X86280000Y-88430000D03*
%TO.P,J5,25*%
%TO.N,/backplane/A7*%
X86280000Y-90970000D03*
%TO.P,J5,26*%
%TO.N,/backplane/A8*%
X86280000Y-93510000D03*
%TO.P,J5,27*%
%TO.N,/backplane/A9*%
X86280000Y-96050000D03*
%TO.P,J5,28*%
%TO.N,/backplane/A10*%
X86280000Y-98590000D03*
%TO.P,J5,29*%
%TO.N,/backplane/A11*%
X86280000Y-101130000D03*
%TO.P,J5,30*%
%TO.N,/backplane/A12*%
X86280000Y-103670000D03*
%TO.P,J5,31*%
%TO.N,/backplane/A13*%
X86280000Y-106210000D03*
%TO.P,J5,32*%
%TO.N,GND*%
X86280000Y-108750000D03*
D21*
%TO.P,J5,33*%
%TO.N,/backplane/+5V*%
X88820000Y-30010000D03*
%TO.P,J5,34*%
%TO.N,/backplane/R1*%
X88820000Y-32550000D03*
%TO.P,J5,35*%
%TO.N,/backplane/R2*%
X88820000Y-35090000D03*
%TO.P,J5,36*%
%TO.N,/backplane/R3*%
X88820000Y-37630000D03*
%TO.P,J5,37*%
%TO.N,/backplane/R4*%
X88820000Y-40170000D03*
%TO.P,J5,38*%
%TO.N,/backplane/R5*%
X88820000Y-42710000D03*
%TO.P,J5,39*%
%TO.N,/backplane/R6*%
X88820000Y-45250000D03*
%TO.P,J5,40*%
%TO.N,/backplane/R7*%
X88820000Y-47790000D03*
%TO.P,J5,41*%
%TO.N,/backplane/R8*%
X88820000Y-50330000D03*
%TO.P,J5,42*%
%TO.N,/backplane/R9*%
X88820000Y-52870000D03*
%TO.P,J5,43*%
%TO.N,/backplane/R10*%
X88820000Y-55410000D03*
%TO.P,J5,44*%
%TO.N,/backplane/R11*%
X88820000Y-57950000D03*
%TO.P,J5,45*%
%TO.N,/backplane/R12*%
X88820000Y-60490000D03*
%TO.P,J5,46*%
%TO.N,/backplane/R13*%
X88820000Y-63030000D03*
%TO.P,J5,47*%
%TO.N,/backplane/R14*%
X88820000Y-65570000D03*
%TO.P,J5,48*%
%TO.N,/backplane/R15*%
X88820000Y-68110000D03*
%TO.P,J5,49*%
%TO.N,/backplane/R16*%
X88820000Y-70650000D03*
%TO.P,J5,50*%
%TO.N,/backplane/R17*%
X88820000Y-73190000D03*
%TO.P,J5,51*%
%TO.N,/backplane/R18*%
X88820000Y-75730000D03*
%TO.P,J5,52*%
%TO.N,/backplane/R19*%
X88820000Y-78270000D03*
%TO.P,J5,53*%
%TO.N,/backplane/R20*%
X88820000Y-80810000D03*
%TO.P,J5,54*%
%TO.N,/backplane/R21*%
X88820000Y-83350000D03*
%TO.P,J5,55*%
%TO.N,/backplane/R22*%
X88820000Y-85890000D03*
%TO.P,J5,56*%
%TO.N,/backplane/R23*%
X88820000Y-88430000D03*
%TO.P,J5,57*%
%TO.N,/backplane/R24*%
X88820000Y-90970000D03*
%TO.P,J5,58*%
%TO.N,/backplane/R25*%
X88820000Y-93510000D03*
%TO.P,J5,59*%
%TO.N,/backplane/R26*%
X88820000Y-96050000D03*
%TO.P,J5,60*%
%TO.N,/backplane/R27*%
X88820000Y-98590000D03*
%TO.P,J5,61*%
%TO.N,/backplane/R28*%
X88820000Y-101130000D03*
%TO.P,J5,62*%
%TO.N,/backplane/R29*%
X88820000Y-103670000D03*
%TO.P,J5,63*%
%TO.N,/backplane/R30*%
X88820000Y-106210000D03*
%TO.P,J5,64*%
%TO.N,GND*%
X88820000Y-108750000D03*
D20*
%TO.P,J5,65*%
%TO.N,/backplane/+5V*%
X91360000Y-30010000D03*
%TO.P,J5,66*%
%TO.N,/backplane/{slash}RESET*%
X91360000Y-32550000D03*
%TO.P,J5,67*%
%TO.N,/backplane/RESET*%
X91360000Y-35090000D03*
%TO.P,J5,68*%
%TO.N,/backplane/{slash}BERR*%
X91360000Y-37630000D03*
%TO.P,J5,69*%
%TO.N,/backplane/{slash}AS*%
X91360000Y-40170000D03*
%TO.P,J5,70*%
%TO.N,/backplane/{slash}LDS*%
X91360000Y-42710000D03*
%TO.P,J5,71*%
%TO.N,/backplane/{slash}UDS*%
X91360000Y-45250000D03*
%TO.P,J5,72*%
%TO.N,/backplane/{slash}iord*%
X91360000Y-47790000D03*
%TO.P,J5,73*%
%TO.N,/backplane/{slash}memrd*%
X91360000Y-50330000D03*
%TO.P,J5,74*%
%TO.N,/backplane/{slash}memwr*%
X91360000Y-52870000D03*
%TO.P,J5,75*%
%TO.N,/backplane/{slash}iowr*%
X91360000Y-55410000D03*
%TO.P,J5,76*%
%TO.N,/backplane/{slash}VMA*%
X91360000Y-57950000D03*
%TO.P,J5,77*%
%TO.N,/backplane/{slash}VPA*%
X91360000Y-60490000D03*
%TO.P,J5,78*%
%TO.N,/backplane/A23*%
X91360000Y-63030000D03*
%TO.P,J5,79*%
%TO.N,/backplane/A22*%
X91360000Y-65570000D03*
%TO.P,J5,80*%
%TO.N,/backplane/A21*%
X91360000Y-68110000D03*
%TO.P,J5,81*%
%TO.N,/backplane/A20*%
X91360000Y-70650000D03*
%TO.P,J5,82*%
%TO.N,/backplane/{slash}IO_CS1*%
X91360000Y-73190000D03*
%TO.P,J5,83*%
%TO.N,/backplane/E*%
X91360000Y-75730000D03*
%TO.P,J5,84*%
%TO.N,/backplane/{slash}IO_CS*%
X91360000Y-78270000D03*
%TO.P,J5,85*%
%TO.N,/backplane/{slash}MEM_CS*%
X91360000Y-80810000D03*
%TO.P,J5,86*%
%TO.N,/backplane/A19*%
X91360000Y-83350000D03*
%TO.P,J5,87*%
%TO.N,/backplane/A18*%
X91360000Y-85890000D03*
%TO.P,J5,88*%
%TO.N,/backplane/A17*%
X91360000Y-88430000D03*
%TO.P,J5,89*%
%TO.N,/backplane/A16*%
X91360000Y-90970000D03*
%TO.P,J5,90*%
%TO.N,/backplane/A15*%
X91360000Y-93510000D03*
%TO.P,J5,91*%
%TO.N,/backplane/A14*%
X91360000Y-96050000D03*
%TO.P,J5,92*%
%TO.N,/backplane/R31*%
X91360000Y-98590000D03*
%TO.P,J5,93*%
%TO.N,/backplane/R32*%
X91360000Y-101130000D03*
%TO.P,J5,94*%
%TO.N,/backplane/-5V*%
X91360000Y-103670000D03*
%TO.P,J5,95*%
%TO.N,/backplane/+12V*%
X91360000Y-106210000D03*
%TO.P,J5,96*%
%TO.N,GND*%
X91360000Y-108750000D03*
%TD*%
%TO.P,J2,1*%
%TO.N,/backplane/+5V*%
X41220000Y-30010000D03*
%TO.P,J2,2*%
%TO.N,/backplane/D0*%
X41220000Y-32550000D03*
%TO.P,J2,3*%
%TO.N,/backplane/D1*%
X41220000Y-35090000D03*
%TO.P,J2,4*%
%TO.N,/backplane/D2*%
X41220000Y-37630000D03*
%TO.P,J2,5*%
%TO.N,/backplane/D3*%
X41220000Y-40170000D03*
%TO.P,J2,6*%
%TO.N,/backplane/D4*%
X41220000Y-42710000D03*
%TO.P,J2,7*%
%TO.N,/backplane/D5*%
X41220000Y-45250000D03*
%TO.P,J2,8*%
%TO.N,/backplane/D6*%
X41220000Y-47790000D03*
%TO.P,J2,9*%
%TO.N,/backplane/D7*%
X41220000Y-50330000D03*
%TO.P,J2,10*%
%TO.N,/backplane/D8*%
X41220000Y-52870000D03*
%TO.P,J2,11*%
%TO.N,/backplane/D9*%
X41220000Y-55410000D03*
%TO.P,J2,12*%
%TO.N,/backplane/D10*%
X41220000Y-57950000D03*
%TO.P,J2,13*%
%TO.N,/backplane/D11*%
X41220000Y-60490000D03*
%TO.P,J2,14*%
%TO.N,/backplane/D12*%
X41220000Y-63030000D03*
%TO.P,J2,15*%
%TO.N,/backplane/D13*%
X41220000Y-65570000D03*
%TO.P,J2,16*%
%TO.N,/backplane/D14*%
X41220000Y-68110000D03*
%TO.P,J2,17*%
%TO.N,/backplane/D15*%
X41220000Y-70650000D03*
%TO.P,J2,18*%
%TO.N,/backplane/A0*%
X41220000Y-73190000D03*
%TO.P,J2,19*%
%TO.N,/backplane/A1*%
X41220000Y-75730000D03*
%TO.P,J2,20*%
%TO.N,/backplane/A2*%
X41220000Y-78270000D03*
%TO.P,J2,21*%
%TO.N,/backplane/A3*%
X41220000Y-80810000D03*
%TO.P,J2,22*%
%TO.N,/backplane/A4*%
X41220000Y-83350000D03*
%TO.P,J2,23*%
%TO.N,/backplane/A5*%
X41220000Y-85890000D03*
%TO.P,J2,24*%
%TO.N,/backplane/A6*%
X41220000Y-88430000D03*
%TO.P,J2,25*%
%TO.N,/backplane/A7*%
X41220000Y-90970000D03*
%TO.P,J2,26*%
%TO.N,/backplane/A8*%
X41220000Y-93510000D03*
%TO.P,J2,27*%
%TO.N,/backplane/A9*%
X41220000Y-96050000D03*
%TO.P,J2,28*%
%TO.N,/backplane/A10*%
X41220000Y-98590000D03*
%TO.P,J2,29*%
%TO.N,/backplane/A11*%
X41220000Y-101130000D03*
%TO.P,J2,30*%
%TO.N,/backplane/A12*%
X41220000Y-103670000D03*
%TO.P,J2,31*%
%TO.N,/backplane/A13*%
X41220000Y-106210000D03*
%TO.P,J2,32*%
%TO.N,GND*%
X41220000Y-108750000D03*
D21*
%TO.P,J2,33*%
%TO.N,/backplane/+5V*%
X43760000Y-30010000D03*
%TO.P,J2,34*%
%TO.N,/backplane/R1*%
X43760000Y-32550000D03*
%TO.P,J2,35*%
%TO.N,/backplane/R2*%
X43760000Y-35090000D03*
%TO.P,J2,36*%
%TO.N,/backplane/R3*%
X43760000Y-37630000D03*
%TO.P,J2,37*%
%TO.N,/backplane/R4*%
X43760000Y-40170000D03*
%TO.P,J2,38*%
%TO.N,/backplane/R5*%
X43760000Y-42710000D03*
%TO.P,J2,39*%
%TO.N,/backplane/R6*%
X43760000Y-45250000D03*
%TO.P,J2,40*%
%TO.N,/backplane/R7*%
X43760000Y-47790000D03*
%TO.P,J2,41*%
%TO.N,/backplane/R8*%
X43760000Y-50330000D03*
%TO.P,J2,42*%
%TO.N,/backplane/R9*%
X43760000Y-52870000D03*
%TO.P,J2,43*%
%TO.N,/backplane/R10*%
X43760000Y-55410000D03*
%TO.P,J2,44*%
%TO.N,/backplane/R11*%
X43760000Y-57950000D03*
%TO.P,J2,45*%
%TO.N,/backplane/R12*%
X43760000Y-60490000D03*
%TO.P,J2,46*%
%TO.N,/backplane/R13*%
X43760000Y-63030000D03*
%TO.P,J2,47*%
%TO.N,/backplane/R14*%
X43760000Y-65570000D03*
%TO.P,J2,48*%
%TO.N,/backplane/R15*%
X43760000Y-68110000D03*
%TO.P,J2,49*%
%TO.N,/backplane/R16*%
X43760000Y-70650000D03*
%TO.P,J2,50*%
%TO.N,/backplane/R17*%
X43760000Y-73190000D03*
%TO.P,J2,51*%
%TO.N,/backplane/R18*%
X43760000Y-75730000D03*
%TO.P,J2,52*%
%TO.N,/backplane/R19*%
X43760000Y-78270000D03*
%TO.P,J2,53*%
%TO.N,/backplane/R20*%
X43760000Y-80810000D03*
%TO.P,J2,54*%
%TO.N,/backplane/R21*%
X43760000Y-83350000D03*
%TO.P,J2,55*%
%TO.N,/backplane/R22*%
X43760000Y-85890000D03*
%TO.P,J2,56*%
%TO.N,/backplane/R23*%
X43760000Y-88430000D03*
%TO.P,J2,57*%
%TO.N,/backplane/R24*%
X43760000Y-90970000D03*
%TO.P,J2,58*%
%TO.N,/backplane/R25*%
X43760000Y-93510000D03*
%TO.P,J2,59*%
%TO.N,/backplane/R26*%
X43760000Y-96050000D03*
%TO.P,J2,60*%
%TO.N,/backplane/R27*%
X43760000Y-98590000D03*
%TO.P,J2,61*%
%TO.N,/backplane/R28*%
X43760000Y-101130000D03*
%TO.P,J2,62*%
%TO.N,/backplane/R29*%
X43760000Y-103670000D03*
%TO.P,J2,63*%
%TO.N,/backplane/R30*%
X43760000Y-106210000D03*
%TO.P,J2,64*%
%TO.N,GND*%
X43760000Y-108750000D03*
D20*
%TO.P,J2,65*%
%TO.N,/backplane/+5V*%
X46300000Y-30010000D03*
%TO.P,J2,66*%
%TO.N,/backplane/{slash}RESET*%
X46300000Y-32550000D03*
%TO.P,J2,67*%
%TO.N,/backplane/RESET*%
X46300000Y-35090000D03*
%TO.P,J2,68*%
%TO.N,/backplane/{slash}BERR*%
X46300000Y-37630000D03*
%TO.P,J2,69*%
%TO.N,/backplane/{slash}AS*%
X46300000Y-40170000D03*
%TO.P,J2,70*%
%TO.N,/backplane/{slash}LDS*%
X46300000Y-42710000D03*
%TO.P,J2,71*%
%TO.N,/backplane/{slash}UDS*%
X46300000Y-45250000D03*
%TO.P,J2,72*%
%TO.N,/backplane/{slash}iord*%
X46300000Y-47790000D03*
%TO.P,J2,73*%
%TO.N,/backplane/{slash}memrd*%
X46300000Y-50330000D03*
%TO.P,J2,74*%
%TO.N,/backplane/{slash}memwr*%
X46300000Y-52870000D03*
%TO.P,J2,75*%
%TO.N,/backplane/{slash}iowr*%
X46300000Y-55410000D03*
%TO.P,J2,76*%
%TO.N,/backplane/{slash}VMA*%
X46300000Y-57950000D03*
%TO.P,J2,77*%
%TO.N,/backplane/{slash}VPA*%
X46300000Y-60490000D03*
%TO.P,J2,78*%
%TO.N,/backplane/A23*%
X46300000Y-63030000D03*
%TO.P,J2,79*%
%TO.N,/backplane/A22*%
X46300000Y-65570000D03*
%TO.P,J2,80*%
%TO.N,/backplane/A21*%
X46300000Y-68110000D03*
%TO.P,J2,81*%
%TO.N,/backplane/A20*%
X46300000Y-70650000D03*
%TO.P,J2,82*%
%TO.N,/backplane/{slash}IO_CS1*%
X46300000Y-73190000D03*
%TO.P,J2,83*%
%TO.N,/backplane/E*%
X46300000Y-75730000D03*
%TO.P,J2,84*%
%TO.N,/backplane/{slash}IO_CS*%
X46300000Y-78270000D03*
%TO.P,J2,85*%
%TO.N,/backplane/{slash}MEM_CS*%
X46300000Y-80810000D03*
%TO.P,J2,86*%
%TO.N,/backplane/A19*%
X46300000Y-83350000D03*
%TO.P,J2,87*%
%TO.N,/backplane/A18*%
X46300000Y-85890000D03*
%TO.P,J2,88*%
%TO.N,/backplane/A17*%
X46300000Y-88430000D03*
%TO.P,J2,89*%
%TO.N,/backplane/A16*%
X46300000Y-90970000D03*
%TO.P,J2,90*%
%TO.N,/backplane/A15*%
X46300000Y-93510000D03*
%TO.P,J2,91*%
%TO.N,/backplane/A14*%
X46300000Y-96050000D03*
%TO.P,J2,92*%
%TO.N,/backplane/R31*%
X46300000Y-98590000D03*
%TO.P,J2,93*%
%TO.N,/backplane/R32*%
X46300000Y-101130000D03*
%TO.P,J2,94*%
%TO.N,/backplane/-5V*%
X46300000Y-103670000D03*
%TO.P,J2,95*%
%TO.N,/backplane/+12V*%
X46300000Y-106210000D03*
%TO.P,J2,96*%
%TO.N,GND*%
X46300000Y-108750000D03*
%TD*%
D22*
%TO.P,C8,1*%
%TO.N,/backplane/+5V*%
X111230000Y-26270000D03*
%TO.P,C8,2*%
%TO.N,GND*%
X111230000Y-21270000D03*
%TD*%
D20*
%TO.P,J3,1*%
%TO.N,/backplane/+5V*%
X56290000Y-30010000D03*
%TO.P,J3,2*%
%TO.N,/backplane/D0*%
X56290000Y-32550000D03*
%TO.P,J3,3*%
%TO.N,/backplane/D1*%
X56290000Y-35090000D03*
%TO.P,J3,4*%
%TO.N,/backplane/D2*%
X56290000Y-37630000D03*
%TO.P,J3,5*%
%TO.N,/backplane/D3*%
X56290000Y-40170000D03*
%TO.P,J3,6*%
%TO.N,/backplane/D4*%
X56290000Y-42710000D03*
%TO.P,J3,7*%
%TO.N,/backplane/D5*%
X56290000Y-45250000D03*
%TO.P,J3,8*%
%TO.N,/backplane/D6*%
X56290000Y-47790000D03*
%TO.P,J3,9*%
%TO.N,/backplane/D7*%
X56290000Y-50330000D03*
%TO.P,J3,10*%
%TO.N,/backplane/D8*%
X56290000Y-52870000D03*
%TO.P,J3,11*%
%TO.N,/backplane/D9*%
X56290000Y-55410000D03*
%TO.P,J3,12*%
%TO.N,/backplane/D10*%
X56290000Y-57950000D03*
%TO.P,J3,13*%
%TO.N,/backplane/D11*%
X56290000Y-60490000D03*
%TO.P,J3,14*%
%TO.N,/backplane/D12*%
X56290000Y-63030000D03*
%TO.P,J3,15*%
%TO.N,/backplane/D13*%
X56290000Y-65570000D03*
%TO.P,J3,16*%
%TO.N,/backplane/D14*%
X56290000Y-68110000D03*
%TO.P,J3,17*%
%TO.N,/backplane/D15*%
X56290000Y-70650000D03*
%TO.P,J3,18*%
%TO.N,/backplane/A0*%
X56290000Y-73190000D03*
%TO.P,J3,19*%
%TO.N,/backplane/A1*%
X56290000Y-75730000D03*
%TO.P,J3,20*%
%TO.N,/backplane/A2*%
X56290000Y-78270000D03*
%TO.P,J3,21*%
%TO.N,/backplane/A3*%
X56290000Y-80810000D03*
%TO.P,J3,22*%
%TO.N,/backplane/A4*%
X56290000Y-83350000D03*
%TO.P,J3,23*%
%TO.N,/backplane/A5*%
X56290000Y-85890000D03*
%TO.P,J3,24*%
%TO.N,/backplane/A6*%
X56290000Y-88430000D03*
%TO.P,J3,25*%
%TO.N,/backplane/A7*%
X56290000Y-90970000D03*
%TO.P,J3,26*%
%TO.N,/backplane/A8*%
X56290000Y-93510000D03*
%TO.P,J3,27*%
%TO.N,/backplane/A9*%
X56290000Y-96050000D03*
%TO.P,J3,28*%
%TO.N,/backplane/A10*%
X56290000Y-98590000D03*
%TO.P,J3,29*%
%TO.N,/backplane/A11*%
X56290000Y-101130000D03*
%TO.P,J3,30*%
%TO.N,/backplane/A12*%
X56290000Y-103670000D03*
%TO.P,J3,31*%
%TO.N,/backplane/A13*%
X56290000Y-106210000D03*
%TO.P,J3,32*%
%TO.N,GND*%
X56290000Y-108750000D03*
D21*
%TO.P,J3,33*%
%TO.N,/backplane/+5V*%
X58830000Y-30010000D03*
%TO.P,J3,34*%
%TO.N,/backplane/R1*%
X58830000Y-32550000D03*
%TO.P,J3,35*%
%TO.N,/backplane/R2*%
X58830000Y-35090000D03*
%TO.P,J3,36*%
%TO.N,/backplane/R3*%
X58830000Y-37630000D03*
%TO.P,J3,37*%
%TO.N,/backplane/R4*%
X58830000Y-40170000D03*
%TO.P,J3,38*%
%TO.N,/backplane/R5*%
X58830000Y-42710000D03*
%TO.P,J3,39*%
%TO.N,/backplane/R6*%
X58830000Y-45250000D03*
%TO.P,J3,40*%
%TO.N,/backplane/R7*%
X58830000Y-47790000D03*
%TO.P,J3,41*%
%TO.N,/backplane/R8*%
X58830000Y-50330000D03*
%TO.P,J3,42*%
%TO.N,/backplane/R9*%
X58830000Y-52870000D03*
%TO.P,J3,43*%
%TO.N,/backplane/R10*%
X58830000Y-55410000D03*
%TO.P,J3,44*%
%TO.N,/backplane/R11*%
X58830000Y-57950000D03*
%TO.P,J3,45*%
%TO.N,/backplane/R12*%
X58830000Y-60490000D03*
%TO.P,J3,46*%
%TO.N,/backplane/R13*%
X58830000Y-63030000D03*
%TO.P,J3,47*%
%TO.N,/backplane/R14*%
X58830000Y-65570000D03*
%TO.P,J3,48*%
%TO.N,/backplane/R15*%
X58830000Y-68110000D03*
%TO.P,J3,49*%
%TO.N,/backplane/R16*%
X58830000Y-70650000D03*
%TO.P,J3,50*%
%TO.N,/backplane/R17*%
X58830000Y-73190000D03*
%TO.P,J3,51*%
%TO.N,/backplane/R18*%
X58830000Y-75730000D03*
%TO.P,J3,52*%
%TO.N,/backplane/R19*%
X58830000Y-78270000D03*
%TO.P,J3,53*%
%TO.N,/backplane/R20*%
X58830000Y-80810000D03*
%TO.P,J3,54*%
%TO.N,/backplane/R21*%
X58830000Y-83350000D03*
%TO.P,J3,55*%
%TO.N,/backplane/R22*%
X58830000Y-85890000D03*
%TO.P,J3,56*%
%TO.N,/backplane/R23*%
X58830000Y-88430000D03*
%TO.P,J3,57*%
%TO.N,/backplane/R24*%
X58830000Y-90970000D03*
%TO.P,J3,58*%
%TO.N,/backplane/R25*%
X58830000Y-93510000D03*
%TO.P,J3,59*%
%TO.N,/backplane/R26*%
X58830000Y-96050000D03*
%TO.P,J3,60*%
%TO.N,/backplane/R27*%
X58830000Y-98590000D03*
%TO.P,J3,61*%
%TO.N,/backplane/R28*%
X58830000Y-101130000D03*
%TO.P,J3,62*%
%TO.N,/backplane/R29*%
X58830000Y-103670000D03*
%TO.P,J3,63*%
%TO.N,/backplane/R30*%
X58830000Y-106210000D03*
%TO.P,J3,64*%
%TO.N,GND*%
X58830000Y-108750000D03*
D20*
%TO.P,J3,65*%
%TO.N,/backplane/+5V*%
X61370000Y-30010000D03*
%TO.P,J3,66*%
%TO.N,/backplane/{slash}RESET*%
X61370000Y-32550000D03*
%TO.P,J3,67*%
%TO.N,/backplane/RESET*%
X61370000Y-35090000D03*
%TO.P,J3,68*%
%TO.N,/backplane/{slash}BERR*%
X61370000Y-37630000D03*
%TO.P,J3,69*%
%TO.N,/backplane/{slash}AS*%
X61370000Y-40170000D03*
%TO.P,J3,70*%
%TO.N,/backplane/{slash}LDS*%
X61370000Y-42710000D03*
%TO.P,J3,71*%
%TO.N,/backplane/{slash}UDS*%
X61370000Y-45250000D03*
%TO.P,J3,72*%
%TO.N,/backplane/{slash}iord*%
X61370000Y-47790000D03*
%TO.P,J3,73*%
%TO.N,/backplane/{slash}memrd*%
X61370000Y-50330000D03*
%TO.P,J3,74*%
%TO.N,/backplane/{slash}memwr*%
X61370000Y-52870000D03*
%TO.P,J3,75*%
%TO.N,/backplane/{slash}iowr*%
X61370000Y-55410000D03*
%TO.P,J3,76*%
%TO.N,/backplane/{slash}VMA*%
X61370000Y-57950000D03*
%TO.P,J3,77*%
%TO.N,/backplane/{slash}VPA*%
X61370000Y-60490000D03*
%TO.P,J3,78*%
%TO.N,/backplane/A23*%
X61370000Y-63030000D03*
%TO.P,J3,79*%
%TO.N,/backplane/A22*%
X61370000Y-65570000D03*
%TO.P,J3,80*%
%TO.N,/backplane/A21*%
X61370000Y-68110000D03*
%TO.P,J3,81*%
%TO.N,/backplane/A20*%
X61370000Y-70650000D03*
%TO.P,J3,82*%
%TO.N,/backplane/{slash}IO_CS1*%
X61370000Y-73190000D03*
%TO.P,J3,83*%
%TO.N,/backplane/E*%
X61370000Y-75730000D03*
%TO.P,J3,84*%
%TO.N,/backplane/{slash}IO_CS*%
X61370000Y-78270000D03*
%TO.P,J3,85*%
%TO.N,/backplane/{slash}MEM_CS*%
X61370000Y-80810000D03*
%TO.P,J3,86*%
%TO.N,/backplane/A19*%
X61370000Y-83350000D03*
%TO.P,J3,87*%
%TO.N,/backplane/A18*%
X61370000Y-85890000D03*
%TO.P,J3,88*%
%TO.N,/backplane/A17*%
X61370000Y-88430000D03*
%TO.P,J3,89*%
%TO.N,/backplane/A16*%
X61370000Y-90970000D03*
%TO.P,J3,90*%
%TO.N,/backplane/A15*%
X61370000Y-93510000D03*
%TO.P,J3,91*%
%TO.N,/backplane/A14*%
X61370000Y-96050000D03*
%TO.P,J3,92*%
%TO.N,/backplane/R31*%
X61370000Y-98590000D03*
%TO.P,J3,93*%
%TO.N,/backplane/R32*%
X61370000Y-101130000D03*
%TO.P,J3,94*%
%TO.N,/backplane/-5V*%
X61370000Y-103670000D03*
%TO.P,J3,95*%
%TO.N,/backplane/+12V*%
X61370000Y-106210000D03*
%TO.P,J3,96*%
%TO.N,GND*%
X61370000Y-108750000D03*
%TD*%
D22*
%TO.P,C5,1*%
%TO.N,/backplane/+5V*%
X66180000Y-26260000D03*
%TO.P,C5,2*%
%TO.N,GND*%
X66180000Y-21260000D03*
%TD*%
D25*
%TO.P,C2,1*%
%TO.N,/backplane/+5V*%
X19500000Y-51000000D03*
D22*
%TO.P,C2,2*%
%TO.N,GND*%
X19500000Y-56000000D03*
%TD*%
D23*
%TO.P,J12,1,Pin_1*%
%TO.N,/backplane/-5V*%
X18297500Y-85675829D03*
D24*
%TO.P,J12,2,Pin_2*%
%TO.N,GND*%
X18297500Y-90755829D03*
%TD*%
D20*
%TO.P,J4,1*%
%TO.N,/backplane/+5V*%
X71280000Y-30010000D03*
%TO.P,J4,2*%
%TO.N,/backplane/D0*%
X71280000Y-32550000D03*
%TO.P,J4,3*%
%TO.N,/backplane/D1*%
X71280000Y-35090000D03*
%TO.P,J4,4*%
%TO.N,/backplane/D2*%
X71280000Y-37630000D03*
%TO.P,J4,5*%
%TO.N,/backplane/D3*%
X71280000Y-40170000D03*
%TO.P,J4,6*%
%TO.N,/backplane/D4*%
X71280000Y-42710000D03*
%TO.P,J4,7*%
%TO.N,/backplane/D5*%
X71280000Y-45250000D03*
%TO.P,J4,8*%
%TO.N,/backplane/D6*%
X71280000Y-47790000D03*
%TO.P,J4,9*%
%TO.N,/backplane/D7*%
X71280000Y-50330000D03*
%TO.P,J4,10*%
%TO.N,/backplane/D8*%
X71280000Y-52870000D03*
%TO.P,J4,11*%
%TO.N,/backplane/D9*%
X71280000Y-55410000D03*
%TO.P,J4,12*%
%TO.N,/backplane/D10*%
X71280000Y-57950000D03*
%TO.P,J4,13*%
%TO.N,/backplane/D11*%
X71280000Y-60490000D03*
%TO.P,J4,14*%
%TO.N,/backplane/D12*%
X71280000Y-63030000D03*
%TO.P,J4,15*%
%TO.N,/backplane/D13*%
X71280000Y-65570000D03*
%TO.P,J4,16*%
%TO.N,/backplane/D14*%
X71280000Y-68110000D03*
%TO.P,J4,17*%
%TO.N,/backplane/D15*%
X71280000Y-70650000D03*
%TO.P,J4,18*%
%TO.N,/backplane/A0*%
X71280000Y-73190000D03*
%TO.P,J4,19*%
%TO.N,/backplane/A1*%
X71280000Y-75730000D03*
%TO.P,J4,20*%
%TO.N,/backplane/A2*%
X71280000Y-78270000D03*
%TO.P,J4,21*%
%TO.N,/backplane/A3*%
X71280000Y-80810000D03*
%TO.P,J4,22*%
%TO.N,/backplane/A4*%
X71280000Y-83350000D03*
%TO.P,J4,23*%
%TO.N,/backplane/A5*%
X71280000Y-85890000D03*
%TO.P,J4,24*%
%TO.N,/backplane/A6*%
X71280000Y-88430000D03*
%TO.P,J4,25*%
%TO.N,/backplane/A7*%
X71280000Y-90970000D03*
%TO.P,J4,26*%
%TO.N,/backplane/A8*%
X71280000Y-93510000D03*
%TO.P,J4,27*%
%TO.N,/backplane/A9*%
X71280000Y-96050000D03*
%TO.P,J4,28*%
%TO.N,/backplane/A10*%
X71280000Y-98590000D03*
%TO.P,J4,29*%
%TO.N,/backplane/A11*%
X71280000Y-101130000D03*
%TO.P,J4,30*%
%TO.N,/backplane/A12*%
X71280000Y-103670000D03*
%TO.P,J4,31*%
%TO.N,/backplane/A13*%
X71280000Y-106210000D03*
%TO.P,J4,32*%
%TO.N,GND*%
X71280000Y-108750000D03*
D21*
%TO.P,J4,33*%
%TO.N,/backplane/+5V*%
X73820000Y-30010000D03*
%TO.P,J4,34*%
%TO.N,/backplane/R1*%
X73820000Y-32550000D03*
%TO.P,J4,35*%
%TO.N,/backplane/R2*%
X73820000Y-35090000D03*
%TO.P,J4,36*%
%TO.N,/backplane/R3*%
X73820000Y-37630000D03*
%TO.P,J4,37*%
%TO.N,/backplane/R4*%
X73820000Y-40170000D03*
%TO.P,J4,38*%
%TO.N,/backplane/R5*%
X73820000Y-42710000D03*
%TO.P,J4,39*%
%TO.N,/backplane/R6*%
X73820000Y-45250000D03*
%TO.P,J4,40*%
%TO.N,/backplane/R7*%
X73820000Y-47790000D03*
%TO.P,J4,41*%
%TO.N,/backplane/R8*%
X73820000Y-50330000D03*
%TO.P,J4,42*%
%TO.N,/backplane/R9*%
X73820000Y-52870000D03*
%TO.P,J4,43*%
%TO.N,/backplane/R10*%
X73820000Y-55410000D03*
%TO.P,J4,44*%
%TO.N,/backplane/R11*%
X73820000Y-57950000D03*
%TO.P,J4,45*%
%TO.N,/backplane/R12*%
X73820000Y-60490000D03*
%TO.P,J4,46*%
%TO.N,/backplane/R13*%
X73820000Y-63030000D03*
%TO.P,J4,47*%
%TO.N,/backplane/R14*%
X73820000Y-65570000D03*
%TO.P,J4,48*%
%TO.N,/backplane/R15*%
X73820000Y-68110000D03*
%TO.P,J4,49*%
%TO.N,/backplane/R16*%
X73820000Y-70650000D03*
%TO.P,J4,50*%
%TO.N,/backplane/R17*%
X73820000Y-73190000D03*
%TO.P,J4,51*%
%TO.N,/backplane/R18*%
X73820000Y-75730000D03*
%TO.P,J4,52*%
%TO.N,/backplane/R19*%
X73820000Y-78270000D03*
%TO.P,J4,53*%
%TO.N,/backplane/R20*%
X73820000Y-80810000D03*
%TO.P,J4,54*%
%TO.N,/backplane/R21*%
X73820000Y-83350000D03*
%TO.P,J4,55*%
%TO.N,/backplane/R22*%
X73820000Y-85890000D03*
%TO.P,J4,56*%
%TO.N,/backplane/R23*%
X73820000Y-88430000D03*
%TO.P,J4,57*%
%TO.N,/backplane/R24*%
X73820000Y-90970000D03*
%TO.P,J4,58*%
%TO.N,/backplane/R25*%
X73820000Y-93510000D03*
%TO.P,J4,59*%
%TO.N,/backplane/R26*%
X73820000Y-96050000D03*
%TO.P,J4,60*%
%TO.N,/backplane/R27*%
X73820000Y-98590000D03*
%TO.P,J4,61*%
%TO.N,/backplane/R28*%
X73820000Y-101130000D03*
%TO.P,J4,62*%
%TO.N,/backplane/R29*%
X73820000Y-103670000D03*
%TO.P,J4,63*%
%TO.N,/backplane/R30*%
X73820000Y-106210000D03*
%TO.P,J4,64*%
%TO.N,GND*%
X73820000Y-108750000D03*
D20*
%TO.P,J4,65*%
%TO.N,/backplane/+5V*%
X76360000Y-30010000D03*
%TO.P,J4,66*%
%TO.N,/backplane/{slash}RESET*%
X76360000Y-32550000D03*
%TO.P,J4,67*%
%TO.N,/backplane/RESET*%
X76360000Y-35090000D03*
%TO.P,J4,68*%
%TO.N,/backplane/{slash}BERR*%
X76360000Y-37630000D03*
%TO.P,J4,69*%
%TO.N,/backplane/{slash}AS*%
X76360000Y-40170000D03*
%TO.P,J4,70*%
%TO.N,/backplane/{slash}LDS*%
X76360000Y-42710000D03*
%TO.P,J4,71*%
%TO.N,/backplane/{slash}UDS*%
X76360000Y-45250000D03*
%TO.P,J4,72*%
%TO.N,/backplane/{slash}iord*%
X76360000Y-47790000D03*
%TO.P,J4,73*%
%TO.N,/backplane/{slash}memrd*%
X76360000Y-50330000D03*
%TO.P,J4,74*%
%TO.N,/backplane/{slash}memwr*%
X76360000Y-52870000D03*
%TO.P,J4,75*%
%TO.N,/backplane/{slash}iowr*%
X76360000Y-55410000D03*
%TO.P,J4,76*%
%TO.N,/backplane/{slash}VMA*%
X76360000Y-57950000D03*
%TO.P,J4,77*%
%TO.N,/backplane/{slash}VPA*%
X76360000Y-60490000D03*
%TO.P,J4,78*%
%TO.N,/backplane/A23*%
X76360000Y-63030000D03*
%TO.P,J4,79*%
%TO.N,/backplane/A22*%
X76360000Y-65570000D03*
%TO.P,J4,80*%
%TO.N,/backplane/A21*%
X76360000Y-68110000D03*
%TO.P,J4,81*%
%TO.N,/backplane/A20*%
X76360000Y-70650000D03*
%TO.P,J4,82*%
%TO.N,/backplane/{slash}IO_CS1*%
X76360000Y-73190000D03*
%TO.P,J4,83*%
%TO.N,/backplane/E*%
X76360000Y-75730000D03*
%TO.P,J4,84*%
%TO.N,/backplane/{slash}IO_CS*%
X76360000Y-78270000D03*
%TO.P,J4,85*%
%TO.N,/backplane/{slash}MEM_CS*%
X76360000Y-80810000D03*
%TO.P,J4,86*%
%TO.N,/backplane/A19*%
X76360000Y-83350000D03*
%TO.P,J4,87*%
%TO.N,/backplane/A18*%
X76360000Y-85890000D03*
%TO.P,J4,88*%
%TO.N,/backplane/A17*%
X76360000Y-88430000D03*
%TO.P,J4,89*%
%TO.N,/backplane/A16*%
X76360000Y-90970000D03*
%TO.P,J4,90*%
%TO.N,/backplane/A15*%
X76360000Y-93510000D03*
%TO.P,J4,91*%
%TO.N,/backplane/A14*%
X76360000Y-96050000D03*
%TO.P,J4,92*%
%TO.N,/backplane/R31*%
X76360000Y-98590000D03*
%TO.P,J4,93*%
%TO.N,/backplane/R32*%
X76360000Y-101130000D03*
%TO.P,J4,94*%
%TO.N,/backplane/-5V*%
X76360000Y-103670000D03*
%TO.P,J4,95*%
%TO.N,/backplane/+12V*%
X76360000Y-106210000D03*
%TO.P,J4,96*%
%TO.N,GND*%
X76360000Y-108750000D03*
%TD*%
D23*
%TO.P,J14,1,Pin_1*%
%TO.N,/backplane/+5V*%
X18269010Y-39370000D03*
D24*
%TO.P,J14,2,Pin_2*%
%TO.N,GND*%
X18269010Y-44450000D03*
%TD*%
D20*
%TO.P,J8,1*%
%TO.N,/backplane/+5V*%
X131290000Y-30010000D03*
%TO.P,J8,2*%
%TO.N,/backplane/D0*%
X131290000Y-32550000D03*
%TO.P,J8,3*%
%TO.N,/backplane/D1*%
X131290000Y-35090000D03*
%TO.P,J8,4*%
%TO.N,/backplane/D2*%
X131290000Y-37630000D03*
%TO.P,J8,5*%
%TO.N,/backplane/D3*%
X131290000Y-40170000D03*
%TO.P,J8,6*%
%TO.N,/backplane/D4*%
X131290000Y-42710000D03*
%TO.P,J8,7*%
%TO.N,/backplane/D5*%
X131290000Y-45250000D03*
%TO.P,J8,8*%
%TO.N,/backplane/D6*%
X131290000Y-47790000D03*
%TO.P,J8,9*%
%TO.N,/backplane/D7*%
X131290000Y-50330000D03*
%TO.P,J8,10*%
%TO.N,/backplane/D8*%
X131290000Y-52870000D03*
%TO.P,J8,11*%
%TO.N,/backplane/D9*%
X131290000Y-55410000D03*
%TO.P,J8,12*%
%TO.N,/backplane/D10*%
X131290000Y-57950000D03*
%TO.P,J8,13*%
%TO.N,/backplane/D11*%
X131290000Y-60490000D03*
%TO.P,J8,14*%
%TO.N,/backplane/D12*%
X131290000Y-63030000D03*
%TO.P,J8,15*%
%TO.N,/backplane/D13*%
X131290000Y-65570000D03*
%TO.P,J8,16*%
%TO.N,/backplane/D14*%
X131290000Y-68110000D03*
%TO.P,J8,17*%
%TO.N,/backplane/D15*%
X131290000Y-70650000D03*
%TO.P,J8,18*%
%TO.N,/backplane/A0*%
X131290000Y-73190000D03*
%TO.P,J8,19*%
%TO.N,/backplane/A1*%
X131290000Y-75730000D03*
%TO.P,J8,20*%
%TO.N,/backplane/A2*%
X131290000Y-78270000D03*
%TO.P,J8,21*%
%TO.N,/backplane/A3*%
X131290000Y-80810000D03*
%TO.P,J8,22*%
%TO.N,/backplane/A4*%
X131290000Y-83350000D03*
%TO.P,J8,23*%
%TO.N,/backplane/A5*%
X131290000Y-85890000D03*
%TO.P,J8,24*%
%TO.N,/backplane/A6*%
X131290000Y-88430000D03*
%TO.P,J8,25*%
%TO.N,/backplane/A7*%
X131290000Y-90970000D03*
%TO.P,J8,26*%
%TO.N,/backplane/A8*%
X131290000Y-93510000D03*
%TO.P,J8,27*%
%TO.N,/backplane/A9*%
X131290000Y-96050000D03*
%TO.P,J8,28*%
%TO.N,/backplane/A10*%
X131290000Y-98590000D03*
%TO.P,J8,29*%
%TO.N,/backplane/A11*%
X131290000Y-101130000D03*
%TO.P,J8,30*%
%TO.N,/backplane/A12*%
X131290000Y-103670000D03*
%TO.P,J8,31*%
%TO.N,/backplane/A13*%
X131290000Y-106210000D03*
%TO.P,J8,32*%
%TO.N,GND*%
X131290000Y-108750000D03*
D21*
%TO.P,J8,33*%
%TO.N,/backplane/+5V*%
X133830000Y-30010000D03*
%TO.P,J8,34*%
%TO.N,/backplane/R1*%
X133830000Y-32550000D03*
%TO.P,J8,35*%
%TO.N,/backplane/R2*%
X133830000Y-35090000D03*
%TO.P,J8,36*%
%TO.N,/backplane/R3*%
X133830000Y-37630000D03*
%TO.P,J8,37*%
%TO.N,/backplane/R4*%
X133830000Y-40170000D03*
%TO.P,J8,38*%
%TO.N,/backplane/R5*%
X133830000Y-42710000D03*
%TO.P,J8,39*%
%TO.N,/backplane/R6*%
X133830000Y-45250000D03*
%TO.P,J8,40*%
%TO.N,/backplane/R7*%
X133830000Y-47790000D03*
%TO.P,J8,41*%
%TO.N,/backplane/R8*%
X133830000Y-50330000D03*
%TO.P,J8,42*%
%TO.N,/backplane/R9*%
X133830000Y-52870000D03*
%TO.P,J8,43*%
%TO.N,/backplane/R10*%
X133830000Y-55410000D03*
%TO.P,J8,44*%
%TO.N,/backplane/R11*%
X133830000Y-57950000D03*
%TO.P,J8,45*%
%TO.N,/backplane/R12*%
X133830000Y-60490000D03*
%TO.P,J8,46*%
%TO.N,/backplane/R13*%
X133830000Y-63030000D03*
%TO.P,J8,47*%
%TO.N,/backplane/R14*%
X133830000Y-65570000D03*
%TO.P,J8,48*%
%TO.N,/backplane/R15*%
X133830000Y-68110000D03*
%TO.P,J8,49*%
%TO.N,/backplane/R16*%
X133830000Y-70650000D03*
%TO.P,J8,50*%
%TO.N,/backplane/R17*%
X133830000Y-73190000D03*
%TO.P,J8,51*%
%TO.N,/backplane/R18*%
X133830000Y-75730000D03*
%TO.P,J8,52*%
%TO.N,/backplane/R19*%
X133830000Y-78270000D03*
%TO.P,J8,53*%
%TO.N,/backplane/R20*%
X133830000Y-80810000D03*
%TO.P,J8,54*%
%TO.N,/backplane/R21*%
X133830000Y-83350000D03*
%TO.P,J8,55*%
%TO.N,/backplane/R22*%
X133830000Y-85890000D03*
%TO.P,J8,56*%
%TO.N,/backplane/R23*%
X133830000Y-88430000D03*
%TO.P,J8,57*%
%TO.N,/backplane/R24*%
X133830000Y-90970000D03*
%TO.P,J8,58*%
%TO.N,/backplane/R25*%
X133830000Y-93510000D03*
%TO.P,J8,59*%
%TO.N,/backplane/R26*%
X133830000Y-96050000D03*
%TO.P,J8,60*%
%TO.N,/backplane/R27*%
X133830000Y-98590000D03*
%TO.P,J8,61*%
%TO.N,/backplane/R28*%
X133830000Y-101130000D03*
%TO.P,J8,62*%
%TO.N,/backplane/R29*%
X133830000Y-103670000D03*
%TO.P,J8,63*%
%TO.N,/backplane/R30*%
X133830000Y-106210000D03*
%TO.P,J8,64*%
%TO.N,GND*%
X133830000Y-108750000D03*
D20*
%TO.P,J8,65*%
%TO.N,/backplane/+5V*%
X136370000Y-30010000D03*
%TO.P,J8,66*%
%TO.N,/backplane/{slash}RESET*%
X136370000Y-32550000D03*
%TO.P,J8,67*%
%TO.N,/backplane/RESET*%
X136370000Y-35090000D03*
%TO.P,J8,68*%
%TO.N,/backplane/{slash}BERR*%
X136370000Y-37630000D03*
%TO.P,J8,69*%
%TO.N,/backplane/{slash}AS*%
X136370000Y-40170000D03*
%TO.P,J8,70*%
%TO.N,/backplane/{slash}LDS*%
X136370000Y-42710000D03*
%TO.P,J8,71*%
%TO.N,/backplane/{slash}UDS*%
X136370000Y-45250000D03*
%TO.P,J8,72*%
%TO.N,/backplane/{slash}iord*%
X136370000Y-47790000D03*
%TO.P,J8,73*%
%TO.N,/backplane/{slash}memrd*%
X136370000Y-50330000D03*
%TO.P,J8,74*%
%TO.N,/backplane/{slash}memwr*%
X136370000Y-52870000D03*
%TO.P,J8,75*%
%TO.N,/backplane/{slash}iowr*%
X136370000Y-55410000D03*
%TO.P,J8,76*%
%TO.N,/backplane/{slash}VMA*%
X136370000Y-57950000D03*
%TO.P,J8,77*%
%TO.N,/backplane/{slash}VPA*%
X136370000Y-60490000D03*
%TO.P,J8,78*%
%TO.N,/backplane/A23*%
X136370000Y-63030000D03*
%TO.P,J8,79*%
%TO.N,/backplane/A22*%
X136370000Y-65570000D03*
%TO.P,J8,80*%
%TO.N,/backplane/A21*%
X136370000Y-68110000D03*
%TO.P,J8,81*%
%TO.N,/backplane/A20*%
X136370000Y-70650000D03*
%TO.P,J8,82*%
%TO.N,/backplane/{slash}IO_CS1*%
X136370000Y-73190000D03*
%TO.P,J8,83*%
%TO.N,/backplane/E*%
X136370000Y-75730000D03*
%TO.P,J8,84*%
%TO.N,/backplane/{slash}IO_CS*%
X136370000Y-78270000D03*
%TO.P,J8,85*%
%TO.N,/backplane/{slash}MEM_CS*%
X136370000Y-80810000D03*
%TO.P,J8,86*%
%TO.N,/backplane/A19*%
X136370000Y-83350000D03*
%TO.P,J8,87*%
%TO.N,/backplane/A18*%
X136370000Y-85890000D03*
%TO.P,J8,88*%
%TO.N,/backplane/A17*%
X136370000Y-88430000D03*
%TO.P,J8,89*%
%TO.N,/backplane/A16*%
X136370000Y-90970000D03*
%TO.P,J8,90*%
%TO.N,/backplane/A15*%
X136370000Y-93510000D03*
%TO.P,J8,91*%
%TO.N,/backplane/A14*%
X136370000Y-96050000D03*
%TO.P,J8,92*%
%TO.N,/backplane/R31*%
X136370000Y-98590000D03*
%TO.P,J8,93*%
%TO.N,/backplane/R32*%
X136370000Y-101130000D03*
%TO.P,J8,94*%
%TO.N,/backplane/-5V*%
X136370000Y-103670000D03*
%TO.P,J8,95*%
%TO.N,/backplane/+12V*%
X136370000Y-106210000D03*
%TO.P,J8,96*%
%TO.N,GND*%
X136370000Y-108750000D03*
%TD*%
D22*
%TO.P,C7,1*%
%TO.N,/backplane/+5V*%
X96600000Y-26300000D03*
%TO.P,C7,2*%
%TO.N,GND*%
X96600000Y-21300000D03*
%TD*%
D20*
%TO.P,J6,1*%
%TO.N,/backplane/+5V*%
X101310000Y-30010000D03*
%TO.P,J6,2*%
%TO.N,/backplane/D0*%
X101310000Y-32550000D03*
%TO.P,J6,3*%
%TO.N,/backplane/D1*%
X101310000Y-35090000D03*
%TO.P,J6,4*%
%TO.N,/backplane/D2*%
X101310000Y-37630000D03*
%TO.P,J6,5*%
%TO.N,/backplane/D3*%
X101310000Y-40170000D03*
%TO.P,J6,6*%
%TO.N,/backplane/D4*%
X101310000Y-42710000D03*
%TO.P,J6,7*%
%TO.N,/backplane/D5*%
X101310000Y-45250000D03*
%TO.P,J6,8*%
%TO.N,/backplane/D6*%
X101310000Y-47790000D03*
%TO.P,J6,9*%
%TO.N,/backplane/D7*%
X101310000Y-50330000D03*
%TO.P,J6,10*%
%TO.N,/backplane/D8*%
X101310000Y-52870000D03*
%TO.P,J6,11*%
%TO.N,/backplane/D9*%
X101310000Y-55410000D03*
%TO.P,J6,12*%
%TO.N,/backplane/D10*%
X101310000Y-57950000D03*
%TO.P,J6,13*%
%TO.N,/backplane/D11*%
X101310000Y-60490000D03*
%TO.P,J6,14*%
%TO.N,/backplane/D12*%
X101310000Y-63030000D03*
%TO.P,J6,15*%
%TO.N,/backplane/D13*%
X101310000Y-65570000D03*
%TO.P,J6,16*%
%TO.N,/backplane/D14*%
X101310000Y-68110000D03*
%TO.P,J6,17*%
%TO.N,/backplane/D15*%
X101310000Y-70650000D03*
%TO.P,J6,18*%
%TO.N,/backplane/A0*%
X101310000Y-73190000D03*
%TO.P,J6,19*%
%TO.N,/backplane/A1*%
X101310000Y-75730000D03*
%TO.P,J6,20*%
%TO.N,/backplane/A2*%
X101310000Y-78270000D03*
%TO.P,J6,21*%
%TO.N,/backplane/A3*%
X101310000Y-80810000D03*
%TO.P,J6,22*%
%TO.N,/backplane/A4*%
X101310000Y-83350000D03*
%TO.P,J6,23*%
%TO.N,/backplane/A5*%
X101310000Y-85890000D03*
%TO.P,J6,24*%
%TO.N,/backplane/A6*%
X101310000Y-88430000D03*
%TO.P,J6,25*%
%TO.N,/backplane/A7*%
X101310000Y-90970000D03*
%TO.P,J6,26*%
%TO.N,/backplane/A8*%
X101310000Y-93510000D03*
%TO.P,J6,27*%
%TO.N,/backplane/A9*%
X101310000Y-96050000D03*
%TO.P,J6,28*%
%TO.N,/backplane/A10*%
X101310000Y-98590000D03*
%TO.P,J6,29*%
%TO.N,/backplane/A11*%
X101310000Y-101130000D03*
%TO.P,J6,30*%
%TO.N,/backplane/A12*%
X101310000Y-103670000D03*
%TO.P,J6,31*%
%TO.N,/backplane/A13*%
X101310000Y-106210000D03*
%TO.P,J6,32*%
%TO.N,GND*%
X101310000Y-108750000D03*
D21*
%TO.P,J6,33*%
%TO.N,/backplane/+5V*%
X103850000Y-30010000D03*
%TO.P,J6,34*%
%TO.N,/backplane/R1*%
X103850000Y-32550000D03*
%TO.P,J6,35*%
%TO.N,/backplane/R2*%
X103850000Y-35090000D03*
%TO.P,J6,36*%
%TO.N,/backplane/R3*%
X103850000Y-37630000D03*
%TO.P,J6,37*%
%TO.N,/backplane/R4*%
X103850000Y-40170000D03*
%TO.P,J6,38*%
%TO.N,/backplane/R5*%
X103850000Y-42710000D03*
%TO.P,J6,39*%
%TO.N,/backplane/R6*%
X103850000Y-45250000D03*
%TO.P,J6,40*%
%TO.N,/backplane/R7*%
X103850000Y-47790000D03*
%TO.P,J6,41*%
%TO.N,/backplane/R8*%
X103850000Y-50330000D03*
%TO.P,J6,42*%
%TO.N,/backplane/R9*%
X103850000Y-52870000D03*
%TO.P,J6,43*%
%TO.N,/backplane/R10*%
X103850000Y-55410000D03*
%TO.P,J6,44*%
%TO.N,/backplane/R11*%
X103850000Y-57950000D03*
%TO.P,J6,45*%
%TO.N,/backplane/R12*%
X103850000Y-60490000D03*
%TO.P,J6,46*%
%TO.N,/backplane/R13*%
X103850000Y-63030000D03*
%TO.P,J6,47*%
%TO.N,/backplane/R14*%
X103850000Y-65570000D03*
%TO.P,J6,48*%
%TO.N,/backplane/R15*%
X103850000Y-68110000D03*
%TO.P,J6,49*%
%TO.N,/backplane/R16*%
X103850000Y-70650000D03*
%TO.P,J6,50*%
%TO.N,/backplane/R17*%
X103850000Y-73190000D03*
%TO.P,J6,51*%
%TO.N,/backplane/R18*%
X103850000Y-75730000D03*
%TO.P,J6,52*%
%TO.N,/backplane/R19*%
X103850000Y-78270000D03*
%TO.P,J6,53*%
%TO.N,/backplane/R20*%
X103850000Y-80810000D03*
%TO.P,J6,54*%
%TO.N,/backplane/R21*%
X103850000Y-83350000D03*
%TO.P,J6,55*%
%TO.N,/backplane/R22*%
X103850000Y-85890000D03*
%TO.P,J6,56*%
%TO.N,/backplane/R23*%
X103850000Y-88430000D03*
%TO.P,J6,57*%
%TO.N,/backplane/R24*%
X103850000Y-90970000D03*
%TO.P,J6,58*%
%TO.N,/backplane/R25*%
X103850000Y-93510000D03*
%TO.P,J6,59*%
%TO.N,/backplane/R26*%
X103850000Y-96050000D03*
%TO.P,J6,60*%
%TO.N,/backplane/R27*%
X103850000Y-98590000D03*
%TO.P,J6,61*%
%TO.N,/backplane/R28*%
X103850000Y-101130000D03*
%TO.P,J6,62*%
%TO.N,/backplane/R29*%
X103850000Y-103670000D03*
%TO.P,J6,63*%
%TO.N,/backplane/R30*%
X103850000Y-106210000D03*
%TO.P,J6,64*%
%TO.N,GND*%
X103850000Y-108750000D03*
D20*
%TO.P,J6,65*%
%TO.N,/backplane/+5V*%
X106390000Y-30010000D03*
%TO.P,J6,66*%
%TO.N,/backplane/{slash}RESET*%
X106390000Y-32550000D03*
%TO.P,J6,67*%
%TO.N,/backplane/RESET*%
X106390000Y-35090000D03*
%TO.P,J6,68*%
%TO.N,/backplane/{slash}BERR*%
X106390000Y-37630000D03*
%TO.P,J6,69*%
%TO.N,/backplane/{slash}AS*%
X106390000Y-40170000D03*
%TO.P,J6,70*%
%TO.N,/backplane/{slash}LDS*%
X106390000Y-42710000D03*
%TO.P,J6,71*%
%TO.N,/backplane/{slash}UDS*%
X106390000Y-45250000D03*
%TO.P,J6,72*%
%TO.N,/backplane/{slash}iord*%
X106390000Y-47790000D03*
%TO.P,J6,73*%
%TO.N,/backplane/{slash}memrd*%
X106390000Y-50330000D03*
%TO.P,J6,74*%
%TO.N,/backplane/{slash}memwr*%
X106390000Y-52870000D03*
%TO.P,J6,75*%
%TO.N,/backplane/{slash}iowr*%
X106390000Y-55410000D03*
%TO.P,J6,76*%
%TO.N,/backplane/{slash}VMA*%
X106390000Y-57950000D03*
%TO.P,J6,77*%
%TO.N,/backplane/{slash}VPA*%
X106390000Y-60490000D03*
%TO.P,J6,78*%
%TO.N,/backplane/A23*%
X106390000Y-63030000D03*
%TO.P,J6,79*%
%TO.N,/backplane/A22*%
X106390000Y-65570000D03*
%TO.P,J6,80*%
%TO.N,/backplane/A21*%
X106390000Y-68110000D03*
%TO.P,J6,81*%
%TO.N,/backplane/A20*%
X106390000Y-70650000D03*
%TO.P,J6,82*%
%TO.N,/backplane/{slash}IO_CS1*%
X106390000Y-73190000D03*
%TO.P,J6,83*%
%TO.N,/backplane/E*%
X106390000Y-75730000D03*
%TO.P,J6,84*%
%TO.N,/backplane/{slash}IO_CS*%
X106390000Y-78270000D03*
%TO.P,J6,85*%
%TO.N,/backplane/{slash}MEM_CS*%
X106390000Y-80810000D03*
%TO.P,J6,86*%
%TO.N,/backplane/A19*%
X106390000Y-83350000D03*
%TO.P,J6,87*%
%TO.N,/backplane/A18*%
X106390000Y-85890000D03*
%TO.P,J6,88*%
%TO.N,/backplane/A17*%
X106390000Y-88430000D03*
%TO.P,J6,89*%
%TO.N,/backplane/A16*%
X106390000Y-90970000D03*
%TO.P,J6,90*%
%TO.N,/backplane/A15*%
X106390000Y-93510000D03*
%TO.P,J6,91*%
%TO.N,/backplane/A14*%
X106390000Y-96050000D03*
%TO.P,J6,92*%
%TO.N,/backplane/R31*%
X106390000Y-98590000D03*
%TO.P,J6,93*%
%TO.N,/backplane/R32*%
X106390000Y-101130000D03*
%TO.P,J6,94*%
%TO.N,/backplane/-5V*%
X106390000Y-103670000D03*
%TO.P,J6,95*%
%TO.N,/backplane/+12V*%
X106390000Y-106210000D03*
%TO.P,J6,96*%
%TO.N,GND*%
X106390000Y-108750000D03*
%TD*%
D22*
%TO.P,C9,1*%
%TO.N,/backplane/+5V*%
X126320000Y-26280000D03*
%TO.P,C9,2*%
%TO.N,GND*%
X126320000Y-21280000D03*
%TD*%
%TO.P,C1,1*%
%TO.N,/backplane/+5V*%
X36650000Y-26290000D03*
%TO.P,C1,2*%
%TO.N,GND*%
X36650000Y-21290000D03*
%TD*%
D21*
%TO.P,J10,1*%
%TO.N,/backplane/+5V*%
X161470000Y-30000000D03*
%TO.P,J10,2*%
%TO.N,/backplane/D0*%
X161470000Y-32540000D03*
%TO.P,J10,3*%
%TO.N,/backplane/D1*%
X161470000Y-35080000D03*
%TO.P,J10,4*%
%TO.N,/backplane/D2*%
X161470000Y-37620000D03*
%TO.P,J10,5*%
%TO.N,/backplane/D3*%
X161470000Y-40160000D03*
%TO.P,J10,6*%
%TO.N,/backplane/D4*%
X161470000Y-42700000D03*
%TO.P,J10,7*%
%TO.N,/backplane/D5*%
X161470000Y-45240000D03*
%TO.P,J10,8*%
%TO.N,/backplane/D6*%
X161470000Y-47780000D03*
%TO.P,J10,9*%
%TO.N,/backplane/D7*%
X161470000Y-50320000D03*
%TO.P,J10,10*%
%TO.N,/backplane/D8*%
X161470000Y-52860000D03*
%TO.P,J10,11*%
%TO.N,/backplane/D9*%
X161470000Y-55400000D03*
%TO.P,J10,12*%
%TO.N,/backplane/D10*%
X161470000Y-57940000D03*
%TO.P,J10,13*%
%TO.N,/backplane/D11*%
X161470000Y-60480000D03*
%TO.P,J10,14*%
%TO.N,/backplane/D12*%
X161470000Y-63020000D03*
%TO.P,J10,15*%
%TO.N,/backplane/D13*%
X161470000Y-65560000D03*
%TO.P,J10,16*%
%TO.N,/backplane/D14*%
X161470000Y-68100000D03*
%TO.P,J10,17*%
%TO.N,/backplane/D15*%
X161470000Y-70640000D03*
%TO.P,J10,18*%
%TO.N,/backplane/A0*%
X161470000Y-73180000D03*
%TO.P,J10,19*%
%TO.N,/backplane/A1*%
X161470000Y-75720000D03*
%TO.P,J10,20*%
%TO.N,/backplane/A2*%
X161470000Y-78260000D03*
%TO.P,J10,21*%
%TO.N,/backplane/A3*%
X161470000Y-80800000D03*
%TO.P,J10,22*%
%TO.N,/backplane/A4*%
X161470000Y-83340000D03*
%TO.P,J10,23*%
%TO.N,/backplane/A5*%
X161470000Y-85880000D03*
%TO.P,J10,24*%
%TO.N,/backplane/A6*%
X161470000Y-88420000D03*
%TO.P,J10,25*%
%TO.N,/backplane/A7*%
X161470000Y-90960000D03*
%TO.P,J10,26*%
%TO.N,/backplane/A8*%
X161470000Y-93500000D03*
%TO.P,J10,27*%
%TO.N,/backplane/A9*%
X161470000Y-96040000D03*
%TO.P,J10,28*%
%TO.N,/backplane/A10*%
X161470000Y-98580000D03*
%TO.P,J10,29*%
%TO.N,/backplane/A11*%
X161470000Y-101120000D03*
%TO.P,J10,30*%
%TO.N,/backplane/A12*%
X161470000Y-103660000D03*
%TO.P,J10,31*%
%TO.N,/backplane/A13*%
X161470000Y-106200000D03*
%TO.P,J10,32*%
%TO.N,GND*%
X161470000Y-108740000D03*
D20*
%TO.P,J10,33*%
%TO.N,/backplane/+5V*%
X158930000Y-30000000D03*
%TO.P,J10,34*%
%TO.N,/backplane/R1*%
X158930000Y-32540000D03*
%TO.P,J10,35*%
%TO.N,/backplane/R2*%
X158930000Y-35080000D03*
%TO.P,J10,36*%
%TO.N,/backplane/R3*%
X158930000Y-37620000D03*
%TO.P,J10,37*%
%TO.N,/backplane/R4*%
X158930000Y-40160000D03*
%TO.P,J10,38*%
%TO.N,/backplane/R5*%
X158930000Y-42700000D03*
%TO.P,J10,39*%
%TO.N,/backplane/R6*%
X158930000Y-45240000D03*
%TO.P,J10,40*%
%TO.N,/backplane/R7*%
X158930000Y-47780000D03*
%TO.P,J10,41*%
%TO.N,/backplane/R8*%
X158930000Y-50320000D03*
%TO.P,J10,42*%
%TO.N,/backplane/R9*%
X158930000Y-52860000D03*
%TO.P,J10,43*%
%TO.N,/backplane/R10*%
X158930000Y-55400000D03*
%TO.P,J10,44*%
%TO.N,/backplane/R11*%
X158930000Y-57940000D03*
%TO.P,J10,45*%
%TO.N,/backplane/R12*%
X158930000Y-60480000D03*
%TO.P,J10,46*%
%TO.N,/backplane/R13*%
X158930000Y-63020000D03*
%TO.P,J10,47*%
%TO.N,/backplane/R14*%
X158930000Y-65560000D03*
%TO.P,J10,48*%
%TO.N,/backplane/R15*%
X158930000Y-68100000D03*
%TO.P,J10,49*%
%TO.N,/backplane/R16*%
X158930000Y-70640000D03*
%TO.P,J10,50*%
%TO.N,/backplane/R17*%
X158930000Y-73180000D03*
%TO.P,J10,51*%
%TO.N,/backplane/R18*%
X158930000Y-75720000D03*
%TO.P,J10,52*%
%TO.N,/backplane/R19*%
X158930000Y-78260000D03*
%TO.P,J10,53*%
%TO.N,/backplane/R20*%
X158930000Y-80800000D03*
%TO.P,J10,54*%
%TO.N,/backplane/R21*%
X158930000Y-83340000D03*
%TO.P,J10,55*%
%TO.N,/backplane/R22*%
X158930000Y-85880000D03*
%TO.P,J10,56*%
%TO.N,/backplane/R23*%
X158930000Y-88420000D03*
%TO.P,J10,57*%
%TO.N,/backplane/R24*%
X158930000Y-90960000D03*
%TO.P,J10,58*%
%TO.N,/backplane/R25*%
X158930000Y-93500000D03*
%TO.P,J10,59*%
%TO.N,/backplane/R26*%
X158930000Y-96040000D03*
%TO.P,J10,60*%
%TO.N,/backplane/R27*%
X158930000Y-98580000D03*
%TO.P,J10,61*%
%TO.N,/backplane/R28*%
X158930000Y-101120000D03*
%TO.P,J10,62*%
%TO.N,/backplane/R29*%
X158930000Y-103660000D03*
%TO.P,J10,63*%
%TO.N,/backplane/R30*%
X158930000Y-106200000D03*
%TO.P,J10,64*%
%TO.N,GND*%
X158930000Y-108740000D03*
D21*
%TO.P,J10,65*%
%TO.N,/backplane/+5V*%
X156390000Y-30000000D03*
%TO.P,J10,66*%
%TO.N,/backplane/{slash}RESET*%
X156390000Y-32540000D03*
%TO.P,J10,67*%
%TO.N,/backplane/RESET*%
X156390000Y-35080000D03*
%TO.P,J10,68*%
%TO.N,/backplane/{slash}BERR*%
X156390000Y-37620000D03*
%TO.P,J10,69*%
%TO.N,/backplane/{slash}AS*%
X156390000Y-40160000D03*
%TO.P,J10,70*%
%TO.N,/backplane/{slash}LDS*%
X156390000Y-42700000D03*
%TO.P,J10,71*%
%TO.N,/backplane/{slash}UDS*%
X156390000Y-45240000D03*
%TO.P,J10,72*%
%TO.N,/backplane/{slash}iord*%
X156390000Y-47780000D03*
%TO.P,J10,73*%
%TO.N,/backplane/{slash}memrd*%
X156390000Y-50320000D03*
%TO.P,J10,74*%
%TO.N,/backplane/{slash}memwr*%
X156390000Y-52860000D03*
%TO.P,J10,75*%
%TO.N,/backplane/{slash}iowr*%
X156390000Y-55400000D03*
%TO.P,J10,76*%
%TO.N,/backplane/{slash}VMA*%
X156390000Y-57940000D03*
%TO.P,J10,77*%
%TO.N,/backplane/{slash}VPA*%
X156390000Y-60480000D03*
%TO.P,J10,78*%
%TO.N,/backplane/A23*%
X156390000Y-63020000D03*
%TO.P,J10,79*%
%TO.N,/backplane/A22*%
X156390000Y-65560000D03*
%TO.P,J10,80*%
%TO.N,/backplane/A21*%
X156390000Y-68100000D03*
%TO.P,J10,81*%
%TO.N,/backplane/A20*%
X156390000Y-70640000D03*
%TO.P,J10,82*%
%TO.N,/backplane/{slash}IO_CS1*%
X156390000Y-73180000D03*
%TO.P,J10,83*%
%TO.N,/backplane/E*%
X156390000Y-75720000D03*
%TO.P,J10,84*%
%TO.N,/backplane/{slash}IO_CS*%
X156390000Y-78260000D03*
%TO.P,J10,85*%
%TO.N,/backplane/{slash}MEM_CS*%
X156390000Y-80800000D03*
%TO.P,J10,86*%
%TO.N,/backplane/A19*%
X156390000Y-83340000D03*
%TO.P,J10,87*%
%TO.N,/backplane/A18*%
X156390000Y-85880000D03*
%TO.P,J10,88*%
%TO.N,/backplane/A17*%
X156390000Y-88420000D03*
%TO.P,J10,89*%
%TO.N,/backplane/A16*%
X156390000Y-90960000D03*
%TO.P,J10,90*%
%TO.N,/backplane/A15*%
X156390000Y-93500000D03*
%TO.P,J10,91*%
%TO.N,/backplane/A14*%
X156390000Y-96040000D03*
%TO.P,J10,92*%
%TO.N,/backplane/R31*%
X156390000Y-98580000D03*
%TO.P,J10,93*%
%TO.N,/backplane/R32*%
X156390000Y-101120000D03*
%TO.P,J10,94*%
%TO.N,/backplane/-5V*%
X156390000Y-103660000D03*
%TO.P,J10,95*%
%TO.N,/backplane/+12V*%
X156390000Y-106200000D03*
%TO.P,J10,96*%
%TO.N,GND*%
X156390000Y-108740000D03*
%TD*%
D26*
%TO.N,/backplane/A15*%
X151395200Y-93500000D02*
X151375200Y-93520000D01*
X91513200Y-93504800D02*
X99029166Y-93504800D01*
X156390000Y-93500000D02*
X151395200Y-93500000D01*
X114019166Y-93484800D02*
X115413566Y-94472800D01*
X38663166Y-93502800D02*
X40057566Y-94490800D01*
X46473200Y-93504800D02*
X53989166Y-93504800D01*
X69029166Y-93504800D02*
X70423566Y-94492800D01*
X134897200Y-94472800D02*
X135885200Y-93484800D01*
X115413566Y-94472800D02*
X119886400Y-94472800D01*
X84019166Y-93504800D02*
X85413566Y-94492800D01*
X145313566Y-94502800D02*
X149786400Y-94502800D01*
X128972800Y-93474800D02*
X130367200Y-94462800D01*
X104947200Y-94492800D02*
X105935200Y-93504800D01*
X31147200Y-93502800D02*
X38663166Y-93502800D01*
X100423566Y-94492800D02*
X104896400Y-94492800D01*
X85413566Y-94492800D02*
X89886400Y-94492800D01*
X53989166Y-93504800D02*
X55383566Y-94492800D01*
X70423566Y-94492800D02*
X74896400Y-94492800D01*
X119937200Y-94472800D02*
X120925200Y-93484800D01*
X44581200Y-94490800D02*
X45569200Y-93502800D01*
X121493200Y-93514800D02*
X129009166Y-93514800D01*
X130420783Y-94482800D02*
X134893617Y-94482800D01*
X143919166Y-93514800D02*
X145313566Y-94502800D01*
X40057566Y-94490800D02*
X44530400Y-94490800D01*
X59907200Y-94492800D02*
X60895200Y-93504800D01*
X99029166Y-93504800D02*
X100423566Y-94492800D01*
X74947200Y-94492800D02*
X75935200Y-93504800D01*
X61513200Y-93504800D02*
X69029166Y-93504800D01*
X76503200Y-93504800D02*
X84019166Y-93504800D01*
X149837200Y-94502800D02*
X150825200Y-93514800D01*
X136403200Y-93514800D02*
X143919166Y-93514800D01*
X89937200Y-94492800D02*
X90925200Y-93504800D01*
X55383566Y-94492800D02*
X59856400Y-94492800D01*
X106503200Y-93484800D02*
X114019166Y-93484800D01*
%TO.N,/backplane/R21*%
X73126600Y-82392800D02*
X73930600Y-83196800D01*
X58920600Y-83630000D02*
X60167800Y-82382800D01*
X28800600Y-83580000D02*
X30047800Y-82332800D01*
X134730600Y-82360000D02*
X147689400Y-82360000D01*
X103640600Y-83590000D02*
X104887800Y-82342800D01*
X57816600Y-82362800D02*
X58620600Y-83166800D01*
X43610600Y-83610000D02*
X44857800Y-82362800D01*
X159035000Y-83335000D02*
X157905000Y-82205000D01*
X44857800Y-82362800D02*
X57816600Y-82362800D01*
X43006600Y-82332800D02*
X43810600Y-83136800D01*
X133450600Y-83570000D02*
X134730600Y-82360000D01*
X157905000Y-82205000D02*
X150545000Y-82205000D01*
X147689400Y-82360000D02*
X148460600Y-83126800D01*
X132925200Y-82370800D02*
X133729200Y-83174800D01*
X60150600Y-82370000D02*
X73109400Y-82370000D01*
X118710000Y-83610000D02*
X119957200Y-82362800D01*
X74977800Y-82372800D02*
X87936600Y-82372800D01*
X103097200Y-82372800D02*
X103901200Y-83176800D01*
X87936600Y-82382800D02*
X88740600Y-83186800D01*
X119957200Y-82362800D02*
X132916000Y-82362800D01*
X117846600Y-82342800D02*
X118650600Y-83146800D01*
X73672800Y-83627200D02*
X74920000Y-82380000D01*
X150545000Y-82205000D02*
X149395000Y-83355000D01*
X90137200Y-82372800D02*
X103096000Y-82372800D01*
X104887800Y-82342800D02*
X117846600Y-82342800D01*
X88880000Y-83610000D02*
X90127200Y-82362800D01*
X30047800Y-82332800D02*
X43006600Y-82332800D01*
%TO.N,/backplane/R29*%
X117746600Y-102662800D02*
X118550600Y-103466800D01*
X147599400Y-102690000D02*
X148360600Y-103446800D01*
X103540600Y-103910000D02*
X104787800Y-102662800D01*
X158970000Y-103760000D02*
X157840000Y-102630000D01*
X57716600Y-102682800D02*
X58520600Y-103486800D01*
X88780000Y-103930000D02*
X90027200Y-102682800D01*
X150480000Y-102630000D02*
X149330000Y-103780000D01*
X60067800Y-102700000D02*
X73026600Y-102700000D01*
X102997200Y-102692800D02*
X103801200Y-103496800D01*
X133350600Y-103890000D02*
X134890000Y-102690000D01*
X118610000Y-103930000D02*
X119857200Y-102682800D01*
X132825200Y-102690800D02*
X133629200Y-103494800D01*
X90037200Y-102692800D02*
X102996000Y-102692800D01*
X157840000Y-102630000D02*
X150480000Y-102630000D01*
X29947800Y-102652800D02*
X42906600Y-102652800D01*
X58820600Y-103950000D02*
X60067800Y-102702800D01*
X73666400Y-103923600D02*
X74913600Y-102676400D01*
X74877800Y-102692800D02*
X87836600Y-102692800D01*
X43510600Y-103930000D02*
X44757800Y-102682800D01*
X134640600Y-102690000D02*
X147599400Y-102690000D01*
X119857200Y-102682800D02*
X132816000Y-102682800D01*
X87836600Y-102702800D02*
X88640600Y-103506800D01*
X42906600Y-102652800D02*
X43710600Y-103456800D01*
X104787800Y-102662800D02*
X117746600Y-102662800D01*
X73026600Y-102712800D02*
X73830600Y-103516800D01*
X28700600Y-103900000D02*
X29947800Y-102652800D01*
X44757800Y-102682800D02*
X57716600Y-102682800D01*
%TO.N,/backplane/R13*%
X44797800Y-62042800D02*
X57756600Y-62042800D01*
X43550600Y-63290000D02*
X44797800Y-62042800D01*
X60107800Y-62050000D02*
X73066600Y-62050000D01*
X104827800Y-62022800D02*
X117786600Y-62022800D01*
X73066600Y-62072800D02*
X73870600Y-62876800D01*
X103580600Y-63270000D02*
X104827800Y-62022800D01*
X87876600Y-62062800D02*
X88680600Y-62866800D01*
X119897200Y-62042800D02*
X132856000Y-62042800D01*
X90077200Y-62052800D02*
X103036000Y-62052800D01*
X134700600Y-62070000D02*
X147659400Y-62070000D01*
X117786600Y-62022800D02*
X118590600Y-62826800D01*
X42946600Y-62012800D02*
X43750600Y-62816800D01*
X157590000Y-62040000D02*
X150230000Y-62040000D01*
X133492800Y-63357200D02*
X134740000Y-62110000D01*
X103037200Y-62052800D02*
X103841200Y-62856800D01*
X28740600Y-63260000D02*
X29987800Y-62012800D01*
X150230000Y-62040000D02*
X149080000Y-63190000D01*
X74917800Y-62052800D02*
X87876600Y-62052800D01*
X88820000Y-63290000D02*
X90067200Y-62042800D01*
X29987800Y-62012800D02*
X42946600Y-62012800D01*
X57756600Y-62042800D02*
X58560600Y-62846800D01*
X158720000Y-63170000D02*
X157590000Y-62040000D01*
X118650000Y-63290000D02*
X119897200Y-62042800D01*
X73670600Y-63337200D02*
X74917800Y-62090000D01*
X58860600Y-63310000D02*
X60107800Y-62062800D01*
X147710000Y-62120000D02*
X148514000Y-62924000D01*
X132865200Y-62050800D02*
X133669200Y-62854800D01*
%TO.N,/backplane/E*%
X55403566Y-76702800D02*
X59876400Y-76702800D01*
X85433566Y-76702800D02*
X89906400Y-76702800D01*
X104967200Y-76702800D02*
X105955200Y-75714800D01*
X54009166Y-75714800D02*
X55403566Y-76702800D01*
X100443566Y-76702800D02*
X104916400Y-76702800D01*
X70443566Y-76702800D02*
X74916400Y-76702800D01*
X76523200Y-75714800D02*
X84039166Y-75714800D01*
X136423200Y-75724800D02*
X143939166Y-75724800D01*
X46493200Y-75714800D02*
X54009166Y-75714800D01*
X84039166Y-75714800D02*
X85433566Y-76702800D01*
X151350000Y-75740000D02*
X156370000Y-75740000D01*
X89957200Y-76702800D02*
X90945200Y-75714800D01*
X45589200Y-75712800D02*
X46167200Y-75712800D01*
X115433566Y-76682800D02*
X119906400Y-76682800D01*
X44601200Y-76700800D02*
X45589200Y-75712800D01*
X130440783Y-76692800D02*
X134913617Y-76692800D01*
X99049166Y-75714800D02*
X100443566Y-76702800D01*
X134917200Y-76682800D02*
X135905200Y-75694800D01*
X121513200Y-75724800D02*
X129029166Y-75724800D01*
X44550400Y-76700800D02*
X44601200Y-76700800D01*
X156370000Y-75740000D02*
X156390000Y-75720000D01*
X59927200Y-76702800D02*
X60915200Y-75714800D01*
X119957200Y-76682800D02*
X120945200Y-75694800D01*
X40077566Y-76700800D02*
X44550400Y-76700800D01*
X31167200Y-75712800D02*
X38683166Y-75712800D01*
X69049166Y-75714800D02*
X70443566Y-76702800D01*
X128992800Y-75684800D02*
X130387200Y-76672800D01*
X149857200Y-76712800D02*
X150845200Y-75724800D01*
X61533200Y-75714800D02*
X69049166Y-75714800D01*
X38683166Y-75712800D02*
X40077566Y-76700800D01*
X114039166Y-75694800D02*
X115433566Y-76682800D01*
X143939166Y-75724800D02*
X145333566Y-76712800D01*
X74967200Y-76702800D02*
X75955200Y-75714800D01*
X91533200Y-75714800D02*
X99049166Y-75714800D01*
X145333566Y-76712800D02*
X149806400Y-76712800D01*
X106523200Y-75694800D02*
X114039166Y-75694800D01*
%TO.N,/backplane/R14*%
X58920600Y-65870000D02*
X60167800Y-64622800D01*
X28800600Y-65820000D02*
X30047800Y-64572800D01*
X73730600Y-65887200D02*
X74977800Y-64640000D01*
X73126600Y-64632800D02*
X73930600Y-65436800D01*
X43610600Y-65850000D02*
X44857800Y-64602800D01*
X60130600Y-64600000D02*
X73089400Y-64600000D01*
X74950600Y-64590000D02*
X87909400Y-64590000D01*
X103640600Y-65830000D02*
X104887800Y-64582800D01*
X44857800Y-64602800D02*
X57816600Y-64602800D01*
X120620000Y-64580000D02*
X132916000Y-64602800D01*
X103097200Y-64612800D02*
X103901200Y-65416800D01*
X43006600Y-64572800D02*
X43810600Y-65376800D01*
X104887800Y-64582800D02*
X117846600Y-64582800D01*
X134730600Y-64600000D02*
X147689400Y-64600000D01*
X147718000Y-64628000D02*
X148522000Y-65432000D01*
X132925200Y-64610800D02*
X133729200Y-65414800D01*
X88880000Y-65850000D02*
X90127200Y-64602800D01*
X90160600Y-64590000D02*
X103119400Y-64590000D01*
X87936600Y-64622800D02*
X88740600Y-65426800D01*
X117846600Y-64582800D02*
X118650600Y-65386800D01*
X57816600Y-64602800D02*
X58620600Y-65406800D01*
X159210000Y-65490000D02*
X158080000Y-64360000D01*
X118710000Y-65850000D02*
X120620000Y-64580000D01*
X30047800Y-64572800D02*
X43006600Y-64572800D01*
X133450600Y-65867200D02*
X134697800Y-64620000D01*
X158080000Y-64360000D02*
X150720000Y-64360000D01*
X150720000Y-64360000D02*
X149570000Y-65510000D01*
%TO.N,/backplane/R1*%
X133019400Y-31350000D02*
X133823400Y-32154000D01*
X88129400Y-31300000D02*
X88933400Y-32104000D01*
X28810000Y-32540000D02*
X30057200Y-31292800D01*
X45290600Y-31230000D02*
X58249400Y-31230000D01*
X118813400Y-32597200D02*
X120060600Y-31350000D01*
X134950600Y-31280000D02*
X147909400Y-31280000D01*
X150370000Y-31390000D02*
X157220000Y-31390000D01*
X43820000Y-32540000D02*
X43820000Y-32114400D01*
X104890600Y-31310000D02*
X117849400Y-31310000D01*
X148810000Y-32560000D02*
X149200000Y-32560000D01*
X58249400Y-31230000D02*
X59053400Y-32034000D01*
X58783400Y-32477200D02*
X60030600Y-31230000D01*
X157250000Y-31360000D02*
X158430000Y-32540000D01*
X73923400Y-32547200D02*
X75170600Y-31300000D01*
X30057200Y-31292800D02*
X43016000Y-31292800D01*
X43820000Y-32096800D02*
X43820000Y-32540000D01*
X72989400Y-31230000D02*
X73793400Y-32034000D01*
X133703400Y-32527200D02*
X134950600Y-31280000D01*
X44043400Y-32477200D02*
X45290600Y-31230000D01*
X103239400Y-31230000D02*
X104043400Y-32034000D01*
X60030600Y-31230000D02*
X72989400Y-31230000D01*
X43016000Y-31292800D02*
X43820000Y-32096800D01*
X103643400Y-32557200D02*
X104890600Y-31310000D01*
X117849400Y-31310000D02*
X118653400Y-32114000D01*
X89033400Y-32477200D02*
X90280600Y-31230000D01*
X90280600Y-31230000D02*
X103239400Y-31230000D01*
X75170600Y-31300000D02*
X88129400Y-31300000D01*
X149200000Y-32560000D02*
X150370000Y-31390000D01*
X147909400Y-31280000D02*
X148713400Y-32084000D01*
X158430000Y-32540000D02*
X158930000Y-32540000D01*
X157220000Y-31390000D02*
X157250000Y-31360000D01*
X120060600Y-31350000D02*
X133019400Y-31350000D01*
%TO.N,/backplane/R3*%
X73580600Y-37917200D02*
X74827800Y-36670000D01*
X42856600Y-36622800D02*
X43660600Y-37426800D01*
X72976600Y-36682800D02*
X73780600Y-37486800D01*
X159180000Y-37650000D02*
X158050000Y-36520000D01*
X89987200Y-36662800D02*
X102946000Y-36662800D01*
X132775200Y-36660800D02*
X133579200Y-37464800D01*
X74827800Y-36662800D02*
X87786600Y-36662800D01*
X58770600Y-37920000D02*
X60017800Y-36672800D01*
X59990600Y-36660000D02*
X72949400Y-36660000D01*
X102947200Y-36662800D02*
X103751200Y-37466800D01*
X44707800Y-36652800D02*
X57666600Y-36652800D01*
X158050000Y-36520000D02*
X150690000Y-36520000D01*
X87786600Y-36672800D02*
X88590600Y-37476800D01*
X133300600Y-37860000D02*
X134547800Y-36680000D01*
X103490600Y-37880000D02*
X104737800Y-36632800D01*
X29897800Y-36622800D02*
X42856600Y-36622800D01*
X119807200Y-36652800D02*
X132766000Y-36652800D01*
X150690000Y-36520000D02*
X149540000Y-37670000D01*
X28650600Y-37870000D02*
X29897800Y-36622800D01*
X147506600Y-36680000D02*
X148310600Y-37416800D01*
X118560000Y-37900000D02*
X119807200Y-36652800D01*
X134670600Y-36650000D02*
X147629400Y-36650000D01*
X57666600Y-36652800D02*
X58470600Y-37456800D01*
X117696600Y-36632800D02*
X118500600Y-37436800D01*
X88730000Y-37900000D02*
X89977200Y-36652800D01*
X43460600Y-37900000D02*
X44707800Y-36652800D01*
X104737800Y-36632800D02*
X117696600Y-36632800D01*
%TO.N,/backplane/A17*%
X100613566Y-89402800D02*
X105086400Y-89402800D01*
X60097200Y-89402800D02*
X61085200Y-88414800D01*
X40247566Y-89400800D02*
X44720400Y-89400800D01*
X46663200Y-88414800D02*
X54179166Y-88414800D01*
X44771200Y-89400800D02*
X45759200Y-88412800D01*
X44720400Y-89400800D02*
X44771200Y-89400800D01*
X91703200Y-88414800D02*
X99219166Y-88414800D01*
X70613566Y-89402800D02*
X75086400Y-89402800D01*
X144109166Y-88424800D02*
X145503566Y-89412800D01*
X69219166Y-88414800D02*
X70613566Y-89402800D01*
X129162800Y-88384800D02*
X130557200Y-89372800D01*
X55573566Y-89402800D02*
X60046400Y-89402800D01*
X114209166Y-88394800D02*
X115603566Y-89382800D01*
X151350000Y-88440000D02*
X156370000Y-88440000D01*
X145503566Y-89412800D02*
X149976400Y-89412800D01*
X54179166Y-88414800D02*
X55573566Y-89402800D01*
X38853166Y-88412800D02*
X40247566Y-89400800D01*
X115603566Y-89382800D02*
X120076400Y-89382800D01*
X156370000Y-88440000D02*
X156390000Y-88420000D01*
X99219166Y-88414800D02*
X100613566Y-89402800D01*
X75137200Y-89402800D02*
X76125200Y-88414800D01*
X84209166Y-88414800D02*
X85603566Y-89402800D01*
X61703200Y-88414800D02*
X69219166Y-88414800D01*
X106693200Y-88394800D02*
X114209166Y-88394800D01*
X76693200Y-88414800D02*
X84209166Y-88414800D01*
X105137200Y-89402800D02*
X106125200Y-88414800D01*
X130610783Y-89392800D02*
X135083617Y-89392800D01*
X31337200Y-88412800D02*
X38853166Y-88412800D01*
X120127200Y-89382800D02*
X121115200Y-88394800D01*
X121683200Y-88424800D02*
X129199166Y-88424800D01*
X90127200Y-89402800D02*
X91115200Y-88414800D01*
X136593200Y-88424800D02*
X144109166Y-88424800D01*
X85603566Y-89402800D02*
X90076400Y-89402800D01*
X150027200Y-89412800D02*
X151015200Y-88424800D01*
X45759200Y-88412800D02*
X46337200Y-88412800D01*
X135087200Y-89382800D02*
X136075200Y-88394800D01*
%TO.N,/backplane/R19*%
X57626600Y-77282800D02*
X58430600Y-78086800D01*
X158740000Y-78380000D02*
X157610000Y-77250000D01*
X42816600Y-77252800D02*
X43620600Y-78056800D01*
X119767200Y-77282800D02*
X132726000Y-77282800D01*
X44667800Y-77282800D02*
X57626600Y-77282800D01*
X43420600Y-78530000D02*
X44667800Y-77282800D01*
X134480600Y-77270000D02*
X147439400Y-77270000D01*
X133260600Y-78490000D02*
X134480600Y-77270000D01*
X102907200Y-77292800D02*
X103711200Y-78096800D01*
X157610000Y-77250000D02*
X150250000Y-77250000D01*
X89947200Y-77292800D02*
X102906000Y-77292800D01*
X132735200Y-77290800D02*
X133539200Y-78094800D01*
X73540600Y-78490000D02*
X74787800Y-77292800D01*
X103450600Y-78510000D02*
X104697800Y-77262800D01*
X150250000Y-77250000D02*
X149100000Y-78400000D01*
X74787800Y-77292800D02*
X87746600Y-77292800D01*
X147439400Y-77270000D02*
X148270600Y-78046800D01*
X28610600Y-78500000D02*
X29857800Y-77252800D01*
X29857800Y-77252800D02*
X42816600Y-77252800D01*
X118520000Y-78530000D02*
X119767200Y-77282800D01*
X58730600Y-78550000D02*
X59977800Y-77302800D01*
X59977800Y-77290000D02*
X72936600Y-77290000D01*
X104697800Y-77262800D02*
X117656600Y-77262800D01*
X88690000Y-78530000D02*
X89937200Y-77282800D01*
X117656600Y-77262800D02*
X118460600Y-78066800D01*
X72936600Y-77312800D02*
X73740600Y-78116800D01*
X87746600Y-77302800D02*
X88550600Y-78106800D01*
%TO.N,/backplane/{slash}MEM_CS*%
X40267566Y-81780800D02*
X44740400Y-81780800D01*
X144129166Y-80804800D02*
X145523566Y-81792800D01*
X150047200Y-81792800D02*
X151035200Y-80804800D01*
X90147200Y-81782800D02*
X91135200Y-80794800D01*
X136613200Y-80804800D02*
X144129166Y-80804800D01*
X54199166Y-80794800D02*
X55593566Y-81782800D01*
X145523566Y-81792800D02*
X149996400Y-81792800D01*
X105157200Y-81782800D02*
X106145200Y-80794800D01*
X70633566Y-81782800D02*
X75106400Y-81782800D01*
X38873166Y-80792800D02*
X40267566Y-81780800D01*
X44740400Y-81780800D02*
X44791200Y-81780800D01*
X106713200Y-80774800D02*
X114229166Y-80774800D01*
X84229166Y-80794800D02*
X85623566Y-81782800D01*
X45779200Y-80792800D02*
X46357200Y-80792800D01*
X151350000Y-80820000D02*
X156370000Y-80820000D01*
X114229166Y-80774800D02*
X115623566Y-81762800D01*
X69239166Y-80794800D02*
X70633566Y-81782800D01*
X115623566Y-81762800D02*
X120096400Y-81762800D01*
X44791200Y-81780800D02*
X45779200Y-80792800D01*
X75157200Y-81782800D02*
X76145200Y-80794800D01*
X31357200Y-80792800D02*
X38873166Y-80792800D01*
X55593566Y-81782800D02*
X60066400Y-81782800D01*
X60117200Y-81782800D02*
X61105200Y-80794800D01*
X61723200Y-80794800D02*
X69239166Y-80794800D01*
X135107200Y-81762800D02*
X136095200Y-80774800D01*
X120147200Y-81762800D02*
X121135200Y-80774800D01*
X46683200Y-80794800D02*
X54199166Y-80794800D01*
X100633566Y-81782800D02*
X105106400Y-81782800D01*
X85623566Y-81782800D02*
X90096400Y-81782800D01*
X99239166Y-80794800D02*
X100633566Y-81782800D01*
X121703200Y-80804800D02*
X129219166Y-80804800D01*
X76713200Y-80794800D02*
X84229166Y-80794800D01*
X156370000Y-80820000D02*
X156390000Y-80800000D01*
X91723200Y-80794800D02*
X99239166Y-80794800D01*
X129182800Y-80764800D02*
X130577200Y-81752800D01*
X130630783Y-81772800D02*
X135103617Y-81772800D01*
%TO.N,/backplane/{slash}BERR*%
X145493566Y-38612800D02*
X149966400Y-38612800D01*
X60087200Y-38602800D02*
X61075200Y-37614800D01*
X85593566Y-38602800D02*
X90066400Y-38602800D01*
X75127200Y-38602800D02*
X76115200Y-37614800D01*
X150017200Y-38612800D02*
X151005200Y-37624800D01*
X105127200Y-38602800D02*
X106115200Y-37614800D01*
X55563566Y-38602800D02*
X60036400Y-38602800D01*
X130600783Y-38592800D02*
X135073617Y-38592800D01*
X61693200Y-37614800D02*
X69209166Y-37614800D01*
X129152800Y-37584800D02*
X130547200Y-38572800D01*
X144099166Y-37624800D02*
X145493566Y-38612800D01*
X121673200Y-37624800D02*
X129189166Y-37624800D01*
X115593566Y-38582800D02*
X120066400Y-38582800D01*
X114199166Y-37594800D02*
X115593566Y-38582800D01*
X91693200Y-37614800D02*
X99209166Y-37614800D01*
X54169166Y-37614800D02*
X55563566Y-38602800D01*
X44710400Y-38600800D02*
X44761200Y-38600800D01*
X76683200Y-37614800D02*
X84199166Y-37614800D01*
X44761200Y-38600800D02*
X45749200Y-37612800D01*
X136583200Y-37624800D02*
X144099166Y-37624800D01*
X156370000Y-37640000D02*
X156390000Y-37620000D01*
X90117200Y-38602800D02*
X91105200Y-37614800D01*
X151350000Y-37640000D02*
X156370000Y-37640000D01*
X135077200Y-38582800D02*
X136065200Y-37594800D01*
X45749200Y-37612800D02*
X46327200Y-37612800D01*
X69209166Y-37614800D02*
X70603566Y-38602800D01*
X70603566Y-38602800D02*
X75076400Y-38602800D01*
X46653200Y-37614800D02*
X54169166Y-37614800D01*
X100603566Y-38602800D02*
X105076400Y-38602800D01*
X84199166Y-37614800D02*
X85593566Y-38602800D01*
X120117200Y-38582800D02*
X121105200Y-37594800D01*
X106683200Y-37594800D02*
X114199166Y-37594800D01*
X99209166Y-37614800D02*
X100603566Y-38602800D01*
X31327200Y-37612800D02*
X38843166Y-37612800D01*
X40237566Y-38600800D02*
X44710400Y-38600800D01*
X38843166Y-37612800D02*
X40237566Y-38600800D01*
%TO.N,/backplane/{slash}VPA*%
X114169166Y-60454800D02*
X115563566Y-61442800D01*
X105097200Y-61462800D02*
X106085200Y-60474800D01*
X145463566Y-61472800D02*
X149936400Y-61472800D01*
X70573566Y-61462800D02*
X75046400Y-61462800D01*
X44680400Y-61460800D02*
X44731200Y-61460800D01*
X156370000Y-60500000D02*
X156390000Y-60480000D01*
X38813166Y-60472800D02*
X40207566Y-61460800D01*
X144069166Y-60484800D02*
X145463566Y-61472800D01*
X120087200Y-61442800D02*
X121075200Y-60454800D01*
X69179166Y-60474800D02*
X70573566Y-61462800D01*
X99179166Y-60474800D02*
X100573566Y-61462800D01*
X100573566Y-61462800D02*
X105046400Y-61462800D01*
X115563566Y-61442800D02*
X120036400Y-61442800D01*
X91663200Y-60474800D02*
X99179166Y-60474800D01*
X44731200Y-61460800D02*
X45719200Y-60472800D01*
X31297200Y-60472800D02*
X38813166Y-60472800D01*
X76653200Y-60474800D02*
X84169166Y-60474800D01*
X130570783Y-61452800D02*
X135043617Y-61452800D01*
X55533566Y-61462800D02*
X60006400Y-61462800D01*
X136553200Y-60484800D02*
X144069166Y-60484800D01*
X135047200Y-61442800D02*
X136035200Y-60454800D01*
X40207566Y-61460800D02*
X44680400Y-61460800D01*
X61663200Y-60474800D02*
X69179166Y-60474800D01*
X129122800Y-60444800D02*
X130517200Y-61432800D01*
X106653200Y-60454800D02*
X114169166Y-60454800D01*
X45719200Y-60472800D02*
X46297200Y-60472800D01*
X54139166Y-60474800D02*
X55533566Y-61462800D01*
X75097200Y-61462800D02*
X76085200Y-60474800D01*
X121643200Y-60484800D02*
X129159166Y-60484800D01*
X149987200Y-61472800D02*
X150975200Y-60484800D01*
X90087200Y-61462800D02*
X91075200Y-60474800D01*
X84169166Y-60474800D02*
X85563566Y-61462800D01*
X46623200Y-60474800D02*
X54139166Y-60474800D01*
X151350000Y-60500000D02*
X156370000Y-60500000D01*
X60057200Y-61462800D02*
X61045200Y-60474800D01*
X85563566Y-61462800D02*
X90036400Y-61462800D01*
%TO.N,/backplane/R4*%
X57786600Y-39182800D02*
X58590600Y-39986800D01*
X132895200Y-39190800D02*
X133699200Y-39994800D01*
X58890600Y-40450000D02*
X60137800Y-39202800D01*
X134667800Y-39190000D02*
X147626600Y-39190000D01*
X150450000Y-39110000D02*
X149300000Y-40260000D01*
X117816600Y-39162800D02*
X118620600Y-39966800D01*
X73096600Y-39212800D02*
X73900600Y-40016800D01*
X103067200Y-39192800D02*
X103871200Y-39996800D01*
X157810000Y-39110000D02*
X150450000Y-39110000D01*
X104857800Y-39162800D02*
X117816600Y-39162800D01*
X133420600Y-40390000D02*
X134667800Y-39190000D01*
X28770600Y-40400000D02*
X30017800Y-39152800D01*
X60120600Y-39200000D02*
X73079400Y-39200000D01*
X44827800Y-39182800D02*
X57786600Y-39182800D01*
X158940000Y-40240000D02*
X157810000Y-39110000D01*
X74947800Y-39192800D02*
X87906600Y-39192800D01*
X87906600Y-39202800D02*
X88710600Y-40006800D01*
X90107200Y-39192800D02*
X103066000Y-39192800D01*
X119927200Y-39182800D02*
X132886000Y-39182800D01*
X30017800Y-39152800D02*
X42976600Y-39152800D01*
X43580600Y-40430000D02*
X44827800Y-39182800D01*
X103610600Y-40410000D02*
X104857800Y-39162800D01*
X118680000Y-40430000D02*
X119927200Y-39182800D01*
X73700600Y-40447200D02*
X74947800Y-39200000D01*
X88850000Y-40430000D02*
X90097200Y-39182800D01*
X147626600Y-39190000D02*
X148430600Y-39946800D01*
X42976600Y-39152800D02*
X43780600Y-39956800D01*
%TO.N,/backplane/R27*%
X28760600Y-98820000D02*
X30007800Y-97572800D01*
X43570600Y-98850000D02*
X44817800Y-97602800D01*
X157835000Y-97555000D02*
X150475000Y-97555000D01*
X147659400Y-97610000D02*
X148420600Y-98366800D01*
X60127800Y-97600000D02*
X73086600Y-97600000D01*
X58880600Y-98870000D02*
X60127800Y-97622800D01*
X132885200Y-97610800D02*
X133689200Y-98414800D01*
X158965000Y-98685000D02*
X157835000Y-97555000D01*
X133410600Y-98810000D02*
X134700600Y-97610000D01*
X57776600Y-97602800D02*
X58580600Y-98406800D01*
X104847800Y-97582800D02*
X117806600Y-97582800D01*
X118670000Y-98850000D02*
X119917200Y-97602800D01*
X88840000Y-98850000D02*
X90087200Y-97602800D01*
X117806600Y-97582800D02*
X118610600Y-98386800D01*
X103600600Y-98830000D02*
X104847800Y-97582800D01*
X44817800Y-97602800D02*
X57776600Y-97602800D01*
X134700600Y-97610000D02*
X147659400Y-97610000D01*
X103057200Y-97612800D02*
X103861200Y-98416800D01*
X119917200Y-97602800D02*
X132876000Y-97602800D01*
X150475000Y-97555000D02*
X149325000Y-98705000D01*
X90097200Y-97612800D02*
X103056000Y-97612800D01*
X73086600Y-97632800D02*
X73890600Y-98436800D01*
X73690600Y-98873600D02*
X74937800Y-97626400D01*
X42966600Y-97572800D02*
X43770600Y-98376800D01*
X74937800Y-97612800D02*
X87896600Y-97612800D01*
X30007800Y-97572800D02*
X42966600Y-97572800D01*
X87896600Y-97622800D02*
X88700600Y-98426800D01*
%TO.N,/backplane/{slash}UDS*%
X90157200Y-46242800D02*
X91145200Y-45254800D01*
X99249166Y-45254800D02*
X100643566Y-46242800D01*
X76723200Y-45254800D02*
X84239166Y-45254800D01*
X91733200Y-45254800D02*
X99249166Y-45254800D01*
X150057200Y-46252800D02*
X151045200Y-45264800D01*
X135117200Y-46222800D02*
X136105200Y-45234800D01*
X84239166Y-45254800D02*
X85633566Y-46242800D01*
X85633566Y-46242800D02*
X90106400Y-46242800D01*
X44801200Y-46240800D02*
X45789200Y-45252800D01*
X145533566Y-46252800D02*
X150006400Y-46252800D01*
X46693200Y-45254800D02*
X54209166Y-45254800D01*
X100643566Y-46242800D02*
X105116400Y-46242800D01*
X130640783Y-46232800D02*
X135113617Y-46232800D01*
X31367200Y-45252800D02*
X38883166Y-45252800D01*
X121713200Y-45264800D02*
X129229166Y-45264800D01*
X106723200Y-45234800D02*
X114239166Y-45234800D01*
X144139166Y-45264800D02*
X145533566Y-46252800D01*
X115633566Y-46222800D02*
X120106400Y-46222800D01*
X70643566Y-46242800D02*
X75116400Y-46242800D01*
X45789200Y-45252800D02*
X46367200Y-45252800D01*
X120157200Y-46222800D02*
X121145200Y-45234800D01*
X54209166Y-45254800D02*
X55603566Y-46242800D01*
X136623200Y-45264800D02*
X144139166Y-45264800D01*
X44750400Y-46240800D02*
X44801200Y-46240800D01*
X55603566Y-46242800D02*
X60076400Y-46242800D01*
X156370000Y-45260000D02*
X156390000Y-45240000D01*
X114239166Y-45234800D02*
X115633566Y-46222800D01*
X105167200Y-46242800D02*
X106155200Y-45254800D01*
X75167200Y-46242800D02*
X76155200Y-45254800D01*
X69249166Y-45254800D02*
X70643566Y-46242800D01*
X38883166Y-45252800D02*
X40277566Y-46240800D01*
X60127200Y-46242800D02*
X61115200Y-45254800D01*
X61733200Y-45254800D02*
X69249166Y-45254800D01*
X129192800Y-45224800D02*
X130587200Y-46212800D01*
X40277566Y-46240800D02*
X44750400Y-46240800D01*
X151350000Y-45260000D02*
X156370000Y-45260000D01*
%TO.N,/backplane/A18*%
X149917200Y-86872800D02*
X150905200Y-85884800D01*
X38743166Y-85872800D02*
X40137566Y-86860800D01*
X143999166Y-85884800D02*
X145393566Y-86872800D01*
X70503566Y-86862800D02*
X74976400Y-86862800D01*
X100503566Y-86862800D02*
X104976400Y-86862800D01*
X91593200Y-85874800D02*
X99109166Y-85874800D01*
X105027200Y-86862800D02*
X106015200Y-85874800D01*
X55463566Y-86862800D02*
X59936400Y-86862800D01*
X59987200Y-86862800D02*
X60975200Y-85874800D01*
X151350000Y-85900000D02*
X156370000Y-85900000D01*
X120017200Y-86842800D02*
X121005200Y-85854800D01*
X76583200Y-85874800D02*
X84099166Y-85874800D01*
X84099166Y-85874800D02*
X85493566Y-86862800D01*
X44661200Y-86860800D02*
X45649200Y-85872800D01*
X85493566Y-86862800D02*
X89966400Y-86862800D01*
X61593200Y-85874800D02*
X69109166Y-85874800D01*
X130500783Y-86852800D02*
X134973617Y-86852800D01*
X106583200Y-85854800D02*
X114099166Y-85854800D01*
X75027200Y-86862800D02*
X76015200Y-85874800D01*
X44610400Y-86860800D02*
X44661200Y-86860800D01*
X99109166Y-85874800D02*
X100503566Y-86862800D01*
X45649200Y-85872800D02*
X46227200Y-85872800D01*
X90017200Y-86862800D02*
X91005200Y-85874800D01*
X121573200Y-85884800D02*
X129089166Y-85884800D01*
X31227200Y-85872800D02*
X38743166Y-85872800D01*
X46553200Y-85874800D02*
X54069166Y-85874800D01*
X156370000Y-85900000D02*
X156390000Y-85880000D01*
X145393566Y-86872800D02*
X149866400Y-86872800D01*
X115493566Y-86842800D02*
X119966400Y-86842800D01*
X129052800Y-85844800D02*
X130447200Y-86832800D01*
X134977200Y-86842800D02*
X135965200Y-85854800D01*
X40137566Y-86860800D02*
X44610400Y-86860800D01*
X114099166Y-85854800D02*
X115493566Y-86842800D01*
X54069166Y-85874800D02*
X55463566Y-86862800D01*
X69109166Y-85874800D02*
X70503566Y-86862800D01*
X136483200Y-85884800D02*
X143999166Y-85884800D01*
%TO.N,/backplane/R7*%
X90147200Y-46820000D02*
X103106000Y-46820000D01*
X74980600Y-46820000D02*
X87939400Y-46820000D01*
X157710000Y-46800000D02*
X150350000Y-46800000D01*
X58930600Y-48090000D02*
X60177800Y-46842800D01*
X30057800Y-46792800D02*
X43016600Y-46792800D01*
X150350000Y-46800000D02*
X149200000Y-47950000D01*
X133460600Y-48030000D02*
X134510600Y-46840000D01*
X73136600Y-46852800D02*
X73940600Y-47656800D01*
X134510600Y-46820000D02*
X147469400Y-46820000D01*
X43016600Y-46792800D02*
X43820600Y-47596800D01*
X119950600Y-46810000D02*
X132909400Y-46810000D01*
X103650600Y-48050000D02*
X104897800Y-46802800D01*
X43620600Y-48070000D02*
X44867800Y-46822800D01*
X87946600Y-46842800D02*
X88820000Y-47790000D01*
X88890000Y-48070000D02*
X90137200Y-46822800D01*
X60150600Y-46830000D02*
X73109400Y-46830000D01*
X117856600Y-46802800D02*
X118660600Y-47606800D01*
X57826600Y-46822800D02*
X58630600Y-47626800D01*
X73740600Y-48097200D02*
X74987800Y-46850000D01*
X132935200Y-46830800D02*
X133739200Y-47634800D01*
X103107200Y-46832800D02*
X103911200Y-47636800D01*
X28810600Y-48040000D02*
X30057800Y-46792800D01*
X104897800Y-46802800D02*
X117856600Y-46802800D01*
X158840000Y-47930000D02*
X157710000Y-46800000D01*
X118720000Y-48070000D02*
X119967200Y-46822800D01*
X147469400Y-46840000D02*
X148470600Y-47586800D01*
X44867800Y-46822800D02*
X57826600Y-46822800D01*
%TO.N,/backplane/R12*%
X118700000Y-60760000D02*
X119947200Y-59512800D01*
X30037800Y-59482800D02*
X42996600Y-59482800D01*
X73116600Y-59542800D02*
X73920600Y-60346800D01*
X58910600Y-60780000D02*
X60157800Y-59532800D01*
X74967800Y-59522800D02*
X87926600Y-59522800D01*
X90127200Y-59522800D02*
X103086000Y-59522800D01*
X119947200Y-59512800D02*
X132906000Y-59512800D01*
X103630600Y-60740000D02*
X104877800Y-59492800D01*
X158960000Y-60580000D02*
X157830000Y-59450000D01*
X133392800Y-60767200D02*
X134640000Y-59520000D01*
X134571200Y-59530000D02*
X147530000Y-59530000D01*
X43600600Y-60760000D02*
X44847800Y-59512800D01*
X147530000Y-59530000D02*
X148334000Y-60334000D01*
X60140600Y-59530000D02*
X73099400Y-59530000D01*
X104877800Y-59492800D02*
X117836600Y-59492800D01*
X117836600Y-59492800D02*
X118640600Y-60296800D01*
X42996600Y-59482800D02*
X43800600Y-60286800D01*
X73720600Y-60797200D02*
X74967800Y-59550000D01*
X132915200Y-59520800D02*
X133719200Y-60324800D01*
X87926600Y-59532800D02*
X88730600Y-60336800D01*
X28790600Y-60730000D02*
X30037800Y-59482800D01*
X150470000Y-59450000D02*
X149320000Y-60600000D01*
X103087200Y-59522800D02*
X103891200Y-60326800D01*
X157830000Y-59450000D02*
X150470000Y-59450000D01*
X88870000Y-60760000D02*
X90117200Y-59512800D01*
X44847800Y-59512800D02*
X57806600Y-59512800D01*
X57806600Y-59512800D02*
X58610600Y-60316800D01*
%TO.N,/backplane/RESET*%
X70483566Y-36072800D02*
X74956400Y-36072800D01*
X136463200Y-35094800D02*
X143979166Y-35094800D01*
X106563200Y-35064800D02*
X114079166Y-35064800D01*
X69089166Y-35084800D02*
X70483566Y-36072800D01*
X151350000Y-35100000D02*
X156370000Y-35100000D01*
X31207200Y-35082800D02*
X38723166Y-35082800D01*
X114079166Y-35064800D02*
X115473566Y-36052800D01*
X44590400Y-36070800D02*
X44641200Y-36070800D01*
X54049166Y-35084800D02*
X55443566Y-36072800D01*
X145373566Y-36082800D02*
X149846400Y-36082800D01*
X149897200Y-36082800D02*
X150885200Y-35094800D01*
X119997200Y-36052800D02*
X120985200Y-35064800D01*
X59967200Y-36072800D02*
X60955200Y-35084800D01*
X99089166Y-35084800D02*
X100483566Y-36072800D01*
X44641200Y-36070800D02*
X45629200Y-35082800D01*
X134957200Y-36052800D02*
X135945200Y-35064800D01*
X61573200Y-35084800D02*
X69089166Y-35084800D01*
X89997200Y-36072800D02*
X90985200Y-35084800D01*
X75007200Y-36072800D02*
X75995200Y-35084800D01*
X46533200Y-35084800D02*
X54049166Y-35084800D01*
X45629200Y-35082800D02*
X46207200Y-35082800D01*
X100483566Y-36072800D02*
X104956400Y-36072800D01*
X76563200Y-35084800D02*
X84079166Y-35084800D01*
X105007200Y-36072800D02*
X105995200Y-35084800D01*
X156370000Y-35100000D02*
X156390000Y-35080000D01*
X130480783Y-36062800D02*
X134953617Y-36062800D01*
X85473566Y-36072800D02*
X89946400Y-36072800D01*
X121553200Y-35094800D02*
X129069166Y-35094800D01*
X143979166Y-35094800D02*
X145373566Y-36082800D01*
X115473566Y-36052800D02*
X119946400Y-36052800D01*
X40117566Y-36070800D02*
X44590400Y-36070800D01*
X129032800Y-35054800D02*
X130427200Y-36042800D01*
X91573200Y-35084800D02*
X99089166Y-35084800D01*
X84079166Y-35084800D02*
X85473566Y-36072800D01*
X55443566Y-36072800D02*
X59916400Y-36072800D01*
X38723166Y-35082800D02*
X40117566Y-36070800D01*
%TO.N,/backplane/A14*%
X90107200Y-97022800D02*
X91095200Y-96034800D01*
X69199166Y-96034800D02*
X70593566Y-97022800D01*
X150007200Y-97032800D02*
X150995200Y-96044800D01*
X55553566Y-97022800D02*
X60026400Y-97022800D01*
X135067200Y-97002800D02*
X136055200Y-96014800D01*
X115583566Y-97002800D02*
X120056400Y-97002800D01*
X99199166Y-96034800D02*
X100593566Y-97022800D01*
X105117200Y-97022800D02*
X106105200Y-96034800D01*
X31317200Y-96032800D02*
X38833166Y-96032800D01*
X70593566Y-97022800D02*
X75066400Y-97022800D01*
X100593566Y-97022800D02*
X105066400Y-97022800D01*
X84189166Y-96034800D02*
X85583566Y-97022800D01*
X60077200Y-97022800D02*
X61065200Y-96034800D01*
X120107200Y-97002800D02*
X121095200Y-96014800D01*
X145483566Y-97032800D02*
X149956400Y-97032800D01*
X91683200Y-96034800D02*
X99199166Y-96034800D01*
X85583566Y-97022800D02*
X90056400Y-97022800D01*
X44700400Y-97020800D02*
X44751200Y-97020800D01*
X76673200Y-96034800D02*
X84189166Y-96034800D01*
X156390000Y-96040000D02*
X151370000Y-96040000D01*
X151370000Y-96040000D02*
X151350000Y-96060000D01*
X54159166Y-96034800D02*
X55553566Y-97022800D01*
X129142800Y-96004800D02*
X130537200Y-96992800D01*
X44751200Y-97020800D02*
X45739200Y-96032800D01*
X40227566Y-97020800D02*
X44700400Y-97020800D01*
X38833166Y-96032800D02*
X40227566Y-97020800D01*
X121663200Y-96044800D02*
X129179166Y-96044800D01*
X75117200Y-97022800D02*
X76105200Y-96034800D01*
X61683200Y-96034800D02*
X69199166Y-96034800D01*
X144089166Y-96044800D02*
X145483566Y-97032800D01*
X136573200Y-96044800D02*
X144089166Y-96044800D01*
X130590783Y-97012800D02*
X135063617Y-97012800D01*
X114189166Y-96014800D02*
X115583566Y-97002800D01*
X46643200Y-96034800D02*
X54159166Y-96034800D01*
X106673200Y-96014800D02*
X114189166Y-96014800D01*
X45739200Y-96032800D02*
X46317200Y-96032800D01*
%TO.N,/backplane/A22*%
X38813166Y-65562800D02*
X40207566Y-66550800D01*
X90087200Y-66552800D02*
X91075200Y-65564800D01*
X44680400Y-66550800D02*
X44731200Y-66550800D01*
X136553200Y-65574800D02*
X144069166Y-65574800D01*
X70573566Y-66552800D02*
X75046400Y-66552800D01*
X145463566Y-66562800D02*
X149936400Y-66562800D01*
X44731200Y-66550800D02*
X45719200Y-65562800D01*
X114169166Y-65544800D02*
X115563566Y-66532800D01*
X130570783Y-66542800D02*
X135043617Y-66542800D01*
X31297200Y-65562800D02*
X38813166Y-65562800D01*
X144069166Y-65574800D02*
X145463566Y-66562800D01*
X46623200Y-65564800D02*
X54139166Y-65564800D01*
X45719200Y-65562800D02*
X46297200Y-65562800D01*
X151350000Y-65580000D02*
X156370000Y-65580000D01*
X135047200Y-66532800D02*
X136035200Y-65544800D01*
X129122800Y-65534800D02*
X130517200Y-66522800D01*
X149987200Y-66562800D02*
X150975200Y-65574800D01*
X85563566Y-66552800D02*
X90036400Y-66552800D01*
X69179166Y-65564800D02*
X70573566Y-66552800D01*
X106653200Y-65544800D02*
X114169166Y-65544800D01*
X75097200Y-66552800D02*
X76085200Y-65564800D01*
X115563566Y-66532800D02*
X120036400Y-66532800D01*
X91663200Y-65564800D02*
X99179166Y-65564800D01*
X60057200Y-66552800D02*
X61045200Y-65564800D01*
X105097200Y-66552800D02*
X106085200Y-65564800D01*
X40207566Y-66550800D02*
X44680400Y-66550800D01*
X100573566Y-66552800D02*
X105046400Y-66552800D01*
X76653200Y-65564800D02*
X84169166Y-65564800D01*
X120087200Y-66532800D02*
X121075200Y-65544800D01*
X84169166Y-65564800D02*
X85563566Y-66552800D01*
X61663200Y-65564800D02*
X69179166Y-65564800D01*
X54139166Y-65564800D02*
X55533566Y-66552800D01*
X121643200Y-65574800D02*
X129159166Y-65574800D01*
X156370000Y-65580000D02*
X156390000Y-65560000D01*
X99179166Y-65564800D02*
X100573566Y-66552800D01*
X55533566Y-66552800D02*
X60006400Y-66552800D01*
%TO.N,/backplane/R8*%
X158970000Y-50240000D02*
X157840000Y-49110000D01*
X90037200Y-49362800D02*
X102996000Y-49362800D01*
X134570600Y-49340000D02*
X147529400Y-49340000D01*
X103540600Y-50580000D02*
X104787800Y-49332800D01*
X119857200Y-49352800D02*
X132816000Y-49352800D01*
X44757800Y-49352800D02*
X57716600Y-49352800D01*
X87836600Y-49372800D02*
X88640600Y-50176800D01*
X88780000Y-50600000D02*
X90027200Y-49352800D01*
X29947800Y-49322800D02*
X42906600Y-49322800D01*
X73026600Y-49382800D02*
X73830600Y-50186800D01*
X133350600Y-50560000D02*
X134570600Y-49340000D01*
X60020600Y-49340000D02*
X72979400Y-49340000D01*
X73630600Y-50627200D02*
X74877800Y-49380000D01*
X42906600Y-49322800D02*
X43710600Y-50126800D01*
X157840000Y-49110000D02*
X150480000Y-49110000D01*
X102997200Y-49362800D02*
X103801200Y-50166800D01*
X28700600Y-50570000D02*
X29947800Y-49322800D01*
X58820600Y-50620000D02*
X60067800Y-49372800D01*
X147529400Y-49340000D02*
X148360600Y-50116800D01*
X150480000Y-49110000D02*
X149330000Y-50260000D01*
X57716600Y-49352800D02*
X58520600Y-50156800D01*
X118610000Y-50600000D02*
X119857200Y-49352800D01*
X117746600Y-49332800D02*
X118550600Y-50136800D01*
X104787800Y-49332800D02*
X117746600Y-49332800D01*
X132825200Y-49360800D02*
X133629200Y-50164800D01*
X43510600Y-50600000D02*
X44757800Y-49352800D01*
X74877800Y-49362800D02*
X87836600Y-49362800D01*
%TO.N,/backplane/{slash}AS*%
X115513566Y-41122800D02*
X119986400Y-41122800D01*
X100523566Y-41142800D02*
X104996400Y-41142800D01*
X145413566Y-41152800D02*
X149886400Y-41152800D01*
X129072800Y-40124800D02*
X130467200Y-41112800D01*
X55483566Y-41142800D02*
X59956400Y-41142800D01*
X130520783Y-41132800D02*
X134993617Y-41132800D01*
X156370000Y-40180000D02*
X156390000Y-40160000D01*
X121593200Y-40164800D02*
X129109166Y-40164800D01*
X90037200Y-41142800D02*
X91025200Y-40154800D01*
X134997200Y-41122800D02*
X135985200Y-40134800D01*
X144019166Y-40164800D02*
X145413566Y-41152800D01*
X91613200Y-40154800D02*
X99129166Y-40154800D01*
X61613200Y-40154800D02*
X69129166Y-40154800D01*
X45669200Y-40152800D02*
X46247200Y-40152800D01*
X40157566Y-41140800D02*
X44630400Y-41140800D01*
X44630400Y-41140800D02*
X44681200Y-41140800D01*
X99129166Y-40154800D02*
X100523566Y-41142800D01*
X38763166Y-40152800D02*
X40157566Y-41140800D01*
X149937200Y-41152800D02*
X150925200Y-40164800D01*
X54089166Y-40154800D02*
X55483566Y-41142800D01*
X85513566Y-41142800D02*
X89986400Y-41142800D01*
X84119166Y-40154800D02*
X85513566Y-41142800D01*
X31247200Y-40152800D02*
X38763166Y-40152800D01*
X136503200Y-40164800D02*
X144019166Y-40164800D01*
X105047200Y-41142800D02*
X106035200Y-40154800D01*
X151350000Y-40180000D02*
X156370000Y-40180000D01*
X114119166Y-40134800D02*
X115513566Y-41122800D01*
X76603200Y-40154800D02*
X84119166Y-40154800D01*
X44681200Y-41140800D02*
X45669200Y-40152800D01*
X120037200Y-41122800D02*
X121025200Y-40134800D01*
X75047200Y-41142800D02*
X76035200Y-40154800D01*
X106603200Y-40134800D02*
X114119166Y-40134800D01*
X70523566Y-41142800D02*
X74996400Y-41142800D01*
X60007200Y-41142800D02*
X60995200Y-40154800D01*
X46573200Y-40154800D02*
X54089166Y-40154800D01*
X69129166Y-40154800D02*
X70523566Y-41142800D01*
D27*
%TO.N,GND*%
X131280000Y-108740000D02*
X131280000Y-110445000D01*
X76360000Y-108740000D02*
X76360000Y-110375000D01*
X133835000Y-110500000D02*
X136385000Y-110500000D01*
X71280000Y-108740000D02*
X71280000Y-110420000D01*
X56280000Y-110445000D02*
X56335000Y-110500000D01*
X91410000Y-110500000D02*
X101610000Y-110500000D01*
X121360000Y-110450000D02*
X121310000Y-110500000D01*
X58960000Y-110500000D02*
X61360000Y-110500000D01*
D10*
X26280000Y-108740000D02*
X26280000Y-111470000D01*
D27*
X146280000Y-108740000D02*
X146280000Y-110480000D01*
D10*
X158930000Y-108740000D02*
X158930000Y-111368979D01*
D27*
X133820000Y-108740000D02*
X133820000Y-110485000D01*
X33020000Y-111725000D02*
X161445000Y-111725000D01*
D28*
X28820000Y-110660000D02*
X29885000Y-111725000D01*
D27*
X131335000Y-110500000D02*
X133835000Y-110500000D01*
X46360000Y-110400000D02*
X46460000Y-110500000D01*
X148760000Y-110500000D02*
X151260000Y-110500000D01*
X86280000Y-110430000D02*
X86210000Y-110500000D01*
X118820000Y-110410000D02*
X118910000Y-110500000D01*
D10*
X161470000Y-108740000D02*
X161470000Y-112965000D01*
D27*
X58820000Y-108740000D02*
X58820000Y-110360000D01*
D10*
X28820000Y-108740000D02*
X28820000Y-110660000D01*
D27*
X136360000Y-110475000D02*
X136385000Y-110500000D01*
X31360000Y-110325000D02*
X31535000Y-110500000D01*
X73710000Y-110500000D02*
X76485000Y-110500000D01*
X61360000Y-110500000D02*
X71360000Y-110500000D01*
D10*
X156390000Y-108740000D02*
X156390000Y-110970000D01*
D27*
X43820000Y-108740000D02*
X43820000Y-110335000D01*
D28*
X26280000Y-111470000D02*
X27935000Y-113125000D01*
D27*
X151360000Y-110400000D02*
X151260000Y-110500000D01*
X103820000Y-110210000D02*
X104110000Y-110500000D01*
X136385000Y-110500000D02*
X146260000Y-110500000D01*
X86280000Y-108740000D02*
X86280000Y-110430000D01*
X103820000Y-108740000D02*
X103820000Y-110210000D01*
D28*
X29885000Y-111725000D02*
X33020000Y-111725000D01*
D27*
X46460000Y-110500000D02*
X56335000Y-110500000D01*
X146260000Y-110500000D02*
X148760000Y-110500000D01*
X71280000Y-110420000D02*
X71360000Y-110500000D01*
X121310000Y-110500000D02*
X131335000Y-110500000D01*
X133820000Y-110485000D02*
X133835000Y-110500000D01*
X61360000Y-108740000D02*
X61360000Y-110500000D01*
X88820000Y-110335000D02*
X88985000Y-110500000D01*
X148820000Y-110440000D02*
X148760000Y-110500000D01*
X116280000Y-108740000D02*
X116280000Y-109770000D01*
X146280000Y-110480000D02*
X146260000Y-110500000D01*
X73820000Y-110390000D02*
X73710000Y-110500000D01*
X88820000Y-108740000D02*
X88820000Y-110335000D01*
X73820000Y-108740000D02*
X73820000Y-110390000D01*
D10*
X156390000Y-110970000D02*
X156380000Y-110980000D01*
D27*
X106360000Y-110475000D02*
X106335000Y-110500000D01*
X71360000Y-110500000D02*
X73710000Y-110500000D01*
X136360000Y-108740000D02*
X136360000Y-110475000D01*
X160260000Y-114175000D02*
X160060000Y-112925000D01*
X106335000Y-110500000D02*
X118910000Y-110500000D01*
X161445000Y-111725000D02*
X161470000Y-111700000D01*
X118820000Y-108740000D02*
X118820000Y-110410000D01*
X91360000Y-108740000D02*
X91360000Y-110450000D01*
X41280000Y-108740000D02*
X41280000Y-110430000D01*
X43820000Y-110335000D02*
X43985000Y-110500000D01*
X56335000Y-110500000D02*
X58960000Y-110500000D01*
X101280000Y-108740000D02*
X101280000Y-110170000D01*
X159330000Y-111700000D02*
X158820000Y-111190000D01*
X76485000Y-110500000D02*
X86210000Y-110500000D01*
X76360000Y-110375000D02*
X76485000Y-110500000D01*
X131280000Y-110445000D02*
X131335000Y-110500000D01*
X101610000Y-110500000D02*
X104110000Y-110500000D01*
X106360000Y-108740000D02*
X106360000Y-110475000D01*
X121360000Y-108740000D02*
X121360000Y-110450000D01*
X151260000Y-110500000D02*
X155785000Y-110500000D01*
D29*
X26740000Y-114260000D02*
X160260000Y-114175000D01*
D27*
X101280000Y-110170000D02*
X101610000Y-110500000D01*
X58820000Y-110360000D02*
X58960000Y-110500000D01*
X148820000Y-108740000D02*
X148820000Y-110440000D01*
X56280000Y-108740000D02*
X56280000Y-110445000D01*
X118910000Y-110500000D02*
X121310000Y-110500000D01*
X151360000Y-108740000D02*
X151360000Y-110400000D01*
X46360000Y-108740000D02*
X46360000Y-110400000D01*
X41210000Y-110500000D02*
X43985000Y-110500000D01*
X31535000Y-110500000D02*
X41210000Y-110500000D01*
X116280000Y-109770000D02*
X116310000Y-109800000D01*
X104110000Y-110500000D02*
X106335000Y-110500000D01*
D30*
X158930000Y-111368979D02*
X159160000Y-111598979D01*
D27*
X88985000Y-110500000D02*
X91410000Y-110500000D01*
X91360000Y-110450000D02*
X91410000Y-110500000D01*
X86210000Y-110500000D02*
X88985000Y-110500000D01*
X31360000Y-108740000D02*
X31360000Y-110325000D01*
X161470000Y-111700000D02*
X159330000Y-111700000D01*
X41280000Y-110430000D02*
X41210000Y-110500000D01*
X43985000Y-110500000D02*
X46460000Y-110500000D01*
D26*
%TO.N,/backplane/D0*%
X26280000Y-32540000D02*
X26674757Y-32540000D01*
%TO.N,/backplane/R9*%
X103560600Y-53110000D02*
X104807800Y-51862800D01*
X147576600Y-51910000D02*
X148380600Y-52646800D01*
X104807800Y-51862800D02*
X117766600Y-51862800D01*
X57736600Y-51882800D02*
X58540600Y-52686800D01*
X117766600Y-51862800D02*
X118570600Y-52666800D01*
X29967800Y-51852800D02*
X42926600Y-51852800D01*
X74897800Y-51892800D02*
X87856600Y-51892800D01*
X87856600Y-51902800D02*
X88660600Y-52706800D01*
X134617800Y-51910000D02*
X147576600Y-51910000D01*
X88800000Y-53130000D02*
X90047200Y-51882800D01*
X58840600Y-53150000D02*
X60087800Y-51902800D01*
X44777800Y-51882800D02*
X57736600Y-51882800D01*
X119877200Y-51882800D02*
X132836000Y-51882800D01*
X90057200Y-51892800D02*
X103016000Y-51892800D01*
X73650600Y-53147200D02*
X74897800Y-51900000D01*
X133370600Y-53090000D02*
X134617800Y-51910000D01*
X28720600Y-53100000D02*
X29967800Y-51852800D01*
X103017200Y-51892800D02*
X103821200Y-52696800D01*
X60087800Y-51890000D02*
X73046600Y-51890000D01*
X118630000Y-53130000D02*
X119877200Y-51882800D01*
X157840000Y-51790000D02*
X150480000Y-51790000D01*
X73046600Y-51912800D02*
X73850600Y-52716800D01*
X158970000Y-52920000D02*
X157840000Y-51790000D01*
X132845200Y-51890800D02*
X133649200Y-52694800D01*
X42926600Y-51852800D02*
X43730600Y-52656800D01*
X43530600Y-53130000D02*
X44777800Y-51882800D01*
X150480000Y-51790000D02*
X149330000Y-52940000D01*
%TO.N,/backplane/-5V*%
X129052800Y-103634800D02*
X130447200Y-104622800D01*
X61593200Y-103664800D02*
X69109166Y-103664800D01*
D31*
X30630000Y-103660000D02*
X29490000Y-104800000D01*
D26*
X106583200Y-103644800D02*
X114099166Y-103644800D01*
X91593200Y-103664800D02*
X99109166Y-103664800D01*
X54069166Y-103664800D02*
X55463566Y-104652800D01*
X121573200Y-103674800D02*
X129089166Y-103674800D01*
D15*
X24630000Y-104210000D02*
X24630000Y-92015000D01*
D26*
X40137566Y-104650800D02*
X44610400Y-104650800D01*
X44661200Y-104650800D02*
X45649200Y-103662800D01*
X46553200Y-103664800D02*
X54069166Y-103664800D01*
X105027200Y-104652800D02*
X106015200Y-103664800D01*
X90017200Y-104652800D02*
X91005200Y-103664800D01*
X114099166Y-103644800D02*
X115493566Y-104632800D01*
X38743166Y-103662800D02*
X40137566Y-104650800D01*
X134977200Y-104632800D02*
X135965200Y-103644800D01*
X59987200Y-104652800D02*
X60975200Y-103664800D01*
X100503566Y-104652800D02*
X104976400Y-104652800D01*
X75027200Y-104652800D02*
X76015200Y-103664800D01*
X151370000Y-103660000D02*
X151350000Y-103680000D01*
X69109166Y-103664800D02*
X70503566Y-104652800D01*
D31*
X25220000Y-104800000D02*
X24630000Y-104210000D01*
D26*
X44610400Y-104650800D02*
X44661200Y-104650800D01*
X76583200Y-103664800D02*
X84099166Y-103664800D01*
X70503566Y-104652800D02*
X74976400Y-104652800D01*
X130500783Y-104642800D02*
X134973617Y-104642800D01*
X55463566Y-104652800D02*
X59936400Y-104652800D01*
X136483200Y-103674800D02*
X143999166Y-103674800D01*
D31*
X29490000Y-104800000D02*
X25220000Y-104800000D01*
D26*
X45649200Y-103662800D02*
X46227200Y-103662800D01*
X149917200Y-104662800D02*
X150905200Y-103674800D01*
X156390000Y-103660000D02*
X151370000Y-103660000D01*
X85493566Y-104652800D02*
X89966400Y-104652800D01*
X84099166Y-103664800D02*
X85493566Y-104652800D01*
D15*
X24630000Y-92015000D02*
X18310000Y-85695000D01*
D32*
X30630000Y-103660000D02*
X31360000Y-103660000D01*
D26*
X99109166Y-103664800D02*
X100503566Y-104652800D01*
X120017200Y-104632800D02*
X121005200Y-103644800D01*
X115493566Y-104632800D02*
X119966400Y-104632800D01*
X145393566Y-104662800D02*
X149866400Y-104662800D01*
X143999166Y-103674800D02*
X145393566Y-104662800D01*
X31227200Y-103662800D02*
X38743166Y-103662800D01*
%TO.N,/backplane/A20*%
X59977200Y-71622800D02*
X60965200Y-70634800D01*
X46543200Y-70634800D02*
X54059166Y-70634800D01*
X114089166Y-70614800D02*
X115483566Y-71602800D01*
X84089166Y-70634800D02*
X85483566Y-71622800D01*
X130490783Y-71612800D02*
X134963617Y-71612800D01*
X44600400Y-71620800D02*
X44651200Y-71620800D01*
X106573200Y-70614800D02*
X114089166Y-70614800D01*
X90007200Y-71622800D02*
X90995200Y-70634800D01*
X156370000Y-70660000D02*
X156390000Y-70640000D01*
X69099166Y-70634800D02*
X70493566Y-71622800D01*
X45639200Y-70632800D02*
X46217200Y-70632800D01*
X115483566Y-71602800D02*
X119956400Y-71602800D01*
X143989166Y-70644800D02*
X145383566Y-71632800D01*
X75017200Y-71622800D02*
X76005200Y-70634800D01*
X100493566Y-71622800D02*
X104966400Y-71622800D01*
X54059166Y-70634800D02*
X55453566Y-71622800D01*
X44651200Y-71620800D02*
X45639200Y-70632800D01*
X31217200Y-70632800D02*
X38733166Y-70632800D01*
X120007200Y-71602800D02*
X120995200Y-70614800D01*
X134967200Y-71602800D02*
X135955200Y-70614800D01*
X145383566Y-71632800D02*
X149856400Y-71632800D01*
X85483566Y-71622800D02*
X89956400Y-71622800D01*
X38733166Y-70632800D02*
X40127566Y-71620800D01*
X76573200Y-70634800D02*
X84089166Y-70634800D01*
X70493566Y-71622800D02*
X74966400Y-71622800D01*
X136473200Y-70644800D02*
X143989166Y-70644800D01*
X105017200Y-71622800D02*
X106005200Y-70634800D01*
X151350000Y-70660000D02*
X156370000Y-70660000D01*
X129042800Y-70604800D02*
X130437200Y-71592800D01*
X40127566Y-71620800D02*
X44600400Y-71620800D01*
X121563200Y-70644800D02*
X129079166Y-70644800D01*
X61583200Y-70634800D02*
X69099166Y-70634800D01*
X99099166Y-70634800D02*
X100493566Y-71622800D01*
X91583200Y-70634800D02*
X99099166Y-70634800D01*
X55453566Y-71622800D02*
X59926400Y-71622800D01*
X149907200Y-71632800D02*
X150895200Y-70644800D01*
%TO.N,/backplane/{slash}IO_CS1*%
X54109166Y-73184800D02*
X55503566Y-74172800D01*
X151350000Y-73200000D02*
X156370000Y-73200000D01*
X90057200Y-74172800D02*
X91045200Y-73184800D01*
X145433566Y-74182800D02*
X149906400Y-74182800D01*
X115533566Y-74152800D02*
X120006400Y-74152800D01*
X61633200Y-73184800D02*
X69149166Y-73184800D01*
X106623200Y-73164800D02*
X114139166Y-73164800D01*
X129092800Y-73154800D02*
X130487200Y-74142800D01*
X136523200Y-73194800D02*
X144039166Y-73194800D01*
X105067200Y-74172800D02*
X106055200Y-73184800D01*
X91633200Y-73184800D02*
X99149166Y-73184800D01*
X40177566Y-74170800D02*
X44650400Y-74170800D01*
X135017200Y-74152800D02*
X136005200Y-73164800D01*
X99149166Y-73184800D02*
X100543566Y-74172800D01*
X84139166Y-73184800D02*
X85533566Y-74172800D01*
X149957200Y-74182800D02*
X150945200Y-73194800D01*
X44701200Y-74170800D02*
X45689200Y-73182800D01*
X75067200Y-74172800D02*
X76055200Y-73184800D01*
X46593200Y-73184800D02*
X54109166Y-73184800D01*
X144039166Y-73194800D02*
X145433566Y-74182800D01*
X114139166Y-73164800D02*
X115533566Y-74152800D01*
X69149166Y-73184800D02*
X70543566Y-74172800D01*
X70543566Y-74172800D02*
X75016400Y-74172800D01*
X45689200Y-73182800D02*
X46267200Y-73182800D01*
X130540783Y-74162800D02*
X135013617Y-74162800D01*
X156370000Y-73200000D02*
X156390000Y-73180000D01*
X60027200Y-74172800D02*
X61015200Y-73184800D01*
X44650400Y-74170800D02*
X44701200Y-74170800D01*
X55503566Y-74172800D02*
X59976400Y-74172800D01*
X121613200Y-73194800D02*
X129129166Y-73194800D01*
X38783166Y-73182800D02*
X40177566Y-74170800D01*
X120057200Y-74152800D02*
X121045200Y-73164800D01*
X85533566Y-74172800D02*
X90006400Y-74172800D01*
X100543566Y-74172800D02*
X105016400Y-74172800D01*
X76623200Y-73184800D02*
X84139166Y-73184800D01*
X31267200Y-73182800D02*
X38783166Y-73182800D01*
%TO.N,/backplane/R26*%
X133240600Y-96280000D02*
X134540600Y-95090000D01*
X158995000Y-95875000D02*
X157865000Y-94745000D01*
X57606600Y-95072800D02*
X58410600Y-95876800D01*
X119747200Y-95072800D02*
X132706000Y-95072800D01*
X42796600Y-95042800D02*
X43600600Y-95846800D01*
X118500000Y-96320000D02*
X119747200Y-95072800D01*
X103430600Y-96300000D02*
X104677800Y-95052800D01*
X58710600Y-96340000D02*
X59957800Y-95092800D01*
X28590600Y-96290000D02*
X29837800Y-95042800D01*
X132715200Y-95080800D02*
X133519200Y-95884800D01*
X43400600Y-96320000D02*
X44647800Y-95072800D01*
X88670000Y-96320000D02*
X89917200Y-95072800D01*
X102887200Y-95082800D02*
X103691200Y-95886800D01*
X72916600Y-95102800D02*
X73720600Y-95906800D01*
X89927200Y-95082800D02*
X102886000Y-95082800D01*
X104677800Y-95052800D02*
X117636600Y-95052800D01*
X29837800Y-95042800D02*
X42796600Y-95042800D01*
X87726600Y-95092800D02*
X88530600Y-95896800D01*
X134540600Y-95090000D02*
X147499400Y-95090000D01*
X44647800Y-95072800D02*
X57606600Y-95072800D01*
X74767800Y-95082800D02*
X87726600Y-95082800D01*
X59957800Y-95070000D02*
X72916600Y-95070000D01*
X73562800Y-96317200D02*
X74810000Y-95070000D01*
X150505000Y-94745000D02*
X149355000Y-95895000D01*
X147499400Y-95090000D02*
X148250600Y-95836800D01*
X117636600Y-95052800D02*
X118440600Y-95856800D01*
X157865000Y-94745000D02*
X150505000Y-94745000D01*
%TO.N,/backplane/A19*%
X136593200Y-83344800D02*
X144109166Y-83344800D01*
X105137200Y-84322800D02*
X106125200Y-83334800D01*
X121683200Y-83344800D02*
X129199166Y-83344800D01*
X45759200Y-83332800D02*
X46337200Y-83332800D01*
X31337200Y-83332800D02*
X38853166Y-83332800D01*
X150027200Y-84332800D02*
X151015200Y-83344800D01*
X85603566Y-84322800D02*
X90076400Y-84322800D01*
X144109166Y-83344800D02*
X145503566Y-84332800D01*
X44771200Y-84320800D02*
X45759200Y-83332800D01*
X44720400Y-84320800D02*
X44771200Y-84320800D01*
X38853166Y-83332800D02*
X40247566Y-84320800D01*
X69219166Y-83334800D02*
X70613566Y-84322800D01*
X75137200Y-84322800D02*
X76125200Y-83334800D01*
X135087200Y-84302800D02*
X136075200Y-83314800D01*
X115603566Y-84302800D02*
X120076400Y-84302800D01*
X90127200Y-84322800D02*
X91115200Y-83334800D01*
X151350000Y-83360000D02*
X156370000Y-83360000D01*
X60097200Y-84322800D02*
X61085200Y-83334800D01*
X129162800Y-83304800D02*
X130557200Y-84292800D01*
X106693200Y-83314800D02*
X114209166Y-83314800D01*
X70613566Y-84322800D02*
X75086400Y-84322800D01*
X46663200Y-83334800D02*
X54179166Y-83334800D01*
X84209166Y-83334800D02*
X85603566Y-84322800D01*
X100613566Y-84322800D02*
X105086400Y-84322800D01*
X91703200Y-83334800D02*
X99219166Y-83334800D01*
X156370000Y-83360000D02*
X156390000Y-83340000D01*
X99219166Y-83334800D02*
X100613566Y-84322800D01*
X130610783Y-84312800D02*
X135083617Y-84312800D01*
X114209166Y-83314800D02*
X115603566Y-84302800D01*
X54179166Y-83334800D02*
X55573566Y-84322800D01*
X61703200Y-83334800D02*
X69219166Y-83334800D01*
X120127200Y-84302800D02*
X121115200Y-83314800D01*
X145503566Y-84332800D02*
X149976400Y-84332800D01*
X40247566Y-84320800D02*
X44720400Y-84320800D01*
X55573566Y-84322800D02*
X60046400Y-84322800D01*
X76693200Y-83334800D02*
X84209166Y-83334800D01*
%TO.N,/backplane/A23*%
X129182800Y-63004800D02*
X130577200Y-63992800D01*
X90147200Y-64022800D02*
X91135200Y-63034800D01*
X31357200Y-63032800D02*
X38873166Y-63032800D01*
X156370000Y-63040000D02*
X156390000Y-63020000D01*
X85623566Y-64022800D02*
X90096400Y-64022800D01*
X130630783Y-64012800D02*
X135103617Y-64012800D01*
X114229166Y-63014800D02*
X115623566Y-64002800D01*
X44740400Y-64020800D02*
X44791200Y-64020800D01*
X40267566Y-64020800D02*
X44740400Y-64020800D01*
X60117200Y-64022800D02*
X61105200Y-63034800D01*
X55593566Y-64022800D02*
X60066400Y-64022800D01*
X45779200Y-63032800D02*
X46357200Y-63032800D01*
X75157200Y-64022800D02*
X76145200Y-63034800D01*
X44791200Y-64020800D02*
X45779200Y-63032800D01*
X46683200Y-63034800D02*
X54199166Y-63034800D01*
X100633566Y-64022800D02*
X105106400Y-64022800D01*
X106713200Y-63014800D02*
X114229166Y-63014800D01*
X151350000Y-63040000D02*
X156370000Y-63040000D01*
X135107200Y-64002800D02*
X136095200Y-63014800D01*
X121703200Y-63044800D02*
X129219166Y-63044800D01*
X105157200Y-64022800D02*
X106145200Y-63034800D01*
X91723200Y-63034800D02*
X99239166Y-63034800D01*
X76713200Y-63034800D02*
X84229166Y-63034800D01*
X54199166Y-63034800D02*
X55593566Y-64022800D01*
X61723200Y-63034800D02*
X69239166Y-63034800D01*
X115623566Y-64002800D02*
X120096400Y-64002800D01*
X144129166Y-63044800D02*
X145523566Y-64032800D01*
X136613200Y-63044800D02*
X144129166Y-63044800D01*
X84229166Y-63034800D02*
X85623566Y-64022800D01*
X120147200Y-64002800D02*
X121135200Y-63014800D01*
X145523566Y-64032800D02*
X149996400Y-64032800D01*
X70633566Y-64022800D02*
X75106400Y-64022800D01*
X38873166Y-63032800D02*
X40267566Y-64020800D01*
X99239166Y-63034800D02*
X100633566Y-64022800D01*
X69239166Y-63034800D02*
X70633566Y-64022800D01*
X150047200Y-64032800D02*
X151035200Y-63044800D01*
%TO.N,/backplane/R6*%
X134610600Y-44280000D02*
X147569400Y-44280000D01*
X147550000Y-44300000D02*
X148354000Y-45104000D01*
X73076600Y-44312800D02*
X73880600Y-45116800D01*
X73680600Y-45537200D02*
X74927800Y-44290000D01*
X60080600Y-44260000D02*
X73039400Y-44260000D01*
X159080000Y-45340000D02*
X157950000Y-44210000D01*
X74927800Y-44280000D02*
X87886600Y-44280000D01*
X119907200Y-44260000D02*
X132866000Y-44260000D01*
X103590600Y-45510000D02*
X104837800Y-44262800D01*
X133342800Y-45547200D02*
X134590000Y-44300000D01*
X88830000Y-45530000D02*
X90090000Y-44690000D01*
X57766600Y-44282800D02*
X58570600Y-45086800D01*
X43560600Y-45530000D02*
X44807800Y-44282800D01*
X90590000Y-44240000D02*
X90602800Y-44252800D01*
X28750600Y-45500000D02*
X29997800Y-44252800D01*
X90090000Y-44690000D02*
X90140000Y-44690000D01*
X132875200Y-44290800D02*
X133679200Y-45094800D01*
X58870600Y-45550000D02*
X60117800Y-44302800D01*
X117796600Y-44262800D02*
X118600600Y-45066800D01*
X103007200Y-44252800D02*
X103851200Y-45096800D01*
X44807800Y-44282800D02*
X57766600Y-44282800D01*
X150590000Y-44210000D02*
X149440000Y-45360000D01*
X29997800Y-44252800D02*
X42956600Y-44252800D01*
X87886600Y-44302800D02*
X88690600Y-45106800D01*
X118660000Y-45530000D02*
X119907200Y-44282800D01*
X42956600Y-44252800D02*
X43760600Y-45056800D01*
X90602800Y-44252800D02*
X103007200Y-44252800D01*
X90140000Y-44690000D02*
X90590000Y-44240000D01*
X104837800Y-44262800D02*
X117796600Y-44262800D01*
X157950000Y-44210000D02*
X150590000Y-44210000D01*
%TO.N,/backplane/R30*%
X42876600Y-105202800D02*
X43680600Y-106006800D01*
X44727800Y-105232800D02*
X57686600Y-105232800D01*
X90007200Y-105242800D02*
X102966000Y-105242800D01*
X158930000Y-106200000D02*
X157800000Y-105070000D01*
X88750000Y-106480000D02*
X89997200Y-105232800D01*
X149290000Y-106220000D02*
X148810000Y-106220000D01*
X103510600Y-106460000D02*
X104757800Y-105212800D01*
X117716600Y-105212800D02*
X118520600Y-106016800D01*
X58790600Y-106500000D02*
X60037800Y-105252800D01*
X87806600Y-105252800D02*
X88610600Y-106056800D01*
X133320600Y-106440000D02*
X134610600Y-105240000D01*
X150440000Y-105070000D02*
X149290000Y-106220000D01*
X28670600Y-106450000D02*
X30470000Y-105220000D01*
X147569400Y-105240000D02*
X148330600Y-105996800D01*
X134610600Y-105240000D02*
X147569400Y-105240000D01*
X73586400Y-106483600D02*
X74833600Y-105236400D01*
X102967200Y-105242800D02*
X103771200Y-106046800D01*
X104757800Y-105212800D02*
X117716600Y-105212800D01*
X43480600Y-106480000D02*
X44727800Y-105232800D01*
X30470000Y-105220000D02*
X42876600Y-105202800D01*
X118580000Y-106480000D02*
X119827200Y-105232800D01*
X157800000Y-105070000D02*
X150440000Y-105070000D01*
X119827200Y-105232800D02*
X132786000Y-105232800D01*
X57686600Y-105232800D02*
X58490600Y-106036800D01*
X132795200Y-105240800D02*
X133599200Y-106044800D01*
X60000600Y-105220000D02*
X72959400Y-105220000D01*
X74847800Y-105242800D02*
X87806600Y-105242800D01*
X72996600Y-105262800D02*
X73800600Y-106066800D01*
%TO.N,/backplane/R22*%
X104867800Y-84882800D02*
X117826600Y-84882800D01*
X147689400Y-84910000D02*
X148440600Y-85666800D01*
X74957800Y-84912800D02*
X87916600Y-84912800D01*
X132905200Y-84910800D02*
X133709200Y-85714800D01*
X157730000Y-84860000D02*
X150640000Y-84860000D01*
X60110600Y-84900000D02*
X73069400Y-84900000D01*
X57796600Y-84902800D02*
X58600600Y-85706800D01*
X58900600Y-86170000D02*
X60147800Y-84922800D01*
X88860000Y-86150000D02*
X90107200Y-84902800D01*
X158795000Y-85925000D02*
X157730000Y-84860000D01*
X119937200Y-84902800D02*
X132896000Y-84902800D01*
X103077200Y-84912800D02*
X103881200Y-85716800D01*
X44837800Y-84902800D02*
X57796600Y-84902800D01*
X103620600Y-86130000D02*
X104867800Y-84882800D01*
X150640000Y-84860000D02*
X149155000Y-85945000D01*
X90117200Y-84912800D02*
X103076000Y-84912800D01*
X42986600Y-84872800D02*
X43790600Y-85676800D01*
X28780600Y-86120000D02*
X30027800Y-84872800D01*
X118690000Y-86150000D02*
X119937200Y-84902800D01*
X73710600Y-86167200D02*
X74957800Y-84920000D01*
X117826600Y-84882800D02*
X118630600Y-85686800D01*
X134730600Y-84910000D02*
X147689400Y-84910000D01*
X133430600Y-86110000D02*
X134730600Y-84910000D01*
X73106600Y-84932800D02*
X73910600Y-85736800D01*
X87916600Y-84922800D02*
X88720600Y-85726800D01*
X30027800Y-84872800D02*
X42986600Y-84872800D01*
X43590600Y-86150000D02*
X44837800Y-84902800D01*
%TO.N,/backplane/A16*%
X55493566Y-91952800D02*
X59966400Y-91952800D01*
X115523566Y-91932800D02*
X119996400Y-91932800D01*
X76613200Y-90964800D02*
X84129166Y-90964800D01*
X84129166Y-90964800D02*
X85523566Y-91952800D01*
X114129166Y-90944800D02*
X115523566Y-91932800D01*
X149947200Y-91962800D02*
X150935200Y-90974800D01*
X54099166Y-90964800D02*
X55493566Y-91952800D01*
X91623200Y-90964800D02*
X99139166Y-90964800D01*
X135007200Y-91932800D02*
X135995200Y-90944800D01*
X31257200Y-90962800D02*
X38773166Y-90962800D01*
X151350000Y-90980000D02*
X156370000Y-90980000D01*
X46583200Y-90964800D02*
X54099166Y-90964800D01*
X40167566Y-91950800D02*
X44640400Y-91950800D01*
X100533566Y-91952800D02*
X105006400Y-91952800D01*
X105057200Y-91952800D02*
X106045200Y-90964800D01*
X90047200Y-91952800D02*
X91035200Y-90964800D01*
X44640400Y-91950800D02*
X44691200Y-91950800D01*
X61623200Y-90964800D02*
X69139166Y-90964800D01*
X45679200Y-90962800D02*
X46257200Y-90962800D01*
X60017200Y-91952800D02*
X61005200Y-90964800D01*
X85523566Y-91952800D02*
X89996400Y-91952800D01*
X136513200Y-90974800D02*
X144029166Y-90974800D01*
X70533566Y-91952800D02*
X75006400Y-91952800D01*
X121603200Y-90974800D02*
X129119166Y-90974800D01*
X75057200Y-91952800D02*
X76045200Y-90964800D01*
X130530783Y-91942800D02*
X135003617Y-91942800D01*
X144029166Y-90974800D02*
X145423566Y-91962800D01*
X120047200Y-91932800D02*
X121035200Y-90944800D01*
X145423566Y-91962800D02*
X149896400Y-91962800D01*
X44691200Y-91950800D02*
X45679200Y-90962800D01*
X156370000Y-90980000D02*
X156390000Y-90960000D01*
X106613200Y-90944800D02*
X114129166Y-90944800D01*
X99139166Y-90964800D02*
X100533566Y-91952800D01*
X69139166Y-90964800D02*
X70533566Y-91952800D01*
X129082800Y-90934800D02*
X130477200Y-91922800D01*
X38773166Y-90962800D02*
X40167566Y-91950800D01*
%TO.N,/backplane/{slash}VMA*%
X99229166Y-57944800D02*
X100623566Y-58932800D01*
X130620783Y-58922800D02*
X135093617Y-58922800D01*
X100623566Y-58932800D02*
X105096400Y-58932800D01*
X120137200Y-58912800D02*
X121125200Y-57924800D01*
X31347200Y-57942800D02*
X38863166Y-57942800D01*
X136603200Y-57954800D02*
X144119166Y-57954800D01*
X114219166Y-57924800D02*
X115613566Y-58912800D01*
X55583566Y-58932800D02*
X60056400Y-58932800D01*
X135097200Y-58912800D02*
X136085200Y-57924800D01*
X44730400Y-58930800D02*
X44781200Y-58930800D01*
X106703200Y-57924800D02*
X114219166Y-57924800D01*
X90137200Y-58932800D02*
X91125200Y-57944800D01*
X69229166Y-57944800D02*
X70623566Y-58932800D01*
X91713200Y-57944800D02*
X99229166Y-57944800D01*
X60107200Y-58932800D02*
X61095200Y-57944800D01*
X45769200Y-57942800D02*
X46347200Y-57942800D01*
X129172800Y-57914800D02*
X130567200Y-58902800D01*
X144119166Y-57954800D02*
X145513566Y-58942800D01*
X76703200Y-57944800D02*
X84219166Y-57944800D01*
X156370000Y-57960000D02*
X156390000Y-57940000D01*
X115613566Y-58912800D02*
X120086400Y-58912800D01*
X75147200Y-58932800D02*
X76135200Y-57944800D01*
X44781200Y-58930800D02*
X45769200Y-57942800D01*
X150037200Y-58942800D02*
X151025200Y-57954800D01*
X61713200Y-57944800D02*
X69229166Y-57944800D01*
X84219166Y-57944800D02*
X85613566Y-58932800D01*
X151350000Y-57960000D02*
X156370000Y-57960000D01*
X105147200Y-58932800D02*
X106135200Y-57944800D01*
X38863166Y-57942800D02*
X40257566Y-58930800D01*
X70623566Y-58932800D02*
X75096400Y-58932800D01*
X85613566Y-58932800D02*
X90086400Y-58932800D01*
X145513566Y-58942800D02*
X149986400Y-58942800D01*
X121693200Y-57954800D02*
X129209166Y-57954800D01*
X54189166Y-57944800D02*
X55583566Y-58932800D01*
X46673200Y-57944800D02*
X54189166Y-57944800D01*
X40257566Y-58930800D02*
X44730400Y-58930800D01*
%TO.N,/backplane/R5*%
X150590000Y-41530000D02*
X149440000Y-42680000D01*
X44747800Y-41722800D02*
X57706600Y-41722800D01*
X157950000Y-41530000D02*
X150590000Y-41530000D01*
X119847200Y-41722800D02*
X132806000Y-41722800D01*
X28690600Y-42940000D02*
X29937800Y-41692800D01*
X104777800Y-41702800D02*
X117736600Y-41702800D01*
X60040600Y-41740000D02*
X72999400Y-41740000D01*
X134511200Y-41750000D02*
X147470000Y-41750000D01*
X74867800Y-41732800D02*
X87826600Y-41732800D01*
X42896600Y-41692800D02*
X43700600Y-42496800D01*
X90027200Y-41732800D02*
X102986000Y-41732800D01*
X102987200Y-41732800D02*
X103791200Y-42536800D01*
X103530600Y-42950000D02*
X104777800Y-41702800D01*
X117736600Y-41702800D02*
X118540600Y-42506800D01*
X88770000Y-42970000D02*
X90017200Y-41722800D01*
X73620600Y-42987200D02*
X74867800Y-41740000D01*
X132815200Y-41730800D02*
X133619200Y-42534800D01*
X147546600Y-41760000D02*
X148350600Y-42564000D01*
X29937800Y-41692800D02*
X42896600Y-41692800D01*
X43500600Y-42970000D02*
X44747800Y-41722800D01*
X57706600Y-41722800D02*
X58510600Y-42526800D01*
X73016600Y-41752800D02*
X73820600Y-42556800D01*
X118600000Y-42970000D02*
X119847200Y-41722800D01*
X87826600Y-41742800D02*
X88630600Y-42546800D01*
X58810600Y-42990000D02*
X60057800Y-41742800D01*
X133340600Y-43007200D02*
X134511200Y-41760000D01*
X159080000Y-42660000D02*
X157950000Y-41530000D01*
%TO.N,/backplane/{slash}IO_CS*%
X145513566Y-79252800D02*
X149986400Y-79252800D01*
X84219166Y-78254800D02*
X85613566Y-79242800D01*
X70623566Y-79242800D02*
X75096400Y-79242800D01*
X61713200Y-78254800D02*
X69229166Y-78254800D01*
X40257566Y-79240800D02*
X44730400Y-79240800D01*
X85613566Y-79242800D02*
X90086400Y-79242800D01*
X100623566Y-79242800D02*
X105096400Y-79242800D01*
X106703200Y-78234800D02*
X114219166Y-78234800D01*
X91713200Y-78254800D02*
X99229166Y-78254800D01*
X90137200Y-79242800D02*
X91125200Y-78254800D01*
X55583566Y-79242800D02*
X60056400Y-79242800D01*
X120137200Y-79222800D02*
X121125200Y-78234800D01*
X150037200Y-79252800D02*
X151025200Y-78264800D01*
X60107200Y-79242800D02*
X61095200Y-78254800D01*
X115613566Y-79222800D02*
X120086400Y-79222800D01*
X44730400Y-79240800D02*
X44781200Y-79240800D01*
X54189166Y-78254800D02*
X55583566Y-79242800D01*
X130620783Y-79232800D02*
X135093617Y-79232800D01*
X114219166Y-78234800D02*
X115613566Y-79222800D01*
X136603200Y-78264800D02*
X144119166Y-78264800D01*
X45769200Y-78252800D02*
X46347200Y-78252800D01*
X135097200Y-79222800D02*
X136085200Y-78234800D01*
X156370000Y-78280000D02*
X156390000Y-78260000D01*
X44781200Y-79240800D02*
X45769200Y-78252800D01*
X76703200Y-78254800D02*
X84219166Y-78254800D01*
X121693200Y-78264800D02*
X129209166Y-78264800D01*
X46673200Y-78254800D02*
X54189166Y-78254800D01*
X75147200Y-79242800D02*
X76135200Y-78254800D01*
X69229166Y-78254800D02*
X70623566Y-79242800D01*
X129172800Y-78224800D02*
X130567200Y-79212800D01*
X99229166Y-78254800D02*
X100623566Y-79242800D01*
X38863166Y-78252800D02*
X40257566Y-79240800D01*
X144119166Y-78264800D02*
X145513566Y-79252800D01*
X151350000Y-78280000D02*
X156370000Y-78280000D01*
X31347200Y-78252800D02*
X38863166Y-78252800D01*
X105147200Y-79242800D02*
X106135200Y-78254800D01*
%TO.N,/backplane/R10*%
X134657800Y-54430000D02*
X147616600Y-54430000D01*
X88840000Y-55680000D02*
X90087200Y-54432800D01*
X147660000Y-54440000D02*
X148464000Y-55244000D01*
X28760600Y-55650000D02*
X30007800Y-54402800D01*
X58880600Y-55700000D02*
X60127800Y-54452800D01*
X44817800Y-54432800D02*
X57776600Y-54432800D01*
X30007800Y-54402800D02*
X42966600Y-54402800D01*
X103600600Y-55660000D02*
X104847800Y-54412800D01*
X158730000Y-55510000D02*
X157600000Y-54380000D01*
X150240000Y-54380000D02*
X149090000Y-55530000D01*
X118670000Y-55680000D02*
X119917200Y-54432800D01*
X57776600Y-54432800D02*
X58580600Y-55236800D01*
X119917200Y-54432800D02*
X132876000Y-54432800D01*
X43570600Y-55680000D02*
X44817800Y-54432800D01*
X73690600Y-55707200D02*
X74937800Y-54460000D01*
X42966600Y-54402800D02*
X43770600Y-55206800D01*
X133382800Y-55667200D02*
X134630000Y-54420000D01*
X90097200Y-54442800D02*
X103056000Y-54442800D01*
X104847800Y-54412800D02*
X117806600Y-54412800D01*
X87896600Y-54452800D02*
X88700600Y-55256800D01*
X132885200Y-54440800D02*
X133689200Y-55244800D01*
X157600000Y-54380000D02*
X150240000Y-54380000D01*
X60090600Y-54430000D02*
X73049400Y-54430000D01*
X117806600Y-54412800D02*
X118610600Y-55216800D01*
X73086600Y-54462800D02*
X73890600Y-55266800D01*
X74937800Y-54442800D02*
X87896600Y-54442800D01*
X103057200Y-54442800D02*
X103861200Y-55246800D01*
D27*
%TO.N,/backplane/+5V*%
X101280000Y-30000000D02*
X101280000Y-28305000D01*
D30*
X20510000Y-51000000D02*
X19500000Y-51000000D01*
D27*
X116280000Y-30000000D02*
X116280000Y-27705000D01*
X56280000Y-27670000D02*
X56185000Y-27575000D01*
X26600000Y-28530000D02*
X26030000Y-27960000D01*
X56280000Y-27670000D02*
X56280000Y-27690000D01*
D15*
X158820000Y-27670000D02*
X158560000Y-27930000D01*
X158560000Y-27930000D02*
X156390000Y-27930000D01*
D33*
X18720000Y-29970000D02*
X26140000Y-25280000D01*
D27*
X56280000Y-30000000D02*
X56280000Y-27670000D01*
D34*
X22860000Y-42520000D02*
X22860000Y-48650000D01*
D27*
X136360000Y-30000000D02*
X136360000Y-27875000D01*
X151360000Y-30000000D02*
X151360000Y-27700000D01*
X71280000Y-30000000D02*
X71280000Y-27830000D01*
X28740000Y-29880000D02*
X28740000Y-28030000D01*
D34*
X22860000Y-48650000D02*
X20510000Y-51000000D01*
D27*
X106360000Y-30000000D02*
X106360000Y-27625000D01*
X86280000Y-30000000D02*
X86280000Y-27605000D01*
X148820000Y-30000000D02*
X148820000Y-27765000D01*
X26030000Y-27960000D02*
X26030000Y-29810000D01*
D30*
X18269010Y-30420990D02*
X18720000Y-29970000D01*
D34*
X19710000Y-39370000D02*
X22860000Y-42520000D01*
D30*
X161470000Y-30000000D02*
X161470000Y-27780000D01*
D27*
X41280000Y-30000000D02*
X41280000Y-28180000D01*
X146280000Y-30000000D02*
X146280000Y-27705000D01*
X156390000Y-27930000D02*
X156390000Y-30000000D01*
X133820000Y-30000000D02*
X133820000Y-27765000D01*
X58820000Y-27640000D02*
X58885000Y-27575000D01*
X46360000Y-30000000D02*
X46360000Y-27750000D01*
D33*
X18269010Y-39370000D02*
X18269010Y-30420990D01*
D30*
X158930000Y-30000000D02*
X158930000Y-27780000D01*
D27*
X61360000Y-30000000D02*
X61360000Y-27675000D01*
X161470000Y-27780000D02*
X26600000Y-28530000D01*
X58820000Y-30000000D02*
X58820000Y-27640000D01*
D15*
X158910000Y-27760000D02*
X161450000Y-27760000D01*
X158820000Y-27670000D02*
X158910000Y-27760000D01*
D27*
X131280000Y-30000000D02*
X131280000Y-28180000D01*
X91360000Y-30000000D02*
X91360000Y-27875000D01*
X31360000Y-30000000D02*
X31360000Y-28150000D01*
X73820000Y-30000000D02*
X73820000Y-27640000D01*
X43820000Y-30000000D02*
X43820000Y-27665000D01*
X76360000Y-30000000D02*
X76360000Y-27750000D01*
X118820000Y-30000000D02*
X118820000Y-27590000D01*
X61360000Y-27675000D02*
X61260000Y-27575000D01*
D30*
X18340000Y-39370000D02*
X19710000Y-39370000D01*
D27*
X121360000Y-30000000D02*
X121360000Y-27675000D01*
X103820000Y-30000000D02*
X103820000Y-28415000D01*
X88820000Y-30000000D02*
X88820000Y-28115000D01*
D26*
%TO.N,/backplane/{slash}iowr*%
X100533566Y-56382800D02*
X105006400Y-56382800D01*
X149947200Y-56392800D02*
X150935200Y-55404800D01*
X44640400Y-56380800D02*
X44691200Y-56380800D01*
X130530783Y-56372800D02*
X135003617Y-56372800D01*
X135007200Y-56362800D02*
X135995200Y-55374800D01*
X106613200Y-55374800D02*
X114129166Y-55374800D01*
X115523566Y-56362800D02*
X119996400Y-56362800D01*
X156370000Y-55420000D02*
X156390000Y-55400000D01*
X90047200Y-56382800D02*
X91035200Y-55394800D01*
X75057200Y-56382800D02*
X76045200Y-55394800D01*
X40167566Y-56380800D02*
X44640400Y-56380800D01*
X151350000Y-55420000D02*
X156370000Y-55420000D01*
X45679200Y-55392800D02*
X46257200Y-55392800D01*
X129082800Y-55364800D02*
X130477200Y-56352800D01*
X44691200Y-56380800D02*
X45679200Y-55392800D01*
X60017200Y-56382800D02*
X61005200Y-55394800D01*
X105057200Y-56382800D02*
X106045200Y-55394800D01*
X84129166Y-55394800D02*
X85523566Y-56382800D01*
X38773166Y-55392800D02*
X40167566Y-56380800D01*
X54099166Y-55394800D02*
X55493566Y-56382800D01*
X61623200Y-55394800D02*
X69139166Y-55394800D01*
X136513200Y-55404800D02*
X144029166Y-55404800D01*
X31257200Y-55392800D02*
X38773166Y-55392800D01*
X121603200Y-55404800D02*
X129119166Y-55404800D01*
X85523566Y-56382800D02*
X89996400Y-56382800D01*
X120047200Y-56362800D02*
X121035200Y-55374800D01*
X70533566Y-56382800D02*
X75006400Y-56382800D01*
X145423566Y-56392800D02*
X149896400Y-56392800D01*
X99139166Y-55394800D02*
X100533566Y-56382800D01*
X76613200Y-55394800D02*
X84129166Y-55394800D01*
X91623200Y-55394800D02*
X99139166Y-55394800D01*
X144029166Y-55404800D02*
X145423566Y-56392800D01*
X55493566Y-56382800D02*
X59966400Y-56382800D01*
X46583200Y-55394800D02*
X54099166Y-55394800D01*
X114129166Y-55374800D02*
X115523566Y-56362800D01*
X69139166Y-55394800D02*
X70533566Y-56382800D01*
D14*
%TO.N,/backplane/+12V*%
X24990000Y-107470000D02*
X30250000Y-107470000D01*
X136646000Y-106442000D02*
X144161966Y-106442000D01*
X30250000Y-107470000D02*
X31360000Y-106200000D01*
X61756000Y-106432000D02*
X69271966Y-106432000D01*
X135140000Y-107400000D02*
X136128000Y-106412000D01*
X85656366Y-107420000D02*
X90129200Y-107420000D01*
X91756000Y-106432000D02*
X99271966Y-106432000D01*
D26*
X45812000Y-106430000D02*
X46390000Y-106430000D01*
D15*
X20975000Y-103485000D02*
X18327500Y-103485000D01*
D14*
X69271966Y-106432000D02*
X70666366Y-107420000D01*
X115656366Y-107400000D02*
X120129200Y-107400000D01*
D26*
X151370000Y-106200000D02*
X151350000Y-106220000D01*
D14*
X145556366Y-107430000D02*
X150029200Y-107430000D01*
X129197383Y-106496000D02*
X130482617Y-107444000D01*
X40300366Y-107418000D02*
X44773200Y-107418000D01*
X120180000Y-107400000D02*
X121168000Y-106412000D01*
X55626366Y-107420000D02*
X60099200Y-107420000D01*
X46716000Y-106432000D02*
X54231966Y-106432000D01*
X38905966Y-106430000D02*
X40300366Y-107418000D01*
X144161966Y-106442000D02*
X145556366Y-107430000D01*
X156390000Y-106200000D02*
X151370000Y-106200000D01*
X60150000Y-107420000D02*
X61138000Y-106432000D01*
X106746000Y-106412000D02*
X114261966Y-106412000D01*
X100666366Y-107420000D02*
X105139200Y-107420000D01*
X31390000Y-106430000D02*
X38905966Y-106430000D01*
D15*
X24930000Y-107440000D02*
X20975000Y-103485000D01*
D26*
X44773200Y-107418000D02*
X44824000Y-107418000D01*
D14*
X44824000Y-107418000D02*
X45812000Y-106430000D01*
X99271966Y-106432000D02*
X100666366Y-107420000D01*
X121736000Y-106442000D02*
X129251966Y-106442000D01*
X90180000Y-107420000D02*
X91168000Y-106432000D01*
X76746000Y-106432000D02*
X84261966Y-106432000D01*
X75190000Y-107420000D02*
X76178000Y-106432000D01*
X130603583Y-107470000D02*
X135076417Y-107470000D01*
X84261966Y-106432000D02*
X85656366Y-107420000D01*
X70666366Y-107420000D02*
X75139200Y-107420000D01*
X54231966Y-106432000D02*
X55626366Y-107420000D01*
X114261966Y-106412000D02*
X115656366Y-107400000D01*
X105190000Y-107420000D02*
X106178000Y-106432000D01*
X150080000Y-107430000D02*
X151068000Y-106442000D01*
D26*
%TO.N,/backplane/R24*%
X43590600Y-91230000D02*
X44837800Y-89982800D01*
X103620600Y-91210000D02*
X104867800Y-89962800D01*
X30027800Y-89952800D02*
X42986600Y-89952800D01*
X133430600Y-91190000D02*
X134677800Y-90000000D01*
X57796600Y-89982800D02*
X58600600Y-90786800D01*
X73106600Y-90012800D02*
X73910600Y-90816800D01*
X90117200Y-89992800D02*
X103076000Y-89992800D01*
X104867800Y-89962800D02*
X117826600Y-89962800D01*
X117826600Y-89962800D02*
X118630600Y-90766800D01*
X74957800Y-89992800D02*
X87916600Y-89992800D01*
X157535000Y-90000000D02*
X150175000Y-90000000D01*
X60120600Y-89990000D02*
X73079400Y-89990000D01*
X87916600Y-90002800D02*
X88720600Y-90806800D01*
X158665000Y-91055000D02*
X157535000Y-90000000D01*
X132905200Y-89990800D02*
X133709200Y-90794800D01*
X58900600Y-91250000D02*
X60147800Y-90002800D01*
X147636600Y-90000000D02*
X148440600Y-90746800D01*
X134677800Y-90000000D02*
X147636600Y-90000000D01*
X73710600Y-91277200D02*
X74957800Y-90030000D01*
X103077200Y-89992800D02*
X103881200Y-90796800D01*
X150175000Y-90000000D02*
X149025000Y-91075000D01*
X119937200Y-89982800D02*
X132896000Y-89982800D01*
X88860000Y-91230000D02*
X90107200Y-89982800D01*
X28780600Y-91200000D02*
X30027800Y-89952800D01*
X44837800Y-89982800D02*
X57796600Y-89982800D01*
X42986600Y-89952800D02*
X43790600Y-90756800D01*
X118690000Y-91230000D02*
X119937200Y-89982800D01*
%TO.N,/backplane/A21*%
X85443566Y-69082800D02*
X89916400Y-69082800D01*
X151350000Y-68120000D02*
X156370000Y-68120000D01*
X115443566Y-69062800D02*
X119916400Y-69062800D01*
X149867200Y-69092800D02*
X150855200Y-68104800D01*
X130450783Y-69072800D02*
X134923617Y-69072800D01*
X44611200Y-69080800D02*
X45599200Y-68092800D01*
X89967200Y-69082800D02*
X90955200Y-68094800D01*
X99059166Y-68094800D02*
X100453566Y-69082800D01*
X156370000Y-68120000D02*
X156390000Y-68100000D01*
X69059166Y-68094800D02*
X70453566Y-69082800D01*
X91543200Y-68094800D02*
X99059166Y-68094800D01*
X114049166Y-68074800D02*
X115443566Y-69062800D01*
X143949166Y-68104800D02*
X145343566Y-69092800D01*
X129002800Y-68064800D02*
X130397200Y-69052800D01*
X46503200Y-68094800D02*
X54019166Y-68094800D01*
X40087566Y-69080800D02*
X44560400Y-69080800D01*
X106533200Y-68074800D02*
X114049166Y-68074800D01*
X31177200Y-68092800D02*
X38693166Y-68092800D01*
X45599200Y-68092800D02*
X46177200Y-68092800D01*
X70453566Y-69082800D02*
X74926400Y-69082800D01*
X38693166Y-68092800D02*
X40087566Y-69080800D01*
X59937200Y-69082800D02*
X60925200Y-68094800D01*
X74977200Y-69082800D02*
X75965200Y-68094800D01*
X119967200Y-69062800D02*
X120955200Y-68074800D01*
X136433200Y-68104800D02*
X143949166Y-68104800D01*
X54019166Y-68094800D02*
X55413566Y-69082800D01*
X100453566Y-69082800D02*
X104926400Y-69082800D01*
X76533200Y-68094800D02*
X84049166Y-68094800D01*
X121523200Y-68104800D02*
X129039166Y-68104800D01*
X104977200Y-69082800D02*
X105965200Y-68094800D01*
X134927200Y-69062800D02*
X135915200Y-68074800D01*
X44560400Y-69080800D02*
X44611200Y-69080800D01*
X55413566Y-69082800D02*
X59886400Y-69082800D01*
X84049166Y-68094800D02*
X85443566Y-69082800D01*
X145343566Y-69092800D02*
X149816400Y-69092800D01*
X61543200Y-68094800D02*
X69059166Y-68094800D01*
%TO.N,/backplane/{slash}LDS*%
X99189166Y-42714800D02*
X100583566Y-43702800D01*
X44690400Y-43700800D02*
X44741200Y-43700800D01*
X44741200Y-43700800D02*
X45729200Y-42712800D01*
X46633200Y-42714800D02*
X54149166Y-42714800D01*
X114179166Y-42694800D02*
X115573566Y-43682800D01*
X151350000Y-42720000D02*
X156370000Y-42720000D01*
X106663200Y-42694800D02*
X114179166Y-42694800D01*
X91673200Y-42714800D02*
X99189166Y-42714800D01*
X85573566Y-43702800D02*
X90046400Y-43702800D01*
X61673200Y-42714800D02*
X69189166Y-42714800D01*
X136563200Y-42724800D02*
X144079166Y-42724800D01*
X144079166Y-42724800D02*
X145473566Y-43712800D01*
X121653200Y-42724800D02*
X129169166Y-42724800D01*
X115573566Y-43682800D02*
X120046400Y-43682800D01*
X156370000Y-42720000D02*
X156390000Y-42700000D01*
X54149166Y-42714800D02*
X55543566Y-43702800D01*
X69189166Y-42714800D02*
X70583566Y-43702800D01*
X70583566Y-43702800D02*
X75056400Y-43702800D01*
X38823166Y-42712800D02*
X40217566Y-43700800D01*
X45729200Y-42712800D02*
X46307200Y-42712800D01*
X135057200Y-43682800D02*
X136045200Y-42694800D01*
X130580783Y-43692800D02*
X135053617Y-43692800D01*
X100583566Y-43702800D02*
X105056400Y-43702800D01*
X149997200Y-43712800D02*
X150985200Y-42724800D01*
X129132800Y-42684800D02*
X130527200Y-43672800D01*
X40217566Y-43700800D02*
X44690400Y-43700800D01*
X145473566Y-43712800D02*
X149946400Y-43712800D01*
X105107200Y-43702800D02*
X106095200Y-42714800D01*
X31307200Y-42712800D02*
X38823166Y-42712800D01*
X120097200Y-43682800D02*
X121085200Y-42694800D01*
X90097200Y-43702800D02*
X91085200Y-42714800D01*
X60067200Y-43702800D02*
X61055200Y-42714800D01*
X75107200Y-43702800D02*
X76095200Y-42714800D01*
X76663200Y-42714800D02*
X84179166Y-42714800D01*
X55543566Y-43702800D02*
X60016400Y-43702800D01*
X84179166Y-42714800D02*
X85573566Y-43702800D01*
%TO.N,/backplane/R20*%
X103087200Y-79832800D02*
X103891200Y-80636800D01*
X73720600Y-81030000D02*
X74967800Y-79832800D01*
X28790600Y-81040000D02*
X30037800Y-79792800D01*
X42996600Y-79792800D02*
X43800600Y-80596800D01*
X87926600Y-79842800D02*
X88730600Y-80646800D01*
X43600600Y-81070000D02*
X44847800Y-79822800D01*
X147646600Y-79860000D02*
X148450600Y-80586800D01*
X72700000Y-79840000D02*
X73920600Y-80656800D01*
X57806600Y-79822800D02*
X58610600Y-80626800D01*
X58910600Y-81090000D02*
X60157800Y-79842800D01*
X90127200Y-79832800D02*
X103086000Y-79832800D01*
X74967800Y-79832800D02*
X87926600Y-79832800D01*
X117836600Y-79802800D02*
X118640600Y-80606800D01*
X134650600Y-79830000D02*
X147609400Y-79830000D01*
X30037800Y-79792800D02*
X42996600Y-79792800D01*
X60190600Y-79820000D02*
X72700000Y-79840000D01*
X118700000Y-81070000D02*
X119947200Y-79822800D01*
X159035000Y-80655000D02*
X157905000Y-79525000D01*
X150545000Y-79525000D02*
X149395000Y-80675000D01*
X104877800Y-79802800D02*
X117836600Y-79802800D01*
X44847800Y-79822800D02*
X57806600Y-79822800D01*
X133440600Y-81030000D02*
X134687800Y-79860000D01*
X132915200Y-79830800D02*
X133719200Y-80634800D01*
X103630600Y-81050000D02*
X104877800Y-79802800D01*
X119947200Y-79822800D02*
X132906000Y-79822800D01*
X157905000Y-79525000D02*
X150545000Y-79525000D01*
X88870000Y-81070000D02*
X90117200Y-79822800D01*
%TO.N,/backplane/R17*%
X150490000Y-71980000D02*
X149340000Y-73130000D01*
X134530600Y-72190000D02*
X147489400Y-72190000D01*
X119817200Y-72202800D02*
X132776000Y-72202800D01*
X147489400Y-72190000D02*
X148320600Y-72966800D01*
X133310600Y-73410000D02*
X134530600Y-72190000D01*
X43470600Y-73450000D02*
X44717800Y-72202800D01*
X72986600Y-72232800D02*
X73790600Y-73036800D01*
X60027800Y-72210000D02*
X72986600Y-72210000D01*
X88740000Y-73450000D02*
X89987200Y-72202800D01*
X57676600Y-72202800D02*
X58480600Y-73006800D01*
X104747800Y-72182800D02*
X117706600Y-72182800D01*
X42866600Y-72172800D02*
X43670600Y-72976800D01*
X74837800Y-72212800D02*
X87796600Y-72212800D01*
X87796600Y-72222800D02*
X88600600Y-73026800D01*
X29907800Y-72172800D02*
X42866600Y-72172800D01*
X157850000Y-71980000D02*
X150490000Y-71980000D01*
X117706600Y-72182800D02*
X118510600Y-72986800D01*
X132785200Y-72210800D02*
X133589200Y-73014800D01*
X28660600Y-73420000D02*
X29907800Y-72172800D01*
X89997200Y-72212800D02*
X102956000Y-72212800D01*
X73590600Y-73497200D02*
X74837800Y-72250000D01*
X44717800Y-72202800D02*
X57676600Y-72202800D01*
X102957200Y-72212800D02*
X103761200Y-73016800D01*
X103500600Y-73430000D02*
X104747800Y-72182800D01*
X118570000Y-73450000D02*
X119817200Y-72202800D01*
X58780600Y-73470000D02*
X60027800Y-72222800D01*
X158980000Y-73110000D02*
X157850000Y-71980000D01*
%TO.N,/backplane/R25*%
X103540600Y-93760000D02*
X104787800Y-92512800D01*
X90037200Y-92542800D02*
X102996000Y-92542800D01*
X133350600Y-93740000D02*
X134630600Y-92530000D01*
X44757800Y-92532800D02*
X57716600Y-92532800D01*
X73630600Y-93797200D02*
X74877800Y-92550000D01*
X158790000Y-93500000D02*
X157580000Y-92290000D01*
X104787800Y-92512800D02*
X117746600Y-92512800D01*
X73026600Y-92562800D02*
X73830600Y-93366800D01*
X58820600Y-93800000D02*
X60067800Y-92552800D01*
X149517391Y-93572609D02*
X148862609Y-93572609D01*
X119857200Y-92532800D02*
X132816000Y-92532800D01*
X29947800Y-92502800D02*
X42906600Y-92502800D01*
X88780000Y-93780000D02*
X90027200Y-92532800D01*
X42906600Y-92502800D02*
X43710600Y-93306800D01*
X74877800Y-92542800D02*
X87836600Y-92542800D01*
X43510600Y-93780000D02*
X44757800Y-92532800D01*
X102997200Y-92542800D02*
X103801200Y-93346800D01*
X117746600Y-92512800D02*
X118550600Y-93316800D01*
X87836600Y-92552800D02*
X88640600Y-93356800D01*
X132825200Y-92540800D02*
X133629200Y-93344800D01*
X157580000Y-92290000D02*
X150800000Y-92290000D01*
X147589400Y-92530000D02*
X148360600Y-93296800D01*
X57716600Y-92532800D02*
X58520600Y-93336800D01*
X134630600Y-92530000D02*
X147589400Y-92530000D01*
X60050600Y-92550000D02*
X73009400Y-92550000D01*
X118610000Y-93780000D02*
X119857200Y-92532800D01*
X28700600Y-93750000D02*
X29947800Y-92502800D01*
X150800000Y-92290000D02*
X149517391Y-93572609D01*
X158930000Y-93500000D02*
X158790000Y-93500000D01*
%TO.N,/backplane/{slash}memrd*%
X45699200Y-50312800D02*
X46277200Y-50312800D01*
X91643200Y-50314800D02*
X99159166Y-50314800D01*
X105077200Y-51302800D02*
X106065200Y-50314800D01*
X106633200Y-50294800D02*
X114149166Y-50294800D01*
X75077200Y-51302800D02*
X76065200Y-50314800D01*
X38793166Y-50312800D02*
X40187566Y-51300800D01*
X61643200Y-50314800D02*
X69159166Y-50314800D01*
X84149166Y-50314800D02*
X85543566Y-51302800D01*
X85543566Y-51302800D02*
X90016400Y-51302800D01*
X70553566Y-51302800D02*
X75026400Y-51302800D01*
X149967200Y-51312800D02*
X150955200Y-50324800D01*
X100553566Y-51302800D02*
X105026400Y-51302800D01*
X151350000Y-50340000D02*
X156370000Y-50340000D01*
X44660400Y-51300800D02*
X44711200Y-51300800D01*
X121623200Y-50324800D02*
X129139166Y-50324800D01*
X135027200Y-51282800D02*
X136015200Y-50294800D01*
X60037200Y-51302800D02*
X61025200Y-50314800D01*
X99159166Y-50314800D02*
X100553566Y-51302800D01*
X136533200Y-50324800D02*
X144049166Y-50324800D01*
X69159166Y-50314800D02*
X70553566Y-51302800D01*
X144049166Y-50324800D02*
X145443566Y-51312800D01*
X44711200Y-51300800D02*
X45699200Y-50312800D01*
X114149166Y-50294800D02*
X115543566Y-51282800D01*
X130550783Y-51292800D02*
X135023617Y-51292800D01*
X129102800Y-50284800D02*
X130497200Y-51272800D01*
X145443566Y-51312800D02*
X149916400Y-51312800D01*
X40187566Y-51300800D02*
X44660400Y-51300800D01*
X76633200Y-50314800D02*
X84149166Y-50314800D01*
X54119166Y-50314800D02*
X55513566Y-51302800D01*
X31277200Y-50312800D02*
X38793166Y-50312800D01*
X90067200Y-51302800D02*
X91055200Y-50314800D01*
X46603200Y-50314800D02*
X54119166Y-50314800D01*
X115543566Y-51282800D02*
X120016400Y-51282800D01*
X120067200Y-51282800D02*
X121055200Y-50294800D01*
X55513566Y-51302800D02*
X59986400Y-51302800D01*
X156370000Y-50340000D02*
X156390000Y-50320000D01*
%TO.N,/backplane/{slash}iord*%
X55493566Y-48772800D02*
X59966400Y-48772800D01*
X144029166Y-47794800D02*
X145423566Y-48782800D01*
X46583200Y-47784800D02*
X54099166Y-47784800D01*
X44640400Y-48770800D02*
X44691200Y-48770800D01*
X85523566Y-48772800D02*
X89996400Y-48772800D01*
X45679200Y-47782800D02*
X46257200Y-47782800D01*
X90047200Y-48772800D02*
X91035200Y-47784800D01*
X76613200Y-47784800D02*
X84129166Y-47784800D01*
X130530783Y-48762800D02*
X135003617Y-48762800D01*
X149947200Y-48782800D02*
X150935200Y-47794800D01*
X38773166Y-47782800D02*
X40167566Y-48770800D01*
X121603200Y-47794800D02*
X129119166Y-47794800D01*
X105057200Y-48772800D02*
X106045200Y-47784800D01*
X31257200Y-47782800D02*
X38773166Y-47782800D01*
X114129166Y-47764800D02*
X115523566Y-48752800D01*
X129082800Y-47754800D02*
X130477200Y-48742800D01*
X60017200Y-48772800D02*
X61005200Y-47784800D01*
X136513200Y-47794800D02*
X144029166Y-47794800D01*
X106613200Y-47764800D02*
X114129166Y-47764800D01*
X54099166Y-47784800D02*
X55493566Y-48772800D01*
X115523566Y-48752800D02*
X119996400Y-48752800D01*
X145423566Y-48782800D02*
X149896400Y-48782800D01*
X75057200Y-48772800D02*
X76045200Y-47784800D01*
X135007200Y-48752800D02*
X135995200Y-47764800D01*
X61623200Y-47784800D02*
X69139166Y-47784800D01*
X70533566Y-48772800D02*
X75006400Y-48772800D01*
X99139166Y-47784800D02*
X100533566Y-48772800D01*
X100533566Y-48772800D02*
X105006400Y-48772800D01*
X151350000Y-47800000D02*
X156370000Y-47800000D01*
X44691200Y-48770800D02*
X45679200Y-47782800D01*
X156370000Y-47800000D02*
X156390000Y-47780000D01*
X91623200Y-47784800D02*
X99139166Y-47784800D01*
X69139166Y-47784800D02*
X70533566Y-48772800D01*
X120047200Y-48752800D02*
X121035200Y-47764800D01*
X40167566Y-48770800D02*
X44640400Y-48770800D01*
X84129166Y-47784800D02*
X85523566Y-48772800D01*
%TO.N,/backplane/R28*%
X133400600Y-101350000D02*
X134647800Y-100170000D01*
X104837800Y-100122800D02*
X117796600Y-100122800D01*
X134647800Y-100170000D02*
X147606600Y-100170000D01*
X157735000Y-100125000D02*
X150375000Y-100125000D01*
X87886600Y-100162800D02*
X88690600Y-100966800D01*
X90087200Y-100152800D02*
X103046000Y-100152800D01*
X29960600Y-100150000D02*
X42919400Y-100150000D01*
X28682800Y-101427200D02*
X29930000Y-100180000D01*
X74927800Y-100152800D02*
X87886600Y-100152800D01*
X43560600Y-101390000D02*
X44807800Y-100142800D01*
X119907200Y-100142800D02*
X132866000Y-100142800D01*
X57766600Y-100142800D02*
X58570600Y-100946800D01*
X132875200Y-100150800D02*
X133679200Y-100954800D01*
X158865000Y-101255000D02*
X157735000Y-100125000D01*
X60100600Y-100160000D02*
X73059400Y-100160000D01*
X44807800Y-100142800D02*
X57766600Y-100142800D01*
X73736400Y-101403600D02*
X74983600Y-100156400D01*
X103047200Y-100152800D02*
X103851200Y-100956800D01*
X73076600Y-100172800D02*
X73880600Y-100976800D01*
X58870600Y-101410000D02*
X60117800Y-100162800D01*
X88830000Y-101390000D02*
X90077200Y-100142800D01*
X147606600Y-100170000D02*
X148410600Y-100974000D01*
X103590600Y-101370000D02*
X104837800Y-100122800D01*
X150375000Y-100125000D02*
X149225000Y-101275000D01*
X117796600Y-100122800D02*
X118600600Y-100926800D01*
X42919400Y-100150000D02*
X43760600Y-100916800D01*
X118660000Y-101390000D02*
X119907200Y-100142800D01*
%TO.N,/backplane/{slash}RESET*%
X129185600Y-32512000D02*
X130580000Y-33500000D01*
X136616000Y-32552000D02*
X144131966Y-32552000D01*
X45782000Y-32540000D02*
X46360000Y-32540000D01*
X100636366Y-33530000D02*
X105109200Y-33530000D01*
X120150000Y-33510000D02*
X121138000Y-32522000D01*
X156370000Y-32560000D02*
X156390000Y-32540000D01*
X44743200Y-33528000D02*
X44794000Y-33528000D01*
X145526366Y-33540000D02*
X149999200Y-33540000D01*
X60120000Y-33530000D02*
X61108000Y-32542000D01*
X61726000Y-32542000D02*
X69241966Y-32542000D01*
X69241966Y-32542000D02*
X70636366Y-33530000D01*
X85626366Y-33530000D02*
X90099200Y-33530000D01*
X91726000Y-32542000D02*
X99241966Y-32542000D01*
X151350000Y-32560000D02*
X156370000Y-32560000D01*
X40270366Y-33528000D02*
X44743200Y-33528000D01*
X135110000Y-33510000D02*
X136098000Y-32522000D01*
X115626366Y-33510000D02*
X120099200Y-33510000D01*
X76716000Y-32542000D02*
X84231966Y-32542000D01*
X55596366Y-33530000D02*
X60069200Y-33530000D01*
X70636366Y-33530000D02*
X75109200Y-33530000D01*
X144131966Y-32552000D02*
X145526366Y-33540000D01*
X46686000Y-32542000D02*
X54201966Y-32542000D01*
X114231966Y-32522000D02*
X115626366Y-33510000D01*
X54201966Y-32542000D02*
X55596366Y-33530000D01*
X31360000Y-32540000D02*
X38875966Y-32540000D01*
X130633583Y-33520000D02*
X135106417Y-33520000D01*
X90150000Y-33530000D02*
X91138000Y-32542000D01*
X150050000Y-33540000D02*
X151038000Y-32552000D01*
X121706000Y-32552000D02*
X129221966Y-32552000D01*
X84231966Y-32542000D02*
X85626366Y-33530000D01*
X106716000Y-32522000D02*
X114231966Y-32522000D01*
X44794000Y-33528000D02*
X45782000Y-32540000D01*
X105160000Y-33530000D02*
X106148000Y-32542000D01*
X99241966Y-32542000D02*
X100636366Y-33530000D01*
X38875966Y-32540000D02*
X40270366Y-33528000D01*
X75160000Y-33530000D02*
X76148000Y-32542000D01*
%TO.N,/backplane/R15*%
X88820000Y-68380000D02*
X90067200Y-67132800D01*
X132865200Y-67140800D02*
X133669200Y-67944800D01*
X74917800Y-67142800D02*
X87876600Y-67142800D01*
X90077200Y-67142800D02*
X103036000Y-67142800D01*
X158080000Y-67040000D02*
X150720000Y-67040000D01*
X73066600Y-67162800D02*
X73870600Y-67966800D01*
X118650000Y-68380000D02*
X119897200Y-67132800D01*
X60090600Y-67150000D02*
X73049400Y-67150000D01*
X119897200Y-67132800D02*
X132856000Y-67132800D01*
X28740600Y-68350000D02*
X29987800Y-67102800D01*
X58860600Y-68400000D02*
X60107800Y-67152800D01*
X134690600Y-67150000D02*
X147649400Y-67150000D01*
X117786600Y-67112800D02*
X118590600Y-67916800D01*
X104827800Y-67112800D02*
X117786600Y-67112800D01*
X87876600Y-67152800D02*
X88680600Y-67956800D01*
X133390600Y-68340000D02*
X134690600Y-67150000D01*
X150720000Y-67040000D02*
X149570000Y-68190000D01*
X57756600Y-67132800D02*
X58560600Y-67936800D01*
X44797800Y-67132800D02*
X57756600Y-67132800D01*
X147649400Y-67150000D02*
X148400600Y-67896800D01*
X103037200Y-67142800D02*
X103841200Y-67946800D01*
X159210000Y-68170000D02*
X158080000Y-67040000D01*
X73670600Y-68417200D02*
X74917800Y-67170000D01*
X103580600Y-68360000D02*
X104827800Y-67112800D01*
X29987800Y-67102800D02*
X42946600Y-67102800D01*
X43550600Y-68380000D02*
X44797800Y-67132800D01*
X42946600Y-67102800D02*
X43750600Y-67906800D01*
%TO.N,/backplane/R11*%
X102997200Y-56972800D02*
X103801200Y-57776800D01*
X87836600Y-56982800D02*
X88640600Y-57786800D01*
X42906600Y-56932800D02*
X43710600Y-57736800D01*
X104787800Y-56942800D02*
X117746600Y-56942800D01*
X103540600Y-58190000D02*
X104787800Y-56942800D01*
X133402800Y-58217200D02*
X134650000Y-56970000D01*
X158960000Y-57900000D02*
X157830000Y-56770000D01*
X132825200Y-56970800D02*
X133629200Y-57774800D01*
X60067800Y-56980000D02*
X73026600Y-56980000D01*
X74877800Y-56972800D02*
X87836600Y-56972800D01*
X157830000Y-56770000D02*
X150470000Y-56770000D01*
X150470000Y-56770000D02*
X149320000Y-57920000D01*
X73630600Y-58247200D02*
X74877800Y-57000000D01*
X88780000Y-58210000D02*
X90027200Y-56962800D01*
X29947800Y-56932800D02*
X42906600Y-56932800D01*
X57716600Y-56962800D02*
X58520600Y-57766800D01*
X118610000Y-58210000D02*
X119857200Y-56962800D01*
X44757800Y-56962800D02*
X57716600Y-56962800D01*
X43510600Y-58210000D02*
X44757800Y-56962800D01*
X73026600Y-56992800D02*
X73830600Y-57796800D01*
X119857200Y-56962800D02*
X132816000Y-56962800D01*
X147556600Y-56990000D02*
X148360600Y-57794000D01*
X90037200Y-56972800D02*
X102996000Y-56972800D01*
X117746600Y-56942800D02*
X118550600Y-57746800D01*
X58820600Y-58230000D02*
X60067800Y-56982800D01*
X28700600Y-58180000D02*
X29947800Y-56932800D01*
X134560600Y-56960000D02*
X147519400Y-56960000D01*
%TO.N,/backplane/R2*%
X103643400Y-35337200D02*
X104890600Y-34090000D01*
X134700600Y-34130000D02*
X147659400Y-34130000D01*
X103100000Y-34120000D02*
X103904000Y-34924000D01*
X150690000Y-33840000D02*
X149540000Y-34990000D01*
X117849400Y-34090000D02*
X118653400Y-34894000D01*
X57819400Y-34110000D02*
X58623400Y-34914000D01*
X118712800Y-35357200D02*
X119960000Y-34110000D01*
X58923400Y-35377200D02*
X60170600Y-34130000D01*
X30050600Y-34080000D02*
X43009400Y-34080000D01*
X44860600Y-34110000D02*
X57819400Y-34110000D01*
X158050000Y-33840000D02*
X150690000Y-33840000D01*
X43613400Y-35357200D02*
X44860600Y-34110000D01*
X159180000Y-34970000D02*
X158050000Y-33840000D01*
X28803400Y-35327200D02*
X30050600Y-34080000D01*
X104890600Y-34090000D02*
X117849400Y-34090000D01*
X132928000Y-34118000D02*
X133732000Y-34922000D01*
X87939400Y-34130000D02*
X88743400Y-34934000D01*
X133453400Y-35317200D02*
X134700600Y-34130000D01*
X119960000Y-34110000D02*
X132918800Y-34110000D01*
X90140000Y-34120000D02*
X103098800Y-34120000D01*
X43009400Y-34080000D02*
X43813400Y-34884000D01*
X73129400Y-34140000D02*
X73933400Y-34944000D01*
X60170600Y-34080000D02*
X73129400Y-34080000D01*
X88882800Y-35357200D02*
X90130000Y-34110000D01*
X74980600Y-34120000D02*
X87939400Y-34120000D01*
X147659400Y-34140000D02*
X148463400Y-34944000D01*
X73672800Y-35377200D02*
X74920000Y-34130000D01*
%TO.N,/backplane/R18*%
X117756600Y-74732800D02*
X118560600Y-75536800D01*
X134607800Y-74760000D02*
X147566600Y-74760000D01*
X150490000Y-74660000D02*
X149340000Y-75810000D01*
X57726600Y-74752800D02*
X58530600Y-75556800D01*
X158980000Y-75790000D02*
X157850000Y-74660000D01*
X29957800Y-74722800D02*
X42916600Y-74722800D01*
X118620000Y-76000000D02*
X119867200Y-74752800D01*
X42916600Y-74722800D02*
X43720600Y-75526800D01*
X87846600Y-74772800D02*
X88650600Y-75576800D01*
X73640600Y-75960000D02*
X74887800Y-74762800D01*
X132835200Y-74760800D02*
X133639200Y-75564800D01*
X103550600Y-75980000D02*
X104797800Y-74732800D01*
X43520600Y-76000000D02*
X44767800Y-74752800D01*
X28710600Y-75970000D02*
X29957800Y-74722800D01*
X44767800Y-74752800D02*
X57726600Y-74752800D01*
X90047200Y-74762800D02*
X103006000Y-74762800D01*
X147566600Y-74760000D02*
X148370600Y-75516800D01*
X60040600Y-74750000D02*
X72999400Y-74750000D01*
X73036600Y-74782800D02*
X73840600Y-75586800D01*
X157850000Y-74660000D02*
X150490000Y-74660000D01*
X58830600Y-76020000D02*
X60077800Y-74772800D01*
X133360600Y-75960000D02*
X134607800Y-74760000D01*
X104797800Y-74732800D02*
X117756600Y-74732800D01*
X88790000Y-76000000D02*
X90037200Y-74752800D01*
X74887800Y-74762800D02*
X87846600Y-74762800D01*
X103007200Y-74762800D02*
X103811200Y-75566800D01*
X119867200Y-74752800D02*
X132826000Y-74752800D01*
%TO.N,/backplane/R23*%
X29917800Y-87412800D02*
X42876600Y-87412800D01*
X157765000Y-87195000D02*
X150405000Y-87195000D01*
X132795200Y-87450800D02*
X133599200Y-88254800D01*
X134600600Y-87440000D02*
X147559400Y-87440000D01*
X104757800Y-87422800D02*
X117716600Y-87422800D01*
X88750000Y-88690000D02*
X89997200Y-87442800D01*
X133320600Y-88650000D02*
X134810000Y-87440000D01*
X60037800Y-87450000D02*
X72996600Y-87450000D01*
X150405000Y-87195000D02*
X149255000Y-88345000D01*
X119827200Y-87442800D02*
X132786000Y-87442800D01*
X58790600Y-88710000D02*
X60037800Y-87462800D01*
X158895000Y-88325000D02*
X157765000Y-87195000D01*
X103510600Y-88670000D02*
X104757800Y-87422800D01*
X87806600Y-87462800D02*
X88610600Y-88266800D01*
X102967200Y-87452800D02*
X103771200Y-88256800D01*
X44727800Y-87442800D02*
X57686600Y-87442800D01*
X117716600Y-87422800D02*
X118520600Y-88226800D01*
X118580000Y-88690000D02*
X119827200Y-87442800D01*
X28670600Y-88660000D02*
X29917800Y-87412800D01*
X73600600Y-88717200D02*
X74847800Y-87470000D01*
X147559400Y-87440000D02*
X148330600Y-88206800D01*
X57686600Y-87442800D02*
X58490600Y-88246800D01*
X74847800Y-87452800D02*
X87806600Y-87452800D01*
X43480600Y-88690000D02*
X44727800Y-87442800D01*
X42876600Y-87412800D02*
X43680600Y-88216800D01*
X72996600Y-87472800D02*
X73800600Y-88276800D01*
X90007200Y-87452800D02*
X102966000Y-87452800D01*
%TO.N,/backplane/{slash}memwr*%
X44751200Y-53850800D02*
X45739200Y-52862800D01*
X45739200Y-52862800D02*
X46317200Y-52862800D01*
X46643200Y-52864800D02*
X54159166Y-52864800D01*
X121663200Y-52874800D02*
X129179166Y-52874800D01*
X106673200Y-52844800D02*
X114189166Y-52844800D01*
X40227566Y-53850800D02*
X44700400Y-53850800D01*
X99199166Y-52864800D02*
X100593566Y-53852800D01*
X114189166Y-52844800D02*
X115583566Y-53832800D01*
X75117200Y-53852800D02*
X76105200Y-52864800D01*
X85583566Y-53852800D02*
X90056400Y-53852800D01*
X44700400Y-53850800D02*
X44751200Y-53850800D01*
X70593566Y-53852800D02*
X75066400Y-53852800D01*
X129142800Y-52834800D02*
X130537200Y-53822800D01*
X115583566Y-53832800D02*
X120056400Y-53832800D01*
X90107200Y-53852800D02*
X91095200Y-52864800D01*
X31317200Y-52862800D02*
X38833166Y-52862800D01*
X84189166Y-52864800D02*
X85583566Y-53852800D01*
X120107200Y-53832800D02*
X121095200Y-52844800D01*
X145483566Y-53862800D02*
X149956400Y-53862800D01*
X60077200Y-53852800D02*
X61065200Y-52864800D01*
X130590783Y-53842800D02*
X135063617Y-53842800D01*
X135067200Y-53832800D02*
X136055200Y-52844800D01*
X55553566Y-53852800D02*
X60026400Y-53852800D01*
X156370000Y-52880000D02*
X156390000Y-52860000D01*
X61683200Y-52864800D02*
X69199166Y-52864800D01*
X54159166Y-52864800D02*
X55553566Y-53852800D01*
X91683200Y-52864800D02*
X99199166Y-52864800D01*
X100593566Y-53852800D02*
X105066400Y-53852800D01*
X144089166Y-52874800D02*
X145483566Y-53862800D01*
X105117200Y-53852800D02*
X106105200Y-52864800D01*
X150007200Y-53862800D02*
X150995200Y-52874800D01*
X76673200Y-52864800D02*
X84189166Y-52864800D01*
X151350000Y-52880000D02*
X156370000Y-52880000D01*
X38833166Y-52862800D02*
X40227566Y-53850800D01*
X69199166Y-52864800D02*
X70593566Y-53852800D01*
X136573200Y-52874800D02*
X144089166Y-52874800D01*
%TO.N,/backplane/R16*%
X118530000Y-70910000D02*
X119777200Y-69662800D01*
X157840000Y-69630000D02*
X150480000Y-69630000D01*
X117666600Y-69642800D02*
X118470600Y-70446800D01*
X103460600Y-70890000D02*
X104707800Y-69642800D01*
X57636600Y-69662800D02*
X58440600Y-70466800D01*
X158970000Y-70760000D02*
X157840000Y-69630000D01*
X29867800Y-69632800D02*
X42826600Y-69632800D01*
X87756600Y-69682800D02*
X88560600Y-70486800D01*
X73550600Y-70937200D02*
X74797800Y-69690000D01*
X43430600Y-70910000D02*
X44677800Y-69662800D01*
X104707800Y-69642800D02*
X117666600Y-69642800D01*
X44677800Y-69662800D02*
X57636600Y-69662800D01*
X42826600Y-69632800D02*
X43630600Y-70436800D01*
X119777200Y-69662800D02*
X132736000Y-69662800D01*
X134517800Y-69660000D02*
X147476600Y-69660000D01*
X133270600Y-70870000D02*
X134517800Y-69660000D01*
X102917200Y-69672800D02*
X103721200Y-70476800D01*
X72946600Y-69692800D02*
X73750600Y-70496800D01*
X132745200Y-69670800D02*
X133549200Y-70474800D01*
X89957200Y-69672800D02*
X102916000Y-69672800D01*
X147476600Y-69660000D02*
X148280600Y-70426800D01*
X58740600Y-70930000D02*
X59987800Y-69682800D01*
X150480000Y-69630000D02*
X149330000Y-70780000D01*
X60010600Y-69670000D02*
X72969400Y-69670000D01*
X28620600Y-70880000D02*
X29867800Y-69632800D01*
X74797800Y-69672800D02*
X87756600Y-69672800D01*
X88700000Y-70910000D02*
X89947200Y-69662800D01*
%TO.N,/backplane/R32*%
X44640400Y-102100800D02*
X44691200Y-102100800D01*
X151370000Y-101120000D02*
X151350000Y-101140000D01*
X120047200Y-102082800D02*
X121035200Y-101094800D01*
X40167566Y-102100800D02*
X44640400Y-102100800D01*
X130530783Y-102092800D02*
X135003617Y-102092800D01*
X144029166Y-101124800D02*
X145423566Y-102112800D01*
X76613200Y-101114800D02*
X84129166Y-101114800D01*
X106613200Y-101094800D02*
X114129166Y-101094800D01*
X114129166Y-101094800D02*
X115523566Y-102082800D01*
X75057200Y-102102800D02*
X76045200Y-101114800D01*
X90047200Y-102102800D02*
X91035200Y-101114800D01*
X45679200Y-101112800D02*
X46257200Y-101112800D01*
X99139166Y-101114800D02*
X100533566Y-102102800D01*
X84129166Y-101114800D02*
X85523566Y-102102800D01*
X31257200Y-101112800D02*
X38773166Y-101112800D01*
X61623200Y-101114800D02*
X69139166Y-101114800D01*
X145423566Y-102112800D02*
X149896400Y-102112800D01*
X70533566Y-102102800D02*
X75006400Y-102102800D01*
X91623200Y-101114800D02*
X99139166Y-101114800D01*
X69139166Y-101114800D02*
X70533566Y-102102800D01*
X129082800Y-101084800D02*
X130477200Y-102072800D01*
X156390000Y-101120000D02*
X151370000Y-101120000D01*
X115523566Y-102082800D02*
X119996400Y-102082800D01*
X60017200Y-102102800D02*
X61005200Y-101114800D01*
X100533566Y-102102800D02*
X105006400Y-102102800D01*
X136513200Y-101124800D02*
X144029166Y-101124800D01*
X121603200Y-101124800D02*
X129119166Y-101124800D01*
X105057200Y-102102800D02*
X106045200Y-101114800D01*
X55493566Y-102102800D02*
X59966400Y-102102800D01*
X149947200Y-102112800D02*
X150935200Y-101124800D01*
X85523566Y-102102800D02*
X89996400Y-102102800D01*
X46583200Y-101114800D02*
X54099166Y-101114800D01*
X54099166Y-101114800D02*
X55493566Y-102102800D01*
X44691200Y-102100800D02*
X45679200Y-101112800D01*
X135007200Y-102082800D02*
X135995200Y-101094800D01*
X38773166Y-101112800D02*
X40167566Y-102100800D01*
%TO.N,/backplane/R31*%
X121652000Y-98642000D02*
X129167966Y-98642000D01*
X99187966Y-98632000D02*
X100490000Y-99530000D01*
X31306000Y-98630000D02*
X38821966Y-98630000D01*
X115523583Y-99550000D02*
X119996417Y-99550000D01*
X44689200Y-99550000D02*
X45728000Y-98630000D01*
X151554000Y-98580000D02*
X151534000Y-98600000D01*
X149996000Y-99630000D02*
X150984000Y-98642000D01*
X84177966Y-98632000D02*
X85513583Y-99560000D01*
X54147966Y-98632000D02*
X55473583Y-99550000D01*
X156390000Y-98580000D02*
X151554000Y-98580000D01*
X144077966Y-98642000D02*
X145400000Y-99560000D01*
X114177966Y-98612000D02*
X115523583Y-99550000D01*
X40216366Y-99550000D02*
X44689200Y-99550000D01*
X75055200Y-99570000D02*
X76094000Y-98632000D01*
X91672000Y-98632000D02*
X99187966Y-98632000D01*
X106662000Y-98612000D02*
X114177966Y-98612000D01*
X100582366Y-99560000D02*
X105055200Y-99560000D01*
X55473583Y-99550000D02*
X59946417Y-99550000D01*
X38821966Y-98630000D02*
X40216366Y-99550000D01*
X76662000Y-98632000D02*
X84177966Y-98632000D01*
X145472366Y-99560000D02*
X149945200Y-99560000D01*
X70582366Y-99570000D02*
X75055200Y-99570000D01*
X85513583Y-99560000D02*
X89986417Y-99560000D01*
X69187966Y-98632000D02*
X70582366Y-99570000D01*
X136562000Y-98642000D02*
X144077966Y-98642000D01*
X89986417Y-99560000D02*
X91084000Y-98632000D01*
X45728000Y-98630000D02*
X46306000Y-98630000D01*
X129167966Y-98642000D02*
X130526000Y-99564000D01*
X61672000Y-98632000D02*
X69187966Y-98632000D01*
X119996417Y-99550000D02*
X121084000Y-98612000D01*
X135052417Y-99560000D02*
X136044000Y-98612000D01*
X46632000Y-98632000D02*
X54147966Y-98632000D01*
X105106000Y-99540000D02*
X106094000Y-98552000D01*
X130579583Y-99560000D02*
X135052417Y-99560000D01*
X59946417Y-99550000D02*
X61054000Y-98632000D01*
%TD*%
%TA.AperFunction,Conductor*%
%TO.N,/backplane/+5V*%
G36*
X158772320Y-23729989D02*
G01*
X158839355Y-23749689D01*
X158855389Y-23761952D01*
X162180286Y-26763901D01*
X162216854Y-26823436D01*
X162220903Y-26847519D01*
X162291259Y-27881538D01*
X162276171Y-27949759D01*
X162226595Y-27998993D01*
X162171301Y-28013899D01*
X155371928Y-28219941D01*
X155368078Y-28219998D01*
X36100827Y-28130000D01*
X36099236Y-28129989D01*
X25482315Y-27985729D01*
X25415549Y-27965135D01*
X25370516Y-27911714D01*
X25360000Y-27861740D01*
X25360000Y-27647485D01*
X50868198Y-27647485D01*
X50960968Y-27694755D01*
X51155582Y-27757990D01*
X51357683Y-27790000D01*
X51562317Y-27790000D01*
X51764417Y-27757990D01*
X51959031Y-27694755D01*
X52051800Y-27647485D01*
X51866477Y-27462162D01*
X51821800Y-27417485D01*
X65588198Y-27417485D01*
X65680968Y-27464755D01*
X65875582Y-27527990D01*
X66077683Y-27560000D01*
X66282317Y-27560000D01*
X66484417Y-27527990D01*
X66679031Y-27464755D01*
X66693299Y-27457485D01*
X96008198Y-27457485D01*
X96100968Y-27504755D01*
X96295582Y-27567990D01*
X96497683Y-27600000D01*
X96702317Y-27600000D01*
X96904417Y-27567990D01*
X97099031Y-27504755D01*
X97191801Y-27457485D01*
X97161801Y-27427485D01*
X110638198Y-27427485D01*
X110730968Y-27474755D01*
X110925582Y-27537990D01*
X111127683Y-27570000D01*
X111332317Y-27570000D01*
X111534417Y-27537990D01*
X111729031Y-27474755D01*
X111802175Y-27437485D01*
X125728198Y-27437485D01*
X125820968Y-27484755D01*
X126015582Y-27547990D01*
X126217683Y-27580000D01*
X126422317Y-27580000D01*
X126624417Y-27547990D01*
X126819031Y-27484755D01*
X126852924Y-27467485D01*
X140708198Y-27467485D01*
X140800968Y-27514755D01*
X140995582Y-27577990D01*
X141197683Y-27610000D01*
X141402317Y-27610000D01*
X141604417Y-27577990D01*
X141799031Y-27514755D01*
X141891801Y-27467485D01*
X141300001Y-26875685D01*
X141300000Y-26875685D01*
X140708198Y-27467485D01*
X126852924Y-27467485D01*
X126911801Y-27437485D01*
X126320001Y-26845685D01*
X126320000Y-26845685D01*
X125728198Y-27437485D01*
X111802175Y-27437485D01*
X111821801Y-27427485D01*
X111230001Y-26835685D01*
X111230000Y-26835685D01*
X110638198Y-27427485D01*
X97161801Y-27427485D01*
X96600001Y-26865685D01*
X96600000Y-26865685D01*
X96008198Y-27457485D01*
X66693299Y-27457485D01*
X66771800Y-27417485D01*
X66686477Y-27332162D01*
X66641800Y-27287485D01*
X80698198Y-27287485D01*
X80790968Y-27334755D01*
X80985582Y-27397990D01*
X81187683Y-27430000D01*
X81392317Y-27430000D01*
X81594417Y-27397990D01*
X81789031Y-27334755D01*
X81849399Y-27303996D01*
X81849402Y-27303995D01*
X81881801Y-27287486D01*
X81290001Y-26695685D01*
X81290000Y-26695685D01*
X80698198Y-27287485D01*
X66641800Y-27287485D01*
X66180001Y-26825685D01*
X66180000Y-26825685D01*
X65588198Y-27417485D01*
X51821800Y-27417485D01*
X51460001Y-27055685D01*
X51460000Y-27055685D01*
X50868198Y-27647485D01*
X25360000Y-27647485D01*
X25360000Y-27447485D01*
X36058198Y-27447485D01*
X36150968Y-27494755D01*
X36345582Y-27557990D01*
X36547683Y-27590000D01*
X36752317Y-27590000D01*
X36954417Y-27557990D01*
X37149034Y-27494754D01*
X37150519Y-27493997D01*
X37150521Y-27493996D01*
X37241801Y-27447485D01*
X36650001Y-26855685D01*
X36650000Y-26855685D01*
X36058198Y-27447485D01*
X25360000Y-27447485D01*
X25360000Y-26187682D01*
X35350000Y-26187682D01*
X35350000Y-26392317D01*
X35382009Y-26594417D01*
X35445243Y-26789027D01*
X35445246Y-26789034D01*
X35492512Y-26881801D01*
X36084314Y-26290000D01*
X36084314Y-26289999D01*
X36031654Y-26237339D01*
X36250000Y-26237339D01*
X36250000Y-26342661D01*
X36277259Y-26444394D01*
X36329920Y-26535606D01*
X36404394Y-26610080D01*
X36495606Y-26662741D01*
X36597339Y-26690000D01*
X36702661Y-26690000D01*
X36804394Y-26662741D01*
X36895606Y-26610080D01*
X36970080Y-26535606D01*
X37022741Y-26444394D01*
X37050000Y-26342661D01*
X37050000Y-26289999D01*
X37215685Y-26289999D01*
X37215685Y-26290000D01*
X37807485Y-26881800D01*
X37854755Y-26789031D01*
X37917990Y-26594417D01*
X37950000Y-26392317D01*
X37950000Y-26387682D01*
X50160000Y-26387682D01*
X50160000Y-26592317D01*
X50192009Y-26794417D01*
X50255243Y-26989027D01*
X50255246Y-26989034D01*
X50302512Y-27081801D01*
X50894314Y-26490000D01*
X50894314Y-26489999D01*
X50841654Y-26437339D01*
X51060000Y-26437339D01*
X51060000Y-26542661D01*
X51087259Y-26644394D01*
X51139920Y-26735606D01*
X51214394Y-26810080D01*
X51305606Y-26862741D01*
X51407339Y-26890000D01*
X51512661Y-26890000D01*
X51614394Y-26862741D01*
X51705606Y-26810080D01*
X51780080Y-26735606D01*
X51832741Y-26644394D01*
X51860000Y-26542661D01*
X51860000Y-26489999D01*
X52025685Y-26489999D01*
X52025685Y-26490000D01*
X52617485Y-27081800D01*
X52664755Y-26989031D01*
X52727990Y-26794417D01*
X52760000Y-26592317D01*
X52760000Y-26387682D01*
X52727990Y-26185586D01*
X52727988Y-26185578D01*
X52718924Y-26157682D01*
X64880000Y-26157682D01*
X64880000Y-26362317D01*
X64912009Y-26564417D01*
X64975243Y-26759027D01*
X64975246Y-26759034D01*
X65022512Y-26851801D01*
X65614314Y-26260000D01*
X65614314Y-26259999D01*
X65561654Y-26207339D01*
X65780000Y-26207339D01*
X65780000Y-26312661D01*
X65807259Y-26414394D01*
X65859920Y-26505606D01*
X65934394Y-26580080D01*
X66025606Y-26632741D01*
X66127339Y-26660000D01*
X66232661Y-26660000D01*
X66334394Y-26632741D01*
X66425606Y-26580080D01*
X66500080Y-26505606D01*
X66552741Y-26414394D01*
X66580000Y-26312661D01*
X66580000Y-26259999D01*
X66745685Y-26259999D01*
X66745685Y-26260000D01*
X67337485Y-26851800D01*
X67384755Y-26759031D01*
X67447990Y-26564417D01*
X67480000Y-26362317D01*
X67480000Y-26157682D01*
X67461711Y-26042214D01*
X67459409Y-26027682D01*
X79990000Y-26027682D01*
X79990000Y-26232317D01*
X80022009Y-26434417D01*
X80085243Y-26629027D01*
X80085246Y-26629034D01*
X80132512Y-26721801D01*
X80724314Y-26130000D01*
X80724314Y-26129999D01*
X80671654Y-26077339D01*
X80890000Y-26077339D01*
X80890000Y-26182661D01*
X80917259Y-26284394D01*
X80969920Y-26375606D01*
X81044394Y-26450080D01*
X81135606Y-26502741D01*
X81237339Y-26530000D01*
X81342661Y-26530000D01*
X81444394Y-26502741D01*
X81535606Y-26450080D01*
X81610080Y-26375606D01*
X81662741Y-26284394D01*
X81690000Y-26182661D01*
X81690000Y-26129999D01*
X81855685Y-26129999D01*
X81855685Y-26130000D01*
X82447485Y-26721800D01*
X82494755Y-26629031D01*
X82557990Y-26434417D01*
X82590000Y-26232317D01*
X82590000Y-26197682D01*
X95300000Y-26197682D01*
X95300000Y-26402317D01*
X95332009Y-26604417D01*
X95395243Y-26799027D01*
X95395246Y-26799034D01*
X95442512Y-26891801D01*
X96034314Y-26300000D01*
X96034314Y-26299999D01*
X95981654Y-26247339D01*
X96200000Y-26247339D01*
X96200000Y-26352661D01*
X96227259Y-26454394D01*
X96279920Y-26545606D01*
X96354394Y-26620080D01*
X96445606Y-26672741D01*
X96547339Y-26700000D01*
X96652661Y-26700000D01*
X96754394Y-26672741D01*
X96845606Y-26620080D01*
X96920080Y-26545606D01*
X96972741Y-26454394D01*
X97000000Y-26352661D01*
X97000000Y-26299999D01*
X97165685Y-26299999D01*
X97165685Y-26300000D01*
X97757485Y-26891800D01*
X97804755Y-26799031D01*
X97867990Y-26604417D01*
X97900000Y-26402317D01*
X97900000Y-26197682D01*
X97897550Y-26182214D01*
X97895248Y-26167682D01*
X109930000Y-26167682D01*
X109930000Y-26372317D01*
X109962009Y-26574417D01*
X110025243Y-26769027D01*
X110025246Y-26769034D01*
X110072512Y-26861801D01*
X110664314Y-26270000D01*
X110664314Y-26269999D01*
X110611654Y-26217339D01*
X110830000Y-26217339D01*
X110830000Y-26322661D01*
X110857259Y-26424394D01*
X110909920Y-26515606D01*
X110984394Y-26590080D01*
X111075606Y-26642741D01*
X111177339Y-26670000D01*
X111282661Y-26670000D01*
X111384394Y-26642741D01*
X111475606Y-26590080D01*
X111550080Y-26515606D01*
X111602741Y-26424394D01*
X111630000Y-26322661D01*
X111630000Y-26269999D01*
X111795685Y-26269999D01*
X111795685Y-26270000D01*
X112387485Y-26861800D01*
X112434755Y-26769031D01*
X112497990Y-26574417D01*
X112530000Y-26372317D01*
X112530000Y-26177682D01*
X125020000Y-26177682D01*
X125020000Y-26382317D01*
X125052009Y-26584417D01*
X125115243Y-26779027D01*
X125115246Y-26779034D01*
X125162512Y-26871801D01*
X125754314Y-26280000D01*
X125754314Y-26279999D01*
X125701654Y-26227339D01*
X125920000Y-26227339D01*
X125920000Y-26332661D01*
X125947259Y-26434394D01*
X125999920Y-26525606D01*
X126074394Y-26600080D01*
X126165606Y-26652741D01*
X126267339Y-26680000D01*
X126372661Y-26680000D01*
X126474394Y-26652741D01*
X126565606Y-26600080D01*
X126640080Y-26525606D01*
X126692741Y-26434394D01*
X126720000Y-26332661D01*
X126720000Y-26279999D01*
X126885685Y-26279999D01*
X126885685Y-26280000D01*
X127477485Y-26871800D01*
X127524755Y-26779031D01*
X127587990Y-26584417D01*
X127620000Y-26382317D01*
X127620000Y-26207682D01*
X140000000Y-26207682D01*
X140000000Y-26412317D01*
X140032009Y-26614417D01*
X140095243Y-26809027D01*
X140095246Y-26809034D01*
X140142512Y-26901801D01*
X140734314Y-26310000D01*
X140734314Y-26309999D01*
X140681654Y-26257339D01*
X140900000Y-26257339D01*
X140900000Y-26362661D01*
X140927259Y-26464394D01*
X140979920Y-26555606D01*
X141054394Y-26630080D01*
X141145606Y-26682741D01*
X141247339Y-26710000D01*
X141352661Y-26710000D01*
X141454394Y-26682741D01*
X141545606Y-26630080D01*
X141620080Y-26555606D01*
X141672741Y-26464394D01*
X141700000Y-26362661D01*
X141700000Y-26309999D01*
X141865685Y-26309999D01*
X141865685Y-26310000D01*
X142457485Y-26901800D01*
X142504755Y-26809031D01*
X142567990Y-26614417D01*
X142600000Y-26412317D01*
X142600000Y-26207682D01*
X142567990Y-26005582D01*
X142504755Y-25810968D01*
X142457485Y-25718198D01*
X141865685Y-26309999D01*
X141700000Y-26309999D01*
X141700000Y-26257339D01*
X141672741Y-26155606D01*
X141620080Y-26064394D01*
X141545606Y-25989920D01*
X141454394Y-25937259D01*
X141352661Y-25910000D01*
X141247339Y-25910000D01*
X141145606Y-25937259D01*
X141054394Y-25989920D01*
X140979920Y-26064394D01*
X140927259Y-26155606D01*
X140900000Y-26257339D01*
X140681654Y-26257339D01*
X140142512Y-25718197D01*
X140095242Y-25810973D01*
X140095242Y-25810974D01*
X140032010Y-26005578D01*
X140032010Y-26005581D01*
X140000000Y-26207682D01*
X127620000Y-26207682D01*
X127620000Y-26177682D01*
X127587990Y-25975582D01*
X127524755Y-25780968D01*
X127477485Y-25688198D01*
X126885685Y-26279999D01*
X126720000Y-26279999D01*
X126720000Y-26227339D01*
X126692741Y-26125606D01*
X126640080Y-26034394D01*
X126565606Y-25959920D01*
X126474394Y-25907259D01*
X126372661Y-25880000D01*
X126267339Y-25880000D01*
X126165606Y-25907259D01*
X126074394Y-25959920D01*
X125999920Y-26034394D01*
X125947259Y-26125606D01*
X125920000Y-26227339D01*
X125701654Y-26227339D01*
X125162512Y-25688197D01*
X125115242Y-25780973D01*
X125115242Y-25780974D01*
X125052010Y-25975578D01*
X125052010Y-25975581D01*
X125020000Y-26177682D01*
X112530000Y-26177682D01*
X112530000Y-26167682D01*
X112497990Y-25965582D01*
X112434755Y-25770968D01*
X112387485Y-25678198D01*
X111795685Y-26269999D01*
X111630000Y-26269999D01*
X111630000Y-26217339D01*
X111602741Y-26115606D01*
X111550080Y-26024394D01*
X111475606Y-25949920D01*
X111384394Y-25897259D01*
X111282661Y-25870000D01*
X111177339Y-25870000D01*
X111075606Y-25897259D01*
X110984394Y-25949920D01*
X110909920Y-26024394D01*
X110857259Y-26115606D01*
X110830000Y-26217339D01*
X110611654Y-26217339D01*
X110072512Y-25678197D01*
X110025242Y-25770973D01*
X110025242Y-25770974D01*
X109962010Y-25965578D01*
X109962010Y-25965581D01*
X109930000Y-26167682D01*
X97895248Y-26167682D01*
X97867990Y-25995582D01*
X97804755Y-25800968D01*
X97757485Y-25708198D01*
X97165685Y-26299999D01*
X97000000Y-26299999D01*
X97000000Y-26247339D01*
X96972741Y-26145606D01*
X96920080Y-26054394D01*
X96845606Y-25979920D01*
X96754394Y-25927259D01*
X96652661Y-25900000D01*
X96547339Y-25900000D01*
X96445606Y-25927259D01*
X96354394Y-25979920D01*
X96279920Y-26054394D01*
X96227259Y-26145606D01*
X96200000Y-26247339D01*
X95981654Y-26247339D01*
X95442512Y-25708197D01*
X95395242Y-25800973D01*
X95395242Y-25800974D01*
X95332010Y-25995578D01*
X95332010Y-25995581D01*
X95300000Y-26197682D01*
X82590000Y-26197682D01*
X82590000Y-26027682D01*
X82557990Y-25825582D01*
X82494755Y-25630968D01*
X82447485Y-25538198D01*
X81855685Y-26129999D01*
X81690000Y-26129999D01*
X81690000Y-26077339D01*
X81662741Y-25975606D01*
X81610080Y-25884394D01*
X81535606Y-25809920D01*
X81444394Y-25757259D01*
X81342661Y-25730000D01*
X81237339Y-25730000D01*
X81135606Y-25757259D01*
X81044394Y-25809920D01*
X80969920Y-25884394D01*
X80917259Y-25975606D01*
X80890000Y-26077339D01*
X80671654Y-26077339D01*
X80132512Y-25538197D01*
X80085242Y-25630973D01*
X80085242Y-25630974D01*
X80022010Y-25825578D01*
X80022010Y-25825581D01*
X79990000Y-26027682D01*
X67459409Y-26027682D01*
X67447989Y-25955582D01*
X67384755Y-25760968D01*
X67337485Y-25668198D01*
X66745685Y-26259999D01*
X66580000Y-26259999D01*
X66580000Y-26207339D01*
X66552741Y-26105606D01*
X66500080Y-26014394D01*
X66425606Y-25939920D01*
X66334394Y-25887259D01*
X66232661Y-25860000D01*
X66127339Y-25860000D01*
X66025606Y-25887259D01*
X65934394Y-25939920D01*
X65859920Y-26014394D01*
X65807259Y-26105606D01*
X65780000Y-26207339D01*
X65561654Y-26207339D01*
X65022512Y-25668197D01*
X64975242Y-25760973D01*
X64975242Y-25760974D01*
X64912010Y-25955578D01*
X64912010Y-25955581D01*
X64880000Y-26157682D01*
X52718924Y-26157682D01*
X52664755Y-25990968D01*
X52617485Y-25898198D01*
X52025685Y-26489999D01*
X51860000Y-26489999D01*
X51860000Y-26437339D01*
X51832741Y-26335606D01*
X51780080Y-26244394D01*
X51705606Y-26169920D01*
X51614394Y-26117259D01*
X51512661Y-26090000D01*
X51407339Y-26090000D01*
X51305606Y-26117259D01*
X51214394Y-26169920D01*
X51139920Y-26244394D01*
X51087259Y-26335606D01*
X51060000Y-26437339D01*
X50841654Y-26437339D01*
X50302512Y-25898197D01*
X50255242Y-25990973D01*
X50255242Y-25990974D01*
X50192010Y-26185578D01*
X50192010Y-26185581D01*
X50160000Y-26387682D01*
X37950000Y-26387682D01*
X37950000Y-26187682D01*
X37917990Y-25985582D01*
X37854755Y-25790968D01*
X37807485Y-25698198D01*
X37215685Y-26289999D01*
X37050000Y-26289999D01*
X37050000Y-26237339D01*
X37022741Y-26135606D01*
X36970080Y-26044394D01*
X36895606Y-25969920D01*
X36804394Y-25917259D01*
X36702661Y-25890000D01*
X36597339Y-25890000D01*
X36495606Y-25917259D01*
X36404394Y-25969920D01*
X36329920Y-26044394D01*
X36277259Y-26135606D01*
X36250000Y-26237339D01*
X36031654Y-26237339D01*
X35492512Y-25698197D01*
X35445242Y-25790973D01*
X35445242Y-25790974D01*
X35382010Y-25985578D01*
X35382010Y-25985581D01*
X35350000Y-26187682D01*
X25360000Y-26187682D01*
X25360000Y-25132512D01*
X36058197Y-25132512D01*
X36650000Y-25724314D01*
X36650001Y-25724314D01*
X37041802Y-25332512D01*
X50868197Y-25332512D01*
X51460000Y-25924314D01*
X51460001Y-25924314D01*
X52051801Y-25332512D01*
X51959034Y-25285246D01*
X51959027Y-25285243D01*
X51891951Y-25263449D01*
X51764417Y-25222009D01*
X51562317Y-25190000D01*
X51357683Y-25190000D01*
X51155581Y-25222010D01*
X51155578Y-25222010D01*
X50960974Y-25285242D01*
X50960973Y-25285242D01*
X50868197Y-25332512D01*
X37041802Y-25332512D01*
X37086477Y-25287837D01*
X37241801Y-25132512D01*
X37182921Y-25102512D01*
X65588197Y-25102512D01*
X66180000Y-25694314D01*
X66180001Y-25694314D01*
X66771801Y-25102512D01*
X66679034Y-25055246D01*
X66679027Y-25055243D01*
X66484417Y-24992009D01*
X66361316Y-24972512D01*
X80698197Y-24972512D01*
X81290000Y-25564314D01*
X81290001Y-25564314D01*
X81711802Y-25142512D01*
X96008197Y-25142512D01*
X96600000Y-25734314D01*
X96600001Y-25734314D01*
X97191800Y-25142513D01*
X97191800Y-25142512D01*
X97132921Y-25112512D01*
X110638197Y-25112512D01*
X111230000Y-25704314D01*
X111230001Y-25704314D01*
X111811801Y-25122512D01*
X125728197Y-25122512D01*
X126320000Y-25714314D01*
X126320001Y-25714314D01*
X126881801Y-25152512D01*
X140708197Y-25152512D01*
X141300000Y-25744314D01*
X141300001Y-25744314D01*
X141891801Y-25152512D01*
X141799034Y-25105246D01*
X141799027Y-25105243D01*
X141604417Y-25042009D01*
X141402317Y-25010000D01*
X141197683Y-25010000D01*
X140995581Y-25042010D01*
X140995578Y-25042010D01*
X140800974Y-25105242D01*
X140800973Y-25105242D01*
X140708197Y-25152512D01*
X126881801Y-25152512D01*
X126911801Y-25122512D01*
X126819034Y-25075246D01*
X126819027Y-25075243D01*
X126624417Y-25012009D01*
X126422317Y-24980000D01*
X126217683Y-24980000D01*
X126015581Y-25012010D01*
X126015578Y-25012010D01*
X125820974Y-25075242D01*
X125820973Y-25075242D01*
X125728197Y-25122512D01*
X111811801Y-25122512D01*
X111821801Y-25112512D01*
X111729034Y-25065246D01*
X111729027Y-25065243D01*
X111534417Y-25002009D01*
X111332317Y-24970000D01*
X111127683Y-24970000D01*
X110925581Y-25002010D01*
X110925578Y-25002010D01*
X110730974Y-25065242D01*
X110730973Y-25065242D01*
X110638197Y-25112512D01*
X97132921Y-25112512D01*
X97099034Y-25095246D01*
X97099027Y-25095243D01*
X96904417Y-25032009D01*
X96702317Y-25000000D01*
X96497683Y-25000000D01*
X96295581Y-25032010D01*
X96295578Y-25032010D01*
X96100974Y-25095242D01*
X96100973Y-25095242D01*
X96008197Y-25142512D01*
X81711802Y-25142512D01*
X81756477Y-25097837D01*
X81881801Y-24972512D01*
X81789034Y-24925246D01*
X81789027Y-24925243D01*
X81594417Y-24862009D01*
X81392317Y-24830000D01*
X81187683Y-24830000D01*
X80985581Y-24862010D01*
X80985578Y-24862010D01*
X80790974Y-24925242D01*
X80790973Y-24925242D01*
X80698197Y-24972512D01*
X66361316Y-24972512D01*
X66282317Y-24960000D01*
X66077683Y-24960000D01*
X65875581Y-24992010D01*
X65875578Y-24992010D01*
X65680974Y-25055242D01*
X65680973Y-25055242D01*
X65588197Y-25102512D01*
X37182921Y-25102512D01*
X37149034Y-25085246D01*
X37149027Y-25085243D01*
X36954417Y-25022009D01*
X36752317Y-24990000D01*
X36547683Y-24990000D01*
X36345581Y-25022010D01*
X36345578Y-25022010D01*
X36150974Y-25085242D01*
X36150973Y-25085242D01*
X36058197Y-25132512D01*
X25360000Y-25132512D01*
X25360000Y-23823847D01*
X25379685Y-23756808D01*
X25432489Y-23711053D01*
X25484027Y-23699847D01*
X158772320Y-23729989D01*
G37*
%TD.AperFunction*%
%TD*%
M02*
